<svg xmlns="http://www.w3.org/2000/svg" viewBox="0 0 23 25">
    <g fill="none" fill-rule="evenodd">
        <path stroke="#FFF" stroke-linecap="square" stroke-width="2" d="M17.85 10.435v-3.13C17.85 3.27 14.56 0 10.5 0S3.15 3.27 3.15 7.304v3.13c0 3.444-3.15 4.279-3.15 6.262 0 1.774 4.095 3.13 10.5 3.13S21 18.47 21 16.696c0-1.983-3.15-2.818-3.15-6.261z" transform="translate(1 1)"/>
        <path fill="#FFF" d="M10.5 21.913c-1.062 0-2.059-.035-2.998-.104.411 1.302 1.625 2.188 2.998 2.188 1.373 0 2.587-.886 2.998-2.188-.939.069-1.936.104-2.998.104z" transform="translate(1 1)"/>
    </g>
</svg>
