<svg xmlns="http://www.w3.org/2000/svg" xmlns:xlink="http://www.w3.org/1999/xlink" viewBox="0 0 364 294">
    <defs>
        <path id="prefix__a" d="M272 74h-90.107C177.23 65.179 171.166 57.232 164 50.46 175.631 37.29 192.55 29 211.385 29 239.838 29 263.92 47.922 272 74z"/>
    </defs>
    <g fill="none" fill-rule="evenodd">
        <path fill="#8290FF" d="M364 122.502C364 190.152 309.159 245 241.5 245 173.846 245 119 190.153 119 122.502 119 54.845 173.846 0 241.5 0 309.159 0 364 54.845 364 122.502" opacity=".072"/>
        <path fill="#3E3874" d="M286.747 247.036c9.844 2.955 20.58 5.019 30.666 4.963 31.886-.174 16.124-18.853 2.307-21.71 6.957-.481 32.924.769 31.861-3.492-.893-3.536-9.167-8.554-11.594-7.863 8.78-2.923 22.247-3.621 22.996-14.347.76-10.912-24.047.917-27.973 2.848 4.71-9.125 6.643-19.043-12.259-6.557-6.389 4.224-13.479 12.11-17.331 17.269-7.948 10.636-21.861 21.781-33.42 27.577l14.747 1.312"/>
        <path fill="#A2B2FF" d="M21.19 152C16.564 141.178 14 129.26 14 116.747 14 67.182 54.195 27 103.778 27c17.326 0 33.503 4.904 47.222 13.403-9.234 9.97-16.833 21.475-22.375 34.088H62.923c-3.578 0-6.478 2.911-6.478 6.486v31.768C40.583 121.29 28.027 135.178 21.191 152" opacity=".296"/>
        <path fill="#3E3874" d="M170 179.5c0 42.801-34.7 77.5-77.501 77.5C49.696 257 15 222.301 15 179.5S49.696 102 92.499 102C135.3 102 170 136.699 170 179.5"/>
        <path fill="#FFD68C" d="M143 41c0 12.703-10.297 23-23 23-12.704 0-23-10.297-23-23s10.296-23 23-23c12.703 0 23 10.297 23 23M89.353 196C48.878 172.718 46.028 74.025 46 73.031L47.304 73c.028.985 2.85 98.946 42.696 121.87l-.647 1.13"/>
        <path fill="#2A2B7C" d="M75.042 179.569C75 180 79.387 156.666 90.333 158.06 101.277 159.46 75 180 75 180l.042-.431M66 168s9.272-26.351 17.403-21.374C91.53 151.597 66 168 66 168M61 154s12.375-28.864 22.716-21.922C91.546 137.33 61 154 61 154"/>
        <path fill="#FFD68C" d="M54 127s9.202-27.617 17.384-20.966C79.568 112.69 54 127 54 127"/>
        <path fill="#2A2B7C" d="M55 138s15.67-26.039 21.58-17.15C80.553 126.83 55 138 55 138"/>
        <path fill="#FFD68C" d="M51 110s10.554-31.63 18.508-23.735C77.465 94.156 51 110 51 110M48 89s6.291-26.233 11.096-18.61C63.898 78.004 48 89 48 89M47.297 81s-11.75-23.881-3.149-24c8.598-.119 3.15 24 3.15 24M48 90s-24.458-6.897-17.875-14.429C36.704 68.045 48 90 48 90M49 105s-28.804-6.857-25.777-16.787C26.259 78.281 49 105 49 105M52 119s-39.19-7.686-33.42-17.793C24.345 91.097 52 119 52 119M56 134s-43.69-3.078-40.869-14.964C17.953 107.15 56 134 56 134"/>
        <path fill="#2A2B7C" d="M62 156.833s-39.145-13.552-41.879-2.485C17.384 165.403 62 156.833 62 156.833"/>
        <path fill="#FFD68C" d="M56 143.042s-32.91-17.397-36.745-6.395C15.427 147.651 56 143.042 56 143.042M66.317 165.596s-35.675-8.107-33.193 4.332C35.609 182.367 67 168.012 67 168.012l-.683-2.416M301.124 58.4c-6.289 4.486-15.029 3.022-19.524-3.274-4.484-6.296-3.025-15.037 3.276-19.525 6.3-4.488 15.04-3.022 19.524 3.274 4.484 6.295 3.025 15.036-3.276 19.524z"/>
        <path fill="#A2B2FF" d="M248 32c0 11.598-9.4 21-21 21-11.598 0-21-9.402-21-21 0-11.6 9.402-21 21-21 11.6 0 21 9.4 21 21" opacity=".296"/>
        <path fill="#A2B2FF" d="M30.994 221.546c-3.462-2.793-7.205-5.438-8.176-10.18-1.344-6.572 2.83-6.75 6.16-11.815-9.056-4.844-17.415-6.234-22.915-16.66-5.419-10.27.911-16.794 11.451-14.404 1.447.327-7.66-7.968-9.217-9.384-3.436-3.135-5.963-7.791-7.33-12.177-2.48-7.944-.517-18.049 9.716-17.926 8.868.11 12.202 9.95 15.142 16.91 1.32 3.123 2.8 7.091 3.384 10.533 4.835-3.38 7.052-10.066 13.182-4.737 4.276 3.72 4.924 12.482 2.418 17.233 6.952.064 10.864-1.387 16.213 3.454 3.455 3.13 6.759 8.398 8.881 12.984C74.736 195.818 81.293 233.727 82 246c0 0-43.77-18.607-51.006-24.454"/>
        <path fill="#FFD68C" d="M314.986 182.142c-.061-10.737 4.06-23.928 8.913-34.145 3.289-6.91 13.046-24.531 22.778-23.985 10.906.617 7.19 21.735 4.28 28.43-4.268 9.829-11.322 17.11-19.086 24.535-7.373 7.04-13.633 15.336-20.871 22.023l3.986-16.858"/>
        <path fill="#FFD68C" d="M293.782 207.126c5.235-9.458 15.304-19.048 24.56-25.673 6.267-4.48 23.406-15.25 31.58-10.08 9.159 5.797-4.482 22.542-10.3 27.016-8.55 6.568-18.268 9.559-28.665 12.334-9.85 2.631-19.386 6.892-28.957 9.277l11.782-12.874"/>
        <path fill="#A2B2FF" d="M295.823 191.376c-6.59-10.341-17.38-14.735-12.667-29.405 1.89-5.865 7.249-9.914 9.82-15.171 3.218-6.564.718-7.535-.107-14.06-1.794-14.069 9.305-18.04 15.968-29.503 4.653-7.995 3.576-16.766 9.724-25.332 6.244-8.704 17.655-17.007 20.167-26.905 1.172 17.005 13.815 42.127-2.668 58.088 9.545 4.395 11.076 14.645 6.352 23.24-2.25 4.102-9.33 7.791-10.706 12.024-1.854 5.781 2.417 5.583 2.835 10.453 1.328 15.462-54.973 42.921-40.715 57.195l1.997-20.624"/>
        <path fill="#DAEAFD" d="M313 97v-.038c.239-.808.454-1.62.657-2.435v.002c-.215.828-.418 1.652-.657 2.471m32-18.178c-.036-.274-.084-.548-.12-.822.048.272.084.546.12.82v.002"/>
        <path fill="#FFF" d="M339.44 51.709l.12-.418-.12.418"/>
        <path fill="#DAEAFD" d="M337 57c0-.004 0-.01.015-.013 1.288-1.942 2.333-3.934 2.985-5.987-.652 2.056-1.697 4.052-3 6"/>
        <path fill="#FFF" d="M339.53 51.831c-.01-.005-.01-.008-.01-.013-.02-.218-.04-.434-.05-.65l.06.663"/>
        <path fill="#DAEAFD" d="M339.495 51.53v-.06c0 .005 0 .008.01.013v.012c0 .011 0 .023-.01.035"/>
        <path fill="#8190BF" d="M346.475 126.656c.02-.105.03-.208.05-.313-.02.105-.03.21-.05.313"/>
        <path fill="#8290FF" d="M185.113 270c.101-.603.081-1.278-.09-2.034-.062.002-.126.004-.192.004-.452 0-.964-.065-1.484-.13-.517-.064-1.042-.128-1.52-.128-.252 0-.49.018-.708.063 2.386-.955 3.93-2.44 4.914-4.256H307.07c2.243 0 4.21-1.147 5.38-2.892 5.523.749 8.551 1.558 8.551 2.404 0 3.797-60.55 6.886-135.887 6.969m-12.139-.013C100.404 269.754 43 266.727 43 263.03c0-1.087 4.995-2.116 13.897-3.031 1.078 2.093 3.243 3.52 5.739 3.52H175.08c-.236.759-.442 1.54-.645 2.228-.472 1.606-.899 2.993-1.462 4.239" opacity=".072"/>
        <path fill="#637ABE" d="M313 80.445v177.11c0 3.565-2.903 6.445-6.468 6.445H62.457C58.89 264 56 261.12 56 257.555V80.445C56 76.892 58.89 74 62.457 74h244.075c3.565 0 6.468 2.892 6.468 6.445"/>
        <path fill="#FDFDFF" d="M294 251.933c0 3.35-2.496 6.067-5.567 6.067H79.566C76.49 258 74 255.284 74 251.933V85.067C74 81.717 76.49 79 79.566 79h208.867c3.071 0 5.567 2.716 5.567 6.067v166.866"/>
        <path fill="#8290FF" d="M288.433 79H79.566C76.49 79 74 81.756 74 85.157V97h220V85.157c0-3.4-2.496-6.157-5.567-6.157"/>
        <path fill="#A2B2FF" d="M230.21 141L284 131.215 277.791 96 224 105.788 230.21 141"/>
        <path fill="#D9E0FF" d="M232 141L254.429 119 283 131.744 232 141"/>
        <path fill="#BDC4FD" d="M277 96L255.642 127 225 105.433 277 96M107 191.274L212.532 192 213 124.718 107.459 124 107 191.274"/>
        <path fill="#D9E0FF" d="M110 192.307L160.232 159 210 193 110 192.307"/>
        <path fill="#A2B2FF" d="M212 125.702L160.637 176 110 125 212 125.702"/>
        <path fill="#8290FF" d="M93.001 294C65.935 294 44 291.536 44 288.493 44 285.457 65.935 283 93.001 283c27.064 0 48.999 2.457 48.999 5.493 0 3.043-21.935 5.507-48.999 5.507" opacity=".072"/>
        <path fill="#FEC290" d="M116.06 159.059c-.266-.318-.52-.722-.757-1.224-1.317-2.802 1.996-6.098 3.483-7.972 1.778-2.233 2.922-4.279 4.073-6.89.52-1.176 1.079-4.277 2.133-4.85.598.552-.655 4.607 1.281 2.074 1.473-1.927 4.151-5.427 4.924-5.185.771.245-1.988 3.154-1.6 3.751.393.595 3.686-3.328 4.138-2.86.441.464-2.924 3.607-2.534 4.095.674.841 2.472-2.12 3.058-1.647.583.473-1.676 2.232-2.132 3.46 1.114.428 2.702-2.159 2.868-.872.163 1.289-3.967 3.026-5.189 4.145-2.24 2.04-4.03 4.674-5.135 7.525-.907 2.344-5.585 10.046-8.611 6.45M58 206.409c-.809 2.7-1.682 5.608-3.685 7.737.116-1.29.484-.967-.739-2.765-1.22-1.799-6.77 6.572-8.327 6.619-1.554.043 4.556-11.027 7.856-13L58 206.409"/>
        <path fill="orange" d="M70.694 165.06c-4.681-1.322-10.636 19.854-11.546 23.019-1.864 6.49-5.847 13.093-7.148 19.42 2.53.728 3.438.544 5.83 1.501 3.282-7.634 5.757-10.546 7.573-16.307 1.306-4.153 3.603-8.472 5.597-12.493l-.306-15.14"/>
        <path fill="#FEC290" d="M78.546 153c3.097 3.55 0 11.902-1.546 15.973 2.543-.305 5.312-.79 7.83.027.338-5.005.068-11.922 1.17-15.483L78.546 153"/>
        <path fill="#2E3054" d="M102.854 289c2.134-.118 13.437-2.922 9.206-5.237-2.78-1.518-8.575-.572-11.06 1.1l1.854 4.137"/>
        <path fill="#FEC290" d="M99.707 273.002c-.833.03-1.803.403-2.914 1.23-4.039 2.999-.266 9.127 1.69 12.18 2.063 3.213 10.615 4.08 10.516-1.182-.013-1.035-4.886-.21-5.431-.136 1.391-.186 1.15-12.285-3.861-12.092M74.633 291c3.368-.837 9.663-1.394 11.367-4.808-2.689-.704-4.277-.81-6.792.12.292-.109-.97-6.968-1.03-7.637-.25-2.898-.415-5.801-.468-8.71-.11-6.16-10.41 2.516-3.077 21.035"/>
        <path fill="orange" d="M92.12 165.19c.265.009.54.036.806.089 2.476.494 3.182 1.649 3.061 4.14-.415 8.264-2.685 16.777-3.903 24.926-.692 4.665 2.442 7.866.1 12.057-1.673 2.99-6.616 5.23-9.782 5.528-3.967.375-8.374-.755-11.373-3.434-3.722-3.324-3.205-8.516-3.205-13.053 0-7.705-1.517-14.6-.435-22.346.425-3.028-.023-6.489 2.446-8.732 3.754-3.413 10.739-2.533 15.145-1.074 1.41.468 2.675 1.446 4.127 1.786 1.024.24 2.014.069 3.012.113"/>
        <path fill="#3E3874" d="M91.824 196.357L105 282.7l-9.336.523-17.458-55.555 1.388 56.594-9.34 1.738s-6.44-39.752-6.22-52.43c.221-12.674-1.238-30.051 3.854-37.57 0 0 16.867 4.583 23.936.357"/>
        <path fill="#FEC290" d="M79.981 155.475c1.216 5.609 10.286 3.662 11.823.123 2.954-6.807-.495-12.03-.495-12.03-1.72-5.388-3.28-6.33-7.39-6.568 0 0-7.556 1.894-3.938 18.475"/>
        <path fill="#2E3054" d="M74 288.51c.06.178 4.313-.434 4.678-.522.677-.168 2.857-1.884 1.08-2.089 1.59-1.455 6.532-.986 8.165.284 1.248.966-13.07 4.817-13.07 4.817-.3-.811-.584-1.645-.853-2.49"/>
        <path fill="#3E3874" d="M89.104 143.322c-1.913 3.72-2.846 16.565-9.447 14.443-5.013-1.61-4.086-14.066-1.867-17.763 1.836-3.061 12.46-4.36 14.478-1.091 2.563 4.146-2.366 2.858-3.164 4.411"/>
        <path fill="orange" d="M125.997 149.376c.225 3.374-12.12 17.448-12.12 17.448s-15.5 11.154-21.63 14.176c.07-3.737-1.306-9.096-3.247-12.156 5.856-3.04 20.844-9.29 20.844-9.29S119.27 148.718 121.34 146c.903.558 4.657 3.376 4.657 3.376"/>
        <path fill="#2E3054" d="M111 284c-2.914 3.434-7.882 2.792-11.788 2.436-1.698 6.027 7.272 2.992 10.026 1.127L111 284"/>
        <path fill="#A2B2FF" d="M265.155 230L193 215.552 201.854 172 274 186.445 265.155 230"/>
        <path fill="#BDC4FD" d="M263 231L232.915 202 194 217.008 263 231"/>
        <path fill="#D9E0FF" d="M203 172L231.345 213 273 186.459 203 172"/>
        <path fill="#4E68BC" d="M294 181L294 149.302 312 146 312 177.697 294 180.999 294 181"/>
        <path fill="#A2B2FF" d="M286.753 176L335 167.079 329.247 136 281 144.921 286.753 176"/>
        <path fill="#BDC4FD" d="M287 175L307.139 156 333 166.8 287 175"/>
        <path fill="#D9E0FF" d="M328 135L308.835 163 281 143.756 328 135"/>
        <path fill="#FFD68C" d="M172.372 275.501c3.99-.03 13.511-.409 12.08-6.938-.48.023-1.047-.05-1.622-.124-.763-.097-1.544-.195-2.155-.065 6.623-2.705 6.539-9.733 6.207-16.374-2.934 1.986-6.51 6.166-7.314 9.913-3.54-3.53-4.473 1.396-5.358 4.46-1.232 4.282-2.15 6.995-6.21 9.627l4.372-.499"/>
        <path fill="#8290FF" d="M169.998 277c-7.728 0-13.998-.898-13.998-2.001 0-1.102 6.27-1.999 13.998-1.999l.495.001c-.826.886-1.89 1.708-3.339 2.523l4.54-.45c2.34-.015 6.516-.13 9.437-1.288 1.8.337 2.869.758 2.869 1.213 0 1.103-6.268 2.001-14.002 2.001" opacity=".072"/>
        <path fill="#A2B2FF" d="M170.125 277c-1.144-.363 4.867-15.543 4.875-16.994.019-6.71-3.94-8.084-5.26-.818 1.609-6.386.243-19.297-5.884-23.188-3.648 2.925-3.126 9.316-2.103 13.483 1.213 4.965 3.844 26.07 8.372 27.517"/>
        <path fill="#FFD68C" d="M168.455 272.744c-3.246-10.316-4.8-20.82-18.446-19.655-.252 4.92 4.668 7.428 8.443 8.968-2.996-.456-5.34 1.128-3.637 3.808 1.281 2.01 6.067 2.091 8.027 2.48-4.776 3.108 3.671 6.281 6.158 6.655l-.545-2.256"/>
        <path fill="#FFF" d="M81 85L93 85 93 83 81 83zM81 90L93 90 93 88 81 88zM81 94L93 94 93 92 81 92zM284.5 85c-.829 0-1.5-.671-1.5-1.5s.671-1.5 1.5-1.5 1.5.671 1.5 1.5-.671 1.5-1.5 1.5M284.5 89c-.829 0-1.5-.669-1.5-1.5 0-.827.671-1.5 1.5-1.5s1.5.673 1.5 1.5c0 .831-.671 1.5-1.5 1.5M284.5 94c-.829 0-1.5-.672-1.5-1.5s.671-1.5 1.5-1.5 1.5.672 1.5 1.5-.671 1.5-1.5 1.5M268.004 91c-1.07 0-2.08-.417-2.828-1.172-1.568-1.558-1.568-4.099 0-5.657.749-.755 1.759-1.171 2.828-1.171 1.07 0 2.067.416 2.828 1.17 1.413 1.415 1.544 3.638.392 5.201l-.392-.393c-.12-.116-.274-.175-.428-.175-.155 0-.309.059-.428.175-.226.235-.226.615 0 .85l.392.393c-.677.506-1.497.779-2.364.779m0-6.8c-.749 0-1.461.29-1.984.82-1.093 1.09-1.093 2.868 0 3.958.534.529 1.26.794 1.984.794.725 0 1.45-.264 1.972-.794 1.093-1.09 1.093-2.867 0-3.958-.523-.53-1.224-.82-1.972-.82"/>
        <path fill="#FFF" d="M273.466 93c-.14 0-.278-.053-.385-.16l-2.576-2.566-.353-.354c-.203-.211-.203-.552 0-.763.107-.105.246-.157.385-.157s.278.052.385.157l2.918 2.924c.213.21.213.55 0 .76-.097.106-.235.159-.374.159"/>
        <path fill="#8290FF" d="M280.006 280c-11.038 0-20.006-1.12-20.006-2.501 0-1.38 8.968-2.499 20.006-2.499S300 276.12 300 277.499c0 1.38-8.956 2.501-19.994 2.501M232.504 291c-21.258 0-38.504-1.793-38.504-4 0-2.21 17.246-4 38.504-4 21.264 0 38.496 1.79 38.496 4 0 2.207-17.232 4-38.496 4" opacity=".072"/>
    </g>
</svg>
