<svg xmlns="http://www.w3.org/2000/svg" xmlns:xlink="http://www.w3.org/1999/xlink"  viewBox="0 0 397 321">
    <defs>
        <path id="prefix__a" d="M297 81h-98.45c-5.095-9.605-11.721-18.259-19.55-25.633C191.708 41.027 210.193 32 230.772 32c31.088 0 57.4 20.604 66.228 49z"/>
    </defs>
    <g fill="none" fill-rule="evenodd">
        <path fill="#FFF" d="M397 134.002C397 208.004 337.234 268 263.5 268 189.77 268 130 208.004 130 134.002 130 59.994 189.77 0 263.5 0 337.234 0 397 59.994 397 134.002" opacity=".549"/>
        <path fill="#3E3874" d="M313.044 269.6c10.708 3.215 22.39 5.46 33.361 5.399 34.69-.19 17.542-20.506 2.51-23.615 7.568-.523 35.819.837 34.662-3.798-.972-3.846-9.973-9.304-12.614-8.552 9.553-3.18 24.204-3.94 25.018-15.606.828-11.869-26.16.998-30.431 3.098 5.124-9.926 7.227-20.714-13.337-7.132-6.95 4.594-14.664 13.17-18.855 18.783-8.646 11.57-23.783 23.692-36.358 29.997l16.044 1.426"/>
        <path fill="#FFF" d="M22.82 166C17.787 154.226 15 141.26 15 127.644 15 73.718 58.716 30 112.642 30c18.844 0 36.437 5.336 51.358 14.583-10.043 10.847-18.307 23.364-24.335 37.087H68.208c-3.89 0-7.045 3.167-7.045 7.057v34.563C43.911 132.587 30.256 147.698 22.82 166" opacity=".861"/>
        <path fill="#3E3874" d="M185 195.5c0 46.667-37.834 84.5-84.501 84.5C53.83 280 16 242.167 16 195.5S53.83 111 100.499 111C147.166 111 185 148.833 185 195.5"/>
        <path fill="#FFD68C" d="M156 45c0 13.807-11.193 25-25 25-13.808 0-25-11.193-25-25s11.192-25 25-25c13.807 0 25 11.193 25 25M97.294 214C53.14 188.636 50.03 81.117 50 80.034L51.422 80c.03 1.074 3.11 107.795 46.578 132.77l-.706 1.23"/>
        <path fill="#2A2B7C" d="M82.046 196.53c-.046.47 4.829-24.986 16.991-23.464C111.197 174.593 82 197 82 197l.046-.47M72 183s10.248-28.747 19.235-23.318C100.215 165.106 72 183 72 183M67 168s13.406-31.374 24.61-23.829C100.091 149.881 67 168 67 168"/>
        <path fill="#FFD68C" d="M59 139s10.171-30.128 19.214-22.872C87.26 123.388 59 139 59 139"/>
        <path fill="#2A2B7C" d="M60 151s17.094-28.78 23.543-18.956C87.875 138.655 60 151 60 151"/>
        <path fill="#FFD68C" d="M56 120s11.609-34.16 20.359-25.633C85.112 102.889 56 120 56 120M52 97s6.816-28.857 12.021-20.472C69.223 84.905 52 97 52 97M52.085 88s-13.22-25.871-3.543-26c9.673-.129 3.543 26 3.543 26M52 98s-27.032-7.328-19.757-15.33C39.515 74.672 52 98 52 98M53 115s-31.02-7.579-27.76-18.554C28.51 85.468 53 115 53 115M57 130s-42.648-8.454-36.369-19.572C26.904 99.306 57 130 57 130M61 146s-47.953-3.42-44.856-16.627C19.242 116.167 61 146 61 146"/>
        <path fill="#2A2B7C" d="M68 171.516s-42.873-14.907-45.867-2.734C19.134 180.944 68 171.516 68 171.516"/>
        <path fill="#FFD68C" d="M61 155.955s-35.578-18.978-39.725-6.976C17.137 160.983 61 155.955 61 155.955M72.257 180.812s-38.823-8.782-36.122 4.693C38.839 198.981 73 183.43 73 183.43l-.743-2.618M328.495 64.12c-6.963 4.969-16.64 3.347-21.617-3.623-4.964-6.97-3.349-16.648 3.627-21.617 6.976-4.97 16.653-3.346 21.617 3.624 4.964 6.97 3.349 16.648-3.627 21.617z"/>
        <path fill="#A2B2FF" d="M271 35c0 12.703-10.296 23-23 23-12.703 0-23-10.297-23-23 0-12.704 10.297-23 23-23 12.704 0 23 10.296 23 23" opacity=".822"/>
        <path fill="#A2B2FF" d="M33.64 242.247c-3.757-3.056-7.82-5.95-8.874-11.137-1.46-7.19 3.072-7.386 6.685-12.926-9.829-5.3-18.9-6.82-24.87-18.227-5.882-11.235.989-18.372 12.429-15.758 1.57.358-8.315-8.717-10.004-10.266-3.73-3.43-6.472-8.524-7.957-13.321-2.69-8.691-.56-19.746 10.546-19.612 9.625.12 13.244 10.885 16.435 18.5 1.433 3.417 3.039 7.758 3.672 11.523 5.248-3.697 7.655-11.012 14.308-5.182 4.64 4.07 5.344 13.656 2.625 18.853 7.545.07 11.79-1.518 17.596 3.779 3.75 3.424 7.336 9.187 9.64 14.205C81.116 214.1 88.232 255.574 89 269c0 0-47.507-20.357-55.36-26.753"/>
        <path fill="#FFD68C" d="M343.357 198.569c-.067-11.74 4.436-26.161 9.742-37.332 3.595-7.556 14.26-26.821 24.897-26.223 11.92.673 7.858 23.763 4.677 31.083-4.664 10.746-12.375 18.706-20.86 26.825-8.06 7.696-14.902 16.767-22.813 24.078l4.357-18.431"/>
        <path fill="#FFD68C" d="M320.778 225.839c5.677-10.404 16.597-20.953 26.635-28.241 6.797-4.928 25.384-16.774 34.25-11.087 9.931 6.376-4.862 24.795-11.171 29.717-9.274 7.225-19.812 10.514-31.088 13.567C328.72 232.69 318.38 237.376 308 240l12.778-14.161"/>
        <path fill="#A2B2FF" d="M322.14 209.454c-7.219-11.304-19.035-16.107-13.874-32.144 2.07-6.412 7.94-10.838 10.756-16.585 3.524-7.175.786-8.237-.118-15.369-1.965-15.38 10.192-19.722 17.489-32.252 5.096-8.74 3.917-18.328 10.65-27.692C353.882 75.896 366.38 66.82 369.13 56c1.284 18.59 15.131 46.052-2.921 63.5 10.454 4.805 12.13 16.01 6.956 25.406-2.463 4.484-10.218 8.516-11.725 13.144-2.03 6.32 2.647 6.102 3.105 11.426 1.454 16.903-60.209 46.92-44.593 62.524l2.188-22.546"/>
        <path fill="#DAEAFD" d="M341 106v-.042c.261-.894.496-1.79.718-2.691v.002c-.235.915-.457 1.825-.718 2.731m35-20.092c-.04-.302-.091-.606-.13-.908.052.301.09.603.13.907v.001"/>
        <path fill="#FFF" d="M370.44 56.709l.12-.418-.12.418"/>
        <path fill="#DAEAFD" d="M368 62c0-.005 0-.011.015-.016 1.288-2.265 2.333-4.588 2.985-6.984-.652 2.399-1.697 4.727-3 7"/>
        <path fill="#FFF" d="M370.53 56.831c-.01-.005-.01-.008-.01-.013-.02-.218-.04-.434-.05-.65l.06.663"/>
        <path fill="#DAEAFD" d="M370.495 56.53v-.06c0 .005 0 .008.01.013v.012c0 .011 0 .023-.01.035"/>
        <path fill="#8190BF" d="M377.475 138.656c.02-.105.03-.208.05-.313-.02.105-.03.21-.05.314"/>
        <path fill="#8290FF" d="M201.893 295c.11-.663.088-1.406-.097-2.237-.069.002-.138.004-.21.004-.493 0-1.05-.071-1.618-.142-.564-.071-1.135-.142-1.656-.142-.275 0-.534.02-.772.07 2.6-1.05 4.283-2.684 5.356-4.682h131.92c2.445 0 4.588-1.261 5.863-3.181 6.021.823 9.321 1.714 9.321 2.644 0 4.177-65.996 7.575-148.107 7.666m-13.23-.015C109.566 294.73 47 291.401 47 287.335c0-1.197 5.444-2.328 15.146-3.335 1.175 2.302 3.535 3.871 6.255 3.871H190.96c-.258.836-.482 1.695-.703 2.452-.514 1.766-.98 3.292-1.594 4.662" opacity=".072"/>
        <path fill="#637ABE" d="M341 88.021V280.98c0 3.883-3.162 7.021-7.047 7.021H68.035c-3.886 0-7.035-3.138-7.035-7.021V88.02C61 84.151 64.15 81 68.035 81h265.918c3.885 0 7.047 3.151 7.047 7.021"/>
        <path fill="#FDFDFF" d="M321 274.39c0 3.65-2.722 6.61-6.073 6.61H87.072c-3.356 0-6.072-2.96-6.072-6.61V92.61c0-3.65 2.716-6.61 6.072-6.61h227.855c3.35 0 6.073 2.96 6.073 6.61v181.78"/>
        <path fill="#8290FF" d="M314.927 86H87.072C83.716 86 81 89.063 81 92.841V106h240V92.841c0-3.778-2.722-6.841-6.073-6.841"/>
        <path fill="#A2B2FF" d="M251.728 154L310 143.345 303.274 105 245 115.659 251.728 154"/>
        <path fill="#D9E0FF" d="M253 154L277.628 130 309 143.902 253 154"/>
        <path fill="#BDC4FD" d="M302 105L278.589 139 245 115.346 302 105M117 209.21L232.487 210 233 136.782 117.502 136 117 209.21"/>
        <path fill="#D9E0FF" d="M120 210.245L174.752 174 229 211 120 210.245"/>
        <path fill="#A2B2FF" d="M231 136.77L175.105 192 120 136 231 136.77"/>
        <path fill="#8290FF" d="M101.501 321C71.95 321 48 318.312 48 314.992 48 311.68 71.95 309 101.501 309c29.55 0 53.499 2.68 53.499 5.992 0 3.32-23.95 6.008-53.499 6.008" opacity=".072"/>
        <path fill="#FEC290" d="M126.166 173.983c-.292-.343-.572-.779-.833-1.32-1.448-3.027 2.196-6.587 3.831-8.611 1.956-2.412 3.215-4.621 4.48-7.44.573-1.272 1.187-4.62 2.348-5.24.657.597-.721 4.976 1.409 2.24 1.62-2.08 4.566-5.86 5.416-5.6.848.265-2.187 3.407-1.76 4.052.432.642 4.054-3.595 4.551-3.09.486.502-3.216 3.897-2.787 4.424.742.908 2.719-2.29 3.363-1.779.642.51-1.843 2.41-2.344 3.737 1.225.462 2.972-2.331 3.155-.942.179 1.392-4.364 3.268-5.708 4.476-2.464 2.204-4.434 5.049-5.65 8.128-.996 2.531-6.143 10.85-9.471 6.965M63 225.517c-.87 2.908-1.81 6.04-3.969 8.332.125-1.388.521-1.04-.795-2.977-1.314-1.938-7.292 7.077-8.968 7.128-1.674.046 4.907-11.876 8.46-14L63 225.517"/>
        <path fill="orange" d="M77.662 180.065c-5.174-1.442-11.756 21.66-12.762 25.112-2.06 7.08-6.462 14.283-7.9 21.185 2.795.794 3.8.595 6.443 1.638 3.628-8.328 6.364-11.505 8.37-17.79 1.444-4.53 3.983-9.241 6.187-13.628l-.338-16.517"/>
        <path fill="#FEC290" d="M85.717 167c3.442 3.773 0 12.646-1.717 16.972 2.826-.324 5.902-.84 8.7.028.375-5.318.076-12.667 1.3-16.45l-8.283-.55"/>
        <path fill="#2E3054" d="M112.009 316c2.311-.137 14.556-3.41 9.973-6.11-3.012-1.771-9.29-.667-11.982 1.285l2.009 4.825"/>
        <path fill="#FEC290" d="M109.043 298.002c-.892.032-1.932.429-3.122 1.308-4.327 3.185-.285 9.696 1.811 12.94 2.21 3.414 11.373 4.335 11.267-1.256-.014-1.1-5.235-.222-5.82-.144 1.492-.197 1.233-13.053-4.136-12.848M81.82 318c3.61-.91 10.354-1.515 12.18-5.226-2.88-.766-4.583-.88-7.278.13.314-.118-1.038-7.574-1.103-8.3-.268-3.15-.444-6.306-.5-9.467C85 288.44 73.963 297.87 81.82 318"/>
        <path fill="orange" d="M100.718 180.51c.293.008.596.039.89.097 2.732.544 3.512 1.813 3.378 4.554-.459 9.09-2.963 18.455-4.307 27.419-.764 5.131 2.695 8.652.111 13.262-1.846 3.288-7.302 5.753-10.795 6.081-4.377.412-9.24-.83-12.55-3.777-4.107-3.657-3.536-9.368-3.536-14.359 0-8.475-1.673-16.06-.48-24.58.47-3.331-.025-7.138 2.7-9.606 4.141-3.754 11.85-2.786 16.71-1.181 1.556.515 2.953 1.59 4.555 1.965 1.13.263 2.222.075 3.324.124"/>
        <path fill="#3E3874" d="M100.539 214.388L115 308.407l-10.247.569-19.16-60.493 1.522 61.625L76.865 312s-7.07-43.286-6.827-57.09c.242-13.8-1.36-32.723 4.23-40.91 0 0 18.512 4.99 26.27.388"/>
        <path fill="#FEC290" d="M87.051 170.154c1.303 6.119 11.02 3.995 12.668.134 3.165-7.425-.53-13.123-.53-13.123-1.843-5.877-3.516-6.906-7.919-7.165 0 0-8.096 2.066-4.219 20.154"/>
        <path fill="#2E3054" d="M81 315.094c.064.209 4.621-.505 5.012-.608.725-.196 3.061-2.198 1.156-2.437 1.705-1.698 7-1.15 8.75.331 1.336 1.127-14.004 5.62-14.004 5.62-.322-.946-.626-1.919-.914-2.906"/>
        <path fill="#3E3874" d="M97.646 156.924c-2.138 4.075-3.181 18.143-10.559 15.819-5.603-1.764-4.566-15.406-2.087-19.455 2.053-3.353 13.926-4.776 16.182-1.195 2.864 4.54-2.645 3.13-3.536 4.831"/>
        <path fill="orange" d="M136.997 163.665c.243 3.663-13.103 18.944-13.103 18.944S107.137 194.719 100.51 198c.076-4.057-1.411-9.876-3.51-13.198 6.33-3.301 22.534-10.086 22.534-10.086s10.19-11.766 12.429-14.716c.975.606 5.034 3.665 5.034 3.665"/>
        <path fill="#2E3054" d="M121 310c-3.157 4.006-8.539 3.257-12.77 2.842-1.84 7.031 7.878 3.49 10.86 1.315L121 310"/>
        <path fill="#A2B2FF" d="M289.391 251L211 235.307 220.619 188 299 203.69 289.391 251"/>
        <path fill="#BDC4FD" d="M287 252L254.299 220 212 236.56 287 252"/>
        <path fill="#D9E0FF" d="M222 188L252.775 233 298 203.87 222 188"/>
        <path fill="#4E68BC" d="M320 198L320 163.585 340 160 340 194.414 320 197.999 320 198"/>
        <path fill="#A2B2FF" d="M312.286 192L365 182.186 358.714 148 306 157.814 312.286 192"/>
        <path fill="#BDC4FD" d="M313 191L334.89 170 363 181.937 313 191"/>
        <path fill="#D9E0FF" d="M358 147L337.204 178 307 156.694 358 147"/>
        <path fill="#FFD68C" d="M187.832 300.46c4.41-.033 14.934-.443 13.352-7.517-.53.025-1.157-.054-1.793-.134-.843-.105-1.706-.21-2.382-.07 7.32-2.931 7.227-10.545 6.86-17.739-3.243 2.152-7.195 6.68-8.084 10.739-3.912-3.825-4.943 1.512-5.922 4.831-1.362 4.64-2.376 7.579-6.863 10.43l4.832-.54"/>
        <path fill="#8290FF" d="M185.498 302c-8.556 0-15.498-.898-15.498-2.001 0-1.102 6.942-1.999 15.498-1.999l.547.001c-.913.886-2.091 1.708-3.695 2.523l5.026-.45c2.59-.015 7.213-.13 10.447-1.288 1.992.337 3.177.758 3.177 1.213 0 1.103-6.94 2.001-15.502 2.001" opacity=".072"/>
        <path fill="#A2B2FF" d="M185.777 303c-1.226-.399 5.215-17.06 5.223-18.652.02-7.364-4.222-8.873-5.637-.898 1.725-7.008.262-21.179-6.303-25.45-3.909 3.21-3.35 10.225-2.253 14.798 1.299 5.45 4.118 28.615 8.97 30.202"/>
        <path fill="#FFD68C" d="M183.398 297.54c-3.589-11.255-5.306-22.714-20.388-21.443-.278 5.367 5.159 8.104 9.332 9.784-3.311-.499-5.901 1.23-4.02 4.154 1.416 2.191 6.705 2.28 8.872 2.704-5.28 3.392 4.057 6.853 6.806 7.261l-.602-2.46"/>
        <path fill="#FFF" d="M88 93L101 93 101 91 88 91zM88 98L101 98 101 96 88 96zM88 103L101 103 101 101 88 101zM310.5 93c-.829 0-1.5-.671-1.5-1.5s.671-1.5 1.5-1.5 1.5.671 1.5 1.5-.671 1.5-1.5 1.5M310.5 97c-.829 0-1.5-.669-1.5-1.5 0-.827.671-1.5 1.5-1.5s1.5.673 1.5 1.5c0 .831-.671 1.5-1.5 1.5M310.5 102c-.829 0-1.5-.672-1.5-1.5s.671-1.5 1.5-1.5 1.5.672 1.5 1.5-.671 1.5-1.5 1.5M292.504 99c-1.203 0-2.339-.47-3.18-1.319-1.765-1.753-1.765-4.61 0-6.364.841-.849 1.977-1.317 3.18-1.317s2.326.468 3.182 1.317c1.59 1.592 1.737 4.092.44 5.85l-.44-.442c-.134-.13-.308-.196-.482-.196-.173 0-.347.065-.48.196-.255.265-.255.692 0 .956l.44.443c-.762.568-1.684.876-2.66.876m0-7.65c-.842 0-1.644.327-2.232.922-1.23 1.228-1.23 3.227 0 4.453.602.595 1.417.894 2.232.894.816 0 1.631-.297 2.22-.894 1.229-1.226 1.229-3.225 0-4.453-.589-.595-1.378-.921-2.22-.921"/>
        <path fill="#FFF" d="M298.466 101c-.14 0-.278-.053-.385-.16l-2.576-2.566-.353-.354c-.203-.211-.203-.552 0-.763.107-.105.246-.157.385-.157s.278.052.385.157l2.918 2.924c.213.21.213.55 0 .76-.097.106-.235.159-.374.159"/>
        <path fill="#8290FF" d="M305.007 305c-12.142 0-22.007-1.12-22.007-2.501 0-1.38 9.865-2.499 22.007-2.499 12.142 0 21.993 1.12 21.993 2.499 0 1.38-9.851 2.501-21.993 2.501M254.004 318c-23.19 0-42.004-2.017-42.004-4.5 0-2.486 18.814-4.5 42.004-4.5 23.198 0 41.996 2.014 41.996 4.5 0 2.483-18.798 4.5-41.996 4.5" opacity=".072"/>
    </g>
</svg>
