<svg xmlns="http://www.w3.org/2000/svg"  viewBox="0 0 24 22">
    <path fill="#FFF" d="M12 21.352c-.342 0-.671-.123-.928-.348-.97-.848-1.904-1.645-2.729-2.348l-.004-.003c-2.418-2.06-4.506-3.84-5.959-5.593C.756 11.1 0 9.242 0 7.213 0 5.24.676 3.42 1.904 2.09 3.146.742 4.85 0 6.704 0 8.09 0 9.36.438 10.476 1.302c.564.436 1.075.97 1.525 1.592.45-.623.96-1.156 1.525-1.592C14.64.438 15.91 0 17.295 0c1.854 0 3.559.742 4.801 2.09C23.324 3.42 24 5.24 24 7.213c0 2.03-.756 3.887-2.38 5.847-1.453 1.753-3.54 3.532-5.958 5.592-.826.704-1.763 1.502-2.734 2.352-.257.225-.587.348-.928.348z"/>
</svg>
