<svg xmlns="http://www.w3.org/2000/svg" viewBox="0 0 406 345">
    <g fill="none" fill-rule="evenodd">
        <path fill="#8290FF" d="M383.458 323.06c23.752-18.17 32.85-51.064 38.868-78.352 2.954-13.445 5.809-24.978 5.67-39.37-.099-11.341.062-.404-.428-11.628-1.204-27.127-14.22-57.035-35.566-74.43-25.502-20.787-37.02-38.572-41.906-71.155-2.575-17.214-6.648-23.127-21.274-32.892-12.094-8.07-24.909-13.31-39.379-14.7-15.135-1.452-31.537.15-45.72 3.732-6.693 1.688-14.618 5.053-21.445 5.595-12.36.983-28.093-2.83-40.65-4.049-16.147-1.565-32.54-.901-48.48 2.144-30.585 5.84-64.935 27.467-81.045 54.318-14.88 24.796-4.237 54.46 4.732 79.258 4.254 11.76 6.706 20.565.018 31.886-9.645 16.326-19.395 11.26-25.86 29.117-13.84 38.232 3.446 73.249 23.135 105.142 9.54 15.452 20.571 22.605 34.051 28.962 15.84 7.474 33.178 7.124 50.149 6.776 4.07-.084 8.118-.168 12.12-.145 26.835.16 53.595-13.226 80.431-12.797 21.76.352 40.705 9.784 63.105 8.53 12.716-.711 25.845-2.997 38.624-6.762 18.434-5.427 36.14 2.08 50.85-9.18z" opacity=".072" transform="translate(-22)"/>
        <path fill="#FFD68C" d="M111 45.5c0 5.247-4.253 9.5-9.5 9.5S92 50.747 92 45.5s4.253-9.5 9.5-9.5 9.5 4.253 9.5 9.5" transform="translate(-22)"/>
        <path fill="#A2B2FF" d="M107.5 140C93.416 140 82 128.36 82 114s11.417-26 25.5-26c14.08 0 25.5 11.64 25.5 26s-11.42 26-25.5 26" opacity=".296" transform="translate(-22)"/>
        <path fill="#A2B2FF" d="M310.783 254.041c21.68-3.942 47.172-6.718 61.188-25.626 7.206-9.718 4.715-15.671-7.428-13.372 6.081-6.775 13.77-12.814 21.336-17.977 13.745-9.381 17.874-22.413-3.771-16.296 1.46-8.928 7.278-17.854 8.791-27.847 1.575-10.393.937-18.3-2.593-28.086-20.644 3.08-19.14 40.052-24.79 55.085-4.66-18.642-23.075-31.758-21.959-4.714.57 13.784 4.721 28.448 2.55 41.796-2.817-8.045-9.826-28.692-21.27-23.278-5.046 2.388-4.639 7.94-4.586 13.099.144 13.896 3.597 31.193-5.175 42.654l-2.293 4.562" transform="translate(-22)"/>
        <path fill="#FFD68C" d="M413.607 246.915c-7.167 8.673-13.116 7.765-13.778-3.692-4.758 7-8.487 15.283-11.45 23.26-5.385 14.49-16.245 21.135-15.598.258-7.75 3.32-14.513 10.566-23.214 14.172-9.049 3.752-16.349 4.951-26.002 3.967-1.875-19.292 31.922-26.236 44.25-34.7-17.923-.016-33.95-13.664-9.225-18.728 12.602-2.58 26.81-2.131 38.397-7.084-7.915-.732-28.183-2.413-25.867-13.94 1.02-5.083 6.137-5.962 10.817-7.073 12.607-2.988 29.04-3.76 37.43-14.236l3.61-3.09c1.33 20.42 4.575 44.013-9.37 60.886zM131.337 244.946c-2.803-6.567-1.245-15.027-2.768-22.177-2.082-9.784-6.421-20.092-11.591-28.342-8.798-14.045-15.478-1.265-15.741 11.422-1.457-12.698-15.675-36.868-25.349-44.403-13.107-10.205-9.197 10.02-7.085 18.712-5.256-14.572-33.227-25.11-46.493-17.167 12.5 9.264 19.484 20.166 23.97 35.375 4.538 15.383 11.117 19.997 26.09 22.246-4.64 11.962 15.707 27.879 23.417 33.813 8.697 6.692 50.67 22.223 49.057 33.009l-13.507-42.488" transform="translate(-22)"/>
        <g>
            <path fill="orange" d="M112.152 83.51c-18.037-2.946-29.739-13.2-46.873.278-32.023 25.19-48.731 80.764-60.7 117.713-5.805 17.907-7.567 36.533 3.638 52.779C18.32 268.94 35.98 276.794 53.63 274.65c26.557-3.21 40.937-26.923 59.964-43.065-.547-1.322-1.046-2.672-1.498-4.03-1.621-4.872-2.601-9.932-2.922-14.888-1.29-19.701 6.182-39.11 15.031-56.329 7.794-15.189 17.566-29.698 30.137-41.338.104-.103.208-.198.311-.292.773-.708 1.555-1.397 2.347-2.068-11.082-13.8-27.188-26.243-44.848-29.131" transform="translate(-22) translate(65 36)"/>
            <path fill="#3E3874" d="M305.842 223.062c-2.072-.019-4.134-.028-6.206-.028-9.936-.028-19.873.075-29.809.32-1.478.028-2.948.066-4.426.113-31.25.865-62.462 3.02-93.56 6.453-2.035.225-2.496 2.784-1.338 3.753 2.166 8.964 4.945 17.788 7.855 26.574.405 1.26.82 2.502 1.243 3.753-14.777-5.089-32.06-2.135-46.365-9.294-9.616-4.807-16.539-13.508-20.673-23.404-.546-1.316-1.046-2.662-1.498-4.016-1.62-4.854-2.6-9.896-2.92-14.834-1.29-19.632 6.179-38.972 15.023-56.13 7.788-15.135 17.555-29.593 30.119-41.192.104-.103.207-.197.31-.291.773-.706 1.555-1.392 2.346-2.06 7.676-6.566 16.576-12.04 26.07-15.841 7.308-2.954 14.965-4.91 22.688-5.625h.01c3.795-.358 7.618-.414 11.414-.141 7.167.508 14.268 2.2 21.059 5.277 1.761.78 3.494 1.674 5.208 2.652 6.527 3.735 11.83 8.692 16.435 14.29.706.846 1.394 1.702 2.053 2.577 5.481 7.14 10.04 15.116 14.72 22.81 9.588 15.757 22.227 30.083 28.735 47.542 4.436 11.9 4.728 24.72 1.507 36.742" transform="translate(-22) translate(65 36)"/>
            <path fill="#A2B2FF" d="M237 96.226c-7.85 6.67-1.033 30.546-9.023 43.813-8.206 13.61-34.316 3.067-34.316 3.067 1.728-6.263-10.065-41.645-11.661-46.398 7.286-2.91 14.919-4.837 22.618-5.54h.01c3.745-.158 7.632-.204 11.378-.14 7.145.5 14.225 2.168 20.994 5.198M295.663 307.985L181.879 309 167 228.104 321 219 295.663 307.985" transform="translate(-22) translate(65 36)"/>
            <path fill="#E4DEFF" d="M171.978 37.312c-2.223-7.956.155-16.975 6.725-22.208 6.632-5.278 16.013-5.386 23.074-1.083 2.87-6.229 9.358-10.532 16.272-9.972 6.877.55 12.525 5.804 14.43 12.33 8.242-3.963 19.031-1.864 24.662 5.684 5.4 7.243 4.932 17.342-.131 24.476 10.315 3.046 14.863 15.624 10.097 25.46-5.088 10.498-16.994 14.672-27.839 12.832-.131.208-.378.351-.694.252-16.698-5.315-34.501-4.59-50.095 3.726-.035.557-.373 1.09-1.002 1.127-7.093.476-16.017-1.67-20.504-7.746-3.365-4.548-4.036-10.848-.695-15.36-6.09-9.582-3.413-22.945 5.7-29.518" transform="translate(-22) translate(65 36)"/>
            <path fill="#EFBE9A" fill-rule="nonzero" d="M180.339 60.663c3.78-14.89 14.54-28.992 31.329-27.563 18.28 1.555 29.543 18.536 31.32 35.585.045.423-.044.782-.213 1.072 1.03 9.065-2.049 18.686-8.442 25.3-10.112 10.474-26.225 13.106-38.89 5.818-14.367-8.267-19.045-24.68-15.104-40.212" transform="translate(-22) translate(65 36)"/>
            <path fill="#E4DEFF" d="M172.058 33.683c.389-.452.92-.55 1.487-.5-.62.565-1.162 1.185-1.589 1.859-.24-.464-.267-.932.102-1.359m.663 11.005c.33.016.665.012 1.005-.01 2.686 1.167 5.72 1.811 8.502 2.236.173.026.35.046.525.07.163.197.337.378.518.545-3.364.08-6.768-.757-9.728-2.366-.262-.142-.54-.304-.822-.475m9.491-4.59c-.651.084-1.326.135-1.968.122-1.057-.359-2.084-.807-3.078-1.32-.66-1.23.872-2.758 2.464-3.41.19-.078.386-.143.58-.214 1.625.629 3.24 1.292 4.849 1.883l.093.03c-1.205.848-2.241 1.82-2.94 2.908m55.412 3.33c.724.875 1.391 1.792 1.974 2.748.644 1.06 1.028 2.112 1.143 3.073-.232-.544-.628-1.02-1.166-1.311-.445-1.128-1.014-2.224-1.557-3.182-.112-.414-.243-.86-.394-1.328m-76.566-5.221c.685 6.478 6.538 11.139 12.173 13.163 11.015 3.957 24.095-.642 29.19-11.455 1.878 1.222 4.043 1.974 6.353 2.174 3.548.308 7.394-.737 10.01-3.286-1.104 8.51 4.598 17.004 13.042 19.503 4.221 1.249 9.695 1.092 12.63-2.801 2.98-3.951 1.151-8.928-1.31-12.601-2.878-4.297-15.18-16.543-19.936-9.632-.271-.722-1.118-.965-1.833-.706-.11-1.028-.524-2-1.365-2.797-.324-.306-.785-.103-.985.233-.887-1.253-2.177-2.182-3.736-2.438-.544-.089-1.085-.08-1.613-.005-4.117-2.606-10.24-2.832-12.8 1.225-.153-1.434-.153-2.887-.553-4.297-.404-1.422-2.162-2.103-3.144-.764-1.314 1.792-1.536 4.058-1.15 6.291h-.003c-1.313-1.273-2.936-2.296-4.627-2.987-6.463-2.643-14.604-2.969-21.217-.752-5.097 1.709-9.758 5.972-9.126 11.932" transform="translate(-22) translate(65 36)"/>
            <path fill="#EFBE9A" fill-rule="nonzero" d="M240.393 70.658c.314-.69.819-1.22 1.419-1.604-.04-.317.046-.65.314-.89 2.336-2.089 6.284-1.257 7.483 1.616 1.278 3.06-.705 6.677-4.1 7.17-3.547.513-6.624-2.98-5.116-6.292M173.875 71.88c1.286-1.719 3.67-2.414 5.669-1.428.55.27 1.115.716 1.567 1.242.164.155.301.332.395.53.598.945.76 2.04-.122 2.893l-.028.015c-.052.153-.114.304-.18.454.653.75.789 1.89-.253 2.538-.14.087-.29.154-.435.228l.012.02-.206.082c-1.87.873-4.104.73-5.737-.653-1.785-1.51-2.067-4.069-.682-5.92" transform="translate(-22) translate(65 36)"/>
            <path fill="#BEAAB3" d="M212.019 71.853c.642-6.08 6.186-10.511 12.359-9.879 6.171.633 10.671 6.094 10.028 12.174-.642 6.08-6.186 10.51-12.358 9.878-6.172-.633-10.671-6.094-10.029-12.173m-2.942-.301c-.811 7.677 4.87 14.573 12.665 15.372 7.795.799 14.795-4.798 15.607-12.475.136-1.287.074-2.549-.134-3.767 1.484-1.504 3.5-2.39 5.635-2.435 1.369-.03 1.604-2.138.223-2.109-2.516.054-4.77 1.22-6.163 3.181-1.504-5.406-6.234-9.629-12.226-10.243-7.795-.799-14.796 4.798-15.607 12.476M180.974 71.853c-.633 6.08 3.799 11.54 9.879 12.173 6.08.633 11.54-3.799 12.172-9.879.633-6.08-3.798-11.54-9.878-12.173-6.08-.633-11.54 3.799-12.173 9.879m-2.898-.302c.798-7.678 7.695-13.274 15.373-12.475 7.677.798 13.274 7.695 12.475 15.373-.8 7.678-7.696 13.274-15.373 12.475-7.678-.798-13.274-7.695-12.475-15.373" transform="translate(-22) translate(65 36)"/>
            <path fill="#DB898B" d="M203.312 78.774c1.24-.925 2.1-1.955 2.245-3.539.262-2.886 4.531-2.989 5.179-.241.69 2.931.037 6.276-2.086 8.545-1.46 1.563-3.724 2.078-5.477.513-1.555-1.387-1.62-3.967.14-5.278" transform="translate(-22) translate(65 36)"/>
            <path fill="#BEAAB3" d="M205.096 73.996c1.571-1.728 5.406-.96 6.804.434.367.366-.364.789-.792.44-.715-.585-1.65-.929-2.782-.903-1.019.022-1.63.365-2.512.634-.566.174-1.02-.274-.718-.605" transform="translate(-22) translate(65 36)"/>
            <path fill="#E4DEFF" d="M214.183 52c.94.018 1.73.545 2.543.95l2.287 1.142c.69.344 1.144.972.936 1.743-.175.647-.9 1.307-1.668 1.138l-2.614-.573c-.99-.217-2.073-.309-2.878-.941-1.593-1.25-.595-3.496 1.394-3.459M197.998 53.172c.46-.307.933-.346 1.458-.35.14-.001.281-.007.42-.02l.269-.057c.606-.133 1.012-.316 1.547-.567 1.695-.798 3.053 1.261 1.85 2.687-.584.691-1.34 1.2-2.152 1.554-1.154.505-2.323.893-3.5.226-1.366-.772-1.024-2.716.108-3.473" transform="translate(-22) translate(65 36)"/>
            <path fill="#FEB490" d="M188.49 76c-.302 0-.619-.218-.621-.534-.005-.667.459-1.194 1.089-1.52-.48.036-.909.224-1.375.316-.032.007-.064.01-.095.01-.369 0-.643-.422-.39-.68.404-.41 1.019-.592 1.655-.592.707 0 1.44.226 1.934.616.1.035.17.098.207.178l.042.037c.16.176 0 .446-.24.446h-.014l-.098.03c-.86.119-1.33.736-1.615 1.386-.094.216-.283.307-.479.307M231.863 74c-.087 0-.175-.032-.253-.106-.685-.642-1.374-1.17-2.19-1.17-.297 0-.61.07-.948.23-.054.025-.105.036-.152.036-.256 0-.4-.336-.273-.574-.008-.073-.007-.152.019-.239.382-1.283 1.715-2.177 2.944-2.177.775 0 1.507.354 1.938 1.188.18.348-.136.817-.48.817-.063 0-.128-.016-.19-.051-.513-.294-1.129-.512-1.708-.512-.434 0-.846.122-1.18.424.14-.017.281-.025.421-.025 1.013 0 2.027.455 2.482 1.452.15.332-.133.707-.43.707" transform="translate(-22) translate(65 36)"/>
            <path fill="#FAF9FF" d="M240.067 59l-.083-.236c.712-.252 1.39-.584 2.016-1.007-.013.058-.045.113-.102.154-.583.425-1.195.787-1.831 1.089m-57.63-4.603c-1.007-.22-1.982-.58-2.879-1.064.59.042 1.18.063 1.769.063.526 0 1.05-.016 1.574-.05-.16.35-.313.698-.464 1.05m.353-6.053c-.687 0-1.376-.038-2.061-.111-.122-.06-.244-.126-.366-.2-.309-.182-.47-.428-.516-.686.795.154 1.584.284 2.353.4.172.024.347.043.52.066.162.19.334.366.513.526-.147.003-.295.005-.443.005m-5.295-.734c-.848-.238-1.68-.531-2.487-.878-.01-.219-.01-.441-.002-.666.758.27 1.536.505 2.32.711.034.28.09.559.169.833m2.937-6.32l-.198-.002c-.659-.218-1.307-.47-1.942-.751 1.03-.613 2.206-.961 3.363-.961.558 0 1.112.081 1.643.252-.428.424-.804.872-1.114 1.342-.578.072-1.176.12-1.752.12m14.31-10.8c-.665-.5-1.38-.943-2.122-1.325.94-3.417 3.935-6.164 7.472-6.164.651 0 1.322.093 2.002.293 1.988.586 3.498 2.154 4.166 3.969-.864.06-1.7.23-2.471.523-.635-1.36-2.187-2.153-3.839-2.153h-.03c-.35-.588-.97-.96-1.595-.96-.472 0-.947.21-1.312.697-.512.678-.856 1.427-1.062 2.217-.366.472-.676 1.036-.906 1.697-.14.403-.24.805-.303 1.206" transform="translate(-22) translate(65 36)"/>
            <path fill="#FFF4EA" d="M235.464 60c-4.409.001-8.948-2.083-11.82-5.379-2.448-2.81-4.56-7.86-4.127-12.145.645 7.24 5.76 13.83 12.844 15.989 1.427.435 3.003.7 4.57.7 1.368 0 2.73-.202 3.987-.67l.082.247c-1.72.863-3.617 1.258-5.536 1.258m-49.176-5.806c-.767 0-1.536-.091-2.288-.265.15-.369.3-.733.458-1.098 7.937-.529 15.474-5.094 19.055-12.84.152.068.306.132.459.194 1.74 1.073 3.711 1.735 5.802 1.922.393.035.79.052 1.188.052 2.966 0 6.016-.977 8.263-3.024l.332-.135c-.039.347-.068.696-.085 1.043-3.369 1.907-7.077 3.107-10.834 3.107-1.915 0-3.84-.311-5.742-1-3.583 5.903-9.07 11.675-16.125 12.032-.16.008-.322.012-.483.012" transform="translate(-22) translate(65 36)"/>
            <path fill="#FAF9FF" d="M235.947 59c-1.585 0-3.178-.263-4.621-.695-7.163-2.14-12.334-8.673-12.985-15.851.106-1.024.36-2.003.796-2.897-.279.166-.56.328-.842.486.017-.345.047-.69.086-1.035.377-.15.75-.307 1.119-.467.05-.021.097-.031.141-.031.038 0 .074.007.106.02.468-.655 1.057-1.244 1.786-1.746 1.305-.898 2.897-1.31 4.54-1.31 5.065 0 10.602 3.905 9.597 9.444-.567 3.129-3.01 4.658-5.356 4.658-2.616 0-5.112-1.902-4.75-5.612.07-.732.693-1.247 1.383-1.247.034 0 .067.002.101.004.417.03.835.06 1.252.092 1.106.081 1.395 1.236 1.015 2.036l2.7 1.514 1.098-3.416c-.024-1.247-1.45-2.844-2.399-3.495-1.146-.785-3.158-1.455-4.944-1.455-.887 0-1.717.165-2.358.562-4.091 2.54-2.791 8.643-.864 12.13 2.937 5.31 7.554 6.961 12.582 6.961 2.134 0 4.34-.297 6.526-.737.018-.004.036-.006.053-.006.19 0 .322.21.285.385-.627.438-1.304.782-2.016 1.043-1.27.465-2.649.665-4.031.665m-54.626-6.229c-.59 0-1.18-.02-1.77-.064-2.523-1.41-4.408-3.826-4.55-6.843.807.359 1.64.663 2.487.91.355 1.296 1.138 2.493 2.085 3.31 1.498 1.291 3.353 1.8 5.234 1.8 1.298 0 2.607-.242 3.822-.637 4.884-1.586 8.718-5.531 11.971-9.487-4.729-2.073-8.651-6.864-8.271-12.391.04-.583.137-1.157.285-1.714.742.396 1.456.856 2.121 1.373-.557 3.664 1.743 7.192 4.543 9.284.93.695 1.894 1.25 2.882 1.68-3.621 7.678-11.24 12.204-19.266 12.728-.523.035-1.047.051-1.573.051m1.393-4.85c-.638 0-1.313-.155-1.992-.502.686.076 1.374.115 2.062.115.148 0 .295-.002.442-.005-.179-.166-.35-.347-.513-.545-.172-.024-.348-.043-.52-.07-.768-.118-1.557-.254-2.352-.414-.123-.697.518-1.489 1.293-1.489.21 0 .431.06.649.194 1.201-2.887 1.19-4.33-.037-4.33-.259 0-.573.065-.94.193-1.442.024-2.49.819-3.147 2.384-.344.79-.436 1.632-.34 2.458-.784-.214-1.561-.458-2.319-.737.02-.495.087-1.004.204-1.525.405-1.802 1.594-3.29 3.081-4.206.635.29 1.284.552 1.943.779l.198.002c.576 0 1.173-.05 1.752-.125.31-.487.685-.951 1.114-1.39 1.007.336 1.935 1.007 2.658 2.082 2.233 3.31-.072 7.132-3.236 7.132m26.977-5.782c-.402 0-.804-.017-1.201-.052-2.114-.185-4.107-.842-5.867-1.905 1.85.727 3.779 1.037 5.732 1.037 3.254 0 6.573-.86 9.69-2.078-2.271 2.03-5.355 2.998-8.354 2.998m-5.64-9.876c-.742 0-1.34-.956-.864-1.749 1.028-1.714 1.094-3.183.595-4.289.772-.305 1.608-.48 2.472-.543.765 2.153.428 4.642-1.552 6.322-.214.18-.438.259-.65.259m-8.108-6.245c.207-.819.55-1.595 1.062-2.297.366-.504.84-.722 1.312-.722.626 0 1.246.384 1.596.994-1.429.007-2.928.632-3.97 2.025M167.02 38c-.334 0-.697-.207-.804-.572-1.069-3.65 2.008-6.428 5.262-6.428 1.138 0 2.299.34 3.31 1.103.423.319.158 1.016-.31 1.016-.071 0-.148-.017-.228-.054-.704-.326-1.397-.475-2.054-.475-2.465 0-4.422 2.097-4.542 4.794-.02.426-.313.616-.634.616M243.468 37c-.176 0-.352-.104-.401-.32-.586-2.538-1.408-4.997-3.641-6.657-2.309-1.718-4.864-1.842-7.652-2.018-.833-.053-1.099-1.317-.27-1.593.846-.282 1.71-.412 2.568-.412 5.497 0 10.77 5.345 9.815 10.655-.04.226-.23.345-.419.345M257.667 74c-.678 0-1.145-.926-.547-1.554 2.474-2.591 3.998-6.213 3.546-9.823-.468-3.734-2.74-5.828-5.374-8.191-.573-.513-.24-1.432.455-1.432.095 0 .196.017.302.054 8.889 3.1 8.852 15.639 2.167 20.743-.188.142-.375.203-.549.203" transform="translate(-22) translate(65 36)"/>
            <path fill="#38193A" d="M194.66 71.01c-1.985-.2-2.309 2.78-.32 2.98 1.985.2 2.31-2.78.32-2.98M222.656 71.007c-.783-.08-1.605.528-1.653 1.338-.048.812.502 1.561 1.342 1.648.783.081 1.605-.527 1.652-1.337.048-.813-.501-1.561-1.34-1.649" transform="translate(-22) translate(65 36)"/>
            <path fill="#843957" d="M217.145 89.453c-2.752 3.966-7.243 5.595-11.84 4.77-.354-.064-.4.433-.137.583 4.735 2.685 10.896.635 13.662-4.073.689-1.172-.889-2.427-1.685-1.28" transform="translate(-22) translate(65 36)"/>
            <path fill="#E1E9F4" d="M119.61 18.1c5.162 2.25 11.18 5.225 12.236 11.346 1.171 6.772-4.722 12.06-4.989 18.53-.023.561-5.663-9.015-8.836-28.435-.165-1.008.674-1.836 1.59-1.44" transform="translate(-22) translate(65 36)"/>
            <path fill="#EFBE9A" fill-rule="nonzero" d="M74.737 34.71c2.365-4.756 3.37-11.712 6.906-15.692 3.555-3.987 9.83-5.885 14.924-7.77.29-.11 8.791-2.038 12.774-.878 7.733 2.252 12.396 9.847 14.635 17.093 2.889 9.35 2.36 19.333 4.754 28.786 2.012 7.95 5.581 16.26 3.775 24.598-3.53 16.243-23.068 21.127-37.093 16.479-15.815-5.248-25.528-19.9-26.349-36.156-.462-9.09 1.629-18.325 5.674-26.46" transform="translate(-22) translate(65 36)"/>
            <path fill="#FFF" d="M116 79s-3.064-4.839-5.23-4.107c-2.168.733-7.11.812-10.787-1.133C90.389 68.684 88 76.203 88 76.203L116 79" transform="translate(-22) translate(65 36)"/>
            <path fill="#E1E9F4" d="M107.778 69.056c26.397-.177 19.283-15.239 21.37-11.211-.897-3.674 4.315 20.433 11.209 30.657 4.047 6.003 7.243 12.564 1.6 19-9.194 10.467-25.172 12.622-37.759 8.605C90.1 111.618 79.624 99.432 74.146 85.69c-2.61-6.55-7.158-20.414-4.159-27.315 1.567-3.594 8.367.53 17.017 4.653 6.372 3.038 13.747 6.075 20.774 6.028M105.524 10.947c.17-.032 7.777-8.897 12.78-10.615 3.206-1.102 6.825.597 6.692 4.226-.138 3.814-3.847 6.78-7.105 8.2-4.21 1.84-8.948 1.583-13.029-.427-.894-.446-1.625-.951.662-1.384M72.106 16.11c1.537-2.75 4.269-4.978 7.546-5.105 1.694-.066 3.682.594 5.703 1.252 2.672.872 5.4 1.744 7.581.94 1.032-.376-10.792 2.718-13.182 14.657-1.94 9.682-9.469 19.762-9.538 19.117-.64-5.703.366-12.708.16-18.445-.14-4.114-.34-8.69 1.73-12.416M123.836 39.081c1.718.853 1.566 5.876-.666 5.916-2.95.052-5.856-.593-8.459-2.225-1.923-1.205-4.501-3.149-3.48-6.059 2.056-5.85 7.184-.901 12.605 2.368M89.468 29.013c3.206-.1 6.508.377 9.667.9.91.151 1.867 1.132 1.865 2.18 0 .41 0 .821-.002 1.233 0 .392-.1.773-.268 1.121-.168.716-.52 1.394-1.002 1.899-1.63 1.708-4.546 1.68-6.65 1.644-2.741-.047-5.384-.63-7.75-2.16-.773-.5-1.561-1.54-1.264-2.612.772-2.783 2.727-4.122 5.404-4.205" transform="translate(-22) translate(65 36)"/>
            <path fill="#EFBE9A" fill-rule="nonzero" d="M65.282 45.3c3.209-1.052 7.61.737 8.37 4.211.13.6-.618.98-1.098.765-.114-.05-.224-.104-.335-.16.31.504.513 1.07.61 1.653.078.26.132.527.157.8.412-.337 1.076-.31 1.4.178 1.977 2.972-1.196 5.964-4.22 6.23-3.626.319-7.584-2.69-8.809-6.011-1.19-3.228.719-6.614 3.925-7.666M129.082 47.174c3.234-.905 6.17 1.861 6.781 4.998.637 3.258-.994 7.02-3.975 8.4-2.485 1.15-7.592.015-6.807-3.748.12-.573.472-.967.917-1.152-.627-1.202-.623-2.632-.034-3.773-.197-2.068.998-4.132 3.118-4.725" transform="translate(-22) translate(65 36)"/>
            <path fill="#FE9190" d="M83.482 42.13c2.437-.777 6.475 2.053 6.518 4.802.007.423-.443.7-.773.417-.293-.25-.542-.526-.782-.807-1.75-.324-3.324.683-4.328 2.2-.434.654-1.263-.066-1.047-.709.618-1.833 2.383-2.787 4.158-2.798-.183-.156-.376-.303-.598-.43-1.034-.593-2.175-.72-3.213-1.23-.565-.278-.567-1.242.065-1.444M121.067 52.741l.194-.166c.065-.14.2-.255.403-.32 1.146-.84 2.831-1.544 4.259-1.136.413.118.37.683-.045.775-.737.162-1.497.106-2.24.264 2.085.206 3.843 1.348 4.347 3.167.136.49-.688.975-1.063.444-.972-1.377-3.001-2.504-4.992-2.44-.258.007-.44-.074-.561-.19-.242.062-.492-.218-.302-.398" transform="translate(-22) translate(65 36)"/>
            <path fill="#E1E9F4" d="M109.204 71.942s-12.35 7.555-22.728 2.29c-10.378-5.266-8.308-16.25-8.308-16.25S89.223 69.642 108.75 57c0 0 13.783 5.274 20.251 2.723 0 0-4.374 38.212-19.796 12.219" transform="translate(-22) translate(65 36)"/>
            <path fill="#DB898B" d="M107.31 47.559c.001 1.59.412 3.183 1.356 4.535 1.017 1.455 2.658 2.218 3.81 3.534 1.525 1.742-.521 4.962-2.993 4.278-5.287-1.463-7.514-7.996-6.035-12.492.575-1.746 3.858-2.071 3.861.145" transform="translate(-22) translate(65 36)"/>
            <path fill="#F6F8FC" d="M120.66 113c-.984 0-1.947-.06-2.875-.178-.904-.115-1.117-1.642-.163-1.855 3.985-.893 8.067-.674 11.931-2.246 4.297-1.745 8.543-5.794 8.314-10.819-.182-3.985-3.267-7.39-4.778-10.967-1.579-3.74-2.207-7.446-2.222-11.492 0-.287.217-.443.431-.443.186 0 .369.118.404.368.861 6.156 3.205 11.153 6.221 16.49 1.878 3.325 2.782 6.756 1.428 10.46C136.707 109.56 128.12 113 120.66 113M106.967 110c-8.207 0-16.848-5.062-20.885-12.05-.244-.421.096-.95.501-.95.123 0 .252.048.372.163 3.025 2.873 6.17 5.785 9.856 7.787 3.784 2.055 7.781 3.153 11.907 4.274.368.101.393.662-.028.7-.571.052-1.146.076-1.723.076M73.58 36c-.33 0-.654-.231-.565-.614 1.29-5.554-.747-11.57 1.207-16.95C75.39 15.219 77.996 13 81.52 13c.32 0 .647.018.981.056.693.077.652 1.125-.05 1.152-10.988.417-5.006 15.496-8.345 21.501-.111.2-.32.291-.526.291M129.245 32c-.263 0-.533-.215-.53-.596.013-1.525.002-2.775-.431-4.228-.44-1.476-1.137-2.65-2.173-3.527-.245-.207-.044-.649.203-.649.036 0 .073.01.11.03 2.44 1.395 4.323 5.163 3.284 8.599-.078.253-.268.371-.463.371M110.514 11c-.539 0-.728-.809-.204-1.053 2.537-1.188 4.428-2.368 5.939-5.073.78-1.397 1.53-3.032 2.976-3.691.273-.124.595-.183.934-.183 1.612 0 3.605 1.322 2.542 3.181-.058.102-.154.159-.246.159-.093 0-.183-.057-.227-.184-.107-.608-.446-.911-1.016-.911-.158 0-.334.023-.527.07-.364-.313-.69-.47-.977-.47-.31 0-.576.184-.795.551-.783.49-1.12 1.716-1.585 2.55-.559 1.001-1.148 1.908-1.935 2.704-1.375 1.394-3.012 2.344-4.877 2.35h-.002M128.28 66c.144-.706.27-1.379.382-2 .052.09.073.206.048.343-.108.594-.253 1.146-.43 1.657M93.27 72c-2.983 0-5.793-.764-7.936-2.6-.745-.637-.118-1.634.653-1.634.1 0 .203.017.307.054 2.086.75 4.388 1.094 6.747 1.094 6.645 0 13.751-2.728 17.836-6.805.077-.077.163-.109.245-.109.244 0 .45.29.256.567-.238.341-.493.694-.762 1.054.15.028.299.107.429.264 2.139 2.608 4.218 5.106 7.589 5.728.482.09.964.133 1.441.133 3.197 0 6.136-1.968 7.023-5.472.07-.275.282-.402.49-.402.167 0 .33.083.412.238-.102.611-.218 1.274-.35 1.97-1.189 3.687-3.98 5.223-7.055 5.224-4.061 0-8.62-2.678-10.65-6.613l-.043-.135C106.795 68.515 99.64 72 93.269 72" transform="translate(-22) translate(65 36)"/>
            <path fill="#B1586C" d="M111.993 73.626c-.238-1.18-1.936-.363-2.89-.183-.83.156-1.706.257-2.567.18-.768-.068-1.405-.326-2.193-.288-.246.013-.39.166-.33.32.346.863 2.025 1.184 3.214 1.301 1.566.155 2.976-.107 4.278-.695.297-.134.539-.385.488-.635" transform="translate(-22) translate(65 36)"/>
            <path fill="#8290FF" d="M176.553 219c-.27 0-.54-.125-.702-.416-5.627-10.065-14.173-16.87-25.765-16.87h-.106l-.168.13c-.043.032-.088.046-.133.046-.105 0-.203-.081-.253-.182l-.107-.001h-.008c-.353 0-.44-.609-.078-.66.252-.036.507-.064.762-.091 8.279-6.918 15.096-15.64 19.786-25.535 5.136-10.835 6.595-21.795 7.465-33.669.037-.504.386-.752.74-.752.356 0 .72.254.768.752 2.213 22.347-10.796 45.901-27.663 59.109.52-.033 1.04-.05 1.564-.05 10.423 0 21.462 6.45 24.748 17.096.196.634-.332 1.093-.85 1.093M238.287 130c-.363 0-.718-.189-.8-.597-1.71-8.516 1.13-19.384 7.826-25.299.081-.073.177-.104.27-.104.279 0 .538.283.357.576-5.037 8.152-7.429 14.985-6.768 24.603.036.526-.43.821-.885.821M171.231 130c-.213 0-.414-.104-.523-.354-2.561-5.954-7.19-10.801-13.415-12.837-.478-.155-.324-.809.123-.809.03 0 .063.004.096.01 6.882 1.352 12.64 6.202 14.465 13.099.131.49-.328.891-.746.891M258.834 196c-.364 0-.743-.221-.72-.603.563-9.39-1.274-17.823-7.054-25.822-.19-.265.107-.575.392-.575.096 0 .191.036.264.121 6.351 7.366 9.66 17.137 7.742 26.44-.062.302-.339.439-.624.439" transform="translate(-22) translate(65 36)"/>
            <path fill="#FEC290" d="M178.979 98.003c-1.222.082-2.514.186-3.82.343-5.317-.889-10.724 2.206-14.103 6.287-2.366 1.686-2.465 4.986-1.428 7.492 1.22 2.95 3.986 5.217 6.845 6.488.424.189.764-.263.483-.624-1.446-1.85-3.385-3.387-4.356-5.567-.568-1.275-.618-2.362-.417-3.445.96 3.813 4.007 7.56 6.596 9.813.584.51 1.576.03 1.35-.78-.61-2.164-1.81-4.29-2.947-6.229-1.292-2.205-3.019-4.602-1.537-7.15.334 2.386 1.374 4.817 2.262 6.944 1.036 2.482 2.306 5.296 4.46 7.005.634.503 1.504.042 1.35-.78-.519-2.758-2.1-5.395-3.033-8.045-.67-1.903-1.014-3.935-1.612-5.86.216-.056.433-.105.65-.168.982 3.86 3.339 7.704 5.296 10.915.464.76 1.752.272 1.475-.619-.747-2.401-1.355-4.84-2.167-7.22-.47-1.378-.817-2.84-1.299-4.235 2.121-.843 4.216-1.8 6.234-2.49 1.068-.366.982-2.161-.282-2.075" transform="translate(-22) translate(65 36)"/>
            <path fill="#3E3874" d="M248 269c0 3.314-3.806 6-8.5 6-4.695 0-8.5-2.686-8.5-6 0-3.313 3.805-6 8.5-6 4.694 0 8.5 2.687 8.5 6" transform="translate(-22) translate(65 36)"/>
            <path fill="#F7925F" d="M57.453 208c-.266 0-.52-.292-.437-.56.779-2.479 2.345-4.843 4.294-7.016.238-9.841 6.534-19.967 9.754-29.05 3.583-10.11 4.679-21.287-1.218-30.787-.171-.275.095-.587.361-.587.09 0 .18.036.254.12 6.32 7.346 6.746 17.117 4.999 26.247-1.173 6.128-3.486 11.907-5.772 17.694-1.576 3.99-2.685 8.09-3.91 12.152 2.175-1.778 4.444-3.339 6.468-4.61 6.13-3.854 14.134-7.622 21.6-7.622.268 0 .534.005.8.015 1.593.059 1.862 2.216.37 2.693-7.33 2.347-14.42 3.644-21.134 7.674-3.172 1.904-6.154 4.149-8.954 6.553-.372.32-.732.658-1.084 1.002-.128.194-.28.36-.468.466-1.874 1.9-3.572 4.005-5.712 5.546-.067.048-.14.07-.21.07" transform="translate(-22) translate(65 36)"/>
            <path fill="#EFBE9A" fill-rule="nonzero" d="M166.637 172.879c-2.736 2.176-5.865 3.459-9.091 4.553 3.583-1.83 7.055-3.852 10.09-6.459.862-.742-.079-1.97-1.037-1.772-3.558.74-6.955 2.09-10.269 3.634 3.218-1.831 6.184-4.246 7.521-7.538.295-.724-.635-1.199-1.205-.922-2.809 1.364-5.26 3.383-8.089 4.76-3.197 1.56-6.574 2.771-9.92 3.97-.315.113-.633.225-.954.338 3.624-1.75 6.597-3.97 6.48-8.45-.026-1.005-1.361-1.372-1.893-.51-4.283 6.945-14.605 6.211-18.56 13.202-.926.942-1.495 2.265-1.769 3.62-2.93 3.818-2.83 11.203 2.294 12.676.578.167 1.128.24 1.653.246.45.527 1.147.87 2.01.748 11.919-1.695 24.463-5.246 32.259-14.945.778-.967-.396-2.155-1.368-1.361-1.719 1.405-3.517 2.609-5.374 3.666.199-.318.375-.652.538-.997 3.49-1.514 6.76-3.623 8.816-6.822.892-1.39-1.009-2.53-2.132-1.637" transform="translate(-22) translate(65 36)"/>
            <path fill="orange" d="M103.635 184.77c.803-.42 22.391-6.77 22.391-6.77L137 199.56s-18.885 11.084-42.717 51.734c-10.278 17.533-11.758-55.455 9.352-66.523" transform="translate(-22) translate(65 36)"/>
            <path fill="#38193A" d="M94.823 45.032c-.773-.168-1.66.347-1.799 1.148-.139.803.327 1.609 1.154 1.788.772.168 1.66-.346 1.798-1.147.139-.804-.327-1.609-1.153-1.79M114.83 48.04c-1.944-.411-2.606 2.51-.66 2.92 1.944.411 2.606-2.51.66-2.92" transform="translate(-22) translate(65 36)"/>
            <path fill="#E4DEFF" d="M189.536 101.055c-1.012.243-1.767 1.372-1.47 2.41.298 1.043 1.313 1.741 2.398 1.48 1.012-.243 1.767-1.371 1.47-2.41-.298-1.043-1.313-1.741-2.398-1.48M191.402 105.005c-1.993.162-1.801 4.153.196 3.99 1.994-.162 1.8-4.153-.196-3.99M193.153 110.041c-.76.183-1.327 1.029-1.104 1.809.223.781.985 1.305 1.8 1.109.758-.183 1.325-1.03 1.102-1.808-.223-.782-.985-1.306-1.798-1.11M196.76 112.031c-1.289.299-.811 2.237.48 1.938 1.289-.299.81-2.237-.48-1.938M200.14 114.047c-1.933.448-1.216 3.354.72 2.906 1.933-.448 1.216-3.354-.72-2.906" transform="translate(-22) translate(65 36)"/>
            <path fill="#E4DEFF" d="M202.14 115.047c-1.933.448-1.217 3.355.72 2.906 1.933-.448 1.217-3.355-.72-2.906" transform="translate(-22) translate(65 36)"/>
            <path fill="#E4DEFF" d="M205.14 116.047c-1.933.448-1.217 3.354.72 2.906 1.933-.448 1.217-3.355-.72-2.906M208.768 117.027c-.506.123-.884.687-.736 1.206.15.521.658.87 1.2.74.506-.123.884-.687.735-1.206-.149-.521-.656-.87-1.199-.74M213.14 116.047c-1.933.447-1.216 3.355.72 2.906 1.933-.448 1.217-3.355-.72-2.906" transform="translate(-22) translate(65 36)"/>
            <path fill="#E4DEFF" d="M215.76 116.031c-1.289.299-.81 2.237.48 1.938 1.289-.299.811-2.237-.48-1.938" transform="translate(-22) translate(65 36)"/>
            <path fill="#E4DEFF" d="M218.152 115.041c-.759.183-1.326 1.03-1.103 1.809.223.781.985 1.305 1.799 1.109.759-.183 1.326-1.029 1.103-1.809-.223-.781-.985-1.305-1.799-1.109M221.76 113.031c-1.289.299-.811 2.237.48 1.938 1.289-.299.811-2.237-.48-1.938" transform="translate(-22) translate(65 36)"/>
            <path fill="#E4DEFF" d="M223.76 112.031c-1.289.299-.811 2.237.48 1.938 1.289-.299.811-2.237-.48-1.938M227.288 109.039c-.394-.12-.942.043-1.138.435l-.024.048c-.244.485-.13.975.308 1.298l.044.032c.32.236.807.169 1.107-.053.305-.227.493-.652.384-1.035-.097-.336-.341-.622-.681-.725M228.526 106.16l-.058-.032c-.454-.25-.987-.125-1.28.303l-.037.055c-.48.701.263 1.713 1.085 1.48.336-.096.621-.338.725-.676.123-.404-.05-.92-.435-1.13M228.768 103.027c-.506.122-.884.687-.735 1.206.148.521.657.87 1.199.74.506-.122.884-.687.735-1.206-.148-.521-.657-.87-1.199-.74" transform="translate(-22) translate(65 36)"/>
            <path fill="#E1E9F4" d="M194.761 185.57c-.395-.98-2-.608-1.73.438 2.153 8.308 3.648 18.453 8.794 25.722.33.466 1.183.304 1.175-.292-.114-8.67-5.002-17.856-8.239-25.867M231.317 181.795c-3.75 9.011-4.382 18.975-4.312 28.41.007 1.067 1.962 1.053 2.034 0 .648-9.46 3.134-18.503 4.94-27.815.271-1.401-2.083-1.986-2.662-.595M252.942 194.499c-2.742 4.449-4.361 9.766-5.913 14.647-.229.721.963 1.214 1.344.52 2.498-4.531 5.286-9.427 6.594-14.383.29-1.1-1.391-1.814-2.025-.784" transform="translate(-22) translate(65 36)"/>
        </g>
    </g>
</svg>
