<svg xmlns="http://www.w3.org/2000/svg" viewBox="0 0 426 360">
    <g fill="none" fill-rule="evenodd">
        <path fill="#8290FF" d="M195.198 344.746c-62.283 12.913-129.748 13.94-167.916-32.717C7.18 287.457-2.971 245.374.763 213.916c2.148-18.085 34.65-55.438 47.377-67.261 5.696-27.238-25.58-47.905-20.953-77.44 4.678-29.866 38.874-52.524 69.41-59.61 76.313-17.708 163.585-8.593 235.72 8.43 31.116 7.344 50.853 17.505 64.145 45.916 5.797 12.39 10.286 26.213 7.242 40.621-2.465 11.683-11.481 19.867-15.92 31.354-10.581 27.393 21.814 40.186 31.9 65.377 9.874 24.646 8.584 57.278-6.807 79.822-15.223 22.303-38.966 37.199-63.176 49.534-18.308 9.332-49.946 26.238-71.486 22.915l-83.017-8.828" opacity=".072"/>
        <path fill="#A2B2FF" d="M282.503 170c-2.075-1.801-3.947-3.056-5.135-3.056-.17 0-.326.026-.465.08 14.712-5.616 14.748-21.388 11.727-36.042-6.106-29.645-36.577-49.227-65.863-49.227-4.652 0-9.277.494-13.767 1.52C214.833 47.945 245.52 21 282.5 21c41.145 0 74.5 33.355 74.5 74.5S323.645 170 282.5 170" opacity=".296"/>
        <path fill="#FFF" d="M156 134c0 8.285-6.715 15-15 15s-15-6.715-15-15c0-8.283 6.715-15 15-15s15 6.717 15 15"/>
        <path fill="#A2B2FF" d="M190 45.5c0 5.247-4.253 9.5-9.5 9.5s-9.5-4.253-9.5-9.5 4.253-9.5 9.5-9.5 9.5 4.253 9.5 9.5" opacity=".296"/>
        <path fill="#FFD68C" d="M107.933 295c-1.267-.53-2.498-1.126-3.692-1.793-2.969-10.297-3.77-21.767-6.455-32.11-2.456-9.461-5.809-13.19-9.047-13.19-.647 0-1.286.148-1.915.429-5.312-8.541-7.922-18.565 1.21-23.72 1.987-1.12 3.887-1.616 5.692-1.616 10.99 0 18.549 18.32 21.593 25.393.742-6.316 3.185-8.936 5.621-8.936 3.35 0 6.686 4.958 5.552 12.072 1.709-1.682 3.266-2.38 4.677-2.38 2.334 0 4.268 1.912 5.831 4.428-.158.91-.31 1.803-.455 2.68l-.011.026c-.719 1.654-.956 3.369-.774 4.93-1.242 8.185-1.851 13.993-1.851 13.993.457.217.906.43 1.362.644l-4.499 14.396c-.48-1.93-.97-3.816-1.499-5.624-1.456-4.97-2.687-10.424-8.203-11.235-.502-.073-.983-.108-1.447-.108-8.628 0-10.937 12.352-11.69 21.721"/>
        <path fill="#A2B2FF" d="M150 328.082c-21.885 2.569-47.075 7.367-66.007-6.616-9.732-7.188-9.09-13.609 3.194-14.96-7.796-4.701-16.915-8.229-25.66-10.954-15.887-4.953-23.646-16.208-1.158-16.686-4.006-8.112-12.18-14.946-16.549-24.06-4.545-9.479-6.246-17.227-5.731-27.618 20.642-3.09 30.014 32.707 39.811 45.43-.993-19.19 12.782-37.116 19.622-10.927 3.485 13.348 3.803 28.585 9.782 40.714.341-8.516 1.007-30.31 13.534-28.478 5.524.807 6.758 6.236 8.216 11.185 3.925 13.33 5.68 30.882 17.42 39.278l3.526 3.692"/>
        <path fill="#FFF" d="M358.826 248.558c5.348-3.812 12.08-1.735 13.052 5.713.95 7.231-3.849 8.927-8 12.277-12.726 10.279-23.982 18.493-39.262 23.803C310.01 295.425 294.341 295.9 280 303c11.517-9.853 13.05-27.03 18.186-41.002 2.31-6.292 5.76-13.667 10.022-18.595 2.406-2.78 12.45-9.054 10.645.644 2.494-13.417 15.795-26.1 14.1-4.307 1.747-8.71 26.095-27.533 34.632-21.607 11.982 8.318-4.144 24.164-8.76 30.425"/>
        <path fill="#FFD68C" d="M294.385 308.042c4.309-5.694 4.843-14.28 8.05-20.849 4.387-8.99 11.092-17.942 18.104-24.696 11.935-11.499 15.325 2.517 12.51 14.891 4.485-11.968 24.129-31.981 35.338-36.952 15.187-6.731 6.5 11.948 2.348 19.87 8.625-12.867 38.315-16.325 49.265-5.408-14.37 5.964-23.784 14.852-31.816 28.524-8.124 13.828-15.625 16.714-30.697 15.274 1.61 12.73-21.985 23.25-30.902 27.143-10.057 4.39-54.54 9.306-55.585 20.161l23.385-37.958"/>
        <path fill="#3E3874" d="M184.281 97.05c-6.176 5.994-9.847 12.516-9.847 21.374 0 4.841.608 8.105 2.65 12.183 1.772 3.538 5.84 7.125 6.764 10.649-5.848.352-10.804.434-15.66 4.562-15.405 13.1-16.134 44.02 5.594 52.176 3.593 1.348 8.575 2.037 11.904.7-7.336-4.31-16.667 9.379-10.543 16.517 7.191 8.378 24.905 8.69 35.111 9.158 11.714.54 29.386 2.522 38.916-5.16 7.293-5.871 11.14-18.227 12.73-26.776 2.933 6.754 5.989 15.232 13.529 17.728 7.313 2.419 16.098-1.794 20.21-7.896 4.09-6.078 2.43-14.412-1.651-19.795-1.977-2.61-13.7-16.56-16.968-15.308 14.644-5.61 14.679-21.361 11.673-35.996-8.987-43.779-70.984-65.582-103.81-34.688-.203.19-.405.38-.602.573"/>
        <path fill="#EFBE9A" fill-rule="nonzero" d="M139.74 262.496l-15.058 48.374s-9.202 7.57-4.185 23.135c3.794 11.755 23.783 29.588 43.503 18.508l-14.517-34.169s-2.319 0-4.64-1.17c-2.321-1.165 6.381-9.914 15.662-26.246 9.28-16.332-16.704-31.932-20.765-28.432"/>
        <path fill="#EFAC7B" fill-rule="nonzero" d="M242.273 121.285c4.195 4.21.816 32.07 2.149 38.988 2.977 15.49 12.009 21.116 23.246 31.165 7.338 6.561 20.75 14.337 23.8 23.926 3.346 10.528-9.845 18.199-18.809 23.488-12.154 7.175-24.064 6.977-37.814 9.878-6.061 1.275-10.9 4.346-17.55 5.014-6.92.69-14.237-.155-20.895-.884-11.94-1.308-25.42-4.872-35.735-11.07-12.218-7.347-20.188-12.875-10.021-26.425 6.297-8.393 17.624-12.046 25.492-18.033 18.062-13.753 33.772-28.174 32.423-52.462-1.019-18.457 23.5-33.837 33.714-23.585"/>
        <path fill="#EFBE9A" fill-rule="nonzero" d="M314.26 263.496l15.058 48.373s9.204 7.571 4.183 23.135c-3.792 11.761-23.783 29.588-43.501 18.508l15.338-14.583s-1.87-12.335 1.115-19.35c1.266-2.484-3.68-11.319-12.96-27.65-9.278-16.333 16.705-31.932 20.767-28.433"/>
        <path fill="#FFCF0A" d="M191.813 182.116s29.69 24.037 64.419-1.116c0 0 31.366 20.682 40.89 27.95 9.522 7.265 10.947 30.512 20.878 62.21 0 0-72.97 57.408-185 4.307 0 0 5.601-53.104 17.365-64.285 11.764-11.178 41.448-29.066 41.448-29.066"/>
        <path fill="#2B2234" d="M243.788 148c.188-6.866.472-14.775-.055-20.36.205.187.404.38.596.58L245 144.71c-.395 1.147-.798 2.243-1.212 3.289m-35.574-2.777l-.186-.32c-.006-.132.01-3.301 0-3.432-.35-6.508 2.64-11.348 7.126-14.471-4.38 4.905-7.313 11.291-6.947 18.083.003.048.006.093.007.14"/>
        <path fill="#DA7F63" d="M224.68 163c-5.413-.001-13.21-12.416-16.642-18.126-.001-.046-.004-.09-.007-.136-.367-6.622 2.578-12.848 6.974-17.63 4.035-2.725 9.276-4.108 14.391-4.108 5.44 0 10.74 1.563 14.3 4.732.53 5.445.245 13.155.056 19.849-3.559 8.714-8.103 13.889-18.596 15.386-.156.023-.314.033-.475.033"/>
        <path fill="#ECB49F" d="M195 98.112s7.525 57.29 29.156 58.835c21.63 1.547 28.653-31.044 30.352-53.577 1.897-25.218-.39-32.87-30.68-34.323C194.625 67.643 195 98.112 195 98.112"/>
        <path fill="#2E3054" d="M260.516 89.332c-.253 1.777-.714 3.72-1.128 5.726 7.777-.172 7.577 12.411 5.045 16.862-.43.751-3.267 3.111-3.272 3.633-.019 1.6 3.09 1.423 2.681 3.974-.587 3.683-5.441 6.483-9.023 5.124-2.757-1.046-2.178-4.258-2.567-6.759-.99-6.345-3.304-9.295-7.53-13.446-3.239-3.183-9.043-7.625-9.476-12.302-5.989 10.714-19.028 12.505-30.032 10.027-1.548 6.459-.362 9.976-6.726 13.753-6.155 3.655-7.22.459-12.272-2.962-1.182-5.203 2.736-10.891 5.695-13.163-7.497-7.282-1.161-18.716 5.965-26.374 8.753-9.412 19.283-13.163 31.64-12.307 5.71.398 13.538 3.183 17.646 7.242 3.211 3.172 6.652 5.13 7.035 12.25 6.26.763 6.965 4.209 6.32 8.722"/>
        <path fill="#FFF" d="M213 134.368s12.736 7.693 26-.368c0 0-12.388 26.753-26 .368"/>
        <path fill="#DCC8B6" d="M144.542 314.649l-.084-.142c.028-.052.054-.103.084-.156v.298"/>
        <path fill="#7599B0" d="M126.133 305l.309-1.817c.142-.064.284-.126.425-.183l-.444 1.864-.29.136"/>
        <path fill="#EFAC7B" fill-rule="nonzero" d="M144.88 314c-2.352-3.894-6.96-10.09-14.257-10.09-1.435 0-2.976.24-4.623.784l.637-1.968c1.7-.509 3.347-.726 4.932-.726 4.73 0 8.904 1.94 12.288 3.878.391.225.772.449 1.143.67v7.236l-.12.216"/>
        <path fill="#EFBE9A" fill-rule="nonzero" d="M126.056 304.954c13.764-5.122 20.044 12.027 20.776 12.394 2.313 1.158 2.654.322 2.654.322L167 354.296c-19.632 10.982-41.035-4.023-47.201-24.44-3.54-11.721 5.829-23.346 5.829-23.346l.428-1.556"/>
        <path fill="#F4B59F" d="M327.734 307L327.734 307 327.266 305 327.734 307"/>
        <path fill="#EFAC7B" fill-rule="nonzero" d="M307 337v-27.2c3.773-2.323 9.084-5.8 15.384-5.8 1.587 0 3.239.222 4.943.737l.673 2.11c-.607-.042-1.197-.063-1.767-.063-12.768 0-16.222 10.054-16.055 10.813 1.78 8.06-.282 16.667-.282 16.667L307 337"/>
        <path fill="#EFBE9A" fill-rule="nonzero" d="M327.945 307.094c-14.287-1.223-18.067 9.899-17.895 10.697 1.747 8.044-.277 16.635-.277 16.635L287 356.306c19.633 10.952 41.037-4.014 47.2-24.374 3.542-11.693-5.828-23.29-5.828-23.29l-.427-1.548"/>
        <path fill="orange" d="M241.594 291L212 285.812 226.405 201 256 206.187 241.594 291"/>
        <path fill="#A2B2FF" d="M234.932 266.772c.592 4.736-2.759 9.058-7.481 9.655l-27.85 3.505c-4.723.594-9.033-2.765-9.628-7.5l-4.907-39.19c-.592-4.734 2.881-8.05 7.607-8.645l27.847-3.506c4.727-.595 8.907 1.755 9.506 6.491l4.906 39.19"/>
        <path fill="#3E3874" d="M229.268 219l-38.183 4.884c-3.807.487-6.508 4.032-6.03 7.912.479 3.883 3.95 6.636 7.763 6.148L231 233.058 229.268 219"/>
        <path fill="#FFF" d="M228.644 220l-38.822 4.975c-2.451.315-4.144 3.035-3.77 6.067.37 3.031 2.672 5.244 5.123 4.928L230 230.992 228.644 220"/>
        <path fill="#6BA4E9" d="M230.522 228.669L230.478 228.331 230.481 228.331 230.522 228.669"/>
        <path fill="#292B4F" d="M230.431 228.789L230.362 228.238 230.57 228.211 230.613 228.55 230.638 228.763 230.431 228.789"/>
        <path fill="#E0E6F1" d="M193.095 234L193 233.288 229.903 229 230 229.715 193.095 234"/>
        <path fill="#BB4F60" d="M229.52 223.666L229.48 223.335 229.481 223.334 229.52 223.666"/>
        <path fill="#292B4F" d="M229.431 223.788L229.361 223.238 229.571 223.212 229.639 223.762 229.431 223.788"/>
        <path fill="#E0E6F1" d="M193.098 228L193 227.28 229.901 223 230 223.723 193.098 228"/>
        <path fill="#BB4F60" d="M230.516 226.635L230.482 226.365 230.518 226.635 230.516 226.635"/>
        <path fill="#292B4F" d="M229.43 226.788L229.361 226.238 229.568 226.212 229.605 226.493 229.639 226.762 229.43 226.788"/>
        <path fill="#E0E6F1" d="M193.097 231L193 230.28 229.903 226 230 226.718 193.097 231"/>
        <path fill="#FFF" d="M177.724 233.29c1.778-3.217 14.524.334 18.539 2.518 4.013 2.184 5.832 6.563 4.056 9.78-1.775 3.219-6.467 4.058-10.48 1.87-1.407-.766-3.536-2.342-5.628-4.202l2.824 2.696c.428 1.808.637 3.615.652 5.39l-5.787 15.235c-1.855 2.062-4.176 3.649-6.878 4.567-2.754.937-5.62 1.08-8.405.55l-14.982-8.18c-1.015-1.246-1.892-2.628-2.603-4.13l.874-4.216c-.503 2.638-1.187 5.065-1.805 6.475-1.828 4.17-6.051 6.366-9.44 4.901-3.385-1.462-4.652-6.03-2.824-10.2 1.826-4.168 9.714-14.732 13.103-13.269l28.784-9.786"/>
        <path fill="#E6EDFF" d="M177.674 241.132c3.091 9.14.594 18.282-5.58 20.418-6.172 2.136-13.682-3.54-16.769-12.682-3.09-9.139-.59-18.282 5.581-20.418 6.172-2.136 13.681 3.54 16.768 12.682"/>
        <path fill="#252775" d="M150.371 242.982c-.125-.087-.249-.175-.371-.265.273-.083.536-.128.784-.128.223 0 .434.037.629.116l2.587-.687-3.629.964"/>
        <path fill="#E0E6F1" d="M155 246c-1.781-.695-3.47-1.629-5-2.772l4.308-1.228c.072 1.299.299 2.642.692 4"/>
        <path fill="#252775" d="M176.076 233.826c.145-.319.444-.527.849-.652-.02.129-.042.256-.065.383l-.785.269"/>
        <path fill="#E0E6F1" d="M175.867 237c-.57-.795-1.196-1.546-1.867-2.244l1.672-.421v-.001L177 234c-.257 1.038-.638 2.042-1.133 3"/>
        <path fill="#CAD6F1" d="M161.567 248c-2.371 0-4.728-.557-6.93-1.59-.362-1.501-.57-2.988-.637-4.425L174.443 235c.56.793 1.082 1.646 1.557 2.549-1.712 4.507-5.069 8.098-9.617 9.652-1.584.541-3.203.799-4.816.799"/>
        <path fill="#FFF" d="M177.219 216.919c3.105-2.035 4.58-5.885 3.344-9.447-1.476-4.26-6.258-6.504-10.685-5.009-2.54.857-4.409 2.761-5.264 5.035l-20.554 6.408c-2.084-1.278-4.746-1.653-7.285-.794-4.424 1.494-6.814 6.16-5.339 10.419 1.232 3.563 4.787 5.718 8.504 5.446l37.279-12.058"/>
        <path fill="#FFF" d="M177.945 220.191c3.486 10.184-1.947 21.268-12.133 24.753-10.188 3.488-21.271-1.947-24.757-12.132-3.485-10.19 1.95-21.268 12.136-24.757 10.187-3.486 21.27 1.95 24.754 12.136"/>
        <path fill="#E6EDFF" d="M171.522 229.404c1.767 5.149-1.517 10.939-7.325 12.925-5.81 1.985-11.954-.584-13.72-5.734-1.764-5.152 1.518-10.939 7.328-12.922 5.813-1.99 11.955.582 13.717 5.731"/>
        <path fill="#4C4C4C" d="M162.924 225.224c.427 1.186-.981 2.72-3.15 3.425-2.17.707-4.273.312-4.698-.873-.427-1.187.982-2.72 3.152-3.425 2.168-.705 4.269-.314 4.696.873M152.89 223.354c.36 1.045-.195 2.182-1.24 2.538-1.048.356-2.183-.197-2.542-1.245-.357-1.044.2-2.182 1.245-2.54 1.046-.356 2.183.2 2.538 1.247M165.893 219.354c.355 1.044-.201 2.181-1.247 2.538-1.042.357-2.18-.199-2.538-1.245-.356-1.046.197-2.181 1.247-2.539 1.043-.358 2.18.201 2.538 1.246"/>
        <path fill="#E6EDFF" d="M164.141 268.294c4.087 5.342 3.751 12.455-.746 15.886-4.495 3.426-11.454 1.873-15.537-3.469-4.085-5.346-3.75-12.46.745-15.889 4.5-3.429 11.455-1.878 15.538 3.472"/>
        <path fill="#FFF" d="M159.441 271.761c2.229 2.788 2.046 6.5-.408 8.287-2.45 1.792-6.247.979-8.474-1.81-2.23-2.787-2.045-6.499.406-8.286 2.453-1.79 6.249-.982 8.476 1.81"/>
        <path fill="#E6EDFF" d="M182 263.076c.046 6.624 4.564 11.964 10.084 11.924 5.525-.044 9.964-5.448 9.916-12.071-.05-6.628-4.565-11.967-10.086-11.929-5.523.043-9.962 5.448-9.914 12.076"/>
        <path fill="#FFF" d="M187 262.537c.027 3.592 2.51 6.484 5.55 6.463 3.036-.024 5.477-2.95 5.45-6.538-.026-3.592-2.51-6.486-5.548-6.462-3.035.023-5.477 2.95-5.452 6.537"/>
        <path fill="#4C4C4C" d="M165.827 229c.686 2.213-.73 4.75-3.17 5.667-2.433.92-4.967-.13-5.657-2.343l8.827-3.324"/>
        <path fill="#ECB49F" d="M242.546 244.176c4.626-22.577 18.612-38.769 26.933-37.051 8.327 1.72 7.844 20.697 3.216 43.275-4.63 22.579-11.654 40.205-19.983 38.484-8.319-1.716-14.8-22.13-10.166-44.708"/>
        <path fill="#E29871" d="M256.615 235c-3.035 0-4.207-6.691-4.615-13.538 1.828-2.9 3.781-5.414 5.75-7.462 2.07 8.275 3.984 19.501-.416 20.883-.25.08-.489.117-.72.117M250.101 253c-2.916-.001-4.87-6.54-6.101-13.273 1.01-3.821 2.286-7.414 3.747-10.727 3.296 8.12 7.956 21.712 3.27 23.792-.316.14-.62.208-.916.208M246 259h-5c.004-2.582.164-5.26.502-8 1.514 2.449 3.139 5.25 4.498 8"/>
        <path fill="#8290FF" d="M302.954 218.945l-14.783-2.94c-.908-.18-10.44 5.106-11.985 6.738-1.048 1.107-1.805 2.512-2.125 4.119l-12.9 64.885c-.9 4.534 2.05 8.946 6.584 9.846l21.351 4.244c4.536.904 8.942-2.044 9.844-6.58l12.898-64.884c.472-2.372-.112-4.71-1.42-6.53-.884-1.228-6.558-8.716-7.464-8.898"/>
        <path fill="#A2B2FF" d="M304.053 259h-2.106l-20.88-4.233 2.206-11.319 22.906 4.642-2.126 10.91m-14.853 0h-8.957l.34-1.747L289.2 259m-15.43 0H270l.73-3.745 3.627.736-.587 3.009m1.072-5.495l-3.626-.735 2.205-11.318 3.628.735-2.207 11.318m31.82-7.898l-22.904-4.644 2.206-11.318 22.904 4.641-2.205 11.321m-29.13-5.907l-3.627-.736 2.206-11.317 3.627.737-2.205 11.316M309 231.73l-22.551-4.572.537-2.758c.18-.917-.404-1.805-1.301-1.986l-2.977-.605c-.108-.022-.216-.032-.324-.032-.774 0-1.467.555-1.62 1.36l-.54 2.76-3.273-.663c.301-.578.661-1.11 1.072-1.585 1.35-1.567 9.493-6.649 10.49-6.649.014 0 .028.001.04.003l12.815 2.6c.788.157 5.613 7.26 6.364 8.428.693 1.072 1.138 2.342 1.268 3.699"/>
        <path fill="#FFF" d="M288 215.987l1.266-6.579c.182-.946 1.079-1.561 1.994-1.375l11.374 2.332c.919.188 1.517 1.11 1.333 2.056L302.7 219 288 215.987"/>
        <path fill="#A2B2FF" d="M310.503 235L275 227.599 275.493 225 311 232.401 310.503 235"/>
        <path fill="#8290FF" d="M307.508 249L272 241.6 272.492 239 308 246.405 307.508 249M304.508 262L269 254.598 269.492 252 305 259.4 304.508 262"/>
        <path fill="#7AB6F6" d="M302.507 276L267 268.598 267.493 266 303 273.399 302.507 276M299.51 290L264 282.599 264.495 280 300 287.402 299.51 290M296.508 303L261 295.596 261.489 293 297 300.401 296.508 303"/>
        <path fill="#CFE5FC" d="M280.351 259H274l.575-2.99 6.11 1.253-.334 1.737m.81-4.207l-6.11-1.255 2.166-11.25 6.108 1.253-2.165 11.252m2.64-13.722l-6.107-1.255 2.164-11.25 6.108 1.254-2.164 11.25m2.64-13.721l-6.108-1.254.529-2.743c.151-.8.83-1.352 1.59-1.352.106 0 .212.01.318.031l2.921.602c.88.18 1.453 1.063 1.277 1.974l-.527 2.742"/>
        <path fill="#AFD3FA" d="M286.494 230L280 228.654 280.506 226 287 227.346 286.494 230M283.494 244L277 242.654 277.506 240 284 241.348 283.494 244M280.494 257L274 255.654 274.506 253 281 254.348 280.494 257"/>
        <path fill="orange" d="M145 350L307 350 307 259 145 259z"/>
        <path fill="#EC9901" d="M307 349h-.343l.343-.345V349m-41.625 0h-76.769c4.05-1.888 6.32-3.426 8.533-5.534.936-.888 1.326-1.566 1.415-2.076h57.503c-.018.522.307 1.259 1.363 2.291 2.076 2.025 4.205 3.512 7.955 5.319m-119.997 0H145v-90h9.062v80.722c-.26.102-.546.158-.875.158-.954.001-2.251-.47-4.219-1.627-3.1-1.825-2.999-6.725-3.968-9.285v19.66l.378.372m127.218-2.828l-12.332-4.782h5.97c2.252 2.259 6.362 4.782 6.362 4.782m-91.437-.146s3.997-2.393 6.414-4.636h5.85l-12.264 4.636m98.925-3.491s-.986-.49-2.466-1.145h1.27c.681.69 1.196 1.145 1.196 1.145m-106.806-.244s.406-.348.98-.901h.989c-1.203.53-1.969.901-1.969.901"/>
        <path fill="#FFF" d="M150 257.109s-1.25 3.143-1.869 4.55c-1.832 4.159-6.065 6.349-9.461 4.888-3.393-1.459-4.663-6.014-2.831-10.173 1.83-4.158 9.737-14.695 13.133-13.236l1.028 13.97"/>
        <path fill="#EF5E51" d="M305.171 349.779h-38.475c-.602-.192-1.166-.377-1.696-.558h41c-.27.191-.544.379-.829.558"/>
        <path fill="#F7925F" d="M307 341h-28.144c-1.74-1.764-4.568-5.072-2.667-6.295.279-.18.626-.26 1.022-.26 3.375 0 10.388 5.806 10.388 5.806s-2.736-6.692-1.195-8.832c.253-.353.632-.507 1.097-.507 2.37 0 6.975 3.992 8.446 6.065 1.103 1.55 1.702 2.817 3.21 2.817.906 0 2.142-.458 4.01-1.588 3.009-1.817 2.845-6.751 3.833-9.206v12m-29.415 0h-11.397c-1.167-1.169-1.835-2.266-1.181-2.907.43-.25 1.02-.358 1.72-.358 2.97 0 7.9 1.958 10.858 3.265m-17.373 0H256c.033-.936 1.17-1.179 1.17-1.179l3.042 1.179"/>
        <path fill="#D0503C" d="M306.656 349H265.33c-3.754-1.9-5.885-3.463-7.964-5.591-1.057-1.085-1.383-1.86-1.364-2.409h4.211l12.346 5.028s-4.115-2.654-6.37-5.028h11.397c1.482.688 2.47 1.204 2.47 1.204s-.516-.478-1.198-1.204H307v7.637l-.344.363"/>
        <path fill="#EFAC7B" fill-rule="nonzero" d="M297.99 356.252c11.628-1.589 18.163-18.84 11.067-23.922-7.09-5.089.505 5.869-4.376 8.702-4.883 2.84-5.35 1.178-7.09-1.178-1.737-2.352-7.875-7.31-9.381-5.28-1.506 2.023 5.52 6.717 3.403 8.557-2.117 1.846-10.823-7.077-13.42-5.47-2.597 1.605 7.164 6.512 5.613 7.89-1.553 1.38-17.363-7.475-18.385-6.394-1.023 1.076 10.081 7.812 9.23 8.985-.855 1.176-19.502-7.007-19.502-7.007s-2.71.554.195 3.282c2.908 2.733 10.29 5.767 17.837 8.785 7.541 3.014 17.554 4.934 24.81 3.05"/>
        <path fill="#F7925F" d="M186.314 349h-40.461c-.293-.254-.574-.523-.853-.795h43.068c-.55.258-1.134.522-1.754.795m11.665-8.396h-5.111l3.904-1.48s1.414.296 1.207 1.48m-10.94 0h-12.28c2.983-1.317 8.666-3.616 12-3.616.733 0 1.352.112 1.803.368.737.705-.13 1.952-1.523 3.248m-13.266 0h-20.12v-1.666c.99-.391 1.573-1.468 2.488-2.727 1.544-2.124 6.37-6.211 8.853-6.211.487 0 .884.158 1.149.518 1.613 2.198-1.253 9.047-1.253 9.047s7.35-5.946 10.882-5.946c.416 0 .778.081 1.07.265 2.099 1.319-1.295 5.004-3.07 6.72"/>
        <path fill="#D0503C" d="M188.97 349h-43.59l-.38-.372V329c.977 2.557.874 7.448 4.001 9.27 1.984 1.156 3.292 1.626 4.254 1.625.332 0 .62-.056.883-.158v1.665H174.5c-.578.553-.988.9-.988.9s.773-.37 1.985-.9h12.43c-2.438 2.24-6.468 4.628-6.468 4.628l12.367-4.628H199c-.09.51-.484 1.186-1.427 2.073-2.232 2.104-4.52 3.64-8.604 5.525"/>
        <path fill="#EFAC7B" fill-rule="nonzero" d="M153.402 354.285c-12.02-1.527-18.69-18.795-11.322-23.938 7.369-5.141-.552 5.896 4.484 8.71 5.039 2.815 5.53 1.148 7.342-1.223 1.809-2.371 8.194-7.38 9.738-5.355 1.547 2.024-5.75 6.776-3.57 8.607 2.181 1.843 11.24-7.164 13.917-5.564 2.678 1.596-7.448 6.572-5.847 7.948 1.598 1.376 18.005-7.598 19.056-6.524 1.052 1.077-10.475 7.898-9.599 9.069.877 1.175 20.218-7.14 20.218-7.14s2.8.54-.223 3.296c-3.021 2.758-10.678 5.845-18.501 8.91-7.823 3.072-18.198 5.055-25.693 3.204"/>
        <path fill="#FFF" d="M196.454 177.547L192 182.476s7.795 10.96 30.054 11.507c22.26.547 33.946-12.6 33.946-12.6L249.875 177s-31.717 20.817-53.421.547"/>
        <path fill="#FFCF0A" d="M100.724 183.115c8.627-9.738 13.705 3.35 13.705 3.35s-1.89-13.921 10.342-9.651c12.238 4.276-5.977 26.132-5.977 26.132l-.207.054s-26.479-10.15-17.863-19.885"/>
        <path fill="#FFD68C" d="M110.5 96C96.416 96 85 84.36 85 70s11.417-26 25.5-26c14.08 0 25.5 11.64 25.5 26s-11.42 26-25.5 26"/>
        <path fill="#A2B2FF" d="M378 153.504C378 171.45 363.45 186 345.5 186c-17.952 0-32.5-14.549-32.5-32.496 0-17.95 14.548-32.504 32.5-32.504 17.95 0 32.5 14.553 32.5 32.504"/>
        <path fill="#FFF" d="M341.079 165h-8.93c-1.735 0-3.149-1.482-3.149-3.302v-14.396c0-1.82 1.414-3.302 3.15-3.302h9.059v2.339h-9.06c-.507 0-.916.432-.916.963v14.396c0 .53.41.962.917.962h8.929v1.097l.89-.635L343 164.9l-1.921.1"/>
        <g>
            <path fill="#3E3874" d="M128.072 78.069c-18.655-8.354-24.325-26.78-31.124-44.34C91.253 19.026 81.633 7.704 66.426 2.564 52.43-2.152 36.976-.328 24.587 7.755 10.817 16.725 1.537 32.178.18 48.594c-1.461 17.65 6.056 38.089 20.71 48.622.29.211.68.167.964-.002 9.48 13.796 20.238 26.557 32.134 38.338 10.797 10.68 22.618 21.55 35.437 30.034-.227.882.03 1.87 1.043 2.346 30.016 14.32 71.277 21.143 102.467 3.645 19.545-10.965 24.108-34.772 19.303-49.052-18.04-53.595-69.694-37.982-84.165-44.456" transform="translate(178 53)"/>
            <path fill="#31306E" d="M192.08 153c-.658 0-1.325-.769-.967-1.469 7.395-14.497 2.795-30.802-9.773-40.952-12.245-9.887-28.682-12.422-44.175-12.422-.93 0-1.858.01-2.78.027h-.009c-.488 0-.508-.711-.019-.753 3.272-.273 6.582-.431 9.891-.431 15.335 0 30.661 3.373 42.135 14.147 11.247 10.56 16.148 28.471 6.37 41.497-.19.252-.43.356-.673.356" transform="translate(178 53)"/>
            <path fill="#EFAC7B" fill-rule="nonzero" d="M51 131.276s-7.19 4.894-19-3.302c0 0 6.617-11.319 3.428-17.95C32.239 103.394 56 103 56 103s-7.78 20.024-5 28.276z" transform="translate(178 53)"/>
            <path fill="#FEC290" d="M21.74 37.718c11.259-12.487 34.506-15.84 44.934-.39.424.629.296 1.324-.09 1.85 6.358 7.571 9.199 18.227 8.23 28.132-.907 9.3-4.435 18.14-9.019 26.224-4.369 7.718-9.67 16.5-17.746 20.833-18.85 10.124-29.189-11.196-33.752-25.8-5.316-17-5.116-36.901 7.443-50.849" transform="translate(178 53)"/>
            <path fill="#DB898B" d="M31.13 88.295c1.004-2.513 3.208-4.475 4.335-7.011 1.223-2.75 2.052-5.66 2.224-8.67.118-2.04 3.026-2.218 3.208-.12.309 3.56-.055 7.092-1.414 10.412-1.222 2.982-3.146 6.607-6.205 7.95-1.59.696-2.662-1.278-2.148-2.561" transform="translate(178 53)"/>
            <path fill="#38193A" d="M50.137 70.218c1.404-.953 3.27-1.43 5.012-1.128 3.491.603 5.661 4.082 4.565 7.106-.475 1.313-2.648.922-2.352-.482.36-1.701-1.019-3.775-3.104-3.743-2.18.035-2.659 1.927-4.08 2.967-.736.537-1.637-.018-1.952-.633-.781-1.524.613-3.208 1.91-4.087M26.345 66.01c3.89.217 6.879 3.507 6.642 6.989-.085 1.254-2.162 1.387-2.194.075-.054-2.357-2.182-4.688-4.964-4.335-2.443.311-3.329 2.337-4.635 3.939-.541.665-1.803.345-2.03-.403-1.106-3.656 3.62-6.464 7.181-6.265" transform="translate(178 53)"/>
            <path fill="#3E3874" d="M17.275 57.075c2.008-3.569 4.72-6.054 8.381-7.647 3.187-1.386 7.811-2.447 10.624.206 1.345 1.27.65 3.221-.81 3.907-2.338 1.096-5.211.426-7.711 1.137-2.778.79-5.32 2.561-7.312 4.714-1.483 1.602-4.343-.238-3.172-2.317" transform="translate(178 53)"/>
            <path fill="#FEC290" d="M4 76.613c-.012-2.503 1.54-4.425 3.72-4.6 2.108-.168 3.91 1.225 5.164 3.114 1.165.98 1.952 2.584 1.791 4.184 1.283.602 1.934 2.691.554 3.687-1.456 1.052-3.408 1.32-5.057.59-.958-.125-1.904-.419-2.815-.966C5.44 81.466 4.011 79.04 4 76.613" transform="translate(178 53)"/>
            <path fill="#3E3874" d="M57.967 54.813c-2.933-1.372-9.162-3.224-11.53-.117-.671.88-.62 2.183.507 2.728 1.357.654 2.434.421 3.904.31 1.704-.128 3.371.054 5.001.562 3.308 1.032 6.08 3.242 7.794 6.15.71 1.202 2.774.263 2.282-1.044-1.428-3.796-4.187-6.826-7.958-8.59" transform="translate(178 53)"/>
            <path fill="#FFF" d="M35 101.529S48.016 99.221 52.676 90c0 0 1.97 10.996-3.809 14.86C43.09 108.724 35 101.529 35 101.529" transform="translate(178 53)"/>
            <path fill="#3E3874" d="M9.306 37.99c-.16-4.47 3.703-7.809 7.217-9.854 6.12-3.562 13.55-5.823 20.564-6.708l.214-.022c-2.875 1.44-5.495 4.236-6.89 7.252l-.152.093c-4.97-1.346-12.304 4.163-12.922 8.844-.042.31-.047.612-.035.907-2.072 1.493-3.756 3.176-4.326 4.904-2.052-.994-3.576-2.759-3.67-5.416m43.32-15.738c1.263.674 2.489 1.392 3.675 2.154-.628-.036-1.26-.056-1.894-.054-.836-.977-2.427-1.387-3.587-.64l-.007.005c-.506-.79-1.377-1.37-2.278-1.223-.784.128-1.57.268-2.343.435-.321-.415-.727-.807-1.261-1.16-.206-.138-.417-.257-.63-.363 2.797.029 5.586.293 8.326.846m-1.937-6.868c-.75.37-1.142.913-1.277 1.5-3.39-.373-6.82-.399-10.224-.07-11.27 1.088-30.876 5.745-33.629 18.832-1.11 5.285 1.413 10.3 6.383 12.533 6.337 2.847 13.36.164 19.355-2.236 10.17-4.071 21.776-9.507 32.166-8.163 10.503 2.955 7.365 5.422 11.637 7.42.807.378 1.57.376 2.206.132.302.342.604.682.9 1.052.64.797 2.01.275 1.694-.794-.239-.807-.562-1.556-.923-2.277.139-.646.075-1.361-.277-2.045-.397-.774-.814-1.53-1.244-2.278 1.927.632 4.595-1.136 3.646-3.402-5.019-11.975-15.09-27.784-30.413-20.204" transform="translate(178 53)"/>
            <path fill="#31306E" d="M108.698 76c-.19 0-.391-.048-.592-.157-12.224-6.652-17.038-21.632-21.998-33.4-4.127-9.79-10.343-20.402-19.667-25.512-2.713-1.815-5.745-2.925-9.095-2.925-.965-.112-1.957-.17-2.973-.17-1.251 0-2.542.089-3.872.272-.026.004-.051.006-.076.006-.515 0-.58-.791-.094-.957C52.656 12.362 54.953 12 57.197 12c10.862 0 20.473 8.481 25.876 17.396 4.28 7.062 6.957 14.874 10.293 22.362 3.955 8.88 8.69 15.678 16.211 22.032.941.795.162 2.21-.879 2.21" transform="translate(178 53)"/>
            <path fill="#6E304F" d="M67 16c-2.422-1.031-5.08-1.735-8-2 2.947 0 5.613.759 8 2" transform="translate(178 53)"/>
            <path fill="#FEC290" d="M71.552 76.097c-.042.228.164.535.375.514.351-.032.68-.128.999-.247-.086.462-.143.94-.137 1.45.001.162.026.32.058.478-1.17-.542-2.322-.814-3.428-.235-.283.148-.47.664-.407 1.044.695 4.133 6.43 5.877 9.332 5.899 3.19.023 6.245-2.442 6.611-6.274.897-9.342-12.025-10.205-13.403-2.629" transform="translate(178 53)"/>
        </g>
    </g>
</svg>
