<svg xmlns="http://www.w3.org/2000/svg" viewBox="0 0 64 54">
    <g fill="#3E3874">
        <path d="M32.339 14.654v-2.725h.142c.579 0 1.036-.532 1.036-1.11V1.055c.002-.275-.106-.54-.3-.735-.196-.195-.46-.303-.736-.301H5.853c-.272 0-.532.11-.72.305-.189.195-.29.46-.279.73v9.765c0 .578.42 1.11.999 1.11h.18v2.729c0 .007-.038.013-.05.02-.052.025-.108.052-.158.078l-.197.1-.154.086c-.062.034-.124.069-.185.105-.052.03-.102.061-.153.092l-.178.11-.15.1-.17.115-.149.105-.164.12-.146.111-.159.126-.14.116c-.053.043-.104.088-.155.132l-.137.12-.15.139-.131.124-.145.144-.127.128-.14.151-.121.13c-.048.053-.093.107-.139.161l-.113.13-.14.176-.1.124c-.058.075-.114.15-.17.226l-.094.13c-.062.087-.124.175-.183.264-.029.042-.055.086-.083.129l-.126.195c-.03.048-.057.097-.087.145l-.11.186-.085.154-.1.183-.081.16c-.032.062-.063.124-.092.185-.027.055-.052.11-.077.165l-.085.187c-.025.055-.048.111-.072.167l-.078.19-.065.17-.072.194-.06.172-.065.197-.053.174c-.02.066-.04.133-.058.2l-.048.175-.05.204c-.014.059-.029.117-.042.176l-.044.21-.034.174-.037.215c-.01.057-.02.114-.028.172l-.03.222c-.007.057-.015.112-.02.169-.01.078-.016.157-.023.235l-.015.158c-.006.088-.01.176-.014.264-.003.044.008.089.006.133-.005.132.006.265.006.398v22.889c-.001 3.246 2.627 5.88 5.873 5.888h26.565c3.255-.005 5.894-2.637 5.908-5.891V24.38c.006-2.15-.624-4.255-1.81-6.049-1.043-1.586-2.499-2.857-4.21-3.678zM6.949 2.113h24.474v7.722H6.948V2.113zm29.316 45.149c-.012 2.1-1.716 3.797-3.817 3.8H5.89c-2.093-.004-3.787-1.704-3.783-3.797V24.38c-.002-1.843.574-3.64 1.648-5.14.123-.172.247-.34.383-.502.067-.082.133-.193.204-.272.865-.954 1.925-1.71 3.11-2.218h.009c.397-.124.668-.492.666-.909v-3.41h22.119v3.41c-.002.43.26.816.659.974 3.208 1.267 5.361 4.51 5.361 8.068v22.88z"/>
        <path d="M29.852 29.336H23.44v-6.413c0-.578-.469-1.047-1.047-1.047H15.98c-.578 0-1.047.469-1.047 1.047v6.413H8.65c-.578 0-1.047.469-1.047 1.047v6.02c0 .579.469 1.047 1.047 1.047h6.282v6.413c0 .579.469 1.048 1.047 1.048h6.413c.578 0 1.047-.47 1.047-1.048V37.45h6.413c.578 0 1.047-.468 1.047-1.047v-6.02c0-.578-.469-1.047-1.047-1.047zm-1.047 6.02h-6.413c-.578 0-1.047.47-1.047 1.047v6.413h-4.319v-6.413c0-.578-.469-1.047-1.047-1.047H9.697V31.43h6.282c.578 0 1.047-.469 1.047-1.047V23.97h4.32v6.413c0 .578.468 1.047 1.046 1.047h6.413v3.926zM60.256 36.16l-12.295-4.508c-2.868-1.052-6.048.404-7.126 3.262-1.078 2.858.35 6.051 3.198 7.155-2.932.33-5.096 2.895-4.928 5.842.167 2.946 2.607 5.249 5.558 5.245H57.76c1.966.003 3.788-1.033 4.79-2.726 1.003-1.691 1.036-3.787.089-5.51 1.147-1.393 1.547-3.255 1.074-4.996-.474-1.741-1.762-3.144-3.456-3.764zm1.345 6.422c-.09.242-.205.473-.345.69-.99-.804-2.224-1.242-3.497-1.24h-5.514l2.126-5.8 5.164 1.894c1.8.662 2.724 2.656 2.066 4.456zM42.894 38.34c-.591-1.275-.356-2.78.596-3.813.951-1.033 2.431-1.392 3.75-.908l5.165 1.893-1.835 5.006c.197-.542-.082-1.142-.624-1.34l-4.182-1.534c-.351-.132-.747-.065-1.036.176-.289.24-.427.617-.362.987s.324.676.678.803l4.181 1.533c.26.096.549.085.8-.032.253-.117.447-.329.543-.59l-.554 1.51h-.004l-5.16-1.891c-.867-.315-1.57-.963-1.956-1.8zm-1.704 9.254c.003-1.917 1.557-3.47 3.473-3.469h5.476v5.333c.004-.272-.103-.533-.295-.724-.193-.192-.455-.296-.726-.29h-4.455c-.578 0-1.047.47-1.047 1.047 0 .579.469 1.047 1.047 1.047h4.455c.577-.016 1.033-.496 1.02-1.074v1.598h-5.475c-1.916 0-3.47-1.552-3.473-3.468zm16.569 3.468h-5.526v-6.937h5.526c1.915 0 3.468 1.553 3.468 3.469 0 1.915-1.553 3.468-3.468 3.468z"/>
    </g>
</svg>
