<svg xmlns="http://www.w3.org/2000/svg" viewBox="0 0 64 72">
    <g fill="#3E3874">
        <path d="M29.336 47.19h-.134l.125-1c.04-.325-.06-.652-.277-.898-.217-.245-.528-.386-.856-.386H2.316c-.327 0-.64.141-.856.386-.216.246-.317.573-.277.898l.125 1h-.134c-.63 0-1.141.51-1.141 1.141 0 3.05.902 5.893 2.452 8.277l1.743 13.938c.071.571.557 1 1.132 1h19.79c.575 0 1.061-.429 1.133-1l1.742-13.938c1.55-2.384 2.453-5.227 2.453-8.277 0-.63-.511-1.141-1.142-1.141zm-5.194 22.073H6.368l-1.191-9.534c2.686 2.379 6.216 3.825 10.078 3.825 3.862 0 7.392-1.446 10.078-3.825l-1.191 9.534zm1.685-13.484c-2.344 3.319-6.208 5.492-10.572 5.492-4.363 0-8.227-2.173-10.572-5.492L3.61 47.19H26.9l-1.074 8.59zM53.692 60.129c-1.3 0-2.56.238-3.753.708-2-1.443-4.425-2.23-6.903-2.23-.399 0-.794.02-1.183.06l-.72-3.599V1.142C41.134.51 40.624 0 39.993 0h-4.567c-.63 0-1.142.511-1.142 1.142v53.926L32.1 65.99c-.553 1.365-.86 2.854-.86 4.415 0 .63.511 1.142 1.142 1.142h30.445c.63 0 1.141-.511 1.141-1.142 0-5.666-4.61-10.275-10.275-10.275zM36.567 2.283h2.283v6.85h-2.283v-6.85zm0 9.134h2.283V54.04h-2.283V11.417zm-.206 44.906h2.695l.558 2.792c-1.598.485-3.052 1.302-4.285 2.369l1.032-5.16zm-2.77 12.94c.565-4.71 4.585-8.373 9.445-8.373 2.173 0 4.295.751 5.981 2.115l.073.06c1.072.885 1.952 2.012 2.546 3.263.27.57.952.811 1.52.541.57-.27.813-.952.542-1.521-.468-.985-1.079-1.909-1.803-2.733.584-.134 1.185-.202 1.797-.202 4.02 0 7.355 2.982 7.91 6.85H33.59z"/>
    </g>
</svg>
