<svg xmlns="http://www.w3.org/2000/svg" viewBox="0 0 64 64">
    <g fill="#3E3874">
        <path d="M62.663 51.636c-2.247-3.94-6.365-4.678-7.169-4.786-.046-.006-.093-.01-.141-.01H44.085l-.446-.445c.573-.2 1.123-.462 1.631-.78.523-.325.967-.691 1.36-1.071l4.172 1.192.585-2.047-3.338-.954c.44-.752.717-1.46.871-1.973.03-.1.046-.204.046-.308v-2.187l2.548-1.093-.837-1.956-1.71.733v-.82c0-.192-.053-.381-.153-.547L45.62 29.26c-.169-.28-.458-.468-.783-.509-.32-.035-.65.072-.882.305l-2.882 2.881h-.623V18.541l1.505-1.505h1.365l2.925 1.95c.49.327 1.15.194 1.477-.295l2.129-3.193c.238-.358.238-.823 0-1.18L45.594 7.93c-.198-.297-.53-.475-.886-.475h-3.193c-.403 0-.772.228-.953.589l-1.834 3.669H27.271l-1.836-3.67c-.18-.36-.548-.588-.951-.588h-4.258c-.344 0-.666.166-.865.446l-5.323 7.451c-.302.423-.254 1.003.113 1.371l2.13 2.13c.358.359.92.412 1.342.132l2.926-1.95h2.43l.44.44v11.571c-2.81 1.021-10.482 4.523-13.768 13.158-1.939 5.094-1.509 9.85-.794 12.966L6.388 53.69v-3.655c0-1.218-.677-2.312-1.765-2.856-1.09-.545-2.371-.428-3.345.302-.8.6-1.277 1.556-1.277 2.554v7.451c0 .367.19.708.5.903l8.516 5.322c.17.105.364.162.565.162h47.9c.165 0 .329-.038.476-.112l4.257-2.129c.193-.096.35-.248.455-.435.11-.198 2.657-4.894-.007-9.56zm-28.598 1.585l-6.304-.02-.006 2.129 6.309.02v6.393h-2.13c0-2.348-1.909-4.258-4.257-4.258h-2.129c0-5.282-4.297-9.58-9.58-9.58h-1.064v2.129h1.064c4.108 0 7.451 3.342 7.451 7.451v1.065c0 .587.476 1.064 1.065 1.064h3.193c1.174 0 2.129.955 2.129 2.129H9.887L2.13 56.895v-6.861c0-.333.159-.651.425-.852.33-.246.746-.285 1.116-.1.368.185.588.54.588.952v4.258c0 .373.197.72.517.912l5.322 3.193c.386.232.878.196 1.226-.092.347-.289.476-.763.32-1.187-.796-2.167-2.39-7.886-.004-14.157.157-.412.334-.8.512-1.186l.002.001c3.584-7.789 11.162-10.489 12.646-10.951.446-.137.748-.55.748-1.016V17.036c0-.282-.112-.553-.312-.752l-1.064-1.065c-.2-.2-.47-.312-.753-.312h-3.193c-.21 0-.416.063-.59.179l-2.468 1.645-.874-.874 4.48-6.272h3.052l1.835 3.67c.18.36.548.588.952.588h12.773c.404 0 .772-.228.953-.589l1.834-3.669h1.966l3.548 5.322-1.145 1.717-2.307-1.538c-.175-.116-.381-.179-.591-.179h-2.129c-.283 0-.554.112-.753.312l-2.128 2.129c-.2.199-.312.47-.312.753v13.837h-2.753l-2.881-2.881c-.233-.233-.56-.343-.883-.305-.326.04-.614.228-.782.51l-3.194 5.322c-.1.166-.152.355-.152.548v.82l-1.71-.733-.837 1.956 2.547 1.092v2.187c0 .104.016.208.046.308.196.651.582 1.611 1.269 2.586l-3.817 1.432.748 1.994 4.635-1.739c.25.203.522.397.816.58.816.51 1.732.873 2.69 1.076v6.53zm26.878 6.666l-3.712 1.856h-9.627l-.767-2.301v-2.699L48.2 54.7c.169-.256.454-.408.76-.408.46 0 .696.303.776.433.08.131.246.478.04.888l-.698 1.396c-.204.41-.125.905.2 1.229l1.064 1.064c.2.2.47.312.753.312h5.322v-2.129h-4.881l-.21-.21.356-.71c.474-.949.423-2.056-.135-2.959-.557-.902-1.526-1.443-2.587-1.443-1.019 0-1.965.507-2.532 1.354l-1.54 2.313c-.117.176-.18.381-.18.59v3.194c0 .114.02.228.056.336l.597 1.793h-3.846v-7.451h-2.129v7.451h-3.193V45.776c0-.549-.419-1.009-.966-1.06-.779-.072-1.51-.281-2.186-.613l1.398-.524-.749-1.994-2.618.983c-.691-.815-1.071-1.678-1.266-2.277v-1.113l2.774 1.189.838-1.957-3.612-1.546v-1.437l2.34-3.9 2.23 2.228c.199.2.47.312.752.312H41.515c.283 0 .553-.111.753-.312l2.23-2.229 2.34 3.9v1.438l-3.614 1.547.838 1.957 2.775-1.19v1.113c-.16.49-.446 1.16-.922 1.834l-1.978-.565-.585 2.047.764.218c-.812.5-1.719.8-2.699.892-.41.038-.763.31-.903.698-.14.389-.043.822.248 1.114l2.13 2.129c.198.2.469.312.752.312h11.633c.61.092 3.827.72 5.539 3.72 1.752 3.072.554 6.258.127 7.197z"/>
        <path d="M62.885 14.046C60.968 8.72 54.745.594 45.452.05c-6.316-.38-11.124 4.544-13.424 6.907l-.132.135c-.06-.06-.12-.125-.186-.192C29.445 4.547 24.696-.358 18.42.023 9.126.568 2.903 8.692.986 14.021c-2.56 7.12-.08 16.22 6.803 24.963l1.674-1.317C3.043 29.514.683 21.157 2.99 14.74 4.715 9.944 10.28 2.632 18.543 2.148c5.333-.3 9.59 4.105 11.635 6.229.39.404.706.731.94.939.13.115.286.197.453.238l.11.027c.34.084.701-.005.963-.239.227-.2.532-.514.91-.902 2.079-2.136 6.419-6.57 11.774-6.267C53.59 2.66 59.156 9.97 60.88 14.767c2.624 7.293-.788 17.023-9.127 26.028l1.561 1.446c8.89-9.599 12.468-20.14 9.57-28.195z"/>
        <path d="M27.677 18.101H29.806V20.23H27.677zM34.064 18.101H36.193V20.23H34.064zM29.806 22.358H34.064V24.487000000000002H29.806zM34.064 36.196H36.193V38.324999999999996H34.064zM40.451 36.196H42.58V38.324999999999996H40.451zM37.257 39.39H39.385999999999996V41.519H37.257z"/>
    </g>
</svg>
