<svg xmlns="http://www.w3.org/2000/svg" viewBox="0 0 64 64">
    <g fill="#3E3874">
        <path d="M60.25 0h-47.5C10.682 0 9 1.682 9 3.75v31.458c-.303.218-.592.46-.861.728-.919.914-1.526 2.01-1.77 3.168-2.49.461-4.482 2.418-4.991 4.896H1.25C.56 44 0 44.56 0 45.25v5c0 .69.56 1.25 1.25 1.25v3.75C1.25 60.075 5.175 64 10 64h12.5c2.378 0 4.537-.955 6.116-2.5H62.75c.69 0 1.25-.56 1.25-1.25V3.75C64 1.682 62.318 0 60.25 0zm-47.5 2.5h47.5c.69 0 1.25.56 1.25 1.25v8.75h-50V3.75c0-.69.56-1.25 1.25-1.25zm-5.25 39c.69 0 1.25-.56 1.25-1.25 0-.9.41-1.803 1.153-2.542.749-.746 1.736-1.208 2.58-1.208h.011c1.667.008 3.175 1.211 3.667 2.926.168.587.735.966 1.34.898 1.454-.163 2.825.51 3.593 1.72.335.528 1.007.728 1.575.468.49-.224 1.013-.337 1.556-.337 1.364 0 2.566.718 3.223 1.825H3.967c.519-1.453 1.913-2.5 3.533-2.5zM19 37c0-9.65 7.85-17.5 17.5-17.5S54 27.35 54 37s-7.85 17.5-17.5 17.5c-1.788 0-3.55-.271-5.25-.806V51.5c.256 0 .494-.077.693-.21 1.472.471 3 .71 4.557.71 8.271 0 15-6.73 15-15 0-5.896-3.479-11.266-8.863-13.68-.63-.282-1.37 0-1.652.63-.282.63 0 1.37.63 1.652 4.024 1.804 6.77 5.59 7.293 9.898-.145-.066-.29-.143-.452-.229-.646-.343-1.45-.771-2.86-.771s-2.215.428-2.861.771c-.542.288-.9.479-1.687.479s-1.145-.19-1.687-.479c-.646-.343-1.45-.771-2.861-.771-1.41 0-2.215.428-2.86.771-.543.288-.9.479-1.688.479-.787 0-1.145-.19-1.687-.479-.646-.343-1.45-.771-2.86-.771-1.411 0-2.215.428-2.861.771-.184.098-.347.184-.512.255.354-4.461 3.069-8.223 7.328-10.015.637-.268.935-1.001.668-1.637-.268-.637-1.001-.935-1.637-.668-2.689 1.132-4.944 2.984-6.523 5.356-1.65 2.48-2.469 5.412-2.367 8.48.023.716.076 1.373.156 1.991-.773-.576-1.672-.965-2.634-1.135-.015-.3-.023-.6-.023-.898zM2.5 49v-2.5H30V49H2.5zm21.797-9.323c-.1-.481-.174-.994-.225-1.55.709-.151 1.213-.418 1.646-.649.541-.288.9-.478 1.687-.478s1.145.19 1.686.478c.647.344 1.45.772 2.861.772 1.41 0 2.215-.428 2.861-.772.542-.288.9-.478 1.687-.478s1.145.19 1.687.478c.646.344 1.45.772 2.861.772 1.41 0 2.215-.428 2.86-.772.543-.288.9-.478 1.688-.478.787 0 1.145.19 1.687.478.436.233.946.503 1.665.654C48.374 44.496 43.011 49.5 36.5 49.5c-1.37 0-2.711-.222-4-.658V45.25c0-.69-.56-1.25-1.25-1.25h-1.077c-.81-2.532-3.143-4.293-5.876-4.323zM10 61.5c-3.446 0-6.25-2.803-6.25-6.25V51.5h25v3.75c0 3.447-2.804 6.25-6.25 6.25H10zM30.404 59c.401-.841.67-1.757.783-2.719 1.729.477 3.51.719 5.313.719 11.028 0 20-8.972 20-20s-8.972-20-20-20c-10.545 0-19.209 8.203-19.948 18.563-1.114-.975-2.539-1.556-4.046-1.563h-.022c-.324 0-.654.036-.984.1V15h50v44H30.404z"/>
        <path d="M45.25 11.25c2.068 0 3.75-1.682 3.75-3.75s-1.682-3.75-3.75-3.75S41.5 5.432 41.5 7.5s1.682 3.75 3.75 3.75zm0-5c.69 0 1.25.56 1.25 1.25s-.56 1.25-1.25 1.25S44 8.19 44 7.5s.56-1.25 1.25-1.25zM55.25 11.25c2.068 0 3.75-1.682 3.75-3.75s-1.682-3.75-3.75-3.75S51.5 5.432 51.5 7.5s1.682 3.75 3.75 3.75zm0-5c.69 0 1.25.56 1.25 1.25s-.56 1.25-1.25 1.25S54 8.19 54 7.5s.56-1.25 1.25-1.25zM15.251 8.75c.69 0 1.25-.56 1.25-1.25s-.56-1.25-1.25-1.25c-.691 0-1.25.56-1.25 1.25s.56 1.25 1.25 1.25zM20.251 8.75c.69 0 1.25-.56 1.25-1.25s-.56-1.25-1.25-1.25c-.691 0-1.25.56-1.25 1.25s.56 1.25 1.25 1.25zM25.251 8.75c.69 0 1.25-.56 1.25-1.25s-.56-1.25-1.25-1.25c-.691 0-1.25.56-1.25 1.25s.56 1.25 1.25 1.25zM36.501 24.5c.69 0 1.25-.56 1.25-1.25s-.56-1.25-1.25-1.25c-.691 0-1.25.56-1.25 1.25s.56 1.25 1.25 1.25z"/>
    </g>
</svg>
