<svg xmlns="http://www.w3.org/2000/svg" viewBox="0 0 64 69">
    <g fill="#3E3874">
        <path d="M52.549 10.639L54.722 9.931 56.954 16.789 54.781 17.496zM49.199 18.64L51.372 17.932 53.605 24.789 51.431 25.497z"/>
        <path d="M10.66 21.974c-.24 1.746.27 3.513 1.404 4.861l1.65 2.07V48H16V30.708l1.651 1.1c.385.256.885.256 1.27 0l2.793-1.865 2.794 1.863c.385.256.885.256 1.27 0l2.793-1.863 2.795 1.863c.384.256.884.256 1.268 0l2.795-1.863 2.794 1.863c.384.256.884.256 1.269 0l2.794-1.863 2.285 1.524v34.819H19.43v2.285h32c3.154-.003 5.71-2.56 5.714-5.714V28.571c-.003-.25-.09-.494-.246-.691l6.605-17.583c.889-2.362.563-5.01-.87-7.086-1.364-2.014-3.64-3.218-6.07-3.211-3.1.029-5.86 1.965-6.943 4.87l-1.791 4.77-2.114-2.113V3.429c0-.632-.511-1.143-1.143-1.143H32c-.631 0-1.143.511-1.143 1.143v1.96c-1.292-1.17-3.24-1.237-4.61-.156V3.43c0-1.871-1.515-3.388-3.387-3.388-1.87 0-3.387 1.517-3.387 3.388v1.805c-.625-.518-1.413-.802-2.225-.8-.943-.002-1.847.378-2.505 1.055-1.356 1.397-1.364 3.616-.02 5.023l1.064 1.098c-.387.178-.738.425-1.037.728l-.007.005-.011.011c-.267.274-.487.589-.652.933l-1.303-2.406-2.01 1.088 2.955 5.455c-.132.075-.265.149-.39.234-.047.032-.089.07-.134.1l-4.423-4.074-1.55 1.68 4.393 4.05c-.504.772-.831 1.646-.957 2.56zm24.134 5.647L32 29.485l-2.794-1.862c-.385-.256-.885-.256-1.27 0l-2.767 1.846c-.007-.115-.026-.214-.026-.324-.007-2.512 1.806-4.66 4.283-5.074 2.477-.414 4.89 1.027 5.7 3.404-.117.031-.23.08-.332.146zm2.92 1.101l-.021-.014c-.138-2.403-1.432-4.59-3.472-5.865-2.04-1.277-4.572-1.484-6.792-.557v-7.429h10.285v13.865zm17.143 34.135c0 1.894-1.535 3.429-3.428 3.429h-4.572V31.469l2.286-1.526 2.794 1.863c.384.256.884.256 1.269 0l1.651-1.098v32.15zM51.76 5.673c.745-2.015 2.655-3.361 4.802-3.387 1.68-.004 3.25.83 4.191 2.221 1.01 1.462 1.237 3.325.61 4.987l-7.076 18.849-1.715 1.142-2.794-1.862c-.384-.256-.884-.256-1.269 0l-2.794 1.862-2.318-1.545 8.363-22.267zm-4.814 6.317L40.88 28.135l-.88.587V14.187l4.571-4.57 2.374 2.373zM33.143 4.571h10.286v2.286H33.143V4.571zm-.67 4.572h9.34l-3.43 3.428h-9.338l3.428-3.428zm-16.1-2.05c.23-.237.546-.37.875-.37.33 0 .645.133.874.37L19.8 8.807c.326.333.821.434 1.251.257.43-.178.71-.599.708-1.064V3.429c-.018-.406.187-.789.536-.997.348-.209.783-.209 1.131 0 .35.208.555.59.536.997V8c0 .464.281.881.711 1.056.43.176.922.075 1.247-.256l1.683-1.714c.482-.475 1.256-.475 1.737 0 .497.508.497 1.32 0 1.828l-3.366 3.429.034.034-.53.53c-.092.095-.167.206-.22.326-.017.035-.026.071-.039.107-.034.098-.054.2-.061.302 0 .025-.014.046-.014.071v10.081c-.26.249-.502.516-.722.8L22.262 20c-.796-1.585-2.236-2.752-3.953-3.2-.4-.103-.81-.166-1.222-.185l-.293-.343c-.228-.262-.4-.466-.428-.495-.296-.309-.423-.742-.343-1.162.042-.239.152-.46.316-.638l.02-.02.03-.03c.413-.406 1.055-.466 1.537-.144.485.324 1.135.231 1.51-.215.375-.447.354-1.104-.05-1.526l-3.02-3.117c-.491-.514-.487-1.323.008-1.832zm-3.447 15.193c.149-1.108.762-2.1 1.687-2.729.917-.62 2.056-.816 3.128-.539 1.07.278 1.972 1.003 2.472 1.99l2.913 6.206c-.072.267-.13.538-.17.812l-.603-.402c-.384-.256-.884-.256-1.268 0l-2.8 1.861-2.534-1.69-.245-.308 2.947-2.278-1.4-1.808-2.97 2.298-.254-.316c-.727-.857-1.056-1.983-.903-3.097z"/>
        <path d="M2.44 65.721c.869 1.752 2.658 2.857 4.612 2.85.801 0 1.59-.187 2.307-.544l.927-.463.928.463c.716.357 1.505.543 2.305.544 1.955.007 3.744-1.098 4.613-2.85l.398-.8c1.338-2.685 2.037-5.643 2.041-8.643-.003-3.308-2.684-5.988-5.992-5.992-1.115.003-2.207.32-3.15.914v-.914c0-2.525-2.047-4.572-4.572-4.572V48c1.262 0 2.286 1.023 2.286 2.286v.914c-.944-.595-2.036-.91-3.15-.914C2.683 50.29.002 52.97 0 56.278c.004 3 .703 5.96 2.041 8.646l.4.797zm3.552-13.15c.983-.002 1.927.389 2.62 1.086l.866.865c.446.446 1.17.446 1.616 0l.865-.865c1.06-1.06 2.654-1.377 4.039-.803 1.385.573 2.288 1.925 2.288 3.424-.003 2.646-.62 5.255-1.8 7.624l-.399.8c-.485.974-1.48 1.588-2.568 1.584-.445 0-.885-.105-1.284-.303l-1.438-.72c-.322-.16-.7-.16-1.022 0l-1.438.72c-.399.198-.839.302-1.285.303-1.088.003-2.084-.612-2.568-1.588l-.398-.8c-1.18-2.367-1.797-4.975-1.8-7.62.003-2.046 1.66-3.704 3.706-3.707z"/>
    </g>
</svg>
