<svg xmlns="http://www.w3.org/2000/svg" viewBox="0 0 529 283">
    <g fill="none" fill-rule="evenodd" transform="translate(-13 -34)">
        <path fill="#FFF" d="M82.84 270.851c-45.444-43.82-46.709-116.13-2.82-161.51 43.885-45.378 116.302-46.638 161.746-2.818 45.446 43.821 46.711 116.13 2.826 161.508-43.888 45.38-116.306 46.642-161.752 2.82" opacity=".491"/>
        <ellipse cx="309.251" cy="189.257" fill="#FFF" opacity=".861" rx="127.251" ry="127.257" transform="rotate(134 309.25 189.257)"/>
        <ellipse cx="225.591" cy="130.856" fill="#FFF" opacity=".549" rx="92.479" ry="92.483" transform="rotate(134 225.59 130.856)"/>
        <path fill="#A2B2FF" d="M251.5 42.5c0 4.418-3.582 8-8 8s-8-3.582-8-8 3.582-8 8-8 8 3.582 8 8"/>
        <path fill="#FFD68C" d="M350.5 97.5c0 4.418-3.582 8-8 8s-8-3.582-8-8 3.582-8 8-8 8 3.582 8 8M140.5 81.5c0-11.046 8.954-20 20-20 11.044 0 20 8.954 20 20s-8.956 20-20 20c-11.046 0-20-8.954-20-20z"/>
        <path fill="#A2B2FF" d="M299.5 113.502c0 9.388-7.611 16.998-17 16.998-9.39 0-17-7.61-17-16.998 0-9.39 7.61-17.002 17-17.002 9.389 0 17 7.612 17 17.002"/>
        <path fill="#FFD68C" d="M108.835 254c-1.75-.73-3.453-1.548-5.102-2.465-4.102-14.159-5.21-29.93-8.92-44.15-3.393-13.01-8.026-18.137-12.502-18.137-.893 0-1.776.203-2.646.589-7.34-11.744-10.945-25.527 1.673-32.614 2.746-1.542 5.37-2.223 7.865-2.223 15.186 0 25.631 25.19 29.838 34.915 1.025-8.684 4.4-12.286 7.767-12.286 4.63 0 9.238 6.817 7.672 16.598 2.361-2.312 4.513-3.271 6.462-3.271 3.225 0 5.899 2.628 8.058 6.087-.218 1.25-.428 2.48-.628 3.686l-.016.036c-.993 2.273-1.321 4.631-1.07 6.778-1.715 11.254-2.557 19.24-2.557 19.24.632.299 1.252.59 1.882.886l-6.217 19.794c-.663-2.654-1.34-5.246-2.07-7.733-2.013-6.835-3.715-14.333-11.337-15.448-.693-.1-1.358-.149-1.998-.149-11.923 0-15.113 16.984-16.154 29.867"/>
        <path fill="#51509B" d="M464.021 185.4c1.145 8.617-4.634 10.637-9.631 14.63-15.322 12.25-28.874 22.04-47.27 28.367-17.585 6.047-33.684 3.123-50.952 11.584 13.866-11.741 12.948-28.722 19.132-45.373 2.78-7.498 6.935-16.288 12.066-22.161 2.896-3.314 14.988-10.79 12.816.767 3.003-15.989 19.016-31.104 16.976-5.132 2.103-10.38 31.416-32.813 41.694-25.75 14.426 9.913-4.988 28.798-10.545 36.259 6.439-4.544 14.543-2.068 15.714 6.809z"/>
        <path fill="#3E3874" fill-rule="nonzero" d="M186.066 272.178v-26.643h12.718v-22.737h-12.718v-76.976h-29.243v.26L105 227.486l1.73 18.05h50.093v26.643h29.243zm-29.243-49.38H130.09l23.013-32.89 3.201-6.509.52.087v39.312zM254.846 274c13.15 0 23.734-4.267 31.752-12.8 8.017-8.534 12.025-20.35 12.025-35.451v-33.498c0-15.042-4.037-26.845-12.112-35.407C278.436 148.28 267.823 144 254.673 144c-13.266 0-23.878 4.267-31.838 12.8-7.96 8.534-11.94 20.35-11.94 35.451v33.498c0 15.1 4.01 26.917 12.027 35.45C230.939 269.734 241.58 274 254.846 274zm0-22.563c-4.73 0-8.378-2.01-10.944-6.032-2.567-4.02-3.85-9.965-3.85-17.834v-37.316c0-7.695 1.269-13.567 3.807-17.617 2.537-4.05 6.142-6.075 10.814-6.075 4.614 0 8.233 2.025 10.858 6.075 2.624 4.05 3.936 9.922 3.936 17.617v37.316c0 7.869-1.283 13.813-3.85 17.834-2.566 4.021-6.157 6.032-10.77 6.032zm136.436 20.74v-26.642H404v-22.737h-12.718v-76.976H362.04v.26l-51.824 81.403 1.73 18.05h50.094v26.643h29.242zm-29.242-49.379h-26.734l23.013-32.89 3.202-6.509.519.087v39.312z"/>
        <path fill="#51509B" d="M76.651 291.798c-13.468-9.951-12.58-18.842 4.42-20.713-10.789-6.51-23.409-11.394-35.51-15.166-21.988-6.858-32.726-22.442-1.603-23.105-5.544-11.23-16.857-20.694-22.903-33.314-6.29-13.124-8.645-23.852-7.932-38.24 28.567-4.278 41.537 45.287 55.096 62.905-1.374-26.572 17.69-51.393 27.155-15.131 4.824 18.481 5.263 39.58 13.537 56.374.473-11.792 1.394-41.97 18.731-39.433 7.645 1.119 9.352 8.636 11.37 15.488 5.432 18.458 8.505 37.75 24.107 54.384l8.238 6.526c-30.287 3.557-68.506 8.787-94.706-10.575z"/>
        <path fill="#FFD68C" d="M378.672 240.66c6.095-12.434 15.409-24.818 25.15-34.16 16.58-15.904 21.29 3.483 17.38 20.598 6.232-16.554 33.521-44.236 49.094-51.112 21.098-9.31 9.03 16.527 3.261 27.485 11.984-17.798 53.23-22.581 68.443-7.482-19.964 8.25-33.042 20.544-44.2 39.455-11.287 19.127-21.708 23.119-42.647 21.127 2.236 17.607-30.543 32.16-42.93 37.543-13.973 6.072-69.587-1.997-76.917 0l32.182-24.617c5.986-7.876 6.728-19.75 11.184-28.837z"/>
    </g>
</svg>
