<svg xmlns="http://www.w3.org/2000/svg" viewBox="0 0 148 40">
    <g fill="none">
        <path fill="#393B4F" d="M51.33 31V18.58c.407-1.104 1.048-1.986 1.922-2.646.874-.66 1.987-.99 3.338-.99 1.309 0 2.336.41 3.081 1.231.746.82 1.118 2.175 1.118 4.062V31h1.93V20.27c0-2.392-.49-4.156-1.471-5.293-.982-1.137-2.39-1.705-4.223-1.705-1.287 0-2.41.286-3.37.86-.96.574-1.735 1.381-2.325 2.421V5.903H49.4V31h1.93zm23.214.338c1.405 0 2.703-.193 3.893-.58 1.19-.385 2.135-.863 2.832-1.431l-1.271-2.896c-.783.44-1.542.767-2.277.981-.734.215-1.627.322-2.678.322-1.276 0-2.239-.37-2.888-1.11-.649-.74-1.01-1.705-1.086-2.896l.048-.096h10.377v-2.43c0-2.423-.625-4.351-1.874-5.783-1.25-1.432-3.044-2.148-5.382-2.148-2.477-.01-4.424.816-5.84 2.478-1.415 1.662-2.123 3.797-2.123 6.403v.643c0 2.51.73 4.561 2.188 6.154 1.459 1.593 3.486 2.389 6.081 2.389zm2.349-10.811h-5.727l-.032-.08c.107-1.073.415-1.934.925-2.582.509-.65 1.236-.974 2.18-.974.933 0 1.608.293 2.026.877.419.585.628 1.386.628 2.405v.354zm14.88 10.81c1.406 0 2.704-.192 3.894-.578 1.19-.386 2.134-.864 2.831-1.432l-1.27-2.896c-.783.44-1.542.767-2.277.981-.735.215-1.627.322-2.678.322-1.277 0-2.24-.37-2.888-1.11-.649-.74-1.011-1.705-1.086-2.896l.048-.096h10.377v-2.43c0-2.423-.625-4.351-1.875-5.783-1.249-1.432-3.043-2.148-5.38-2.148-2.478-.01-4.425.816-5.84 2.478-1.416 1.662-2.124 3.797-2.124 6.403v.643c0 2.51.73 4.561 2.188 6.154 1.458 1.593 3.485 2.389 6.08 2.389zm2.35-10.81h-5.728l-.032-.08c.108-1.073.416-1.934.925-2.582.51-.65 1.236-.974 2.18-.974.933 0 1.609.293 2.027.877.418.585.628 1.386.628 2.405v.354zm14.88 10.81c1.406 0 2.703-.192 3.894-.578 1.19-.386 2.134-.864 2.831-1.432l-1.27-2.896c-.784.44-1.543.767-2.277.981-.735.215-1.628.322-2.679.322-1.276 0-2.239-.37-2.887-1.11-.65-.74-1.011-1.705-1.086-2.896l.048-.096h10.376v-2.43c0-2.423-.624-4.351-1.874-5.783-1.25-1.432-3.043-2.148-5.381-2.148-2.478-.01-4.424.816-5.84 2.478-1.416 1.662-2.123 3.797-2.123 6.403v.643c0 2.51.729 4.561 2.187 6.154 1.46 1.593 3.486 2.389 6.082 2.389zm2.35-10.81h-5.728l-.032-.08c.107-1.073.416-1.934.925-2.582.51-.65 1.236-.974 2.18-.974.933 0 1.609.293 2.027.877.418.585.627 1.386.627 2.405v.354zM121.583 31V5.904h-1.914V31h1.914zm7.255 6.692v-9.009c.58.848 1.328 1.502 2.245 1.963.917.461 1.981.692 3.193.692 2.07 0 3.695-.775 4.875-2.325 1.18-1.55 1.77-3.628 1.77-6.234v-.338c0-2.777-.59-5-1.77-6.668-1.18-1.668-2.816-2.501-4.907-2.501-1.244 0-2.328.265-3.25.796-.922.53-1.673 1.279-2.252 2.244l-.354-2.719h-1.48v24.1h1.93zm5.004-7.979c-1.234 0-2.263-.27-3.09-.812-.825-.542-1.463-1.285-1.914-2.229v-8.43c.419-.975 1.033-1.769 1.842-2.38.81-.612 1.853-.917 3.13-.917 1.694 0 2.981.697 3.86 2.091.88 1.394 1.32 3.196 1.32 5.405v.338c0 2.092-.437 3.77-1.311 5.036-.875 1.265-2.154 1.898-3.837 1.898zm13.497-6.403V7.577h-1.914V23.31h1.914zm.193 7.69v-2.687h-2.284V31h2.284z"/>
        <g>
            <path fill="#EFBE9A" d="M36.578 22.32V11.16l1.24-2.48V1.86c0-.685-.554-1.24-1.24-1.24h-7.44c-.684 0-1.24.555-1.24 1.24v2.48h-1.24c-.684 0-1.24.555-1.24 1.24v3.1l2.48 2.48v11.16" transform="translate(0 .686)"/>
            <path fill="#FFCF0A" d="M27.899 13.019L36.578 13.019 36.578 23.559 27.899 23.559z" transform="translate(0 .686)"/>
            <path fill="#EFBE9A" d="M22.32 1.86H11.16L8.68.62H1.86C1.175.62.62 1.175.62 1.86V9.3c0 .685.555 1.24 1.24 1.24h2.48v1.24c0 .685.555 1.24 1.24 1.24h3.1l2.48-2.48h11.16" transform="translate(0 .686)"/>
            <path fill="orange" d="M13.949 0.93L22.629 0.93 22.629 11.47 13.949 11.47z" transform="translate(0 .686) rotate(-90 18.29 6.2)"/>
            <path fill="#EFBE9A" d="M1.86 16.12v11.159l-1.24 2.48v6.82c0 .685.555 1.24 1.24 1.24H9.3c.685 0 1.24-.555 1.24-1.24v-2.48h1.24c.685 0 1.24-.555 1.24-1.24v-3.1l-2.48-2.48v-11.16" transform="translate(0 .686)"/>
            <path fill="#FFCF0A" d="M1.86 14.879L10.54 14.879 10.54 25.419 1.86 25.419z" transform="translate(0 .686) rotate(-180 6.2 20.15)"/>
            <path fill="#EFBE9A" d="M16.12 36.578h11.159l2.48 1.24h6.82c.685 0 1.24-.554 1.24-1.24v-7.44c0-.684-.555-1.24-1.24-1.24h-2.48v-1.24c0-.684-.555-1.24-1.24-1.24h-3.1l-2.48 2.48h-11.16" transform="translate(0 .686)"/>
            <path fill="orange" d="M15.809 26.969L24.489 26.969 24.489 37.508 15.809 37.508z" transform="translate(0 .686) rotate(90 20.15 32.239)"/>
            <path fill="#393B4F" d="M24.799 26.039L26.039 26.039 26.039 38.438 24.799 38.438z" transform="translate(0 .686)"/>
            <path fill="#393B4F" d="M36.578 38.438h-6.82c-.095 0-.19-.022-.276-.065l-2.35-1.175H12.4v-1.24h14.88c.096 0 .191.023.277.066l2.35 1.174h6.672c.343 0 .62-.277.62-.62v-.62h-4.96v-1.24h5.58c.343 0 .62.278.62.62v1.24c0 1.026-.834 1.86-1.86 1.86z" transform="translate(0 .686)"/>
            <path fill="#393B4F" d="M37.818 35.959h-5.58v-1.24h4.96v-1.24h-4.96v-1.24h5.58c.343 0 .62.277.62.62v2.48c0 .342-.277.62-.62.62z" transform="translate(0 .686)"/>
            <path fill="#393B4F" d="M37.818 33.479h-5.58v-1.24h4.96v-1.24h-4.96v-1.24h5.58c.343 0 .62.277.62.62v2.48c0 .342-.277.62-.62.62zM34.099 28.519h-2.48v-1.24h1.86v-.62c0-.342-.278-.62-.62-.62h-2.844l-2.298 2.298c-.116.117-.273.182-.438.182h-12.4v-1.24h12.143l2.298-2.298c.116-.117.274-.182.439-.182h3.1c1.025 0 1.86.834 1.86 1.86v1.24c0 .343-.278.62-.62.62z" transform="translate(0 .686)"/>
            <path fill="#393B4F" d="M37.818 30.999h-5.58v-1.24h4.96v-.62c0-.342-.277-.62-.62-.62h-5.58v-1.24h5.58c1.026 0 1.86.834 1.86 1.86v1.24c0 .343-.277.62-.62.62zM26.039 12.399L38.438 12.399 38.438 13.639 26.039 13.639z" transform="translate(0 .686)"/>
            <path fill="#393B4F" d="M37.198 26.039h-1.24v-14.88c0-.096.023-.191.066-.277l1.174-2.349V1.86c0-.342-.277-.62-.62-.62h-.62V6.2h-1.24V.62c0-.343.278-.62.62-.62h1.24c1.026 0 1.86.834 1.86 1.86v6.82c0 .096-.022.191-.065.277l-1.175 2.349v14.733z" transform="translate(0 .686)"/>
            <path fill="#393B4F" d="M35.959 6.2h-1.24V1.24h-1.24V6.2h-1.24V.62c0-.343.277-.62.62-.62h2.48c.342 0 .62.277.62.62V6.2z" transform="translate(0 .686)"/>
            <path fill="#393B4F" d="M33.479 6.2h-1.24V1.24h-1.24V6.2h-1.24V.62c0-.343.277-.62.62-.62h2.48c.342 0 .62.277.62.62V6.2zM28.519 23.559h-1.24V11.416L24.98 9.118c-.117-.116-.182-.273-.182-.438v-3.1c0-1.026.834-1.86 1.86-1.86h1.24c.343 0 .62.277.62.62v2.48h-1.24V4.96h-.62c-.342 0-.62.278-.62.62v2.843l2.298 2.298c.117.116.182.274.182.439v12.399z" transform="translate(0 .686)"/>
            <path fill="#393B4F" d="M28.519 7.44h-1.24V1.86c0-1.026.834-1.86 1.86-1.86h1.24c.343 0 .62.277.62.62V6.2h-1.24V1.24h-.62c-.342 0-.62.278-.62.62v5.58zM12.399 0L13.639 0 13.639 12.399 12.399 12.399z" transform="translate(0 .686)"/>
            <path fill="#393B4F" d="M6.2 3.72H.62C.277 3.72 0 3.443 0 3.1V1.86C0 .834.834 0 1.86 0h6.82c.096 0 .191.022.277.065l2.349 1.175h14.733v1.24h-14.88c-.096 0-.191-.022-.277-.065L8.533 1.24H1.86c-.342 0-.62.278-.62.62v.62H6.2v1.24z" transform="translate(0 .686)"/>
            <path fill="#393B4F" d="M6.2 6.2H.62C.277 6.2 0 5.923 0 5.58V3.1c0-.343.277-.62.62-.62H6.2v1.24H1.24v1.24H6.2V6.2z" transform="translate(0 .686)"/>
            <path fill="#393B4F" d="M6.2 8.68H.62c-.343 0-.62-.277-.62-.62V5.58c0-.343.277-.62.62-.62H6.2V6.2H1.24v1.24H6.2v1.24zM8.68 13.64h-3.1c-1.026 0-1.86-.835-1.86-1.86v-1.24c0-.343.277-.62.62-.62h2.48v1.24H4.96v.62c0 .342.278.62.62.62h2.843l2.298-2.299c.116-.116.274-.181.439-.181h13.019v1.24H11.416l-2.298 2.298c-.116.116-.273.181-.438.181z" transform="translate(0 .686)"/>
            <path fill="#393B4F" d="M7.44 11.16H1.86C.834 11.16 0 10.325 0 9.3V8.06c0-.343.277-.62.62-.62H6.2v1.24H1.24v.62c0 .342.278.62.62.62h5.58v1.24zM0 24.799L12.399 24.799 12.399 26.039 0 26.039z" transform="translate(0 .686)"/>
            <path fill="#393B4F" d="M3.1 38.438H1.86c-1.026 0-1.86-.834-1.86-1.86v-6.82c0-.095.022-.19.065-.276l1.175-2.35V12.4h1.24v14.88c0 .096-.022.191-.065.277l-1.175 2.35v6.672c0 .343.278.62.62.62h.62v-4.96h1.24v5.58c0 .343-.277.62-.62.62z" transform="translate(0 .686)"/>
            <path fill="#393B4F" d="M5.58 38.438H3.1c-.343 0-.62-.277-.62-.62v-5.58h1.24v4.96h1.24v-4.96H6.2v5.58c0 .343-.277.62-.62.62z" transform="translate(0 .686)"/>
            <path fill="#393B4F" d="M8.06 38.438H5.58c-.343 0-.62-.277-.62-.62v-5.58H6.2v4.96h1.24v-4.96h1.24v5.58c0 .343-.277.62-.62.62zM11.78 34.719h-1.24c-.343 0-.62-.278-.62-.62v-2.48h1.24v1.86h.62c.342 0 .62-.278.62-.62v-2.844L10.1 27.717c-.116-.116-.181-.273-.181-.438v-13.02h1.24v12.763l2.298 2.298c.116.116.181.274.181.439v3.1c0 1.025-.834 1.86-1.86 1.86z" transform="translate(0 .686)"/>
            <path fill="#393B4F" d="M9.3 38.438H8.06c-.343 0-.62-.277-.62-.62v-5.58h1.24v4.96h.62c.342 0 .62-.277.62-.62v-5.58h1.24v5.58c0 1.026-.835 1.86-1.86 1.86z" transform="translate(0 .686)"/>
        </g>
    </g>
</svg>
