<svg xmlns="http://www.w3.org/2000/svg" viewBox="0 0 344 306">
    <g fill="none" fill-rule="evenodd">
        <g>
            <path fill="#A2B2FF" d="M126 240.97c-22.862 2.667-49.177 7.65-68.954-6.871-10.166-7.464-9.496-14.132 3.337-15.535-8.144-4.882-17.67-8.546-26.805-11.375-16.597-5.143-24.702-16.831-1.21-17.329-4.185-8.423-12.724-15.52-17.288-24.985-4.748-9.843-6.525-17.89-5.987-28.68 21.563-3.208 31.354 33.965 41.588 47.179-1.037-19.929 13.353-38.545 20.498-11.348 3.641 13.86 3.973 29.684 10.219 42.28.356-8.844 1.052-31.477 14.138-29.575 5.77.84 7.06 6.477 8.583 11.616 4.1 13.844 5.934 32.07 18.197 40.789L126 240.97" transform="matrix(-1 0 0 1 344 7)"/>
            <path fill="#FFD68C" d="M214.17 184.623c4.453-5.907 5.005-14.813 8.32-21.628 4.535-9.326 11.464-18.613 18.711-25.62 12.335-11.928 15.84 2.612 12.93 15.448 4.636-12.415 24.938-33.176 36.524-38.333 15.696-6.983 6.718 12.395 2.426 20.613 8.916-13.348 39.601-16.936 50.919-5.611-14.853 6.187-24.582 15.408-32.883 29.59-8.398 14.346-16.15 17.34-31.728 15.846 1.663 13.205-22.723 24.12-31.938 28.157C237.056 207.64 191.079 212.74 190 224l24.17-39.377" transform="matrix(-1 0 0 1 344 7)"/>
            <path fill="#FFF" d="M18 74c0 5.523-4.029 10-9 10s-9-4.477-9-10c0-5.522 4.029-10 9-10s9 4.478 9 10" transform="matrix(-1 0 0 1 344 7)"/>
            <path fill="#A2B2FF" d="M58 6c0 3.314-2.463 6-5.5 6S47 9.314 47 6s2.463-6 5.5-6S58 2.686 58 6" opacity=".965" transform="matrix(-1 0 0 1 344 7)"/>
            <path fill="#FFCF0A" d="M54.034 85.48c5.177-6.132 8.223 2.11 8.223 2.11s-1.134-8.766 6.206-6.078c7.342 2.693-3.587 16.454-3.587 16.454l-.124.034s-15.887-6.39-10.718-12.52" transform="matrix(-1 0 0 1 344 7)"/>
            <path fill="#FFD68C" d="M267 26c-7.18 0-13-5.596-13-12.5S259.82 1 267 1c7.178 0 13 5.596 13 12.5S274.178 26 267 26" transform="matrix(-1 0 0 1 344 7)"/>
        </g>
        <path fill="#3E3874" d="M255.935 280.278c-2.727.83-5.806.636-8.865.444-3.637-.231-7.242-.46-10.187 1.032-.55.274-1.073.603-1.567.972-1.652 1.23-3.027 2.9-4.375 4.608-1.349 1.737-2.683 3.502-4.21 4.87-6.686 5.948-15.613 8.19-24.306 9.23-24.321 2.913-49.301 3.022-73.774 4.307-6.507.342-13.027.52-19.313-.615-1.83-.329-3.646-.78-5.434-1.367-2.062-.656-4.085-1.52-6.051-2.613-7.814-4.321-14.018-11.418-18.091-19.268-10.166-19.597-6.92-42.64-2.833-63.413 4.375-22.249 11.362-44.664 24.568-63.412 10.455-14.851 24.871-27.323 41.983-33.874 1.087-.41 2.187-.806 3.302-1.176 10.564-3.487 32.506-6.728 55.188-.411 19.149 5.334 38.82 17.465 52.63 41.97 8.131 14.428 15.97 30.113 20.278 46.592.508 1.942.976 3.897 1.402 5.854 1.294 6.003 2.173 12.061 2.545 18.078 1.115 17.942-2.71 42.079-22.89 48.192"/>
        <path fill="#A2B2FF" d="M197.464 167.356c-8.742 11.9-34.911 1.286-34.911 1.286.388-10.153-18.553-47.516-18.553-47.516 1.097-.405 2.207-.798 3.33-1.164 10.657-3.451 32.788-6.66 55.67-.405-1.748 10.315 1.998 37.551-5.536 47.799"/>
        <path fill="#E4DEFF" d="M212.136 27.007c.246-10.435-5.568-20.696-15.399-24.985C186.814-2.3 175.11.575 167.687 8.1c-5.544-6.692-14.978-9.871-23.402-6.969-8.384 2.877-13.747 11.11-14.05 19.698-11.51-2.2-24.269 3.826-28.884 14.856-4.426 10.584-.645 22.777 7.913 29.873-11.87 7.031-13.545 23.862-4.5 34.356 9.653 11.198 25.788 12.482 38.7 6.754.227.212.58.309.943.086 19.092-11.851 41.47-16.675 63.506-11.512.22.67.809 1.212 1.603 1.055 8.975-1.692 19.4-7.178 23.058-16.044 2.746-6.637 1.585-14.551-4-18.994 4.544-13.664-3.02-29.14-16.438-34.25"/>
        <path fill="#EFBE9A" fill-rule="nonzero" d="M209.432 58.978c-9.4-17.217-27.164-31.221-47.431-24.065-22.066 7.789-30.568 32.421-27.34 54.095.082.538.304.953.606 1.26 1.61 11.55 8.47 22.47 18.464 28.607 15.81 9.719 36.534 7.808 49.848-5.278 15.1-14.84 15.656-36.655 5.853-54.619"/>
        <path fill="#E4DEFF" d="M211.614 25.171c-.728-.674-1.577-1.249-2.506-1.73.674-.24 1.352-.291 1.964.129.58.396.69.967.542 1.601m1.183 12.67c-3.107 2.873-6.991 4.96-11.109 5.932.17-.258.324-.53.462-.82.206-.083.415-.163.618-.25 3.254-1.394 6.747-3.132 9.657-5.387.42-.081.83-.184 1.226-.307-.29.294-.58.577-.854.832m-16.579-5.9l.103-.066c1.776-1.221 3.537-2.531 5.322-3.803.257.024.517.041.771.074 2.139.277 4.472 1.629 4.047 3.317-1.05.932-2.163 1.797-3.338 2.562-.778.221-1.615.373-2.434.478-1.183-1.086-2.743-1.924-4.47-2.562m-62 25.878c-.366 1.325-.72 2.823-.917 4.32-.563.521-.899 1.218-1.015 1.945-.154-1.19-.012-2.579.448-4.055.414-1.336.942-2.65 1.555-3.931-.04.61-.062 1.188-.072 1.721m76.854-43.75c-8.728-.566-18.535 2.41-25.585 7.638-1.844 1.369-3.505 3.113-4.712 5.06l-.002.002c-.219-2.807-1.185-5.461-3.336-7.198-1.607-1.298-3.536.08-3.591 1.917-.052 1.823.394 3.57.65 5.342-4.362-4.066-11.745-1.85-15.952 2.59-.667.077-1.326.238-1.962.518-1.817.803-3.1 2.33-3.795 4.117-.347-.341-.97-.438-1.27.033-.78 1.223-.984 2.525-.8 3.794-.95-.082-1.905.478-2.014 1.433-7.912-6.799-19.115 11.828-21.295 17.905-1.864 5.197-2.556 11.76 2.285 15.565 4.77 3.747 11.477 2.198 16.229-.643 9.506-5.685 13.83-17.706 9.869-27.584 3.967 2.234 8.968 2.268 13.192.771 2.748-.973 5.15-2.565 7.061-4.63 9.526 11.379 26.856 12.754 39.041 4.502 6.235-4.22 11.922-11.683 10.764-19.687-1.067-7.364-8.05-11.009-14.777-11.446"/>
        <path fill="#FEC290" d="M138.853 91.047c-.569-.718-1.306-1.194-2.107-1.467-.051-.384-.25-.75-.628-.953-3.302-1.765-7.56.383-8.062 4.119-.533 3.98 2.828 7.648 6.856 7.22 4.21-.447 6.666-5.47 3.941-8.919"/>
        <path fill="#EFBE9A" fill-rule="nonzero" d="M220.161 71.406c-1.856-1.797-4.58-1.936-6.417-.042-.505.522-.976 1.27-1.302 2.088-.13.249-.225.52-.266.803-.363 1.398-.22 2.854.958 3.666l.035.011c.1.178.207.353.323.525-.478 1.167-.294 2.67.996 3.171.173.068.35.105.526.155l-.008.03.242.04c2.233.527 4.557-.361 5.892-2.649 1.455-2.497 1.02-5.864-.979-7.798"/>
        <path fill="#BEAAB3" d="M164.104 99.485c-7.292 2.668-15.432-.988-18.149-8.148-2.715-7.16 1.007-15.155 8.298-17.822 7.29-2.667 15.433.988 18.15 8.148 2.715 7.16-1.008 15.155-8.299 17.822M152.96 70.102c-7.08 2.59-11.477 9.157-11.58 16.164-2.317-1.945-5.423-2.662-8.495-1.953-1.687.39-.729 2.87.94 2.484 2.608-.603 5.338-.151 7.618 1.21.135 1.54.462 3.086 1.037 4.6 3.43 9.044 13.712 13.66 22.92 10.291 9.209-3.368 13.91-13.464 10.479-22.506-3.43-9.043-13.712-13.659-22.92-10.29M193.663 63.515c-7.16 2.667-10.815 10.661-8.148 17.822 2.667 7.16 10.663 10.815 17.822 8.148 7.16-2.667 10.815-10.661 8.148-17.822-2.667-7.16-10.663-10.815-17.822-8.148m10.945 29.383c-9.042 3.369-19.138-1.247-22.506-10.29-3.369-9.042 1.248-19.138 10.29-22.506 9.042-3.369 19.138 1.247 22.506 10.29 3.369 9.042-1.248 19.138-10.29 22.506"/>
        <path fill="#DB898B" d="M186.563 87.658c-1.686-.748-2.975-1.736-3.622-3.61-1.178-3.417-6.045-2.258-5.94 1.262.113 3.757 1.873 7.609 4.97 9.72 2.132 1.454 4.853 1.397 6.36-1.023 1.34-2.147.626-5.29-1.768-6.349"/>
        <path fill="#BEAAB3" d="M182.764 82.87c-2.586-2.115-6.708-.005-7.72 2.39-.267.629.77 1.058 1.113.438.575-1.038 1.511-1.782 2.838-2.037 1.196-.23 2.055.115 3.2.28.734.105 1.065-.665.57-1.07"/>
        <path fill="#E4DEFF" d="M163.4 59.112c-1.214.322-2.056 1.256-2.971 2.039l-2.568 2.203c-.776.664-1.146 1.622-.605 2.55.454.78 1.627 1.4 2.565.937l3.194-1.575c1.21-.596 2.584-1.061 3.408-2.133 1.63-2.124-.454-4.705-3.024-4.02M184.948 55.142c-.718-.25-1.365-.13-2.068.059-.187.05-.38.095-.571.127l-.378.022c-.856.042-1.46-.058-2.26-.205-2.534-.465-3.672 2.854-1.587 4.361 1.01.729 2.192 1.145 3.396 1.332 1.715.265 3.408.363 4.764-.983 1.573-1.562.471-4.096-1.296-4.713"/>
        <path fill="#FEB490" d="M206.525 78c-.237 0-.478-.085-.666-.285-.681-.728-1.596-1.368-2.82-1.368-.082 0-.166.003-.25.009l-.164-.012c-.042.01-.084.013-.125.013-.323 0-.605-.276-.462-.529l.047-.06c.02-.115.095-.221.23-.296.744-.862 2.236-1.472 3.643-1.472.63 0 1.242.123 1.763.399.542.289.237 1.013-.426 1.025l-.113.001c-.253 0-.503-.013-.752-.027-.25-.013-.497-.027-.744-.027-.203 0-.407.01-.61.035 1.101.248 2.041.808 2.34 1.69.161.476-.355.904-.89.904M151.505 90c-.41 0-.84-.37-.743-.826.371-1.764 2.091-2.842 3.86-3.085-.353-.167-.723-.24-1.099-.24-1.145 0-2.341.68-3.22 1.476-.127.115-.28.165-.436.165-.478 0-.977-.472-.846-.962.462-1.74 2.027-2.528 3.672-2.528 1.568 0 3.21.717 4.034 2.005l.115.323c.306.307.155.912-.343.912-.034 0-.07-.004-.105-.008-.23-.037-.449-.055-.657-.055-1.716 0-2.756 1.166-3.732 2.562-.127.184-.313.261-.5.261"/>
        <path fill="#FAF9FF" d="M134.744 77c-.869-.175-1.728-.435-2.57-.784-.083-.034-.14-.092-.174-.162.896.332 1.825.532 2.77.619l-.026.327m68.64-24.647c-.293-.398-.59-.79-.894-1.18 1.371-.274 2.729-.643 4.06-1.108-.937.904-2.01 1.68-3.166 2.288m-2.88-7.426c.168-.262.321-.54.458-.835.203-.085.41-.166.61-.255.9-.397 1.819-.82 2.737-1.274.025.343-.092.707-.41 1.04-.126.132-.254.256-.384.372-.984.385-1.99.704-3.01.952m6.748-2.799c.008-.372-.01-.744-.057-1.11.888-.518 1.759-1.07 2.596-1.66.082.283.152.564.208.846-.872.703-1.79 1.346-2.747 1.924m-7.738-6.64c-.525-.495-1.123-.94-1.779-1.338 1.14-.75 2.485-1.106 3.86-1.106.82 0 1.651.126 2.455.371-.685.564-1.394 1.095-2.127 1.586-.77.225-1.598.38-2.41.487m-18.645-9.45c-.204-.488-.452-.966-.75-1.431-.487-.765-1.043-1.38-1.637-1.859-.501-.934-1.155-1.771-1.991-2.465-.435-.36-.894-.519-1.334-.519-.965 0-1.83.764-2.12 1.8-2.025.531-3.681 2.052-4.026 3.996-.361-.042-.727-.062-1.097-.062-.683 0-1.38.07-2.074.204.24-2.52 1.58-5.002 3.814-6.394 1.449-.902 2.98-1.308 4.486-1.308 3.59 0 7.039 2.303 8.892 5.664-.783.727-1.513 1.524-2.163 2.374"/>
        <path fill="#FFF4EA" d="M136.986 76c-1 0-2-.092-2.986-.28.009-.108.017-.217.027-.324.389.034.781.05 1.175.05 3.389 0 6.88-1.22 9.7-2.877 8.337-4.899 12.784-14.474 11.342-23.37 1.89 5 .78 11.747-1.455 15.917C151.482 71.282 144.198 76 136.986 76m60.704-23.047c-7.68 0-14.917-4.497-20.405-9.564-4.178 2.74-8.896 3.887-13.683 3.887-2.693 0-5.408-.363-8.06-1.01-.13-.41-.276-.818-.435-1.222l.465.053c2.115 1.042 4.484 1.52 6.86 1.52 2.079 0 4.163-.366 6.09-1.038 2.602-.905 4.902-2.342 6.78-4.197.176-.124.35-.25.524-.382 5.608 6.531 13.827 9.762 22.166 9.762 2.033 0 4.073-.192 6.083-.575.315.386.622.774.925 1.168-1.091.55-2.254.96-3.445 1.207-1.297.267-2.586.392-3.865.39"/>
        <path fill="#FAF9FF" d="M136.035 75c-.39 0-.778-.016-1.162-.05-.967-.088-1.917-.288-2.833-.62-.112-.221.018-.558.302-.575 9.586-.584 18.983-3.231 21.828-13.864 1.312-4.9 1.026-12.8-4.854-14.574-.4-.122-.832-.177-1.281-.177-2.673 0-6.012 1.944-7.524 3.656-.976 1.105-2.253 3.528-1.892 5.063l2.43 3.824 2.885-2.735c-.722-.854-.722-2.364.628-2.825.51-.174 1.019-.348 1.528-.52.193-.067.39-.098.586-.098.71 0 1.387.416 1.648 1.135 1.894 5.22-1.939 8.659-5.962 8.659-2.448 0-4.967-1.273-6.311-4.19-3.438-7.46 4.663-15.095 11.944-15.095 1.066 0 2.113.162 3.105.514 1.064.377 1.982.906 2.766 1.556.063-.044.14-.073.233-.073.026 0 .051.002.078.006.51.075 1.022.145 1.537.207.157.409.301.822.431 1.238-.402-.1-.802-.207-1.2-.32.82.952 1.443 2.07 1.893 3.289 1.426 9.005-2.97 18.698-11.213 23.657-2.788 1.677-6.24 2.912-9.59 2.912m62.078-24.988c-8.244 0-16.37-3.27-21.915-9.881 1.094-.85 2.122-1.843 3.06-2.998 2.833-3.476 4.594-8.55 2.759-12.855.665-.85 1.411-1.648 2.211-2.376.357.635.657 1.306.888 2.006 2.194 6.647-1.191 13.796-6.428 17.88 5.28 3.783 11.278 7.363 17.847 7.711.315.018.634.026.952.026 3.737 0 7.676-1.185 9.95-4.408.924-1.312 1.525-3.032 1.562-4.737.979-.578 1.917-1.222 2.81-1.925.764 3.741-.828 7.316-3.53 9.867-1.36.465-2.749.835-4.152 1.109-1.987.387-4.003.581-6.014.581m-35.158-4.196c-2.348 0-4.69-.483-6.781-1.538 1.662.185 3.344.293 5.02.293 5.19 0 10.307-1.041 14.486-4.053-1.856 1.877-4.13 3.332-6.702 4.248-1.906.68-3.966 1.05-6.023 1.05m38.617-2.156c-3.467 0-6.518-3.582-4.963-7.846.565-1.551 1.508-2.678 2.657-3.418.67.398 1.283.843 1.82 1.34.828-.108 1.676-.263 2.464-.488.749-.491 1.473-1.023 2.174-1.587 2.135.636 4.077 2.071 5.142 4.146.309.6.55 1.201.73 1.801-.857.59-1.747 1.143-2.656 1.66-.138-1.044-.515-2.045-1.187-2.899-1.037-1.352-2.229-2.028-3.577-2.028-.35 0-.71.045-1.08.135-.156-.012-.301-.018-.44-.018-2.401 0-2.23 1.802.513 5.404.34-.352.74-.498 1.131-.498.838 0 1.631.675 1.688 1.45-.939.456-1.878.88-2.798 1.276-.206.089-.417.17-.625.256-.14.294-.297.572-.468.834 1.044-.247 2.073-.566 3.08-.952-1.134.996-2.395 1.432-3.605 1.432m-30.428-12.34c-.187 0-.388-.043-.598-.142-2.986-1.41-4.18-4.349-3.9-7.236.711-.135 1.423-.205 2.122-.205.379 0 .752.02 1.122.063-.275 1.519.264 3.295 2.079 5.06.922.896.29 2.46-.825 2.46m8.431-10.334c-1.227-.968-2.618-1.387-3.96-1.387-.548 0-1.09.07-1.609.203.297-1.038 1.182-1.802 2.17-1.802.449 0 .918.158 1.363.519.855.694 1.524 1.532 2.036 2.467M218.995 26c-.306 0-.597-.185-.721-.63-.841-2.998-3.136-4.972-5.614-4.972-1.199 0-2.44.462-3.578 1.492-.13.116-.264.166-.393.166-.5 0-.917-.74-.548-1.254 1.379-1.917 3.388-2.802 5.363-2.802 3.353 0 6.606 2.555 6.493 6.945-.015.613-.529 1.055-1.002 1.055M123.423 51c-.2-.001-.402-.107-.506-.338C119.534 43.137 126.003 33 134.253 33c.273 0 .549.012.826.034 1.142.094 1.237 1.856.202 2.198-3.465 1.147-6.655 2.148-8.988 5.18-2.257 2.933-2.457 6.459-2.329 10.012.013.366-.261.576-.541.576M118.916 100c-.163 0-.341-.033-.528-.108-10.568-4.23-14.892-19.932-4.216-26.696.216-.137.432-.196.634-.196.794 0 1.361.927.837 1.678-2.672 3.815-4.958 7.174-4.303 12.005.635 4.672 3.883 8.716 8.032 11.163 1.098.646.635 2.154-.456 2.154"/>
        <path fill="#38193A" d="M164.973 84.042c-.583-2.027-2.448-4.741-5.65-3.877-1.176.318-1.96 1.218-2.233 2.151-.368 1.258.458 2.432 1.21 3.494.277.392.993.12.88-.296-.27-1.017-.92-3.42.834-3.872 1.849-.476 2.843 1.76 3.347 2.754.394.778 1.856.503 1.612-.354M201 75.918c-.089-2.192-1.043-5.291-3.666-4.881-.962.15-1.727.966-2.102 1.891-.508 1.25-.08 2.593.31 3.81.145.448.744.275.733-.173-.029-1.097-.101-3.689 1.33-3.89 1.51-.215 1.877 2.257 2.089 3.365.166.867 1.343.803 1.305-.122"/>
        <path fill="#FFF" d="M167 106.242s15.443 7.643 31-8.242c0 0 .126 6.481-4.376 12.049-4.997 6.178-13.741 7.786-20.417 3.688-2.482-1.522-4.808-3.872-6.207-7.495"/>
        <path fill="#E4DEFF" d="M148.223 116.138c-1.507.543-2.594 2.842-2.104 4.903.49 2.068 2.043 3.405 3.658 2.821 1.507-.543 2.594-2.842 2.104-4.903-.49-2.068-2.043-3.405-3.658-2.821"/>
        <path fill="#E4DEFF" d="M149.717 123.02c-3.977.468-3.417 8.428.566 7.96 3.977-.47 3.417-8.43-.566-7.96M153.223 131.103c-1.508.409-2.594 2.133-2.104 3.678.49 1.55 2.041 2.554 3.658 2.116 1.506-.41 2.594-2.133 2.104-3.679-.49-1.549-2.043-2.552-3.658-2.115"/>
        <path fill="#E4DEFF" d="M158.465 133.116c-2.557 1.001-1.49 6.77 1.07 5.767 2.556-1 1.49-6.768-1.07-5.767M162.464 137.117c-2.555 1-1.489 6.77 1.072 5.766 2.555-1 1.489-6.77-1.072-5.766M166.464 141.116c-2.555 1-1.489 6.77 1.071 5.768 2.556-1 1.49-6.77-1.07-5.768M172.464 143.116c-2.555 1-1.489 6.77 1.072 5.768 2.555-1.001 1.489-6.77-1.072-5.768"/>
        <path fill="#E4DEFF" d="M176.483 143.069c-1.006.273-1.73 1.422-1.404 2.452.328 1.033 1.363 1.702 2.439 1.41 1.004-.273 1.73-1.42 1.403-2.452-.327-1.033-1.362-1.702-2.438-1.41"/>
        <path fill="#E4DEFF" d="M181.197 143.117c-3.834 1-2.234 6.768 1.607 5.767 3.833-1 2.233-6.77-1.607-5.767"/>
        <path fill="#E4DEFF" d="M186.465 141.117c-2.556 1-1.49 6.768 1.07 5.767 2.557-1.001 1.49-6.77-1.07-5.767M191.223 137.103c-1.506.41-2.593 2.133-2.105 3.678.493 1.55 2.043 2.554 3.659 2.116 1.507-.408 2.593-2.133 2.105-3.678-.49-1.55-2.043-2.554-3.659-2.116"/>
        <path fill="#E4DEFF" d="M196.465 135.116c-2.557 1.001-1.49 6.77 1.07 5.767 2.556-1 1.49-6.768-1.07-5.767"/>
        <path fill="#E4DEFF" d="M198.465 131.077c-2.556.668-1.49 4.513 1.07 3.846 2.556-.668 1.49-4.513-1.07-3.846"/>
        <path fill="#E4DEFF" d="M202.522 127.094c-.795-.326-1.88.211-2.252 1.4l-.046.147c-.46 1.472-.203 2.933.69 3.864l.09.091c.652.68 1.623.438 2.21-.253.599-.704.95-1.995.71-3.132-.211-.999-.717-1.837-1.402-2.117"/>
        <path fill="#E4DEFF" d="M205.003 124.288l-.119-.06c-.92-.473-1.978-.193-2.539.679l-.07.111c-.918 1.43.623 3.413 2.252 2.9.665-.21 1.221-.712 1.409-1.393.224-.815-.152-1.836-.933-2.237M205.483 118.069c-1.006.272-1.73 1.42-1.404 2.45.328 1.036 1.362 1.704 2.438 1.412 1.006-.273 1.73-1.422 1.404-2.452-.328-1.033-1.362-1.703-2.438-1.41"/>
        <path fill="#EFBE9A" fill-rule="nonzero" d="M168.806 295.893c-1.426-3.081-2.666-6.417-4.677-9.217-1.627-3.323-4.841-6.074-8.297-7.138-6.77-2.086-13.131 2.163-15.882 8.066-2.371 5.086-3.34 12.81 1.57 16.82 2.787 2.274 7.15 2.003 9.106-.27 2.674.676 5.324.496 7.125-1.325 3.781.827 6.19-2.916 6.615-7.078.383.677.765 1.35 1.158 2.007 1.255 2.097 4.266.259 3.282-1.865"/>
        <path fill="#EFBE9A" fill-rule="nonzero" d="M199.996 274.032c-.746-2.087-2.86-3.93-5.489-5.178-.23-.112-.468-.215-.709-.315l-.32-.13c-.17-.067-.34-.135-.515-.196-1.463-.531-3.012-.88-4.532-1-2.675-.317-5.348-.243-7.407-.02-8.845.966-17.109 4.805-25.915 6.04-1.348.19-1.314 2.535 0 2.76.739.124 1.475.208 2.21.256-1.988.674-3.979 1.213-5.977 1.508-2.182.324-1.477 3.625.496 3.752 5.087.331 10.387-1.692 15.697-3.778.345.053.7.074 1.053.108-.855.275-1.706.562-2.545.866-3.312 1.195-7.06 2.239-9.815 4.511-.427.353-.024.933.398.985 5.295.641 10.78-1.298 16.222-2.738-2.199 1.301-4.464 2.413-6.594 3.791-.188.122-.24.403-.07.572 2.873 2.838 6.738-.179 9.685-1.616 6.445-3.143 12.692 2.73 19.29.602 3.146-1.014 5.886-3.696 5.84-7.266-.017-1.262-.37-2.508-1.003-3.514"/>
        <path fill="#8290FF" d="M141.965 269c-.187 0-.388-.06-.593-.194-4.557-2.985-8.49-6.782-13.197-9.556-.922-.543-11.962-5.766-15.498-5.766-.56 0-.932.131-1.046.432-.157.412-.475.593-.79.593-.468 0-.926-.402-.828-1.044.117-.756.536-1.257 1.135-1.587 4.987-6.626 6.32-15.11 7.44-23.155 1.292-9.282 2.462-18.57 4-27.815.104-.625.63-.908 1.172-.908.687 0 1.4.454 1.311 1.246-1.135 10.125-2.535 20.227-4.1 30.295-1.174 7.555-2.887 14.27-8.02 19.859.213-.016.432-.024.657-.024 3.365 0 8.045 1.691 9.355 2.17 7.295 2.67 14.82 7.402 19.77 13.485.62.763.077 1.969-.768 1.969M228.521 159c-.55 0-1.069-.288-1.176-.934-1.381-8.408-2.725-16.607-5.302-24.782-.225-.714.476-1.284 1.114-1.284.328 0 .639.15.8.506 3.596 7.902 6.102 16.515 6.042 25.214-.006.803-.769 1.28-1.478 1.28M196.678 263c-1.134 0-2.223-1.116-1.376-2.274 5.568-7.616 11.185-14.165 19.637-18.497 8.03-4.114 17.344-8.832 26.248-10.22.033-.006.065-.009.098-.009.6 0 1.049.855.388 1.18-7.19 3.525-14.401 7.037-21.658 10.43-9.496 4.437-15.76 10.315-22.02 18.718-.353.475-.839.672-1.317.672M214.81 284c-3.875 0-8.02-.805-10.61-3.052-.473-.41-.029-.948.528-.948.036 0 .07.001.107.006 2.44.304 4.687 1.233 7.176 1.461 1.298.12 2.632.177 3.962.177.944 0 1.885-.029 2.809-.086l.087-.002c1.324 0 1.587 1.903.244 2.115-1.322.206-2.791.329-4.302.329"/>
    </g>
</svg>
