<svg xmlns="http://www.w3.org/2000/svg" viewBox="0 0 105 156">
    <g fill="none" fill-rule="evenodd">
        <path fill="#3E3874" d="M93.243 142.868c-1.39.424-2.959.325-4.518.227-1.854-.118-3.691-.235-5.192.527-.28.14-.547.307-.8.496-.841.628-1.542 1.48-2.23 2.352-.686.887-1.366 1.788-2.145 2.486-3.408 3.038-7.958 4.182-12.389 4.713-12.397 1.487-25.13 1.543-37.603 2.199-3.317.175-6.64.265-9.844-.314-.933-.168-1.858-.398-2.77-.698-1.051-.335-2.082-.776-3.084-1.334-3.983-2.206-7.145-5.83-9.221-9.837-5.182-10.005-3.527-21.769-1.444-32.374 2.23-11.359 5.791-22.802 12.522-32.374 5.329-7.581 12.677-13.949 21.4-17.293.553-.21 1.114-.412 1.682-.6 5.385-1.78 16.569-3.435 28.13-.21 9.76 2.723 19.787 8.916 26.826 21.426 4.145 7.366 8.14 15.374 10.336 23.787.26.992.497 1.99.715 2.989.66 3.064 1.107 6.157 1.297 9.23.568 9.159-1.382 21.481-11.668 24.602"/>
        <path fill="#A2B2FF" d="M63.185 85.128c-4.445 6.055-17.751.655-17.751.655C45.63 80.617 36 61.608 36 61.608c.558-.206 1.122-.406 1.694-.592C43.112 59.26 54.365 57.627 66 60.81c-.889 5.248 1.016 19.105-2.815 24.318"/>
        <path fill="#E4DEFF" d="M70.825 13.75c.126-5.313-2.846-10.537-7.87-12.72C57.883-1.172 51.9.292 48.107 4.122 45.273.716 40.45-.902 36.146.575c-4.286 1.465-7.027 5.656-7.182 10.029-5.882-1.121-12.403 1.947-14.762 7.562-2.263 5.389-.33 11.596 4.044 15.209-6.067 3.579-6.923 12.147-2.3 17.49 4.934 5.7 13.18 6.354 19.78 3.438.116.108.297.157.482.044 9.758-6.033 21.196-8.49 32.459-5.86.112.34.413.616.82.537 4.586-.862 9.914-3.655 11.784-8.168 1.404-3.38.81-7.408-2.044-9.67 2.322-6.956-1.544-14.835-8.402-17.437"/>
        <path fill="#EFBE9A" fill-rule="nonzero" d="M69.636 30.272c-4.815-8.796-13.913-15.95-24.294-12.295-11.302 3.98-15.657 16.563-14.003 27.636.041.275.155.487.31.643.825 5.901 4.338 11.48 9.457 14.615 8.098 4.965 18.712 3.989 25.532-2.696 7.735-7.582 8.019-18.726 2.998-27.903"/>
        <path fill="#E4DEFF" d="M70.663 12.677c-.37-.342-.804-.634-1.278-.88.344-.121.69-.147 1.002.066.295.202.351.492.276.814m.604 6.439c-1.585 1.46-3.566 2.52-5.666 3.014.086-.13.165-.27.236-.416.105-.043.211-.083.314-.127 1.66-.709 3.442-1.592 4.926-2.738.214-.041.423-.093.625-.156-.148.15-.295.293-.435.423m-8.456-2.998l.053-.034c.905-.62 1.804-1.286 2.714-1.933.13.013.264.021.393.038 1.091.14 2.281.828 2.064 1.686-.535.473-1.103.913-1.702 1.302-.397.112-.824.19-1.241.243-.604-.553-1.4-.978-2.28-1.302m-31.62 13.15c-.187.674-.368 1.435-.468 2.196-.287.265-.458.62-.518.989-.078-.605-.006-1.311.229-2.061.21-.68.48-1.347.793-1.998-.02.31-.032.604-.037.875M70.387 7.035c-4.452-.287-9.453 1.225-13.048 3.882-.941.695-1.788 1.582-2.404 2.571v.001c-.112-1.426-.605-2.775-1.702-3.658-.82-.66-1.804.04-1.832.975-.026.926.202 1.813.332 2.714-2.224-2.066-5.99-.94-8.136 1.317-.34.039-.676.12-1 .263-.927.408-1.582 1.184-1.936 2.092-.177-.173-.494-.223-.647.017-.398.621-.502 1.283-.409 1.928-.484-.042-.971.243-1.026.728-4.035-3.455-9.749 6.011-10.86 9.1-.951 2.64-1.304 5.976 1.164 7.91 2.433 1.903 5.854 1.116 8.277-.328 4.849-2.888 7.054-8.997 5.033-14.017 2.024 1.135 4.574 1.152 6.728.391 1.402-.494 2.627-1.303 3.601-2.353 4.859 5.783 13.697 6.482 19.912 2.288 3.18-2.145 6.08-5.937 5.489-10.005-.544-3.742-4.105-5.594-7.536-5.816"/>
        <path fill="#FEC290" d="M33.427 46.524c-.285-.36-.654-.597-1.054-.734-.026-.192-.125-.375-.314-.476-1.651-.883-3.78.19-4.031 2.059-.267 1.99 1.414 3.824 3.428 3.61 2.105-.223 3.333-2.735 1.97-4.46"/>
        <path fill="#EFBE9A" fill-rule="nonzero" d="M75.08 36.703c-.927-.898-2.29-.968-3.208-.021-.252.26-.488.635-.651 1.044-.065.125-.112.26-.133.402-.181.698-.11 1.426.48 1.833l.017.005c.05.09.103.177.16.262-.238.584-.146 1.335.499 1.586.087.034.175.053.263.077l-.004.016.121.02c1.116.263 2.279-.181 2.946-1.325.728-1.249.51-2.932-.49-3.9"/>
        <path fill="#BEAAB3" d="M46.409 50.678c-3.727 1.372-7.888-.508-9.276-4.19-1.388-3.682.514-7.794 4.24-9.166 3.727-1.371 7.889.508 9.277 4.19 1.388 3.683-.515 7.794-4.241 9.166m-5.697-15.111c-3.618 1.331-5.866 4.71-5.919 8.313-1.183-1-2.771-1.37-4.341-1.005-.862.201-.373 1.476.48 1.277 1.333-.31 2.728-.077 3.894.623.069.792.236 1.587.53 2.366 1.753 4.65 7.008 7.025 11.714 5.292 4.707-1.732 7.11-6.924 5.357-11.574-1.754-4.65-7.009-7.025-11.715-5.292M61.512 32.322c-3.682 1.372-5.562 5.483-4.19 9.166 1.372 3.682 5.484 5.561 9.166 4.19 3.682-1.372 5.562-5.483 4.19-9.166-1.372-3.682-5.484-5.561-9.166-4.19m5.63 15.111c-4.65 1.733-9.843-.641-11.575-5.292-1.733-4.65.642-9.842 5.292-11.574 4.65-1.733 9.842.641 11.574 5.292 1.733 4.65-.642 9.842-5.292 11.574"/>
        <path fill="#DB898B" d="M57.782 44.83c-.844-.375-1.488-.87-1.811-1.806-.59-1.708-3.023-1.129-2.97.631.056 1.878.936 3.804 2.484 4.86 1.066.727 2.427.699 3.18-.512.67-1.073.314-2.644-.883-3.174"/>
        <path fill="#BEAAB3" d="M55.882 42.435c-1.293-1.058-3.354-.003-3.86 1.195-.133.315.385.529.556.219.288-.52.756-.891 1.42-1.018.597-.115 1.027.057 1.6.14.367.052.532-.333.284-.536"/>
        <path fill="#E4DEFF" d="M46.2 30.056c-.607.161-1.028.628-1.485 1.02l-1.285 1.1c-.387.333-.572.812-.302 1.276.227.39.813.7 1.283.469l1.596-.788c.606-.298 1.292-.53 1.705-1.067.815-1.061-.227-2.352-1.512-2.01M56.974 28.07c-.36-.124-.682-.064-1.034.03-.094.026-.19.048-.286.064l-.188.01c-.429.022-.73-.028-1.13-.101-1.268-.233-1.836 1.427-.794 2.18.505.364 1.096.572 1.698.666.857.132 1.704.182 2.382-.492.787-.78.236-2.047-.648-2.356"/>
        <path fill="#FEB490" d="M68.263 40c-.12 0-.24-.042-.333-.142-.341-.364-.799-.684-1.41-.684-.042 0-.084.001-.126.004l-.081-.006c-.022.005-.042.007-.063.007-.162 0-.303-.138-.23-.265l.022-.03c.01-.058.048-.11.116-.148.372-.43 1.118-.736 1.821-.736.315 0 .62.061.881.2.272.144.12.506-.212.512h-.057c-.126 0-.252-.006-.376-.013-.125-.007-.248-.013-.372-.013-.101 0-.204.005-.305.017.55.124 1.02.404 1.17.845.08.238-.177.452-.445.452M40.252 46c-.205 0-.42-.185-.371-.413.186-.882 1.046-1.42 1.93-1.543-.176-.083-.361-.12-.55-.12-.572 0-1.17.34-1.61.738-.063.058-.14.083-.217.083-.24 0-.489-.236-.423-.481.23-.87 1.013-1.264 1.836-1.264.784 0 1.605.358 2.016 1.003l.058.16c.153.155.077.457-.171.457-.017 0-.035-.002-.053-.004-.115-.019-.224-.027-.328-.027-.859 0-1.379.582-1.866 1.28-.064.093-.157.131-.25.131"/>
        <path fill="#FAF9FF" d="M31.407 39c-.445-.09-.886-.221-1.318-.398-.042-.018-.071-.048-.089-.083.46.169.936.27 1.421.315l-.014.166m35.2-12.532c-.15-.203-.303-.402-.459-.6.704-.14 1.4-.328 2.083-.564-.48.46-1.03.854-1.624 1.164m-1.477-3.776c.086-.134.165-.275.235-.425.104-.043.21-.084.313-.13.462-.201.933-.416 1.403-.647.013.174-.047.359-.21.528-.064.067-.13.13-.197.19-.504.196-1.02.358-1.544.484m3.461-1.423c.004-.19-.005-.379-.03-.565.457-.263.903-.544 1.332-.844.043.144.078.287.107.43-.447.358-.918.685-1.409.979m-3.968-3.377c-.269-.252-.576-.478-.912-.68.584-.382 1.274-.562 1.979-.562.42 0 .847.064 1.26.188-.352.287-.716.557-1.091.807-.395.114-.82.193-1.236.247m-9.562-4.805c-.104-.248-.232-.491-.384-.728-.25-.389-.535-.7-.84-.945-.257-.475-.593-.9-1.021-1.253-.223-.184-.459-.264-.684-.264-.495 0-.939.388-1.088.916-1.038.27-1.887 1.043-2.064 2.031-.185-.021-.373-.032-.562-.032-.35 0-.708.036-1.064.104.123-1.281.81-2.543 1.956-3.25.743-.46 1.528-.666 2.3-.666 1.841 0 3.61 1.171 4.56 2.88-.401.37-.775.775-1.109 1.207"/>
        <path fill="#FFF4EA" d="M32.514 39c-.507 0-1.014-.047-1.514-.144l.014-.167c.197.018.396.026.596.026 1.718 0 3.488-.627 4.918-1.48 4.227-2.519 6.482-7.443 5.75-12.018.96 2.57.397 6.04-.737 8.185C39.864 36.573 36.171 39 32.514 39m30.78-11.853c-3.894 0-7.564-2.312-10.347-4.919-2.118 1.41-4.51 2-6.938 2-1.365 0-2.742-.187-4.086-.52-.067-.21-.14-.42-.22-.628.077.01.156.018.235.027 1.072.536 2.273.781 3.478.781 1.054 0 2.111-.187 3.089-.533 1.318-.465 2.485-1.205 3.437-2.158.089-.064.178-.13.265-.197 2.844 3.359 7.011 5.02 11.24 5.02 1.03 0 2.065-.098 3.084-.295.16.198.315.398.469.6-.553.283-1.143.494-1.747.621-.658.138-1.311.202-1.96.201"/>
        <path fill="#FAF9FF" d="M32.068 38c-.2 0-.399-.008-.595-.026-.496-.044-.983-.146-1.453-.315-.057-.113.01-.284.155-.293 4.913-.297 9.73-1.643 11.187-7.053.672-2.493.526-6.512-2.488-7.415-.204-.062-.426-.09-.656-.09-1.37 0-3.081.99-3.856 1.86-.5.562-1.155 1.795-.97 2.576l1.246 1.946 1.478-1.392c-.37-.434-.37-1.203.322-1.437l.783-.265c.099-.034.2-.05.3-.05.364 0 .711.212.845.578.97 2.656-.994 4.405-3.056 4.405-1.254 0-2.545-.647-3.234-2.131-1.762-3.795 2.39-7.68 6.121-7.68.547 0 1.083.082 1.592.261.545.192 1.015.461 1.417.792.033-.023.072-.037.12-.037.013 0 .026 0 .04.003.261.038.523.073.787.105.08.208.155.418.221.63-.206-.05-.41-.106-.615-.163.42.484.74 1.053.97 1.673.731 4.582-1.522 9.513-5.746 12.036-1.43.854-3.198 1.482-4.915 1.482m31.815-12.713c-4.225 0-8.39-1.664-11.231-5.028.56-.432 1.087-.937 1.568-1.525 1.452-1.768 2.354-4.35 1.414-6.54.34-.433.723-.838 1.133-1.209.183.323.336.665.455 1.021 1.125 3.381-.61 7.019-3.294 9.096 2.706 1.925 5.78 3.747 9.146 3.924.162.009.325.013.488.013 1.915 0 3.934-.603 5.1-2.243.473-.667.78-1.542.8-2.41.501-.294.983-.621 1.44-.98.392 1.904-.424 3.723-1.809 5.021-.697.237-1.409.425-2.128.564-1.018.197-2.052.296-3.082.296m-18.018-2.135c-1.204 0-2.404-.246-3.476-.783.852.095 1.714.15 2.573.15 2.66 0 5.282-.53 7.424-2.063-.951.955-2.117 1.696-3.435 2.162-.977.346-2.033.534-3.086.534m19.79-1.097c-1.776 0-3.34-1.822-2.543-3.992.29-.789.773-1.362 1.362-1.739.344.203.657.43.932.682.425-.055.86-.134 1.263-.248.384-.25.756-.52 1.115-.808 1.094.324 2.089 1.054 2.635 2.11.158.305.282.61.374.916-.439.3-.895.581-1.361.845-.071-.531-.264-1.041-.609-1.475-.531-.688-1.142-1.032-1.833-1.032-.179 0-.363.023-.553.068-.08-.005-.155-.008-.226-.008-1.23 0-1.143.916.263 2.749.174-.18.38-.254.58-.254.429 0 .836.344.865.739-.481.231-.962.446-1.434.649-.105.045-.214.086-.32.13-.072.149-.153.29-.24.424.535-.126 1.062-.288 1.578-.484-.58.506-1.227.728-1.847.728M50.06 15.777c-.095 0-.199-.022-.306-.072-1.53-.718-2.143-2.213-1.999-3.682.365-.069.73-.104 1.088-.104.194 0 .385.01.575.032-.142.773.135 1.676 1.065 2.574.472.456.148 1.252-.423 1.252m4.321-5.258c-.628-.492-1.341-.706-2.029-.706-.281 0-.56.036-.825.104.152-.528.606-.917 1.112-.917.23 0 .47.08.699.264.438.353.78.78 1.043 1.255M74.497 13c-.153 0-.298-.093-.36-.315-.42-1.499-1.568-2.486-2.807-2.486-.6 0-1.22.23-1.79.746-.064.058-.131.083-.196.083-.25 0-.458-.37-.274-.627C69.76 9.442 70.764 9 71.752 9c1.676 0 3.303 1.277 3.247 3.472-.008.307-.265.528-.502.528M25.712 26c-.1 0-.201-.054-.253-.169C23.767 22.068 27.002 17 31.127 17c.136 0 .274.006.412.017.571.047.619.928.101 1.099-1.732.573-3.327 1.074-4.493 2.59-1.13 1.467-1.229 3.23-1.165 5.006.007.183-.13.288-.27.288M23.458 51c-.082 0-.17-.017-.264-.056-5.284-2.193-7.446-10.335-2.108-13.842.108-.071.216-.102.317-.102.397 0 .68.48.418.87-1.336 1.978-2.479 3.72-2.15 6.225.316 2.422 1.94 4.52 4.015 5.788.549.335.318 1.117-.228 1.117"/>
        <path fill="#38193A" d="M46.986 43.02c-.291-1.012-1.223-2.37-2.824-1.937-.589.158-.98.608-1.117 1.075-.184.629.23 1.216.605 1.747.139.196.496.06.44-.148-.135-.509-.46-1.71.417-1.936.924-.238 1.421.88 1.673 1.377.197.389.929.251.806-.177M65 38.459c-.044-1.096-.521-2.646-1.833-2.44-.481.075-.864.482-1.051.945-.254.625-.04 1.296.155 1.905.073.224.372.137.367-.087-.015-.548-.051-1.844.664-1.945.755-.107.939 1.129 1.045 1.683.083.433.671.402.653-.061"/>
        <path fill="#FFF" d="M48 54.12s7.97 3.823 16-4.12c0 0 .065 3.24-2.259 6.024-2.579 3.09-7.092 3.893-10.538 1.844-1.28-.76-2.48-1.935-3.203-3.747"/>
        <path fill="#E4DEFF" d="M38.112 59.069c-.754.272-1.297 1.421-1.053 2.451.245 1.034 1.022 1.703 1.83 1.411.753-.272 1.296-1.421 1.052-2.451-.245-1.034-1.022-1.703-1.83-1.411M39.359 63.01c-1.989.234-1.71 4.214.282 3.98 1.989-.235 1.71-4.215-.282-3.98M41.112 67.051c-.754.205-1.297 1.067-1.053 1.84.245.774 1.021 1.276 1.83 1.057.753-.204 1.296-1.066 1.052-1.839-.246-.775-1.022-1.276-1.83-1.058"/>
        <path fill="#E4DEFF" d="M43.733 68.058c-1.279.5-.745 3.385.535 2.884 1.278-.5.744-3.384-.535-2.884M45.732 70.058c-1.278.5-.744 3.385.536 2.884 1.278-.5.744-3.385-.536-2.884M47.732 72.058c-1.278.5-.744 3.385.536 2.884 1.277-.5.745-3.385-.536-2.884M50.732 73.058c-1.278.5-.744 3.385.536 2.884 1.278-.5.744-3.385-.536-2.884"/>
        <path fill="#E4DEFF" d="M52.741 73.034c-.502.137-.864.711-.702 1.226.164.517.682.852 1.22.706.502-.137.865-.71.701-1.226-.163-.517-.68-.852-1.219-.706"/>
        <path fill="#E4DEFF" d="M55.099 73.058c-1.918.5-1.118 3.385.803 2.884 1.916-.5 1.116-3.385-.803-2.884"/>
        <path fill="#E4DEFF" d="M57.732 72.058c-1.278.5-.744 3.384.535 2.884s.745-3.385-.535-2.884M60.111 70.052c-.752.204-1.296 1.066-1.052 1.838.246.776 1.022 1.277 1.83 1.058.753-.203 1.296-1.066 1.052-1.838-.245-.776-1.022-1.277-1.83-1.058"/>
        <path fill="#E4DEFF" d="M62.733 69.058c-1.279.5-.745 3.385.535 2.884 1.278-.5.744-3.384-.535-2.884"/>
        <path fill="#E4DEFF" d="M63.732 67.039c-1.278.333-.744 2.256.536 1.922 1.278-.333.744-2.256-.536-1.922M66.26 65.047c-.396-.163-.94.106-1.125.7l-.023.074c-.23.735-.102 1.466.345 1.932l.045.045c.326.34.811.219 1.105-.126.3-.353.475-.998.355-1.567-.105-.499-.359-.918-.701-1.058M67.502 63.144l-.06-.03c-.46-.236-.99-.097-1.27.34l-.035.055c-.458.715.312 1.706 1.127 1.45.332-.105.61-.356.704-.697.112-.407-.076-.917-.466-1.118M67.741 60.035c-.502.136-.864.71-.701 1.225.163.517.68.851 1.219.706.502-.137.864-.711.701-1.226-.163-.517-.68-.852-1.219-.705"/>
        <path fill="#EFBE9A" fill-rule="nonzero" d="M48.9 150.76c-.736-1.598-1.376-3.328-2.414-4.78-.84-1.723-2.499-3.15-4.282-3.701-3.495-1.081-6.778 1.122-8.198 4.182-1.223 2.638-1.723 6.643.81 8.722 1.439 1.179 3.691 1.039 4.7-.14 1.38.35 2.748.257 3.678-.687 1.952.428 3.195-1.512 3.414-3.67.198.35.395.7.598 1.04.648 1.088 2.202.135 1.694-.967"/>
        <path fill="#EFBE9A" fill-rule="nonzero" d="M64.488 139.516c-.38-1.044-1.458-1.965-2.798-2.59-.118-.055-.239-.106-.361-.156l-.164-.066c-.087-.033-.173-.067-.262-.098-.746-.265-1.536-.44-2.31-.5-1.364-.158-2.727-.121-3.777-.01-4.51.484-8.722 2.403-13.211 3.02-.688.096-.67 1.268 0 1.38.376.063.751.105 1.126.129-1.013.337-2.028.606-3.047.754-1.112.161-.753 1.812.253 1.876 2.593.165 5.296-.847 8.002-1.89.176.027.357.038.537.054-.436.138-.87.282-1.297.433-1.689.598-3.6 1.12-5.004 2.256-.218.176-.012.467.203.493 2.7.32 5.496-.65 8.27-1.37-1.12.651-2.276 1.207-3.362 1.896-.096.061-.122.202-.036.286 1.466 1.419 3.436-.09 4.938-.808 3.286-1.571 6.47 1.365 9.834.3 1.604-.506 3-1.847 2.978-3.632-.009-.631-.19-1.254-.512-1.757"/>
        <path fill="#8290FF" d="M35.467 137c-.096 0-.2-.03-.306-.098-2.347-1.514-4.373-3.44-6.798-4.847-.475-.276-6.163-2.926-7.984-2.926-.288 0-.48.067-.539.22-.08.208-.244.3-.407.3-.24 0-.477-.204-.426-.529.06-.383.276-.638.584-.805 2.57-3.361 3.256-7.664 3.833-11.745.666-4.709 1.268-9.42 2.06-14.11.054-.316.325-.46.604-.46.355 0 .722.23.676.632-.585 5.136-1.306 10.26-2.112 15.367-.605 3.832-1.488 7.239-4.132 10.073.11-.008.223-.012.339-.012 1.733 0 4.144.858 4.819 1.101 3.758 1.355 7.635 3.755 10.184 6.84.32.387.04.999-.395.999M79.26 81c-.275 0-.534-.15-.587-.484-.691-4.36-1.363-8.611-2.651-12.85-.113-.37.238-.666.557-.666.163 0 .319.078.4.262 1.797 4.098 3.05 8.564 3.02 13.074-.003.417-.384.664-.738.664M62.857 134c-.58 0-1.135-.576-.703-1.173 2.843-3.932 5.712-7.312 10.028-9.548 4.1-2.123 8.856-4.558 13.403-5.275.016-.003.033-.004.05-.004.306 0 .535.441.198.609-3.672 1.82-7.354 3.632-11.06 5.383-4.848 2.29-8.047 5.324-11.244 9.66-.18.246-.428.348-.672.348M72.405 145c-1.938 0-4.01-.403-5.305-1.526-.236-.205-.014-.474.264-.474.018 0 .035 0 .054.003 1.22.152 2.343.617 3.587.73.65.06 1.317.09 1.981.09.472 0 .943-.015 1.405-.044l.044-.001c.662 0 .793.952.121 1.057-.66.104-1.395.165-2.15.165"/>
    </g>
</svg>
