<svg xmlns="http://www.w3.org/2000/svg" viewBox="0 0 341 333">
    <g fill="none" fill-rule="evenodd">
        <path fill="#8290FF" d="M129.5 332c-20.158 0-36.5-1.793-36.5-4 0-.087.025-.173.074-.257 3.496-.464 5.62-1.074 5.62-1.742 0-.047-.011-.095-.033-.142 6.474-1.118 17.867-1.859 30.839-1.859 20.159 0 36.5 1.79 36.5 4 0 2.207-16.341 4-36.5 4M234.5 333c-28.442 0-51.5-1.794-51.5-4 0-2.209 23.058-4 51.5-4 28.443 0 51.5 1.791 51.5 4 0 2.206-23.057 4-51.5 4M292.5 314c-22.366 0-40.5-1.792-40.5-4s18.134-4 40.5-4c1.397 0 2.776.007 4.137.02.04.465.14.98.309 1.547 4.896 1.163 14.11 1.384 17.631 5.786-6.35.41-13.933.647-22.078.647m22.325-.662l-.338-.805c-1.143-2.402-2.218-4.433-3.756-6.106l.64.032c1.402 2.64 2.947 4.932 4.355 5.315.208.056.415.084.622.084.772 0 1.53-.373 2.234-.933 1.239-.986 2.304-2.557 2.963-3.713 7.09.721 11.456 1.704 11.456 2.789 0 1.393-7.224 2.62-18.176 3.337" opacity=".072"/>
        <path fill="#8290FF" d="M77.015 329C64.855 329 55 327.88 55 326.5s9.856-2.5 22.015-2.5c11.76 0 21.367 1.047 21.985 2.365-3.157.525-5.132 1.138-5.528 1.796-4.033.514-9.911.839-16.457.839" opacity=".072"/>
        <path fill="#E2D2EA" d="M93 328c.427-.733 2.56-1.415 5.966-2 .023.05.034.1.034.15 0 .71-2.267 1.357-6 1.85"/>
        <path fill="#A2B2FF" d="M329 193c0 43.63-35.37 79-79.002 79-43.63 0-78.998-35.37-78.998-79s35.368-79 78.998-79C293.631 114 329 149.37 329 193"/>
        <circle cx="149" cy="108" r="108" fill="#FFF" opacity=".861"/>
        <path fill="#FFD68C" d="M277.5 87c-8.008 0-14.5-6.491-14.5-14.5S269.492 58 277.5 58c8.007 0 14.5 6.491 14.5 14.5S285.507 87 277.5 87"/>
        <circle cx="133" cy="193" r="102" fill="#FFF" opacity=".549"/>
        <path fill="#8290FF" d="M25 317c-13.808 0-25-.895-25-2.002C0 313.894 11.192 313 25 313c13.806 0 25 .894 25 1.998C50 316.105 38.806 317 25 317" opacity=".072"/>
        <path fill="#FFCF0A" d="M10 140c-3.866 0-7-3.135-7-7s3.134-7 7-7 7 3.135 7 7-3.134 7-7 7"/>
        <path fill="#EFBE9A" fill-rule="nonzero" d="M97 250.052s.918 64.297 3.706 69.685c2.79 5.39 16.548 9.204 17.243 8.06.697-1.145-5.955-5.785-7.606-8.792-1.65-3.008-3.692-3.927-2.947-11.803.744-7.873 8.184-52.3 8.184-52.3L97.066 249 97 250.052M93.95 252.056s-9.227 65.53-11.774 68.531c-2.546 3.002-11.97 9.37-15.347 8.291-3.377-1.08 4.526-6.733 6.482-9.549 1.956-2.816 4.072-3.506 4.188-11.441.118-7.934-2.418-53.056-2.418-53.056L94 251l-.05 1.056"/>
        <path fill="#8290FF" d="M155.5 314c-19.054 0-34.5-.895-34.5-2.002 0-1.104 15.446-1.998 34.5-1.998 19.053 0 34.5.894 34.5 1.998 0 1.107-15.447 2.002-34.5 2.002" opacity=".072"/>
        <path fill="#FFD68C" d="M28.99 313c-1.811-18.24-5.325-37.304-3.46-55.796.51-5.052 4.785-27.63 12.873-22.432 6.496 4.175 2.218 19.438 2.173 25.784-.127 17.066-3.482 35.492-8.109 51.277L28.991 313"/>
        <path fill="#FFF" d="M29.253 313.599c0-.011-.002-.021-.003-.031l.5-.167-.497.198"/>
        <path fill="#FFD68C" d="M29.448 313c-1.55-16.598-4.42-33.933-3.12-50.783.32-4.142 2.889-21.217 7.99-21.217.572 0 1.176.215 1.813.687 5.07 3.76 1.874 17.697 1.888 23.479.036 15.553-2.42 32.365-5.88 46.78l-2.134.864-.557.19"/>
        <path fill="#3E3874" d="M31.368 317c2.586-11.786-3.296-30.884-7.992-42.217-1.534-3.702-9.874-15.963-15.137-13.445-5.014 2.397 1.934 15.463 3.85 18.496-1.38-1.758-4.243-3.285-7.082-3.238-5.16.083-4.056 1.067-3.54 5.251.794 6.463 5.736 10.057 10.263 13.878-3.373-1.254-8.724-1.032-8.542 3.833.18 4.867 28.18 17.442 28.18 17.442"/>
        <path fill="#EFBE9A" fill-rule="nonzero" d="M177.678 129.864s1.155 12.683 3.498 14.303c2.84 1.965 3.88 1.1 4.713 4.914.523 2.381-.907 5.606-2.154 7.555-3.787 5.924-10.567 5.133-16.796 6.231-3.56.628-7.416-.98-8.573-4.736-.914-2.968-.068-8.112 1.998-10.531 1.247-1.461 3.54-1.825 4.957-3.138.02-.018 3.824-3.552 3.559-8.394-.267-4.855 6.131-8.9 8.798-6.204"/>
        <path fill="#E74F46" d="M168.176 141c-.055-.082-.109-.165-.162-.25l-.004-.113c-.085-1.439.377-2.815 1.164-4.013.006 1.655-.432 3.143-.998 4.376m10.762-2.454c-.384-1.904-.678-3.933-.88-5.546.26.14.505.316.728.528l.214 4.86c-.02.052-.04.105-.062.158"/>
        <path fill="#DA7F63" d="M172.517 143c-.108 0-.218-.002-.328-.007-1.728-.07-3.099-1.115-4.189-2.677.579-1.211 1.026-2.673 1.02-4.3 1.618-2.365 4.58-4.016 7.058-4.016.731 0 1.422.144 2.022.456.207 1.584.507 3.578.9 5.45-1.204 2.983-3.168 5.095-6.483 5.094"/>
        <path fill="#EFBE9A" fill-rule="nonzero" d="M164 123.372s.766 16.352 7.688 16.622c6.923.268 7.728-8.627 8.18-15.108.507-7.255-.103-9.454-8.18-9.872-7.788-.405-7.688 8.358-7.688 8.358"/>
        <path fill="#3E3874" d="M181.56 120.525c-.067.472-.188.987-.297 1.522 2.043-.046 1.99 3.296 1.325 4.478-.112.2-.858.826-.859.965-.006.426.811.378.704 1.056-.154.978-1.43 1.722-2.37 1.362-.726-.28-.574-1.132-.676-1.797-.26-1.685-.867-2.47-1.978-3.571-.85-.845-2.376-2.026-2.49-3.268-1.574 2.846-5.001 3.321-7.893 2.663-.406 1.716-.095 2.65-1.767 3.654-1.617.97-1.898.121-3.225-.787-.31-1.383 1.599-1.63 2.376-2.235-1.971-1.933-1.184-6.233.688-8.268 2.301-2.499 5.067-3.496 8.314-3.267 1.5.104 3.558.844 4.639 1.922.842.843 1.747 1.364 1.848 3.254 1.645.204 1.83 1.117 1.662 2.317M171.735 133.011s-3.636-1.835-6.668-.408c0 0-1.213 10.397 6.668 10.397 9.097 0 7.073-10.6 7.073-10.6s-3.233-1.224-7.073.611"/>
        <path fill="#FFF" d="M168 134.091s3.429 1.923 7-.091c0 0-3.335 6.689-7 .091"/>
        <path fill="#EFBE9A" fill-rule="nonzero" d="M268.678 132.864s.505 11.9 1.872 14.193c1.776 2.982 5.505 1.208 6.34 5.024.522 2.381-.908 5.606-2.155 7.555-3.787 5.924-10.567 5.133-16.796 6.231-3.56.628-7.416-.98-8.572-4.736-.915-2.968-.07-8.112 1.996-10.531 1.248-1.461 3.541-1.825 4.958-3.138.02-.018 3.824-3.552 3.559-8.394-.267-4.855 6.131-8.9 8.798-6.204"/>
        <path fill="#E74F46" d="M259.005 142l-.005-.007c.256-.866.412-1.809.38-2.816.033 1.008-.119 1.957-.375 2.823m9.995-1.135c-.421-3.642-.608-7.571-.627-7.979.019.409.206 4.338.627 7.978m-9.626-1.854c-.002-.013-.003-.027-.003-.041-.211-3.705 3.66-6.932 6.687-6.969-3.026.038-6.898 3.264-6.687 6.969 0 .014.001.028.003.041"/>
        <path fill="#EFAC7B" d="M263.335 145c-.1 0-.2-.002-.302-.006-1.68-.067-2.997-1.09-4.033-2.597.257-.9.408-1.887.376-2.935v-.01l-.002-.038v-.021l-.001-.032c-.002-.008-.002-.015-.002-.023v-.03c-.002-.007-.002-.014-.002-.02l-.002-.043c-.212-3.852 3.662-7.205 6.69-7.245h.056c.839 0 1.61.26 2.208.835l.018.019.033.031V132.922c.02.423.207 4.508.628 8.295-1.142 2.25-2.894 3.783-5.665 3.783"/>
        <path fill="#EFBE9A" fill-rule="nonzero" d="M255 126.372s.766 16.352 7.688 16.622c6.923.268 7.728-8.627 8.18-15.108.507-7.255-.103-9.454-8.18-9.872-7.788-.405-7.688 8.358-7.688 8.358"/>
        <path fill="#FFF" d="M259 137.09s3.477 6.607 7-.09l-7 .09"/>
        <path fill="#2E3054" d="M77.095 120.79c-2.058 2.305-3.283 4.813-3.283 8.22 0 1.861.203 3.117.883 4.687.59 1.36 1.948 2.739 2.254 4.095-1.949.135-3.602.167-5.22 1.753-5.135 5.04-5.378 16.932 1.866 20.067 1.197.518 2.857.785 3.967.272-2.445-1.659-5.555 3.604-3.514 6.351 2.397 3.223 8.302 3.343 11.706 3.524 3.903.206 9.792.966 12.97-1.985 2.432-2.26 3.714-7.012 4.243-10.299.978 2.598 1.996 5.858 4.51 6.819 2.437.93 5.368-.69 6.736-3.038 1.363-2.337.81-5.543-.548-7.613-.66-1.004-4.568-6.37-5.657-5.888 4.88-2.157 4.893-8.214 3.891-13.844-2.996-16.838-23.662-25.225-34.606-13.343l-.198.221"/>
        <path fill="#EFBE9A" fill-rule="nonzero" d="M97.074 124.945c1.212 1.209.235 9.21.62 11.201 1.02 5.286 6.384 6.112 8.06 10.325.693 1.744-.246 4.476-.739 6.032-1.102 3.482-3.345 8.51-7.248 9.478-2.085.516-5.19.493-7.485.8-2.964.397-5.929.358-8.663-.995-5.412-2.676-6.73-8.394-4.745-13.804 1.404-3.829 3.697-3.572 6.417-5.909 2.857-2.454 4.21-6.712 4.007-10.352-.294-5.304 6.813-9.724 9.776-6.776M137.436 106.025c-.198-1.37-.564-2.673-1.02-3.984-.963-2.781-2.197-5.6-1.778-8.622.098-.706.433-2.277-.805-1.931-.177.05-.653 1.198-.842 1.407-.29.324-.711.568-1.033.84-.055-.459.086-.852.12-1.305.053-.74-.092-1.456-.162-2.194-.06-.628.117-1.794-.478-2.159-.338.396-.536.927-.76 1.42-.19-.451-.885-2.288-1.348-2.447-1.44-.496-.553 2.859-1.404 2.986-.98.147-.58-3.402-1.88-1.752-.832 1.056.121 2.747-.594 3.853-.31-.25-.575-1.16-1.143-.963-.493.173-.267 1.07-.193 1.455.098.505 2.275 6.136 2.921 7.663.973 2.298 1.652 4.949 2.44 7.369.315.967.508 2.903 1.092 3.632.677.848 2.131.815 3.69.511 1.785-.347 3.703-1.047 4.741-1.175-.277-1.539-1.327-2.647-1.509-4.184-.016-.14-.035-.281-.055-.42M208.564 106.025c.198-1.37.564-2.673 1.02-3.984.963-2.781 2.197-5.6 1.778-8.622-.098-.706-.433-2.277.805-1.931.177.05.653 1.198.842 1.407.29.324.711.568 1.033.84.055-.459-.086-.852-.12-1.305-.053-.74.092-1.456.162-2.194.06-.628-.117-1.794.478-2.159.338.396.536.927.76 1.42.19-.451.885-2.288 1.348-2.447 1.44-.496.553 2.859 1.404 2.986.98.147.58-3.402 1.88-1.752.832 1.056-.121 2.747.594 3.853.31-.25.575-1.16 1.143-.963.493.173.267 1.07.193 1.455-.098.505-2.275 6.136-2.921 7.663-.973 2.298-1.652 4.949-2.44 7.369-.315.967-.508 2.903-1.092 3.632-.677.848-2.131.815-3.69.511-1.785-.347-3.703-1.047-4.741-1.175.277-1.539 1.327-2.647 1.509-4.184.016-.14.035-.281.055-.42"/>
        <path fill="#2B2234" d="M97.64 133c.056-1.962.14-4.222-.016-5.818.06.054.12.109.177.166l.199 4.713c-.117.327-.236.64-.36.939m-10.576-.795l-.056-.09v-.982c-.104-1.858.784-3.241 2.118-4.133-1.301 1.401-2.173 3.225-2.065 5.165.002.014.003.026.003.04"/>
        <path fill="#EFAC7B" d="M91.634 137c-1.503 0-3.67-3.415-4.623-4.985l-.002-.039c-.102-1.82.716-3.532 1.937-4.847 1.12-.748 2.576-1.129 3.998-1.129 1.51 0 2.982.43 3.972 1.3.146 1.499.068 3.62.015 5.46-.988 2.396-2.251 3.819-5.166 4.231-.043.006-.086.009-.13.009"/>
        <path fill="#EFBE9A" fill-rule="nonzero" d="M83 118.272s2.132 16.273 8.26 16.713c6.129.439 8.12-8.82 8.6-15.22.539-7.164-.11-9.337-8.692-9.752-8.274-.397-8.168 8.259-8.168 8.259"/>
        <path fill="#FFF" d="M89 129.091s3.429 1.923 7-.091c0 0-3.335 6.689-7 .091"/>
        <path fill="#2E3054" d="M102.423 115.969c-.072.5-.205 1.045-.323 1.61 2.234-.048 2.178 3.49 1.45 4.74-.123.213-.94.877-.942 1.024-.003.45.89.4.77 1.118-.167 1.036-1.563 1.822-2.592 1.441-.793-.294-.626-1.197-.74-1.902-.283-1.783-.948-2.614-2.164-3.781-.93-.896-2.598-2.145-2.723-3.46-1.722 3.014-5.471 3.517-8.634 2.82-.445 1.816-.106 2.805-1.935 3.869-1.769 1.027-2.076.128-3.528-.834-.34-1.464.788-3.062 1.638-3.702-2.156-2.047-.335-5.264 1.715-7.418 2.515-2.647 5.544-3.7 9.095-3.46 1.641.111 3.893.894 5.073 2.036.925.892 1.913 1.443 2.023 3.444 1.8.215 2.004 1.185 1.817 2.455"/>
        <path fill="#FFF" d="M84.321 141.16L83 142.611s2.313 3.223 8.92 3.384c6.609.161 10.08-3.706 10.08-3.706L100.183 141s-9.42 6.123-15.862.16"/>
        <path fill="#EFBE9A" fill-rule="nonzero" d="M285.065 138.89c.348-.667-.315-1.446-.115-1.918 1.14-2.695 3.349-5.426 4.358-8.193 1.622-4.447 3.492-9.22 5.542-13.475 1.603-3.326 2.459-6.228 3.144-9.832.309-1.627.088-5.662 1.268-6.702.936.508.552 5.946 2.268 2.197 1.306-2.853 3.69-8.034 4.751-7.966 1.062.067-1.597 4.538-.918 5.163.68.623 3.72-5.272 4.437-4.827.719.446-2.656 5.388-2.007 5.88 1.117.843 2.53-3.396 3.422-2.985.892.41-1.471 3.296-1.685 4.964 1.558.193 2.815-3.516 3.418-1.962.602 1.555-4.172 4.982-5.408 6.748-2.26 3.23-3.761 7.06-4.316 10.95-.909 6.377-3.192 13.253-5.472 19.273-1.672 4.415-4.754 8.677-6.75 12.795-1.904-.023-6.77-2.005-7.79-3.76-.772-1.333.726-4.186 1.853-6.35M237.16 133.215c-.318-.674.37-1.42.19-1.894-1.027-2.71-3.11-5.496-4.004-8.272-1.436-4.46-3.105-9.257-4.972-13.545-1.46-3.352-2.197-6.257-2.737-9.85-.244-1.62.13-5.607-1-6.68-.947.467-.775 5.864-2.33 2.09-1.184-2.874-3.347-8.091-4.401-8.064-1.054.027 1.408 4.552.712 5.145-.698.591-3.484-5.358-4.212-4.944-.727.414 2.426 5.432 1.764 5.893-1.14.794-2.376-3.454-3.274-3.081-.9.372 1.33 3.318 1.478 4.976-1.552.134-2.653-3.585-3.31-2.07-.657 1.516 3.94 5.087 5.097 6.882 2.114 3.282 3.455 7.13 3.854 11 .656 6.345 2.655 13.238 4.683 19.282 1.487 4.432 4.376 8.765 6.196 12.916 1.885.049 6.782-1.731 7.858-3.43.816-1.29-.558-4.17-1.591-6.354"/>
        <path fill="#31306E" d="M196 317.742v11.117s12.731 5.19 20.221 2.227c7.49-2.967-11.233-2.968-8.987-12.602 2.247-9.636-11.234-.742-11.234-.742"/>
        <path fill="#EFBE9A" fill-rule="nonzero" d="M110 128.187c.01-.987.446-2.033 1.046-3.345 1.349-2.953 3.073-5.758 4.307-8.748 1.566-3.792 2.692-7.717 4.346-11.47.677-1.535 1.57-3.046 2.165-4.635 1.094-2.918.29-5.798.366-8.843.012-.483 1.175 1.003 1.212 1.077.421.827.436 2.086.39 2.986 1.513-.893 1.418-2.908 2.117-4.29.805-1.595 1.798-3.406 2.78-4.919.273 2.093-1.13 4.748-1.662 6.692.203-.747 1.537-2.155 1.98-2.936.603-1.064 1.134-2.153 2.138-2.9.017 2.12-1.378 4.951-2.012 6.982 1.199-1.42 2.499-3.255 3.97-4.406.388 2.322-2.1 3.77-2.447 5.855 1.247-.399 2.303-1.045 3.304-1.817-1.418 4.005-5.533 6.027-7.417 9.869-2.901 5.915-4.03 12.764-5.85 19.101-.713 2.48-1.502 4.995-2.411 7.413-.37.982-1.1 4.013-2.384 4.144-.616.062-1.332-.95-1.835-1.304-.815-.575-1.92-.83-2.638-1.546-1.07-1.066-1.474-1.985-1.465-2.96"/>
        <path fill="#31306E" d="M152 314.744v11.117s-12.732 5.188-20.22 2.224c-7.491-2.966 11.234-2.968 8.987-12.603-2.247-9.634 11.233-.738 11.233-.738"/>
        <path fill="#EFBE9A" fill-rule="nonzero" d="M68.993 126.502c-.28-.366-.56-.737-.78-1.128-1.89-3.38-4.17-6.55-5.968-9.98-1.882-3.588-3.35-7.352-5.312-10.893-.803-1.45-1.815-2.853-2.543-4.363-1.34-2.772-.838-5.686-1.204-8.68-.057-.473-1.042 1.099-1.072 1.176-.328.855-.22 2.096-.091 2.979-1.55-.739-1.654-2.732-2.463-4.03-.933-1.493-2.07-3.186-3.168-4.583-.063 2.087 1.553 4.571 2.253 6.437-.268-.716-1.696-1.98-2.2-2.706-.686-.993-1.306-2.016-2.35-2.658.186 2.092 1.81 4.75 2.619 6.691-1.298-1.287-2.734-2.97-4.27-3.968-.154 2.326 2.397 3.517 2.932 5.538-1.247-.275-2.332-.813-3.376-1.478 1.758 3.811 5.942 5.417 8.136 9.025 3.38 5.557 5.13 12.2 7.503 18.272 1.11 2.837 2.347 5.448 4.203 7.861.71.926 1.705 1.888 2.112 2.986 2.111-1.372 3.584-4.113 6.046-4.958-.233-.538-.62-1.035-1.007-1.54"/>
        <path fill="#3E3874" d="M104.527 167.93c.672-2.358 1.923-4.603 2.555-6.908.464-1.688.694-3.213.849-4.97.446-5.083 2.428-9.552 4.834-13.99 1.245-2.295 5.235-10.247 5.235-10.247s-2.327-1.6-2.944-2.017c-1.543-1.046-2.691-2.499-4.115-3.636-2.1 7.298-5.134 15.139-12.842 18.276-8.571 3.49-13.623-.68-19.107-7.019-2.059-2.382-4.065-4.811-6.214-7.115-1.867-2-3.251-4.335-5.125-6.304-.744.715-6.927 3.743-6.644 4.625 1.4 3.89 4.61 8.398 6.786 12.122 2 3.424 5.64 7.22 6.24 11.059.337 2.155-.206 4.53.222 6.584.404 1.946 1.54 3.908 2.402 5.829.841 1.878 2.248 4.249 2.593 6.233.368 2.116.474 3.045-.017 5.079-.344 1.422-.938 5.595-1.255 7.025-.405 1.834-2.555 4.939-.257 5.262 4.636.653 9.883-2.518 14.554-2.196 3.451.238 6.98 1.087 10.446.542 1.475-.231 4.023 4.032 3.931 2.505-.037-.608-1.779-6.574-2.269-8.224-1.047-3.516-.888-8.89.142-12.515"/>
        <path fill="orange" d="M77.278 182s-18.973 42.638-24.11 62.712c-5.137 20.072 7.91 25.61 15.022 26.012 7.11.403 19.755 10.84 32.005 1.205 12.25-9.634 19.088.142 27.386-6.683 8.3-6.825 3.69-23.575-3.816-38.026-7.508-14.453-19.08-44.87-19.08-44.87s-18.32 2.46-27.407-.35"/>
        <path fill="#31306E" d="M68.641 322.465c-2.565 2.362-4.964 4.764-2.799 5.418 3.431 1.036 13.006-5.076 15.593-7.956.387-.432.927-2.216 1.565-4.927-7.124 8.472-13.457 7.636-14.359 7.465M117.95 327.792c.382-.645-1.472-2.384-3.481-4.327-2.103.215-7.876-.036-14.469-7.465.25 1.753.52 2.997.81 3.573 2.773 5.497 16.448 9.386 17.14 8.22"/>
        <path fill="#FFF" d="M169.375 196c3.472-.001 6.87-.76 10.222-1.516 1.632-.369 3.438-1.065 5.114-1.173 1.373-.087 2.334.55 3.248-.099l.267-.225c.597-.603 1.031-3.941 1.176-4.855 1.016-6.359 1.63-12.807 2.262-19.202.434-4.389-.334-8.413 2.483-12.16 1.202-1.598 9.605-13.462 14.318-21.749 4.712-8.287 8.81-29.6 8.52-30.467-.19-.568-2.174-1.652-3.808-2.463-.856-.427-3.87-2.773-4.19-1.896-.614 1.686-3.047 11.184-5.523 20.663-2.476 9.478-12.473 25.781-16.187 24.075-3.714-1.706-6.285-.759-6.285-.759.38 2.655-4.758 7.223-8.188 7.024h.393c-3.43.199-8.569-4.369-8.188-7.024 0 0-2.571-.947-6.285.759s-13.712-14.597-16.187-24.075c-2.476-9.48-4.91-18.977-5.524-20.663-.32-.877-3.333 1.47-4.189 1.896-1.635.81-3.619 1.895-3.81 2.463-.289.867 3.81 22.18 8.522 30.467 4.713 8.287 13.116 20.151 14.318 21.75 2.817 3.746 2.049 7.77 2.483 12.16.632 6.394 1.246 12.842 2.262 19.201.145.914.579 4.252 1.177 4.855l.265.225c.915.649 1.875.012 3.25.1 1.675.107 3.481.803 5.113 1.172 3.351.756 6.75 1.515 10.222 1.516h-7.251"/>
        <path fill="orange" d="M269.52 200c1.624-.42 3.423-1.21 5.091-1.334 1.368-.099 2.324.626 3.235-.111l.264-.258c.84-.968.62-4.595.746-5.8.409-3.955.785-7.912 1.204-11.865.371-3.494 1.218-6.31 2.062-9.611.916-3.585.416-7.169 2.05-10.617 1.156-2.435 2.372-4.719 3.696-7.094 2.153-3.86 9.453-12.598 11.132-22.08-3.791-1.92-6.412-2.361-10.48-3.23-.736 4.616-9.802 16.887-12.539 17.799-2.736.911-6.593.986-6.593.986s-1.16 5.52-6.274 6.27c-5.115.753-8.532-1.905-6.977-6.035-1.939-.82-5.382-.31-8.12-1.221-2.736-.912-11.8-13.183-12.538-17.799-4.068.869-6.689 1.31-10.479 3.23 1.679 9.482 8.978 18.22 11.13 22.08 1.325 2.375 2.542 4.659 3.696 7.094 1.635 3.448 1.136 7.032 2.05 10.617.844 3.301 1.693 6.117 2.063 9.61.42 3.954 1.122 8.893 1.532 12.847.124 1.207-.42 3.851.418 4.82l.264.257c.911.737 1.867.012 3.235.111 1.668.125 3.466.915 5.092 1.334h15.04"/>
        <path fill="#3E3874" d="M156.714 189.38c0 12.026-18.337 110.183-17.698 130.8 4.977 1.08 10.583 0 15.216 1.797-.046-6.606 12.185-90.058 18.708-94.779 1.499 2.434 19.606 85.224 22.39 94.677 1.328-.286 14.632.239 14.644.102.783-8.999-16.527-124.523-20.425-132.977l-32.835.38M258.028 116.38c-.322.454-1.074 1.135-1.074 1.135s-1.048-.129-1.455.033c-.965.383-1.911.566-2.674 1.394-5.073 5.506 1.434 11.556 7.28 10.92 2.717-.296 4.635-2.882 7.413-2.846.005 2.572 1.74 4.53 4.5 3.847 7.015-1.733 3.513-12.965-.965-15.36-2.821-1.51-9.63-2.362-12.135-.195-.349.301-.62.693-.89 1.071"/>
        <path fill="#31306E" d="M278.117 192.24c-1.596.435-3.43.692-5.013.996-2.52.484-5.062.864-7.613 1.169-3.594.43-7.235.68-10.857.521-3.458-.153-6.367-1.023-9.607-1.934-.14 1.268.307 2.865.281 4.233 2.248.04 4.393.813 6.617 1.107 3.1.41 6.127.665 9.344.668 4.193.004 8.25-1.128 12.275-2.103 1.27-.307 4.17-.386 5.14-1.226.69-.6-.001-3.595.228-3.671-.257.085-.522.165-.795.24"/>
        <path fill="#3E3874" d="M245.805 194.503L229 320.885l8.266.302 25.688-84.892L275.946 323l7.676-.603s.59-57.402.296-75.226c-.296-17.824.59-42.598-6.201-53.171 0 0-22.486 6.444-31.912.503"/>
        <path fill="#31306E" d="M231.087 319.716c-.257 4.461-6.995 6.323-9.087 9.794 2.169.928 9.774.51 11.886-1.022 2.913-2.112.744-7.434 4.114-10.488l-6.913 1.716M278.725 318.814c.218 3.527-.888 6.985-.704 10.629 4.87.743 8.964 1.798 13.979 1.508-1.165-3.324-3.742-3.953-6.421-5.942-4.32-3.203-2.258-5.427-3.808-10.009l-3.046 3.814"/>
        <path fill="#FFCF0A" d="M155 32c0 2.761-2.24 5-5 5-2.761 0-5-2.239-5-5 0-2.762 2.239-5 5-5 2.76 0 5 2.238 5 5"/>
        <path fill="#2E3054" d="M256.47 146.819s-.681 5.413 4.297 5.558c4.978.145 7.744-3.913 8.85-6.377l1.383.29s-2.49 8.26-9.956 7.68c-7.467-.579-6.085-5.651-5.67-7.39l1.095.239"/>
        <path fill="#8290FF" d="M317.5 318c-10.217 0-18.5-.895-18.5-2 0-1.008 6.898-1.843 15.87-1.98.08.146.153.295.222.449l.316.831c-.09-.288-.195-.566-.316-.831l-.17-.45c.842-.013 1.704-.019 2.578-.019 10.216 0 18.5.895 18.5 2s-8.284 2-18.5 2" opacity=".072"/>
        <path fill="#A2B2FF" d="M315 315c-2.154-6.67-13.155-6.792-18.672-8.189-1.993-7.13 5.611-6.35 9.164-4.672 4.536 2.142 6.35 5.432 8.371 9.967L315 315"/>
        <path fill="#FFD68C" d="M321.137 307c-2.996-.315-6.473-.582-10.31-.789-1.733-3.37-3.253-7.278-4.055-8.76-1.558-2.877-5.614-10.17-1.07-10.68-3.595-2.814-4.256-7.535-1.886-7.535.748 0 1.799.47 3.154 1.62-2.144-4.551-8.35-17.343-2.573-20.4.589-.312 1.157-.456 1.706-.456 5.115 0 8.46 12.475 9.039 18.006.562-2.513 2.581-4.663 4.31-4.663 1.213 0 2.28 1.06 2.6 3.797.679 5.819 1.997 24.022-.568 29.198-.098.198-.214.421-.347.662"/>
        <path fill="#F2A1AA" d="M315.892 312c-.204 0-.407-.03-.612-.093-1.384-.426-2.902-2.973-4.28-5.907 3.721.22 7.094.503 10 .837-.647 1.285-1.695 3.03-2.912 4.127-.692.622-1.437 1.036-2.196 1.036"/>
        <path fill="#A2B2FF" d="M316 313c-5.022-10.982-17.55-14.636-25-19.206.244-11.863 10.502-5.436 14.957-1.295 5.684 5.287 9.988 12.898 10.043 20.501"/>
        <path fill="#3E3874" d="M316.964 316s-13.857-8.34-5.014-16.588c8.844-8.248 8.89-8.747 5.946-15.067-2.943-6.32 11.23-17.599 17.908-13.451 6.68 4.148 7.888 12.825-2.177 17.936-10.065 5.11 2.757 8.318.012 16.123C330.89 312.76 316.964 316 316.964 316"/>
        <path fill="#FFF" d="M333.446 299.274c-.09-.155-.18-.309-.275-.46-6.252-1.393-11.016 1.76-13.403 3.9 1.992-10.322 6.42-23.95 16.232-31.245-.393-.2-.807-.357-1.24-.469-3.76 2.946-6.735 6.784-9.075 10.995.255-2.322.153-5.282-1.078-8.277-.333.222-.66.449-.979.688 2.3 5.929-.062 11.642-.093 11.716l.081.033c-2.44 5.486-3.989 11.256-4.967 16.266-.114.591-.399 2.188-.399 2.188-.13.764-.247 1.503-.352 2.215-.662 4.48-.85 7.845-.898 9.004.174.11.279.172.279.172s.329-.076.89-.227c.06-1.415.31-5.653 1.241-11.096 1.425-1.571 6.589-6.505 13.846-4.69l.19-.713"/>
    </g>
</svg>
