<svg xmlns="http://www.w3.org/2000/svg" xmlns:xlink="http://www.w3.org/1999/xlink" viewBox="0 0 639 455">
    <defs>
        <path id="prefix__a" d="M41 208L571 208 571 455 41 455z"/>
    </defs>
    <g fill="none" fill-rule="evenodd">
        <path fill="#A2B2FF" d="M187 363.118c-36.54 4.297-78.599 12.326-110.208-11.07-16.249-12.025-15.178-22.768 5.332-25.029-13.016-7.865-28.241-13.767-42.842-18.325-26.526-8.287-39.48-27.118-1.933-27.919-6.689-13.57-20.337-25.005-27.631-40.254-7.589-15.858-10.43-28.822-9.57-46.206 34.465-5.17 50.113 54.72 66.47 76.009-1.657-32.107 21.342-62.1 32.762-18.283 5.82 22.332 6.35 47.825 16.332 68.118.57-14.248 1.682-50.712 22.598-47.647 9.223 1.351 11.283 10.434 13.717 18.714 6.553 22.303 9.484 51.668 29.085 65.715l5.888 6.177"/>
        <path fill="#FFD68C" d="M429.08 329.5c7.2-9.525 8.093-23.888 13.453-34.877 7.331-15.04 18.535-30.016 30.254-41.315 19.944-19.236 25.61 4.211 20.906 24.912 7.495-20.022 40.322-53.502 59.055-61.818 25.378-11.26 10.861 19.989 3.922 33.242 14.415-21.526 64.03-27.311 82.33-9.049-24.015 9.978-39.746 24.847-53.169 47.719-13.577 23.133-26.111 27.961-51.3 25.552 2.69 21.295-36.74 38.896-51.64 45.407C466.084 366.617 391.745 374.84 390 393l39.08-63.5"/>
        <path fill="#3E3874" d="M474.368 93.812c-12.617-15.404-33.518-23.583-53.225-20.88-6.297.863-12.536 3.187-18.925 3.21-7.227.034-13.019-3.325-17.558-8.79-8.307-9.973-10.468-23.49-17.97-33.983-13.158-18.395-36.507-25.642-58.304-22.755-22.913 3.037-47.353 16.233-56.868 38.298-7.043 16.358-3.596 37.871 11.112 48.317-.506.77-.667 1.772-.15 2.819 20.844 41.852 48.18 87.88 96.487 100.96 24.9 6.742 50.95 1.231 74.46-7.995 19.798-7.777 40.033-19.373 48.858-39.782 8.377-19.361 5.504-43.025-7.917-59.419"/>
        <path fill="#FFCF0A" d="M511.967 231.77c-4.343-26.842-10.196-57.563-33.455-74.904-26.542-19.785-61.886-13.106-92.265-9.295-20.413 2.559-41.83 4.062-61.149-4.338-1.647-.723-3.168.355-3.629 1.64-18.178-.676-36.196 6.255-52.416 14.311-22.58 11.213-43.639 23.389-68.753 28.117-23.005 4.338-46.852 5.405-68.533 14.976-17.43 7.69-32.452 20.198-43.823 35.37-13.11 17.478-19.78 29.09-12.165 43.812.941 1.819-6.981 20.006-5.622 18.262 22.718-29.07 46.91-59.871 81.194-75.892 9.516-4.452 20.126-8.067 30.77-7.631 11.221.47 20.138 6.254 27.741 14.092 15.092 15.54 28.26 33.316 42.13 49.933 23.973 28.725 49.283 65.861 89.534 71.255 17.004 2.273 33.19-2.95 45.965-14.253 14.159-12.532 22.442-29.792 29.791-46.823 8.698-20.163 17.189-41.99 34.86-56.198 15.737-12.635 40.862-16.205 55.54.046 1.888 2.077 4.653-.195 4.285-2.48"/>
        <path fill="#EFAC7B" d="M304.489 131.693L303 153.984s9.125 17.028 30 4.282c0 0-4.774-23.65-.526-34.023 4.249-10.371-27.985 7.45-27.985 7.45"/>
        <path fill="#E1E9F4" d="M431.295 117.05c-8.814-.23-19.328 0-24.929 8.054-6.198 8.906-1.4 20.413-5.36 29.85-.344.818 14.06-9.115 31.575-34.781.909-1.33.275-3.076-1.286-3.123"/>
        <path fill="orange" d="M562.091 304.219c-15.355-50.938-58.912-97.493-115.568-96.192-33.047.759-62.492 19.514-84.604 42.883-11.776 12.45-21.215 26.522-31.563 40.111-10.958 14.383-24.011 26.833-42.67 29.364-1.094.15-.783 1.84.253 1.864.944.023 1.888.011 2.82-.035-.483.472-.806 1.14-.817 2.003-.092 26.372 10.371 52.226 28.777 71.143 18.97 19.491 45.94 29.973 73.059 29.455 14.204-.276 27.257-3.831 40.31-9.239 7.126-2.946 15.39-6.49 23.068-3.452 6.02 2.382 9.865 8.043 13.157 13.313 6.158 9.826 11.603 19.721 22.469 25.026 10.532 5.143 23.114 5.891 34.28 2.359 26.497-8.377 40.379-35.842 44.074-61.605 4.11-28.558 1.278-59.418-7.045-86.998"/>
        <path fill="#3E3874" d="M327.84 438.727c-14.077 6.15-30.843 5.862-45.797 4.382-33.844-3.365-87.118-9.573-79.941-10.683-11.539-11.169-27.162-17.724-43.282-17.678-17.954.046-33.07 9.99-49.893 14.66-14.066 3.908-28.305 2.463-40.536-5.827-11.054-7.492-19.224-18.892-23.574-31.47-10.12-29.182 1.593-61.289 15.174-87.245 13.258-25.355 31.074-48.732 53.943-66.12 13.94-10.591 29.805-18.627 46.594-23.251 8.123-2.255 16.477-3.7 24.924-4.244.357-.023.715-.046 1.084-.057 1.985-.128 3.981-.185 5.989-.185.773-.012 1.558-.012 2.33 0 9.428.138 18.497 1.526 27.163 4.012 1.442.416 2.873.855 4.28 1.34h.012c.589.197 1.177.394 1.766.613 4.661 1.642 9.185 3.62 13.558 5.92 10.558 5.515 20.285 12.81 29.02 21.62 21.266 21.447 38.066 48.582 50.943 75.764 13.074 27.609 22.42 58.016 23.378 88.747.415 13.585-4.281 24.083-17.135 29.702"/>
        <path fill="#EFBE9A" fill-rule="nonzero" d="M482.43 170.229c-.16-8.236 3.042-18.668.726-26.582-2.34-7.938-9.876-14.726-15.765-20.722-.335-.344-10.972-8.638-17.323-9.626-12.332-1.918-23.903 5.686-31.844 14.393-10.246 11.235-16.123 25.605-25.747 37.31-8.09 9.845-18.601 19.172-21.598 32.072-5.82 25.134 18.325 44.834 41.064 47.522 25.644 3.021 48.97-11.177 60.899-33.473 6.673-12.464 9.865-26.811 9.589-40.894"/>
        <path fill="#843957" d="M385 184L385 197.715 400.511 225 451 212.009 425.503 200.94 414.294 189.804 385 184"/>
        <path fill="#FFF" d="M409.206 182.135s-6.353 8.491-3.443 11.598c2.909 3.106 13.657 8.423 19.855 7.043 6.198-1.379-10.092-20.562-16.412-18.641M396 207.417s7.283-4.066 9.97-1.651c2.686 2.414 9.76 5.894 16.209 5.932 16.83.1 15.81 11.302 15.81 11.302L396 207.417"/>
        <path fill="#E1E9F4" d="M409.515 211.512c-37.35-17.828-14.56-47.22-20.141-43.058 3.66-4.467-19.406 25.294-35.837 34.799-9.646 5.578-18.448 12.494-14.621 25.126 6.245 20.554 27.523 34.17 47.999 37.016 22.928 3.2 45.719-6.619 62.425-21.914 7.964-7.294 23.43-23.376 23.66-34.888.096-5.15-9.697-1.757-22.456 1.637-13.04 3.469-29.18 6.937-41.029 1.282M456.323 116.629c-.211-.155-4.833-17.465-10.573-23.101-3.676-3.614-9.756-3.58-11.957 1.58-2.314 5.42.828 11.965 4.368 16.055 4.571 5.295 11.242 8 18.162 7.83 1.52-.046 2.855-.28 0-2.364M498.965 146.68c-.318-4.835-2.632-9.721-7.08-12.027-5.341-2.768-15.446-1.115-19.816-5.571-1.178-1.195 13.14 10.803 8.597 29.018-3.683 14.77.105 33.727.625 32.872 4.633-7.543 7.847-17.97 11.905-25.842 2.898-5.649 6.182-11.906 5.769-18.45"/>
        <path fill="#EFBE9A" fill-rule="nonzero" d="M326.916 47.44c-18.103-10.637-46.992-5.926-53.537 16.348-.265.906.15 1.685.807 2.167-4.69 11.383-4.033 25.117.864 36.535 4.598 10.718 12.134 19.912 20.638 27.81 8.112 7.544 17.734 16.004 28.97 18.136 26.226 4.987 30.444-24.234 30.34-43.31-.115-22.205-7.882-45.797-28.082-57.685"/>
        <path fill="#A2B2FF" d="M178.2 217.267c.276.234.541.469.817.702l.277 1.525c-.357-.742-.737-1.484-1.094-2.227zm62.778 4.626c-4.364-2.023-8.878-3.762-13.53-5.205-.07.153-.138.316-.184.498-.956 3.548-1.923 7.096-2.879 10.655.587-3.121 1.21-6.233 1.842-9.354.185-.925-.057-1.727-.54-2.338h-.012c-.956-1.21-2.844-1.738-4.272-1.18-.783.295-1.428.915-1.704 1.933-.254.904-.496 1.81-.749 2.714-1.025-2.135-4.375-3.263-5.976-.6-1.474 2.47-2.787 4.992-3.984 7.544.138-.783.276-1.587.426-2.379.507-2.786-4.145-5.225-5.711-2.125-.058.122-.115.244-.184.366-3.248-.865-6.345-1.87-9.304-3.05-.472-2.44-1.083-4.87-1.923-7.29-.08-.233-.184-.447-.323-.64-1.324-2.023-4.95-1.87-5.976.163-.184.356-.276.782-.265 1.26l.023.855c-.276-.692-.552-1.383-.84-2.065-8.429.478-16.765 1.749-24.872 3.732-.069.121-.057.284.08.437 10.951 11.854 16.663 25.62 17.319 40.93.714 16.662-4.1 33.122-8.67 49.155-.588 2.094 1.75 2.263 3.88 1.992 41.602-5.283 66.144-24.414 65.75-25.296-7.921-17.743 7.598-42.809 2.578-60.712z"/>
        <path fill="#E4DEFF" d="M284.49 133.188c4.823-11.983 2.515-26.371-7.063-35.57-9.671-9.28-24.547-10.986-36.457-5.465-3.543-10.138-13.145-17.882-24.212-18.145-11.01-.275-20.83 6.953-24.916 16.77-12.441-7.503-29.913-6.014-40.08 4.778-9.752 10.356-10.653 26.107-3.774 38.01-16.873 3.035-26.14 21.811-20.173 37.86 6.37 17.127 24.593 25.558 42.111 24.481.173.344.543.607 1.062.504 27.374-5.51 55.522-1.466 78.926 14-.035.87.415 1.752 1.408 1.912 11.183 1.902 25.7.035 33.814-8.66 6.082-6.507 8.17-16.176 3.6-23.725 11.23-13.873 9.152-35.054-4.247-46.75"/>
        <path fill="#EFBE9A" fill-rule="nonzero" d="M268.27 170.724c-3.496-24.148-18.038-48.204-44.532-48.715-28.843-.557-49.218 24.416-54.764 51.06-.138.662-.057 1.243.16 1.73-3.082 14.153.172 29.861 9.1 41.367 14.117 18.216 38.892 25.03 59.886 15.603 23.812-10.692 33.794-35.851 30.15-61.045M202.84 424.735c-.863-2.296-3.308-4.322-6.35-5.696-.268-.123-.542-.236-.82-.346-.124-.05-.247-.096-.371-.143-.198-.073-.394-.148-.596-.215-1.691-.585-3.485-.967-5.243-1.1-3.094-.35-6.186-.269-8.568-.022-10.234 1.062-19.794 5.284-29.98 6.644-1.56.209-1.522 2.787 0 3.034.853.138 1.706.23 2.556.283-2.3.742-4.603 1.334-6.915 1.66-2.525.355-1.708 3.985.573 4.127 5.885.363 12.019-1.862 18.16-4.156.4.058.811.081 1.217.117-.988.304-1.972.619-2.942.952-3.833 1.316-8.168 2.464-11.355 4.964-.495.388-.028 1.027.46 1.083 6.125.705 12.47-1.428 18.766-3.01-2.544 1.429-5.163 2.653-7.627 4.17-.22.134-.28.442-.084.627 3.327 3.123 7.798-.196 11.208-1.777 7.454-3.457 14.68 3.002 22.316.662 3.638-1.114 6.808-4.065 6.754-7.993-.018-1.387-.428-2.758-1.158-3.865M297.403 363.65c-3.335.252-6.396 1.389-9.204 3.024l-.001-.02c3.514-2.546 7.175-4.867 10.906-7.181 1.8-1.117.673-4.141-1.488-3.485-3.644 1.106-7.541 2.787-11.355 4.925-.181-.312-.347-.632-.554-.93 3.583-2.124 7.41-3.742 10.95-5.951 1.41-.88.779-2.887-.822-2.994-4.719-.32-10.267 1.546-15.243 4.623-.211-.103-.42-.215-.634-.306 4.065-2.035 8.144-3.988 11.877-6.124 1.397-.8.914-3.433-.884-3.219-13.914 1.658-28.914 9.326-37.381 20.476-3.846 5.064-14.273 28.722-1.14 29.496 3.366.197 7.28-1.422 10.495-2.2 4.262-1.035 10.818-1.49 14.632-3.552 4.631-2.502 8.395-9.751 9.928-14.94 3.156-3.127 6.535-5.946 10.955-7.866 1.858-.808.929-3.926-1.037-3.777M500.263 255.384c-2.38 2.058-4.558 4.505-6.44 7.207.048-.964.012-1.91-.11-2.826.425-1.108.875-2.211 1.397-3.3 1.92-4 4.807-7.981 3.708-12.581-.355-1.487-2.298-1.257-2.753 0-1.305 3.603-3.463 6.631-5.489 9.769-.152-.129-.296-.272-.457-.39.517-.768 1.03-1.54 1.517-2.325 2.442-3.925 5.96-10.01 3.134-14.504-.38-.604-1.143-.552-1.533 0-1.734 2.452-2.378 5.456-3.936 8.064-1.444 2.417-3.257 4.548-4.98 6.755l-.292-.023c2.188-3.74 4.726-7.257 6.83-11.041.785-1.411-.84-3.273-2.28-2.313-2.814 1.875-5.523 4.569-7.929 7.72.857-1.402 1.752-2.79 2.681-4.18 1.205-1.803-1.35-3.453-2.807-2.196-4.221 3.642-6.854 8.665-9.696 13.493-4.379 7.444-10.988 40.773 7.503 44.009 7.601 1.33 11.583-2.253 13.434-7.744.453-.46.778-1.053.848-1.747 1.114-11.06 3.31-20.067 10.771-28.684 1.885-2.178-.961-5.031-3.12-3.163M283.775 260.48c-1.527 1.6-2.748 3.463-3.853 5.43 2.166-4.977 3.39-10.358 3.372-15.99-.003-1.154-1.602-1.346-1.99-.27-11.051 30.628-2.754 4.728-3.797-1.7-.176-1.092-1.94-1.303-2.402-.315-1.809 3.858-3.127 7.852-4.583 11.8.378-3.023.323-5.994-.265-8.79-.34-1.617-2.526-1.337-3 0-2.4 6.76-3.796 13.622-7.369 19.964-.533.946-1.103 1.833-1.693 2.69 1.689-3.9 2.12-8.513-.56-11.957-1.088-1.398-3.062-.1-3.17 1.315-.496 6.44-3.752 9.89-7.582 14.822-2.469 3.18-4.304 6.63-3.8 10.92.677 5.73 8.777 6.662 10.173 6.598 8.593-.392 15.814-4.377 21.336-10.929 4.86-5.766 10.685-15.254 10.398-23.085-.022-.597-.775-.966-1.215-.504"/>
        <path fill="#E4DEFF" d="M285.15 131.736c-.559-1.099-1.305-2.135-2.184-3.1.893.017 1.707.254 2.243 1.007.506.713.389 1.423-.059 2.093m-4.084 15.214c-4.876 1.977-10.322 2.705-15.56 2.034.309-.224.608-.474.894-.747.277-.01.556-.01.832-.022 4.41-.198 9.247-.69 13.625-2.036.527.09 1.05.149 1.567.179-.467.215-.926.416-1.358.592m-16.853-14.076l.15-.031c2.605-.643 5.232-1.393 7.868-2.09.292.14.588.273.87.421 2.384 1.256 4.53 3.84 3.305 5.614-1.632.623-3.308 1.14-5.013 1.517-1.005-.085-2.05-.273-3.053-.507-.918-1.78-2.38-3.432-4.127-4.924m-83.722 2.971c-.998 1.377-2.06 2.96-2.935 4.612-.885.357-1.578 1.02-2.029 1.813.333-1.449 1.1-2.996 2.275-4.51 1.06-1.368 2.247-2.662 3.517-3.88-.31.691-.586 1.352-.828 1.965m108.82-17.222c-9.97-4.464-22.73-5.29-33.236-2.3-2.75.782-5.446 2.08-7.698 3.812l-.003.002c.955-3.351.97-6.853-.796-9.805-1.32-2.206-4.173-1.451-5.03.657-.849 2.09-1.08 4.312-1.545 6.48-3.35-6.619-12.945-7.27-19.786-3.954-.812-.202-1.655-.303-2.518-.255-2.473.138-4.635 1.35-6.22 3.12-.258-.547-.946-.93-1.5-.516-1.44 1.08-2.24 2.5-2.575 4.052-1.074-.51-2.435-.277-2.972.782-6.324-11.337-27.475 5.384-32.65 11.483-4.424 5.215-8.068 12.524-4.045 19.05 3.962 6.428 12.48 7.557 19.266 6.334 13.579-2.446 23.829-14.504 23.458-27.692 3.678 4.322 9.515 6.544 15.103 6.65 3.635.07 7.135-.728 10.261-2.291 6.235 17.356 25.92 26.512 43.742 22.254 9.117-2.177 18.993-8.352 21.093-18.142 1.932-9.007-4.666-16.282-12.349-19.72"/>
        <path fill="#EFBE9A" fill-rule="nonzero" d="M171.658 175.619c-.36-1.144-1.035-2.066-1.874-2.77.11-.496.033-1.037-.33-1.46-3.177-3.688-9.246-3.006-11.51 1.356-2.411 4.646-.01 10.697 5.014 12.023 5.252 1.386 10.436-3.657 8.7-9.15M276.108 189.526c-1.59-2.865-4.931-4.312-7.985-3.09-.839.337-1.727.94-2.463 1.689-.262.214-.49.468-.656.76-1.015 1.374-1.424 3.05-.281 4.508l.038.028c.053.245.117.49.19.732-1.065 1.064-1.442 2.81-.036 3.978.19.156.395.282.595.42l-.024.03.287.157c2.57 1.644 5.828 1.765 8.413-.13 2.82-2.068 3.635-5.995 1.922-9.082"/>
        <path fill="#38193A" d="M203.787 172.066c-4.429-.604-8.348 3.047-7.72 7.12.101.66 1.298.649 1.413 0 .444-2.5 3.103-5.173 6.046-4.266 2.557.788 2.987 3.53 2.838 5.679-.101 1.463 2.128 1.904 2.868.726 2.358-3.758-1.07-8.663-5.445-9.26M247.136 178.274c-4.243-1.401-9.135 2.807-7.958 7.36.201.78 1.43.842 1.596 0 .46-2.334 2.823-4.942 5.334-3.642 2.225 1.153 1.502 3.464 1.738 5.468.13 1.103 1.175 1.964 2.238 1.318 4.247-2.579.61-9.328-2.948-10.504"/>
        <path fill="#843957" d="M226.852 210.259c-2.972 1.192-5.11 3-8.484 2.813-3.75-.21-6.137-2.403-8.925-4.853-.595-.522-1.678-.065-1.398.893 2.35 8.03 16.185 10.971 20.708 3.86.819-1.284-.55-3.255-1.9-2.713"/>
        <path fill="#BEAAB3" d="M197.604 198.317c-9.779 0-17.733-7.993-17.733-17.816 0-9.825 7.954-17.817 17.733-17.817 9.78 0 17.735 7.992 17.735 17.817 0 9.823-7.955 17.816-17.735 17.816m0-40.317c-9.493 0-17.606 5.977-20.859 14.372-1.859-3.363-5.196-5.597-9.133-6.095-2.16-.274-2.14 3.135 0 3.407 3.34.423 6.354 2.168 8.43 4.815-.529 1.915-.833 3.92-.833 6.002 0 12.405 10.047 22.499 22.395 22.499 12.35 0 22.396-10.094 22.396-22.5 0-12.407-10.047-22.5-22.396-22.5M248 168.683c-9.605 0-17.42 7.992-17.42 17.817 0 9.824 7.815 17.817 17.42 17.817 9.607 0 17.422-7.993 17.422-17.817 0-9.825-7.815-17.817-17.421-17.817M248 209C235.869 209 226 198.907 226 186.5s9.87-22.5 22-22.5 22 10.093 22 22.5-9.87 22.5-22 22.5"/>
        <path fill="#DB898B" d="M229.424 193.693c-1.716-1.623-2.843-3.347-2.802-5.82.076-4.504-6.339-5.32-7.761-1.172-1.52 4.427-1.082 9.699 1.745 13.537 1.946 2.642 5.27 3.787 8.165 1.638 2.57-1.905 3.089-5.884.653-8.183"/>
        <path fill="#BEAAB3" d="M226.9 185.652c-2.037-4.044-8.186-2.957-10.69-.109-.659.747.379 1.791 1.127 1.09 1.252-1.173 2.788-1.784 4.543-1.55 1.58.21 2.449 1.06 3.757 1.789.84.47 1.652-.444 1.262-1.22"/>
        <path fill="#E4DEFF" d="M215.094 150.015c-1.381-.132-2.625.65-3.882 1.217l-3.535 1.595c-1.065.48-1.833 1.5-1.65 2.881.153 1.162 1.111 2.439 2.263 2.278l3.926-.547c1.488-.207 3.09-.178 4.371-1.142 2.535-1.906 1.43-6.002-1.493-6.282M239.199 157.817c-.55-.655-1.235-.926-2.01-1.17-.206-.064-.413-.137-.615-.22l-.373-.203c-.842-.467-1.365-.916-2.05-1.522-2.171-1.925-5.056.446-3.878 3.06.571 1.266 1.475 2.345 2.526 3.227 1.497 1.256 3.062 2.347 5.087 1.915 2.35-.503 2.668-3.478 1.313-5.087"/>
        <path fill="#E1E9F4" d="M411.231 143.819c-3.163-.083-6.11 6.552-2.728 8.152 4.474 2.116 9.318 3.294 14.328 2.978 3.698-.232 8.867-.969 9.148-5.46.564-9.033-10.4-6.158-20.748-5.67M465.746 153.627c-4.553-2.372-9.607-4.019-14.486-5.501-1.405-.427-3.398.256-4.056 1.698l-.772 1.698c-.247.54-.342 1.135-.318 1.73-.21 1.102-.13 2.28.246 3.313 1.274 3.486 5.49 5.48 8.543 6.898 3.975 1.847 8.149 2.886 12.516 2.43 1.427-.148 3.217-1.03 3.462-2.713.64-4.369-1.333-7.573-5.135-9.553"/>
        <path fill="#38193A" d="M416.992 160.142c-1.7-.446-3.588.193-4.83 1.422-1.434 1.419-1.84 3.214-2.148 5.15-.17 1.06 1.295 1.93 1.85.796.722-1.476 1.819-4.328 3.74-4.395 2.79-.096.096 3.909-.253 4.929-.536 1.567 1.534 2.561 2.598 1.541 2.53-2.423 3.256-8.34-.957-9.443M449.993 170.142c-1.702-.446-3.589.193-4.832 1.422-1.434 1.419-1.84 3.214-2.147 5.15-.17 1.06 1.294 1.93 1.85.796.722-1.476 1.818-4.328 3.74-4.395 2.79-.096.096 3.908-.254 4.929-.536 1.566 1.535 2.561 2.6 1.542 2.529-2.424 3.255-8.34-.957-9.444"/>
        <path fill="#EFBE9A" fill-rule="nonzero" d="M491.706 191.895c-4.07-3.73-11.943-4.13-15.542.42-.62.784.233 1.852 1.105 1.866.206.003.412.001.616-.005-.822.524-1.527 1.209-2.085 1.995-.301.325-.572.677-.804 1.06-.379-.773-1.395-1.19-2.228-.7-5.068 2.984-2.428 9.52 1.924 11.977 5.215 2.946 13.285 1.266 17.476-2.742 4.074-3.895 3.606-10.143-.462-13.87M399.575 152.762c-4.136-3.349-10.268-1.552-13.247 2.274-3.092 3.973-3.2 10.117.25 13.94 2.876 3.188 11.107 5.02 12.453-.568.204-.85-.05-1.616-.58-2.157 1.719-1.209 2.66-3.14 2.553-5.065 1.662-2.658 1.283-6.227-1.429-8.424"/>
        <path fill="#3E3874" d="M277.804 49.417c-.294.743-.105 1.537.378 2.12-1.542.805-3.018 1.746-4.42 2.806-.115-.001-.23-.006-.345-.007-.408-.003-.765.072-1.075.201 1.706-1.862 3.532-3.574 5.462-5.12zm65.586 4.678c-.47-.093-.982-.078-1.53.099l-.623.199c.958-1.85 1.213-3.568.954-5.167.806 1.434 1.251 3.043 1.2 4.869zm5.39-6.116c-4.046-9.921-16.048-15.4-26.236-14.954-1.211.053-2.02 1.206-1.938 2.267-3.512-.885-6.626-1.407-8.544-1.566-17.53-1.445-34.266 7.186-44.516 21.309-1.108 1.526 1.43 3.524 2.62 2.036.277-.345.561-.681.846-1.018-.073.238-.113.486-.122.737-.128.123-.262.238-.39.364-1.35.966-2.672 2.002-3.964 3.127-.65.565-.65 1.377-.312 2.031-.916 2.145 1.961 4.884 3.99 3.344.2-.152.405-.291.607-.44-1.628 1.833-2.991 4.137-3.99 7.035-.502 1.457 1.87 2.498 2.5 1.063 6.65-15.115 25.296-9.483 36.955-5.073 10.613 4.014 22.84 8.047 33.533 2.037 7.854-4.413 12.54-13.519 8.96-22.3z"/>
        <path fill="#DB898B" d="M331.454 110.39c-2.119-2.434-5.446-3.837-7.719-6.253-2.464-2.621-4.524-5.56-5.848-8.838-.897-2.223-4.391-1.396-3.825.995.961 4.06 2.705 7.85 5.543 11.056 2.55 2.878 6.166 6.225 10.271 6.637 2.132.215 2.66-2.353 1.578-3.597"/>
        <path fill="#38193A" d="M301.078 96.49c-2.026-.745-4.398-.667-6.307.416-3.826 2.169-4.936 7.72-2.424 11.39 1.092 1.595 3.466.223 2.548-1.563-1.113-2.165-.353-5.507 2.092-6.27 2.556-.799 3.887 1.577 5.972 2.436 1.076.442 1.9-.658 2.016-1.613.29-2.367-2.025-4.107-3.897-4.796M328.35 82.547c-4.339 1.73-6.437 7.105-4.79 11.527.594 1.592 3.01.988 2.525-.721-.872-3.074.628-6.884 3.931-7.463 2.904-.51 4.714 1.783 6.832 3.371.881.66 2.19-.225 2.151-1.278-.188-5.146-6.677-7.021-10.65-5.436"/>
        <path fill="#3E3874" d="M292.287 77.07c-2.084 2.367-3.526 5.132-5.753 7.43-2.019 2.084-4.798 3.672-6.323 6.144-.605.981.165 2.414 1.376 2.354 3.272-.16 6.064-2.448 8.545-4.367 2.655-2.055 5.835-4.587 7.468-7.536 1.76-3.18-2.704-6.99-5.313-4.026"/>
        <path fill="#31306E" d="M335.242 63.192c-3.606-3.046-7.654-4.708-12.498-5.102-4.217-.343-10 .159-12.356 3.93-1.128 1.805.373 3.61 2.323 3.82 3.12.333 6.247-1.374 9.421-1.501 3.53-.142 7.125.83 10.215 2.395 2.3 1.164 4.997-1.768 2.895-3.542"/>
        <path fill="#FFF" d="M312 128.992s24.644 5.203 30.75-15.992c0 0 2.458 3.529 2.236 9.781-.473 13.329-13.18 19.919-25.016 14.083-2.938-1.448-5.767-3.89-7.97-7.872"/>
        <path fill="#EFBE9A" fill-rule="nonzero" d="M366.589 88.064c-1.048-2.907-4.003-4.553-7.076-3.935-2.97.596-4.856 2.888-5.78 5.55-1.186 1.574-1.585 3.73-.684 5.526-1.509 1.18-1.516 3.847.808 4.484 2.45.672 5.25.25 7.209-1.216 1.264-.505 2.441-1.2 3.458-2.178 2.147-2.06 3.08-5.412 2.065-8.231"/>
        <path fill="#FE9190" d="M465.675 176.37c-2.79-2.5-9.886-1.432-11.596 2.02-.264.53.17 1.16.783 1.008.54-.135 1.04-.329 1.53-.534 2.532.677 4.029 2.931 4.458 5.473.187 1.098 1.727.703 1.825-.245.277-2.703-1.507-5.007-3.872-6.125.336-.084.684-.15 1.058-.172 1.737-.107 3.34.44 5.033.441.922 0 1.504-1.218.781-1.866M405.985 164.58c-.034-.124-.085-.256-.127-.385.02-.263-.068-.532-.28-.76-.848-2.047-2.49-4.21-4.625-4.432-.618-.064-.982.866-.516 1.267.825.713 1.842 1.09 2.681 1.799-2.831-.949-5.935-.2-7.93 2.404-.537.7.161 1.982 1.035 1.363 2.267-1.608 5.71-2.168 8.22-.844.324.17.618.153.86.04.264.248.793-.046.682-.452"/>
        <path fill="#FEB490" d="M257.04 192c-.377 0-.737-.21-.866-.693-.356-1.335-1.043-2.636-2.515-3.018l-.164-.08c-.432-.023-.666-.597-.346-.925l.08-.064c.081-.15.217-.266.399-.317.809-.586 1.896-.903 2.967-.903 1.296 0 2.566.466 3.279 1.483.371.533-.137 1.28-.748 1.28-.078 0-.158-.013-.237-.04-.792-.263-1.5-.71-2.324-.865 1.026.754 1.72 1.874 1.57 3.192-.066.584-.596.95-1.095.95M187.714 181c-.578 0-1.091-.767-.74-1.352.887-1.482 2.494-2.131 4.132-2.131.49 0 .985.058 1.462.17-.68-.74-1.623-1.025-2.618-1.025-.916 0-1.877.243-2.713.597-.094.041-.19.058-.282.058-.668 0-1.225-.95-.815-1.561.828-1.235 2.022-1.756 3.269-1.756 2.416 0 5.029 1.963 5.543 4.508.031.16.021.3-.009.43.186.432-.104.973-.544.973-.104 0-.216-.03-.332-.099-.736-.437-1.431-.62-2.1-.62-1.348 0-2.59.748-3.843 1.667-.133.097-.274.141-.41.141"/>
        <path fill="#EFBE9A" fill-rule="nonzero" d="M506.185 216.183c-6.864-1.39-16.293 5.49-21.582 8.923-6.05 3.927-12.954 9.431-14.58 16.817-.197.891.904 1.647 1.594.927 3.195-3.337 5.79-6.84 9.416-9.787 1.4-1.139 2.869-2.175 4.382-3.14-5.336 5.63-8.774 12.906-13.58 18.986-.8 1.01.191 2.652 1.468 1.9 1.88-1.108 3.514-2.488 5.016-4.011-.57 1.036-.955 2.075-1 3.056-.024.532.548.94 1.045.794 1.568-.459 2.273-1.431 3.463-2.562 1.477-1.403 3.052-2.676 4.585-4.016 1.39-1.216 2.725-2.482 4.168-3.642.533-.43 1.103-.834 1.676-1.235-1.975 2.46-3.817 5.089-4.795 8.047-.171.52.486.78.841.49 3.202-2.62 5.758-5.966 8.887-8.704 1.6-1.4 3.41-2.741 5.09-4.19 3.943-1.708 7.629-4.04 9.113-7.874 1.71-4.415-.237-9.773-5.207-10.78M88.158 255.211c6.693 1.646 12.216 11.86 15.494 17.205 3.747 6.113 7.596 14.014 5.961 21.389-.197.89-1.493 1.108-1.805.164-1.454-4.372-2.3-8.641-4.3-12.842-.771-1.622-1.646-3.18-2.59-4.695 2.4 7.353 2.424 15.394 4.165 22.93.29 1.254-1.276 2.32-2.1 1.1-1.21-1.799-2.089-3.74-2.791-5.753.076 1.18-.016 2.283-.386 3.19-.2.492-.88.62-1.262.277-1.205-1.08-1.426-2.258-2.014-3.784-.73-1.895-1.6-3.714-2.406-5.575-.731-1.689-1.39-3.4-2.19-5.06-.297-.614-.635-1.22-.978-1.826.732 3.063 1.275 6.221.911 9.313-.064.543-.758.5-.953.086-1.759-3.724-2.637-7.835-4.281-11.636-.84-1.944-1.892-3.923-2.782-5.945-2.799-3.214-5.106-6.884-4.828-10.982.32-4.72 4.29-8.747 9.135-7.556"/>
        <path fill="#E1E9F4" d="M414.105 188.777s11.666 24.926 29.834 24.208c18.17-.718 18.061-10.482 18.061-10.482s-23.454 9.48-42.356-21.64c0 0-23.688 1.09-31.058-6.863 0 0-6.745 29.342 25.52 14.777"/>
        <path fill="#DB898B" d="M428.674 167.568c-1.101 2.412-2.756 4.56-4.96 5.994-2.374 1.543-5.11 1.627-7.57 2.87-3.256 1.646-2.728 7.87 1.07 8.447 8.127 1.235 15.638-7.218 16.755-15.007.433-3.023-3.76-5.664-5.295-2.304"/>
        <path fill="#8290FF" d="M203.382 413c-.4 0-.522-.561-.19-.758 7.048-4.17 16.02-5.904 23.811-8.326 8.157-2.536 16.313-5.067 24.501-7.5.45.1.936.17 1.46.201.189.01.38.016.572.016 3.193 0 6.805-1.474 9.802-2.206 4.212-1.03 10.693-1.483 14.462-3.535.38-.207.753-.445 1.12-.712 1.453-.116 2.905-.18 4.35-.18 4.972 0 9.875.747 14.544 2.647 1.853.753 1.398 3.376-.421 3.375-.156 0-.323-.02-.5-.06-4.508-1.069-8.909-1.523-13.25-1.523-11.428 0-22.432 3.142-33.828 6.471-8.02 2.343-16.075 4.558-24.124 6.8-7.185 2.001-14.795 4.994-22.292 5.29h-.017"/>
        <path fill="#F78867" d="M254.002 397c-.19 0-.378-.006-.564-.017-.516-.035-.995-.11-1.438-.22.544-.177 1.087-.356 1.632-.532 7.962-2.592 16.702-5.468 25.368-6.231-.36.29-.728.548-1.102.772-3.713 2.226-10.095 2.717-14.244 3.834-2.95.795-6.508 2.394-9.652 2.394"/>
        <path fill="#8290FF" d="M134.649 267c-.7 0-1.395-.563-1.247-1.446 1.812-10.87-2.329-18.167-10.27-25.759-.29-.277-.066-.795.325-.795.049 0 .1.008.154.026 10.754 3.57 15.897 17.59 12.196 27.148-.222.575-.692.826-1.158.826M167.087 406c-.998 0-1.566-1.59-.555-2.118 42.858-22.367 50.193-76.186 89.766-101.8.089-.057.176-.082.257-.082.393 0 .641.587.242.883-20.191 14.99-31.087 37.816-44.022 58.535-11.212 17.962-24.748 36.547-45.311 44.51-.13.049-.256.072-.377.072M72.806 408c-.192 0-.375-.087-.465-.29-6.033-13.623.578-31.018 8.688-42.332 9.68-13.501 24.178-23.903 39.012-31.216.227-.111.448-.162.653-.162 1.179 0 1.886 1.623.68 2.424-12.842 8.534-26.226 16.255-35.998 28.448-4.973 6.207-8.82 13.34-10.861 21.028-1.962 7.385-1.471 14.03-1.066 21.511.018.35-.324.589-.643.589"/>
        <path fill="#F7925F" d="M464.342 403c-.4 0-.818-.218-.953-.659-4.757-15.511-1.43-31.913 1.534-47.471 3.304-17.344 7.03-35.529 2.455-52.998-.14-.536.26-.872.664-.872.27 0 .545.15.66.494 5.29 15.745 3.287 31.723.432 47.755-3.138 17.614-6.214 34.878-3.942 52.839.077.604-.374.912-.85.912M511.876 276c-.57 0-1.136-.315-1.325-.995-2.56-9.195 4.16-19.834 12.718-22.965.074-.027.144-.04.208-.04.531 0 .728.822.256 1.143-7.86 5.324-10.37 12.37-10.43 21.49-.005.88-.719 1.367-1.427 1.367M514.39 365c-.676 0-1.384-.449-1.329-1.223 1.8-25.081-22.04-42.575-22.061-67.212 0-.382.27-.565.553-.565.29 0 .593.193.633.565 2.567 24.28 27.522 42.086 23.343 67.543-.1.615-.61.892-1.14.892M386.796 414c-.155 0-.323-.031-.5-.1-20.218-7.784-21.002-34.75-17.993-52.81 2.467-14.802 5.772-29.183 6.847-44.215 1.011-14.122.566-28.265-.701-42.356-.03-.333.253-.519.531-.519.222 0 .443.12.495.377 4.93 24.116 4.115 48.682-.582 72.765-4.45 22.819-9.113 48.76 12.49 64.134 1.088.774.64 2.724-.587 2.724"/>
        <path fill="#FAF9FF" d="M265.856 159c-.179-.587-.364-1.168-.558-1.75 1.745.295 3.513.473 5.293.53-1.498.621-3.104 1.034-4.735 1.22m-92-2.176c-.958-.586-1.868-1.263-2.719-2.035-.084-.077-.127-.17-.137-.263.922.777 1.94 1.417 3.025 1.935l-.17.363m95.608-7.365c-1.294 0-2.583-.081-3.863-.245.31-.226.612-.477.899-.752.278-.009.558-.009.835-.022 1.237-.055 2.507-.134 3.791-.247-.116.405-.41.769-.93 1.01-.205.095-.41.18-.612.256h-.12m5.342-.46c.169-.423.306-.858.405-1.298 1.276-.2 2.545-.446 3.79-.751-.022.36-.06.714-.113 1.062-1.334.418-2.7.749-4.082.988m-3.29-10.526c-1.01-.086-2.06-.274-3.068-.51-.413-.8-.934-1.575-1.542-2.322.569-.12 1.145-.179 1.723-.179 2.142 0 4.3.796 6.086 2.135-1.052.342-2.12.637-3.199.876m-21.181-19.6c-.034-.65-.125-1.307-.28-1.971-.256-1.091-.653-2.041-1.154-2.854-.197-1.293-.618-2.542-1.313-3.707-.559-.934-1.39-1.34-2.228-1.34-.908 0-1.826.477-2.42 1.278-.297-.033-.594-.049-.888-.049-2.315 0-4.496 1.002-5.595 2.842-1.172-.594-2.467-1.004-3.824-1.243 1.359-2.78 4.006-5.03 7.252-5.634.711-.132 1.408-.196 2.09-.196 6.146 0 10.955 5.144 11.938 11.113-1.239.486-2.444 1.076-3.578 1.761"/>
        <path fill="#FFF4EA" d="M184.197 159c-3.959 0-7.865-.917-11.197-2.924l.17-.357c2.693 1.265 5.8 1.79 8.852 1.79 1.657 0 3.298-.154 4.85-.43 11.68-2.071 20.91-11.115 23.09-21.861.014 6.495-4.166 13.718-8.529 17.53-4.51 3.939-10.942 6.252-17.236 6.252m78.838-.674c-.842 0-1.683-.06-2.51-.185-11.237-1.693-19.105-11.247-23.907-20.684-2.124.486-4.239.712-6.33.712-7.105 0-13.933-2.613-19.868-6.591.027-.523.036-1.05.028-1.578l.511.256c3.71 3.9 9.297 5.907 14.657 6.008l.437.003c3.222 0 6.327-.667 9.155-1.932.256-.067.51-.139.764-.215 4.506 12.199 15.85 20.278 28.47 22.376.193.571.38 1.143.558 1.72-.652.073-1.31.11-1.965.11"/>
        <path fill="#FAF9FF" d="M182.877 158c-3.052 0-6.157-.53-8.85-1.81-1.085-.515-2.103-1.151-3.024-1.924-.03-.263.189-.544.468-.544.042 0 .084.007.128.02 4.553 1.386 9.21 2.384 13.662 2.383 6.671 0 12.881-2.24 17.575-8.764 3.608-5.013 6.64-14.129.57-18.682-1.252-.937-3.087-1.314-5-1.314-2.468 0-5.067.627-6.702 1.482-1.604.838-4.118 3.046-4.353 4.948l1.193 5.401 4.513-1.872c-.465-1.261.149-2.946 1.846-2.946l.086.001 1.996.066c1.162.038 2.156.957 2.151 2.144-.02 5.311-3.674 7.846-7.507 7.846-4.008 0-8.21-2.775-8.641-8.046-.655-8.015 7.388-12.95 14.96-12.95 3.228 0 6.37.898 8.714 2.834 1.075.888 1.914 1.886 2.55 2.961.037-.009.077-.013.118-.013.084 0 .174.02.27.073.56.306 1.125.605 1.697.898.008.533-.002 1.066-.028 1.595-.423-.287-.842-.58-1.256-.882.547 1.439.793 2.979.798 4.561-2.179 10.863-11.407 20.005-23.085 22.1-1.551.278-3.192.434-4.849.434m87.693-.498c-1.78-.057-3.547-.234-5.292-.527-12.617-2.12-23.958-10.287-28.464-22.619 1.634-.495 3.248-1.184 4.83-2.094 4.767-2.738 8.97-7.755 8.673-13.446 1.134-.681 2.34-1.269 3.578-1.751.144.875.206 1.768.176 2.666-.28 8.51-7.253 15.192-15.07 17.585 4.52 6.58 9.956 13.24 17.434 16.467 2.363 1.02 5.009 1.689 7.616 1.689 2.42-.001 4.807-.577 6.904-1.982 1.63-1.094 3.06-2.795 3.828-4.719 1.382-.238 2.747-.566 4.08-.982-.704 4.59-4.072 7.972-8.293 9.713m-3.564-7.798c-5.403 0-8.905-6.564-4.661-11.468 1.317-1.523 2.891-2.397 4.54-2.747.607.743 1.129 1.512 1.542 2.309 1.008.234 2.057.422 3.067.507 1.08-.238 2.146-.531 3.198-.871 2.209 1.645 3.852 4.114 4.205 6.934.103.817.127 1.606.08 2.365-1.245.303-2.513.548-3.79.746.286-1.248.275-2.55-.143-3.812-.79-2.501-2.322-3.887-4.6-4.16-.674-.31-1.238-.463-1.693-.463-1.723 0-1.895 2.208-.515 6.626.297-.14.589-.2.865-.2 1.324 0 2.323 1.398 2.003 2.499-1.284.113-2.554.19-3.79.246-.277.013-.557.013-.835.022-.288.273-.589.523-.899.747 1.28.163 2.569.243 3.862.243h.12c-.883.328-1.74.477-2.556.477m-40.107-13.177c-.146 0-.291-.001-.438-.004-5.358-.102-10.944-2.13-14.653-6.073 5.64 2.827 11.816 4.923 17.95 4.923 2.11 0 4.217-.248 6.293-.8-2.827 1.28-5.932 1.954-9.152 1.954m8.303-14.286c-.382 0-.78-.152-1.135-.512-2.867-2.891-3.003-6.75-1.448-9.917 1.358.237 2.652.645 3.824 1.235-.965 1.61-1.095 3.866.26 6.656.6 1.234-.383 2.538-1.501 2.538m13.682-8.223c-1.427-2.3-3.7-3.5-5.96-3.748.594-.797 1.512-1.27 2.42-1.27.838 0 1.669.403 2.227 1.332.695 1.158 1.116 2.4 1.313 3.686M293.236 136c-.532 0-1.023-.324-.981-1.007.263-4.218-2.677-7.755-6.734-7.755-.788 0-1.62.133-2.475.422-.098.032-.19.047-.277.047-.754 0-1.087-1.123-.378-1.542 1.363-.804 2.833-1.165 4.273-1.165 5.234 0 10.054 4.767 7.741 10.274-.2.476-.7.726-1.17.726M171.699 123c-.322 0-.644-.236-.672-.653-.563-8.616 7.705-16.347 15.952-16.347 1.813 0 3.625.373 5.34 1.193 1.245.594.638 2.634-.652 2.634l-.047-.001c-1.178-.045-2.329-.094-3.459-.094-3.116 0-6.068.37-8.958 2.207-3.808 2.42-5.527 6.417-6.884 10.585-.107.326-.364.476-.62.476M143.768 177c-.303 0-.626-.122-.93-.407-9.477-8.919-7.525-28.208 6.658-31.552.12-.029.234-.041.341-.041 1.172 0 1.607 1.556.604 2.282-4.434 3.212-8.268 6.068-9.586 11.736-1.276 5.48.492 11.293 3.885 15.674.79 1.02.017 2.308-.972 2.308"/>
        <path fill="#F6F8FC" d="M371.207 253c-.123 0-.249-.018-.375-.06-11.551-3.834-23.922-15.494-22.755-28.945.526-6.08 3.964-10.287 8.665-13.702 7.552-5.484 13.964-10.93 19.093-18.98.14-.22.333-.313.52-.313.417 0 .812.452.572.969-2.616 5.655-5.852 10.428-10.412 14.622-4.363 4.012-10.766 6.741-13.573 12.201-3.538 6.883-.331 15.354 4.426 20.637 4.277 4.75 10 7.14 14.878 11.02 1.054.84.117 2.551-1.04 2.551M404.632 258c-6.16 0-12.28-1.634-17.369-5.036-.514-.344-.2-1.117.305-1.117.033 0 .068.004.103.01 5.45 1.101 10.758 2.16 16.254 2.16.876 0 1.757-.028 2.643-.085 6.283-.41 12.411-2.628 18.352-4.873.106-.04.204-.059.297-.059.8 0 1.085 1.364.388 1.918-5.852 4.641-13.443 7.083-20.973 7.082M484.887 175c-.418-.001-.858-.313-.88-.83-.425-10.535 16.857-28.041 3.087-35.47-.795-.43-.365-1.7.416-1.7.082 0 .168.014.258.044 5.424 1.871 7.751 6.998 7.136 12.732-.944 8.793-7.392 15.995-9.296 24.618-.092.42-.4.606-.721.606M410 130c-.503 0-1.038-.357-.998-.895.364-4.899 5.544-8.105 10.293-8.105l.19.001c.569.011.738.903.14.986-2.208.312-4.043 1.236-5.643 2.719-1.574 1.458-2.34 2.978-3.232 4.854-.147.307-.442.441-.75.44M450.195 114c-.121 0-.248-.026-.375-.086-2.75-1.273-4.58-3.599-5.753-6.317-.67-1.553-.98-3.116-1.187-4.777-.173-1.381.085-3.182-.77-4.339-.148-.94-.711-1.409-1.688-1.409-.262 0-.555.034-.877.102-.585-.436-1.11-.653-1.572-.653-.472 0-.88.227-1.225.683-.09.083-.189.118-.284.118-.21 0-.4-.173-.431-.407-.283-2.076 1.306-2.915 3.102-2.915 1.452 0 3.04.549 3.879 1.436 1.73 1.824 1.829 4.427 2.119 6.745.561 4.49 2.627 7.284 5.642 10.525.522.563.055 1.294-.58 1.294"/>
        <path fill="#FFE4DD" d="M388.978 185l-.89-.224c-.16-2.788-.014-5.417.27-7.776-.1 2.365-.019 5.292.62 8"/>
        <path fill="#DAC3CC" d="M438.697 212c-6.87-1.53-13.657-6.46-18.452-12.066.955.167 1.886.262 2.768.27 4.927 5.53 11.756 10.791 19.987 10.94-1.42.307-2.857.595-4.303.856m-36.416-19.444c-5.927 0-11.688-2.346-14.112-6.958-.074-.538-.13-1.072-.169-1.598l1.028.198c1.184 3.842 4.03 7.189 10.352 7.189 1.575 0 3.366-.208 5.401-.668-.004.61.1 1.173.348 1.655-.945.121-1.899.182-2.848.182"/>
        <path fill="#FFF" d="M423 201c-.92-.01-1.89-.106-2.885-.275-3.222-3.674-5.58-7.633-6.54-11.133l-.159.154c-2.58 1.793-5.764 2.888-9.054 3.297-.258-.49-.367-1.063-.362-1.682 2.84-.625 6.136-1.71 9.957-3.361 0 0 3.265 6.674 9.043 13"/>
        <path fill="#F6F8FC" d="M443.176 214c-1.42 0-2.854-.173-4.283-.495 1.45-.264 2.892-.558 4.317-.87.118.002.238.003.356.003.256 0 .512-.005.77-.015 1.316-.052 2.533-.15 3.664-.288.001.54-.31 1.052-1.04 1.227-1.242.299-2.507.438-3.784.438m-54.972-27.309c-1.263-2.43-1.624-5.48-.64-9.138.102-.386.387-.553.683-.553.059 0 .118.007.176.02-.03.337-.057.696-.076 1.068-.328 2.118-.497 4.478-.312 6.98.04.534.095 1.077.169 1.623"/>
        <path fill="#F6F8FC" d="M443.618 213l-.353-.002c-8.16-.153-14.932-5.552-19.817-11.229-5.498-6.39-8.604-13.132-8.604-13.132-3.636 1.668-6.77 2.764-9.473 3.395-2.018.472-3.794.685-5.355.685-6.268 0-9.091-3.435-10.265-7.379-.731-2.457-.824-5.113-.71-7.258.019-.377.045-.74.075-1.08.381.086.72.446.63.955-1.098 6.263 3.027 11.604 8.85 13.23 1.263.352 2.487.505 3.684.504 3.81 0 7.346-1.549 10.972-3.16.173-.077.338-.108.493-.108.103 0 .202.014.296.04-.158-.683-.3-1.347-.428-1.983-.082-.41.205-.657.505-.657.204 0 .412.115.513.37 4.485 11.458 18.597 23.338 31.962 24.897.854.1 1.405.878 1.407 1.606-1.118.14-2.321.239-3.62.29-.256.011-.509.016-.762.016"/>
        <path fill="#31306E" d="M364.037 48c-.282 0-.574-.134-.79-.453-9.281-13.682-22.444-24.117-39.585-25.888-1.737-.18-3.453-.267-5.146-.267-15.203 0-28.593 7.031-39.587 17.405-.103.099-.228.14-.351.14-.383 0-.756-.398-.486-.775C287.42 25.185 302.72 19 318.135 19c19.187 0 38.548 9.59 46.763 27.599.342.75-.239 1.401-.861 1.401M404.775 91c-5.216 0-10.462-1.098-14.8-2.988-8.658-3.77-15.25-10.77-18.932-19.298-.16-.37.158-.714.461-.714.138 0 .273.07.357.243 4.024 8.158 10.801 14.718 19.529 17.848 3.754 1.346 7.271 1.886 10.714 1.886 5.793 0 11.375-1.53 17.503-3.325.126-.037.247-.054.359-.054 1.046 0 1.436 1.486.519 2.11C416.09 89.7 410.451 91 404.775 91M400.299 104c-8.047 0-16.013-2.748-22.139-8.127-.373-.328-.031-.873.386-.873.084 0 .171.022.255.073 6.909 4.117 14.377 6.294 22.066 6.294 3.93 0 7.918-.57 11.915-1.737.12-.036.233-.052.338-.052 1.008 0 1.25 1.503.198 1.924-4.17 1.672-8.607 2.498-13.019 2.498"/>
        <path fill="#E4DEFF" d="M173 210c-2.09 0-4.094 1.84-3.997 4 .097 2.167 1.755 4 3.996 4 2.092 0 4.095-1.84 3.998-4-.098-2.167-1.757-4-3.998-4"/>
        <path fill="#E4DEFF" d="M173.119 218.069c-4.58-.88-5.825 6.982-1.238 7.862 4.58.88 5.825-6.982 1.238-7.862"/>
        <path fill="#E4DEFF" d="M174.5 226c-1.83 0-3.582 1.609-3.497 3.5.084 1.896 1.537 3.5 3.497 3.5 1.83 0 3.582-1.61 3.497-3.5-.084-1.897-1.537-3.5-3.497-3.5"/>
        <path fill="#E4DEFF" d="M178.5 232c-3.33 0-3.336 5 0 5 3.33 0 3.336-5 0-5M184 236c-3.996 0-4.004 6 0 6 3.996 0 4.004-6 0-6"/>
        <path fill="#E4DEFF" d="M188 241c-3.996 0-4.004 6 0 6 3.997 0 4.003-6 0-6"/>
        <path fill="#E4DEFF" d="M193 244c-3.997 0-4.003 6 0 6 3.997 0 4.003-6 0-6"/>
        <path fill="#E4DEFF" d="M198.5 247c-1.307 0-2.559 1.15-2.498 2.5.06 1.354 1.098 2.5 2.499 2.5 1.306 0 2.558-1.15 2.497-2.5-.06-1.355-1.098-2.5-2.497-2.5"/>
        <path fill="#E4DEFF" d="M204.5 247c-4.663 0-4.67 7 0 7 4.663 0 4.67-7 0-7"/>
        <path fill="#E4DEFF" d="M210.5 248c-3.33 0-3.336 5 0 5 3.33 0 3.336-5 0-5"/>
        <path fill="#E4DEFF" d="M215 246c-1.568 0-3.07 1.38-2.998 3 .074 1.624 1.317 3 2.999 3 1.567 0 3.068-1.38 2.997-3-.074-1.626-1.317-3-2.997-3M221.5 244c-3.331 0-3.336 5 0 5 3.33 0 3.336-5 0-5"/>
        <path fill="#E4DEFF" d="M226.5 242c-3.33 0-3.336 5 0 5 3.33 0 3.337-5 0-5"/>
        <path fill="#E4DEFF" d="M231.764 239.33c-.889-.524-2.315-.446-3.02.394l-.087.104c-.873 1.039-.879 2.304 0 3.35l.086.104c.642.764 1.864.885 2.724.52.874-.372 1.575-1.301 1.531-2.3-.039-.877-.468-1.719-1.234-2.172M236.42 235.612l-.098-.09c-.77-.695-1.871-.698-2.645 0l-.099.09c-1.268 1.145-.296 3.461 1.422 3.386.7-.031 1.374-.373 1.736-.983.432-.731.338-1.814-.315-2.403M237 231c-1.045 0-2.046.92-1.998 2 .049 1.084.878 2 1.998 2 1.045 0 2.046-.92 1.998-2-.049-1.083-.878-2-1.998-2"/>
        <path fill="#FFF" d="M103 182c0 8.285-6.715 15-15 15s-15-6.715-15-15c0-8.283 6.715-15 15-15s15 6.717 15 15"/>
        <path fill="#A2B2FF" d="M160 9.5c0 5.247-4.253 9.5-9.5 9.5s-9.5-4.253-9.5-9.5 4.253-9.5 9.5-9.5 9.5 4.253 9.5 9.5" opacity=".965"/>
        <path fill="#FFCF0A" d="M198.724 27.115c8.627-9.738 13.705 3.35 13.705 3.35s-1.89-13.921 10.342-9.651c12.238 4.276-5.977 26.132-5.977 26.132l-.207.054s-26.479-10.15-17.863-19.885"/>
        <path fill="#FFD68C" d="M419 48c-11.046 0-20-9.177-20-20.5S407.954 7 419 7c11.044 0 20 9.177 20 20.5S430.044 48 419 48"/>
    </g>
</svg>
