<svg xmlns="http://www.w3.org/2000/svg" xmlns:xlink="http://www.w3.org/1999/xlink" viewBox="0 0 381 302">
    <defs>
        <path id="prefix__a" d="M0 116.325V95.683c2.984-5.059 5.92-10.145 8.736-15.052l.072-.117c.43-.767.87-1.533 1.312-2.296l.68-1.195h.538v-.912c.477-.807.954-1.612 1.432-2.416.49-.043.99-.062 1.504-.062 1.98 0 4.129.281 6.241.56 2.053.268 4.177.548 6.11.567h.18c4.702 0 8.318-1.165 12.018-2.493.19-.477.37-.962.525-1.457-3.927 1.422-7.65 2.755-12.52 2.755h-.202c-1.862-.012-3.939-.287-5.956-.558-2.148-.279-4.356-.566-6.42-.566-.239 0-.49.005-.728.013 2.148-3.546 4.332-7.048 6.492-10.469l.036-.053c.549-.156 1.193-.21 1.885-.21.776 0 1.624.07 2.447.14.847.072 1.719.145 2.542.145.358 0 .728-.015 1.062-.05 2.888-.289 7.626-.77 11.23-2.875-.143-.378-.298-.742-.465-1.106-2.888 1.737-6.862 2.391-10.884 2.797-.287.03-.597.042-.92.042-.775 0-1.634-.074-2.47-.143-.847-.07-1.718-.143-2.542-.143-.358 0-.704.013-1.026.045 3.234-5.147 6.504-10.412 9.572-15.825.405.118.847.218 1.3.302 1.206.217 2.542.325 3.95.325 2.877 0 6.04-.447 8.88-1.33.227-.482.453-.978.656-1.483-2.948 1.062-6.432 1.618-9.547 1.618-1.707 0-3.306-.167-4.655-.507.955-1.695 1.874-3.404 2.77-5.134 1.395-2.727 2.696-5.51 3.95-8.288 4.272-.404 7.769-1.423 11.11-2.833.012-.053.012-.104.024-.156-1.336 10.937-4.248 21.272-12.734 26.752 2.805 3.184 4.07 7.05 4.07 10.95 0 .517-.012 1.033-.06 1.548-.334 4.046-1.981 8.039-4.595 11.259-2.124 2.606-6.54 4.039-9.201 6.401-.62.552-1.146 1.156-1.516 1.837-.835 1.508-1.098 2.65-1.11 3.648 0 1.88.955 3.24.955 5.536 0 .457-.036.952-.131 1.495C23.356 104 11.23 110.024 0 116.325zm0-23.002v-16.3h7.017c.466 1.143.74 2.223.633 3.093-2.47 4.313-5.036 8.76-7.65 13.207zM8.688 78.3c-.095-.416-.226-.843-.394-1.276h1.122c-.12.2-.226.402-.346.604-.12.222-.25.451-.382.672zm2.65-4.547V56.845H10.12l-7.34-3.443c2.22-2.753 5.073-4.66 8.033-6.916.047 2.894.262 5.873 1.312 8.975.55 1.594 1.325 3.121 2.065 4.601.812 1.627 1.67 3.312 2.172 5.026l.346-.105c-1.802 2.882-3.604 5.81-5.37 8.769zm5.943-9.673c-.537-1.573-1.289-3.086-2.017-4.55-.728-1.444-1.48-2.933-1.993-4.453-1.11-3.26-1.241-6.32-1.277-9.504 1.766-1.398 3.545-2.97 5.251-4.966 1.468-1.72 2.626-3.625 3.664-5.613.382 5.42 1.91 11.055 4.452 16.097-2.017 3.336-4.07 6.619-6.099 9.854l-.107.034.036.075-.191.3c-.573.904-1.146 1.812-1.719 2.726zm8.82-14.207c-2.602-5.401-4.022-11.447-4.082-17.098 2.196-4.55 4.2-9.335 8.259-13.24l.035-.04-.035.04-.048.046c-.62 6.379-.406 13.586 3.222 17.034-.227.457-.453.926-.692 1.386-2.077 4.033-4.332 7.989-6.66 11.872zm7.912-14.393c-3.27-3.485-3.186-10.86-2.458-17.122l-.43.38c5.24-4.72 12.376-8.516 17.102-13.949-.274.584-.56 1.152-.823 1.693-.502.998-.955 1.936-1.349 2.771-.573 1.275-1.23 2.588-1.862 3.858-.764 1.52-1.54 3.088-2.243 4.677-.74 1.666-1.468 3.338-2.196 5.02-1.814 4.178-3.688 8.47-5.74 12.672zm4.332-6.486c.86-1.919 1.695-3.825 2.507-5.714.728-1.676 1.456-3.348 2.195-5.013.693-1.557 1.468-3.118 2.22-4.624.633-1.282 1.301-2.604 1.886-3.898.37-.815.835-1.75 1.325-2.736.99-1.997 2.052-4.16 2.816-6.189-1.205 7.207-1.253 16.362-2.232 25.229-3.544 1.57-6.766 2.51-10.717 2.945z"/>
    </defs>
    <g fill="none" fill-rule="evenodd">
        <circle cx="150.5" cy="118.5" r="118.5" fill="#FFF" opacity=".861"/>
        <circle cx="112" cy="183" r="112" fill="#FFF" opacity=".549"/>
        <circle cx="269" cy="162" r="112" fill="#C6CCFF"/>
        <path fill="#8290FF" d="M276 297.001c0 2.76-39.393 4.999-87.998 4.999-48.6 0-88.002-2.24-88.002-4.999 0-2.76 39.402-5.001 88.002-5.001 48.605 0 87.998 2.24 87.998 5.001" opacity=".072"/>
        <path fill="#A2B2FF" d="M327 196c-12.159 7.934-47.983 5.784-42.14 28.012-16.565-1.47-21.362 5.262-19.58 20.824-.19-1.676-6.068-.247-6.888.305-1.377.912-2.98 3.73-3.728 5.222-2.351 4.755-2.446 10.036-2.838 15.234-.463 6.198-1.496 12.379-2.826 18.403 9.927-13.334 47.911-14.89 40.466-30.28 5.914.467 16.826 1.935 21.314-3.084 5.747-6.428-1.65-12.5-7.184-15.336 22.74-3.993 19.866-13.835 16.232-24.948l3.788-5.014c1.698-2.82 2.92-6.194 3.384-9.338"/>
        <g transform="translate(258 139)">
            <mask id="prefix__b" fill="#fff">
                <use xlink:href="#prefix__a"/>
            </mask>
            <path fill="#FFD68C" d="M0 116.325L51.437 116.325 51.437 0 0 0z" mask="url(#prefix__b)"/>
        </g>
        <path fill="#3E3874" d="M255.752 265.902c.407-7.886 7.123-18.363 11.552-24.777 4.62-6.68 12.486-17.64 20.028-21.125 3.447 7.21-3.053 14.548-7.806 19.692-6.919 7.493-14.509 15.951-22.685 21.899 5.986-8.207 15.778-15.283 23.451-22.154 5.328-4.774 15.563-16.165 23.691-14.752.42 9.894-7.134 14.167-14.473 20.054-6.871 5.519-14.341 9.612-22.35 13.304-6.823 3.142-11.947 7.507-18.16 10.957l6.752-3.098"/>
        <path fill="#EEF2FF" d="M269 186v-.002c.388-.3.776-.608 1.163-.93v.008c-.387.316-.775.623-1.163.924m9.941-11.62v-.02c.376-.734.729-1.474 1.093-2.226v.003c-.364.756-.717 1.505-1.093 2.243m27.58-7.815l.14-1.23-.14 1.23m-18.32-7.856c.258-.258.529-.512.799-.765-.27.253-.54.507-.8.765m17.639-14.868c0-.006.012-.013.012-.02 1.21-1.433 2.268-2.982 3.09-4.695-.822 1.717-1.88 3.273-3.102 4.715m3.02-4.013L309 139c-.047.264-.082.528-.13.792 0 .012-.011.024-.011.036"/>
        <path fill="#A2B2FF" d="M113 284c-13.374-4.118-28.709-9.151-33.028-11.82-3.87-2.392-8.013-4.596-9.605-9.274-.431-1.266-.618-2.312-.618-3.216.002-3.726 3.162-5.055 5.36-9.518-9.817-3.76-18.482-4.114-25.405-13.976-2.04-2.906-2.969-5.605-2.973-7.931-.012-4.936 4.136-8.195 10.653-8.195.677 0 1.378.034 2.104.106.015.003.03.003.042.003.074 0 .108-.024.108-.071-.003-.742-9.07-7.115-10.71-8.269-3.892-2.74-7.054-7.136-9.006-11.401-1.208-2.641-1.922-5.603-1.922-8.405 0-5.394 2.644-10.194 9.493-10.96.445-.05.88-.073 1.304-.073 8.173 0 12.554 8.934 16.24 15.278 1.743 2.997 3.748 6.826 4.784 10.234 3.441-3.094 5.062-7.968 8.758-7.968 1.117 0 2.422.443 4.023 1.515 3.53 2.363 5.429 7.708 5.431 12.412.001 1.72-.25 3.353-.77 4.725 2.994-.343 5.4-.894 7.637-1.092-.987 3.752-1.492 6.8-1.492 6.8s3.473-2.75 6.897-6.273c1.035.348 2.107.866 3.258 1.61-4.031 5.296-7.417 13.115-7.417 13.115s7.337-4.463 12.286-8.974c1.631 1.696 3.191 3.61 4.568 5.53V284"/>
        <path fill="#3E3874" d="M131.597 275C94.811 260.678 80.142 179.01 80 178.188l1.086-.188c.146.816 14.696 81.88 50.914 95.981l-.403 1.019"/>
        <path fill="#2E3054" d="M118 264.643c.02.357.67-19.482 9.573-19.642 8.903-.154-9.552 19.999-9.552 19.999l-.021-.357"/>
        <path fill="#3E3874" d="M110 256s4.582-23.96 12.244-20.694C129.908 238.568 110 256 110 256M103 244s6.445-26.074 15.664-21.45C125.644 226.05 103 244 103 244M94 223s3.933-25.163 11.283-20.4C112.634 207.366 94 223 94 223M96 231s10.24-23.41 16.443-16.835C116.613 218.592 96 231 96 231M89 208s4.898-26.633 12.33-21.292C108.758 192.048 89 208 89 208M84 191s1.695-22.926 6.744-17.031C95.79 179.858 84 191 84 191M81.888 186s-12.869-18.818-5.733-19.956C83.29 164.908 81.888 186 81.888 186"/>
        <path fill="#3E3874" d="M85 191s-22.13-2.408-17.314-9.295C72.5 174.823 85 191 85 191M87 204s-25.258-2.146-23.951-10.784C64.364 184.574 87 204 87 204M92 217s-33.213-1.797-29.746-11.467C65.718 195.862 92 217 92 217M96 228.638s-36.856 2.847-35.985-7.432C60.888 210.931 96 228.638 96 228.638M105 247.156s-34.081-6.56-34.983 3.205c-.904 9.76 34.983-3.205 34.983-3.205M98 235.484s-29.108-9.638-30.927-.654c-1.815 8.984 30.927.654 30.927.654M109.157 254.17s-30.371-1.99-26.877 7.662c3.493 9.647 27.72-5.814 27.72-5.814l-.843-1.848"/>
        <path fill="#8290FF" d="M113 298L258 298 258 203 113 203zM269 196L103 196 136.64 182 238.289 182 269 196"/>
        <path fill="#3E3874" d="M202 190L157 190 166.12 186 193.674 186 202 190M101 216L269 216 269 196 101 196z"/>
        <path fill="#3E3874" d="M269 216L101 216 101 196 269 196 101 196 101 198.353 269 198.353 269 216"/>
        <path fill="#24222E" d="M101 198L269 198 269 196 101 196z"/>
        <path fill="#A2B2FF" d="M100 111.5c0 6.903-5.596 12.5-12.5 12.5-6.903 0-12.5-5.597-12.5-12.5S80.597 99 87.5 99c6.904 0 12.5 5.597 12.5 12.5M287 121.5c0 15.189-12.316 27.5-27.498 27.5C244.308 149 232 136.689 232 121.5S244.308 94 259.502 94C274.684 94 287 106.311 287 121.5" opacity=".822"/>
        <path fill="#FFF" d="M188 120.5c0 11.322-9.18 20.5-20.499 20.5-11.326 0-20.501-9.178-20.501-20.5s9.175-20.5 20.501-20.5C178.82 100 188 109.178 188 120.5"/>
        <path fill="#2A2B7C" d="M99.09 121.985c.261 0 .519.112.692.329l3.891 4.828c.09.111.215.124.265.124l.204-.071 1.97-1.538c.143-.11.167-.323.055-.462l-3.891-4.828c-.145-.182-.213-.41-.185-.639.026-.23.144-.438.327-.58l1.464-1.143-8.07-3.143 1.27 8.452 1.463-1.142c.162-.126.355-.187.546-.187zm4.848 7.015c-.646 0-1.247-.284-1.646-.78l-3.343-4.15-1.016.793c-.335.262-.708.401-1.077.401-.754 0-1.344-.559-1.472-1.392l-1.36-9.058c-.08-.52.041-.993.34-1.335.414-.473 1.113-.613 1.806-.343l8.649 3.368c.596.232.983.672 1.064 1.208.082.536-.161 1.068-.663 1.463l-1.017.793 3.344 4.149c.718.891.567 2.192-.34 2.9l-1.969 1.538c-.367.287-.83.445-1.3.445z"/>
        <path fill="#3E3874" d="M237 78c0 3.866-3.135 7-7 7-3.866 0-7-3.134-7-7 0-3.865 3.134-7 7-7 3.865 0 7 3.135 7 7M132 158.5c0 3.589-2.911 6.5-6.5 6.5-3.59 0-6.5-2.911-6.5-6.5s2.91-6.5 6.5-6.5c3.589 0 6.5 2.911 6.5 6.5"/>
        <path fill="#FFD68C" d="M134 72c-8.835 0-16-7.164-16-16s7.165-16 16-16 16 7.164 16 16-7.165 16-16 16"/>
    </g>
</svg>
