<svg xmlns="http://www.w3.org/2000/svg" viewBox="0 0 475 307">
    <g fill="none" fill-rule="evenodd">
        <path fill="#A2B2FF" d="M135 271.465c-26.38 3.112-56.742 8.925-79.562-8.016-11.73-8.708-10.957-16.487 3.85-18.125-9.397-5.695-20.389-9.97-30.929-13.27-19.15-6-28.502-19.637-1.396-20.217-4.829-9.827-14.681-18.107-19.947-29.15-5.479-11.483-7.53-20.87-6.909-33.459 24.88-3.744 36.177 39.625 47.987 55.041-1.197-23.25 15.407-44.969 23.651-13.24 4.201 16.172 4.584 34.633 11.79 49.328.412-10.318 1.215-36.723 16.315-34.504 6.658.979 8.145 7.556 9.902 13.552 4.731 16.15 6.847 37.415 20.997 47.586l4.251 4.474"/>
        <path fill="#FFD68C" d="M323.25 185.237c5.205-6.864 5.85-17.215 9.726-25.135 5.3-10.838 13.399-21.631 21.87-29.774 14.417-13.863 18.513 3.035 15.113 17.953 5.418-14.429 29.148-38.557 42.69-44.55 18.346-8.115 7.851 14.405 2.836 23.957 10.42-15.514 46.286-19.683 59.515-6.522-17.36 7.19-28.732 17.907-38.435 34.39-9.815 16.671-18.876 20.15-37.085 18.414 1.945 15.347-26.558 28.031-37.33 32.724C350 211.987 296.261 217.913 295 231l28.25-45.763"/>
        <path fill="#A2B2FF" d="M163 7c0 3.866-3.134 7-7 7s-7-3.134-7-7 3.134-7 7-7 7 3.134 7 7" opacity=".965"/>
        <path fill="#FFCF0A" d="M114.264 51.27c6.327-7.213 10.05 2.482 10.05 2.482s-1.386-10.312 7.585-7.15c8.974 3.168-4.384 19.358-4.384 19.358l-.151.04s-19.418-7.518-13.1-14.73"/>
        <path fill="#FFD68C" d="M303.5 43c-8.008 0-14.5-6.491-14.5-14.5S295.492 14 303.5 14c8.007 0 14.5 6.491 14.5 14.5S311.507 43 303.5 43"/>
        <path fill="#3E3874" d="M254.496 82.044c-13.472-5.996-17.568-19.223-22.478-31.83-4.113-10.557-11.062-18.685-22.044-22.374-10.107-3.385-21.268-2.076-30.217 3.727-9.945 6.44-16.646 17.533-17.627 29.318-1.056 12.672 4.373 27.344 14.956 34.906.21.151.492.119.697-.002 6.847 9.904 14.616 19.065 23.208 27.522 7.798 7.666 16.335 15.47 25.593 21.561-.163.634.021 1.343.753 1.684 21.679 10.28 29.453 64.117 51.98 51.556 14.116-7.872 33.125-60.32 31.596-71.031-5.864-41.101-45.964-40.389-56.417-45.037"/>
        <path fill="#31306E" d="M295.745 135c-.473 0-.952-.563-.696-1.076 5.317-10.613 2.01-22.552-7.023-29.982-8.801-7.24-20.617-9.095-31.752-9.095-.668 0-1.334.008-1.996.02h-.007c-.352 0-.366-.521-.014-.552 2.352-.2 4.73-.315 7.11-.315 11.02 0 22.037 2.47 30.283 10.357 8.084 7.733 11.606 20.845 4.579 30.382-.136.184-.31.261-.484.261M242.067 81c-.137 0-.28-.036-.424-.115-8.76-4.884-12.21-15.887-15.765-24.528-4.084-9.93-11.025-21.01-22.745-21.01-.896 0-1.82.066-2.773.201-.02.002-.037.004-.055.004-.37 0-.416-.581-.068-.703 1.666-.583 3.312-.849 4.92-.849 7.785 0 14.673 6.228 18.545 12.774 3.067 5.186 4.986 10.924 7.377 16.424 2.835 6.52 6.228 11.512 11.618 16.179.674.583.116 1.623-.63 1.623"/>
        <path fill="orange" d="M408.864 151.121c-9.967-11.915-27.756-24.171-43.908-17.628-.097-.127-.215-.245-.372-.323-3.028-1.494-6.38-1.133-9.702-1.396-4.293-.342-8.557-.88-12.84-1.25-4.518-.4-9.046-.694-13.564-1.036-3.333-.254-6.645-1.093-9.752.273-10.408.577-21.003 7.14-28.441 13.352-11.153 9.317-26.933 35.99-27.433 36.888.363 2.393.686 4.775.99 7.139.264 2.051.52 4.083.774 6.084 1.657 13.244 3.48 27.513 1.558 40.805-.49 3.38-1.421 6.573-2.812 9.474-.676 1.406-1.46 2.744-2.362 3.994.281.284 3.394-2.722 7.796-5.729 7.705-5.262 19.357-10.525 26.674 1.861 2.332 3.948 5.232 29.984 7.222 34.115.921 1.914 2.01 3.663 3.45 5.098 1.705 1.719 3.9 2.98 6.89 3.506 6.263 1.114 14.923.055 24.02-1.004 19.69-2.294 41.427-4.588 45.328 15.159.343 1.748 3.02 2.032 3.823.498 3.421-6.514 10.36-9.044 16.77-11.788 1.019-.43 2.009-.87 2.988-1.329 2.225-1.044 11.439-7.354 13.55-10.02 9.84-12.403 9.81-24.702 12.165-40.163 4.64-30.364-2.904-62.769-22.812-86.58"/>
        <path fill="#FFCF0A" d="M265.622 192.95c-.253-1.999-.508-4.029-.772-6.078-.303-2.361-.626-4.742-.988-7.133-1.389-9.23-3.84-18.313-6.787-26.892-5.574-16.23-27.092-37.746-51.64-40.592-.05-.176-41.958-4.134-57.02 26.658-5.705 11.662-12.852 22.316-20.43 32.795-3.845 5.319-8.451 10.12-13.577 14.237-3.628 2.918-8.478 7.104-13.408 7.767 1.476.918 3.012 1.747 4.577 2.684.157.088.313.185.46.283 6.484 3.981 10.877 11.396 12.125 18.839 2.014 12.023 27.358-15.884 32.6-16.616 7.766-1.093-.068 49.133 7.776 49.22 14.73.167 45.038 2.83 58.936 7.045 10.867 3.289 35.004 5.046 30.434-2.364-2.656-4.307 11.436-1.88 14.106-5.627.9-1.25 1.682-2.586 2.357-3.991 1.388-2.899 2.317-6.09 2.807-9.466 1.917-13.28.098-27.536-1.556-40.768"/>
        <g>
            <path fill="#3E3874" d="M130.133 199.487c-1.94.594-4.13.455-6.305.318-2.588-.166-5.153-.33-7.247.739-.391.195-.763.43-1.115.695-1.175.88-2.154 2.075-3.113 3.298-.959 1.243-1.908 2.506-2.994 3.485-4.756 4.257-11.106 5.861-17.29 6.606-17.302 2.084-35.072 2.162-52.48 3.082-4.63.245-9.268.372-13.74-.44-1.301-.235-2.593-.558-3.865-.979-1.467-.469-2.906-1.087-4.305-1.87-5.558-3.092-9.971-8.17-12.869-13.79-7.231-14.024-4.922-30.515-2.015-45.382 3.112-15.923 8.083-31.964 17.477-45.382 7.437-10.628 17.692-19.554 29.865-24.243.773-.293 1.556-.577 2.349-.841 7.515-2.496 23.123-4.816 39.259-.294 13.621 3.817 27.615 12.499 37.44 30.036 5.783 10.326 11.36 21.552 14.424 33.345.362 1.39.694 2.79.997 4.19.92 4.296 1.546 8.631 1.81 12.938.794 12.84-1.927 30.114-16.283 34.49" transform="translate(32 87)"/>
            <path fill="#A2B2FF" d="M87.84 119.047c-6.164 8.604-24.62.93-24.62.93.275-7.34-13.083-34.353-13.083-34.353.773-.293 1.556-.577 2.349-.841 7.515-2.496 23.122-4.816 39.259-.293-1.233 7.457 1.41 27.148-3.904 34.557" transform="translate(32 87)"/>
            <path fill="#EFBE9A" fill-rule="nonzero" d="M67.96 210.4c-1.03-2.291-1.926-4.77-3.379-6.852-1.175-2.47-3.496-4.515-5.992-5.306-4.89-1.55-9.484 1.608-11.471 5.996-1.712 3.78-2.412 9.523 1.134 12.503 2.013 1.69 5.165 1.49 6.577-.201 1.931.503 3.845.369 5.146-.985 2.73.615 4.47-2.168 4.778-5.261.277.503.552 1.004.836 1.491.906 1.56 3.081.193 2.37-1.386" transform="translate(32 87)"/>
            <path fill="#E4DEFF" d="M99.513 19.283c.175-7.45-3.965-14.777-10.965-17.84C81.48-1.642 73.146.412 67.86 5.784 63.913 1.005 57.195-1.265 51.196.807c-5.97 2.054-9.789 7.932-10.005 14.065-8.195-1.572-17.28 2.731-20.568 10.607-3.152 7.557-.459 16.262 5.635 21.33-8.452 5.02-9.645 17.037-3.205 24.53 6.875 7.995 18.364 8.911 27.558 4.822.163.151.414.22.673.06 13.594-8.46 29.53-11.905 45.222-8.218.156.477.576.865 1.141.753 6.391-1.209 13.814-5.125 16.42-11.456 1.955-4.739 1.128-10.39-2.849-13.561 3.236-9.756-2.15-20.806-11.705-24.456" transform="translate(32 87)"/>
            <path fill="#EFBE9A" fill-rule="nonzero" d="M97.459 41.995c-6.695-12.193-19.347-22.11-33.783-17.043-15.716 5.516-21.771 22.96-19.472 38.308.058.382.216.676.431.893 1.148 8.18 6.033 15.913 13.151 20.259 11.261 6.882 26.021 5.529 35.504-3.738 10.755-10.51 11.15-25.958 4.169-38.68" transform="translate(32 87)"/>
            <path fill="#E4DEFF" d="M98.789 17.828c-.523-.48-1.135-.89-1.803-1.234.485-.17.973-.207 1.414.093.416.282.495.69.389 1.141m.851 9.03c-2.235 2.049-5.03 3.536-7.992 4.229.121-.184.233-.378.332-.584.148-.06.298-.117.444-.179 2.342-.993 4.855-2.232 6.949-3.84.302-.057.597-.13.882-.219-.209.21-.417.412-.615.594m-11.928-4.205l.074-.048c1.278-.87 2.545-1.804 3.83-2.71.184.017.371.03.554.052 1.539.198 3.218 1.161 2.911 2.365-.755.664-1.556 1.28-2.401 1.826-.56.157-1.162.266-1.751.34-.852-.774-1.974-1.371-3.217-1.825M43.103 41.099c-.262.944-.518 2.011-.659 3.078-.405.372-.647.869-.73 1.387-.111-.849-.009-1.838.322-2.89.298-.953.678-1.89 1.119-2.802-.028.435-.045.846-.052 1.227M98.4 9.914c-6.28-.402-13.337 1.719-18.409 5.445-1.327.976-2.522 2.219-3.39 3.607l-.002.001c-.157-2-.853-3.893-2.4-5.13-1.156-.925-2.544.056-2.584 1.366-.037 1.299.284 2.544.469 3.808-3.14-2.898-8.451-1.319-11.479 1.846-.48.055-.954.17-1.41.369-1.309.572-2.232 1.66-2.732 2.934-.25-.243-.698-.312-.913.024-.561.872-.708 1.8-.576 2.704-.684-.059-1.37.34-1.449 1.021-5.692-4.846-13.753 8.431-15.321 12.763-1.342 3.704-1.84 8.382 1.643 11.093 3.432 2.671 8.258 1.567 11.677-.458 6.84-4.052 9.951-12.62 7.1-19.66 2.855 1.591 6.453 1.616 9.493.549 1.976-.694 3.705-1.828 5.08-3.3 6.854 8.11 19.323 9.09 28.09 3.209 4.486-3.009 8.578-8.328 7.744-14.032-.767-5.25-5.792-7.847-10.631-8.159" transform="translate(32 87)"/>
            <path fill="#EFBE9A" fill-rule="nonzero" d="M46.796 64.453c-.417-.525-.959-.873-1.547-1.073-.037-.28-.183-.548-.46-.696-2.425-1.291-5.551.28-5.92 3.011-.39 2.91 2.077 5.592 5.034 5.279 3.09-.327 4.894-4 2.893-6.521M105.286 51.127c-1.4-1.178-3.458-1.269-4.845-.028-.38.342-.737.832-.983 1.368-.097.163-.17.34-.2.526-.275.916-.167 1.87.723 2.402l.026.007c.075.117.157.232.244.344-.361.765-.222 1.75.752 2.078.13.044.265.069.397.101l-.006.02.183.026c1.686.345 3.44-.237 4.448-1.735 1.1-1.637.77-3.842-.739-5.11" transform="translate(32 87)"/>
            <path fill="#BEAAB3" d="M65.629 71.38c-5.203 1.939-11.011-.718-12.95-5.921-1.937-5.203.72-11.013 5.921-12.951 5.202-1.938 11.01.717 12.95 5.921 1.937 5.204-.72 11.013-5.921 12.951m-7.953-21.353c-5.05 1.882-8.188 6.655-8.262 11.747-1.652-1.413-3.869-1.935-6.06-1.42-1.204.284-.52 2.086.67 1.805 1.861-.438 3.809-.11 5.436.88.096 1.119.33 2.242.74 3.343 2.447 6.572 9.783 9.926 16.352 7.478 6.57-2.447 9.924-9.784 7.477-16.355-2.447-6.571-9.783-9.925-16.353-7.478M86.202 45.431c-5.203 1.939-7.858 7.748-5.921 12.951 1.938 5.204 7.747 7.86 12.95 5.922 5.202-1.939 7.857-7.748 5.92-12.951-1.939-5.204-7.748-7.86-12.95-5.922m7.953 21.353c-6.57 2.448-13.905-.906-16.353-7.478-2.447-6.57.908-13.907 7.477-16.355 6.57-2.448 13.905.906 16.353 7.478 2.447 6.57-.908 13.907-7.477 16.355" transform="translate(32 87)"/>
            <path fill="#DB898B" d="M81.248 62.26c-1.235-.535-2.178-1.24-2.652-2.579-.863-2.44-4.426-1.612-4.35.902.083 2.683 1.372 5.433 3.64 6.941 1.56 1.038 3.553.998 4.657-.73.98-1.534.458-3.778-1.295-4.534" transform="translate(32 87)"/>
            <path fill="#BEAAB3" d="M78.901 58.81c-1.873-1.786-4.86-.006-5.594 2.016-.192.53.559.892.807.37.417-.877 1.095-1.505 2.056-1.72.867-.193 1.49.097 2.319.236.532.089.771-.561.412-.903" transform="translate(32 87)"/>
            <path fill="#E4DEFF" d="M65.008 42.184c-.777.217-1.317.846-1.903 1.373l-1.645 1.484c-.497.447-.734 1.092-.387 1.717.29.526 1.042.942 1.643.631l2.046-1.06c.775-.402 1.655-.715 2.184-1.437 1.044-1.43-.291-3.168-1.938-2.708M79.918 39.417c-.474-.155-.901-.08-1.365.037-.124.031-.25.059-.378.079l-.249.013c-.566.027-.964-.035-1.492-.127-1.674-.288-2.425 1.768-1.049 2.7.668.452 1.448.71 2.243.825 1.132.164 2.25.225 3.146-.608 1.039-.968.311-2.536-.856-2.919" transform="translate(32 87)"/>
            <path fill="#FEB490" d="M95.68 56.132c-.146 0-.294-.07-.41-.235-.419-.601-.981-1.13-1.734-1.13-.05 0-.102.003-.154.008l-.1-.01c-.026.008-.052.01-.077.01-.199 0-.372-.227-.284-.436l.028-.05c.013-.095.06-.182.142-.244.458-.712 1.375-1.216 2.24-1.216.387 0 .763.101 1.084.33.333.238.146.836-.262.846l-.07.001c-.155 0-.31-.011-.462-.022-.153-.011-.305-.022-.457-.022-.125 0-.25.008-.376.028.678.205 1.255.667 1.439 1.395.1.394-.218.747-.547.747M56.126 63.483c-.257 0-.527-.235-.466-.523.233-1.116 1.313-1.797 2.423-1.951-.221-.106-.453-.152-.69-.152-.718 0-1.47.43-2.02.933-.08.073-.177.105-.275.105-.3 0-.613-.298-.53-.609.29-1.1 1.272-1.599 2.305-1.599.984 0 2.015.454 2.532 1.269l.072.204c.193.194.097.577-.215.577-.021 0-.044-.003-.066-.006-.144-.023-.282-.034-.412-.034-1.078 0-1.731.737-2.343 1.62-.08.117-.197.166-.315.166" transform="translate(32 87)"/>
            <path fill="#FAF9FF" d="M43.866 53.538c-.632-.123-1.256-.304-1.868-.549-.06-.024-.101-.065-.127-.113.651.232 1.327.372 2.014.433l-.02.229M93.74 36.285c-.213-.279-.429-.553-.65-.826.997-.192 1.983-.45 2.95-.776-.68.633-1.46 1.176-2.3 1.602m-2.092-5.198c.121-.184.233-.378.332-.584.148-.06.298-.117.444-.179.654-.278 1.321-.574 1.988-.892.019.24-.067.495-.298.728-.091.092-.184.18-.279.26-.714.27-1.445.493-2.187.667m4.903-1.96c.006-.26-.007-.52-.041-.777.646-.362 1.278-.748 1.887-1.16.06.197.11.394.15.591-.633.492-1.3.942-1.996 1.347M90.93 24.48c-.381-.347-.816-.658-1.293-.937.829-.525 1.806-.774 2.804-.774.597 0 1.2.088 1.785.26-.498.394-1.013.766-1.545 1.11-.56.157-1.162.266-1.751.34M77.38 17.866c-.148-.342-.329-.677-.545-1.002-.355-.535-.758-.965-1.19-1.3-.364-.655-.84-1.241-1.447-1.727-.316-.252-.65-.363-.969-.363-.701 0-1.33.535-1.54 1.26-1.472.372-2.675 1.436-2.926 2.797-.262-.03-.528-.043-.796-.043-.497 0-1.003.048-1.508.143.174-1.765 1.149-3.502 2.772-4.476 1.052-.632 2.165-.916 3.26-.916 2.608 0 5.114 1.613 6.46 3.965-.569.509-1.099 1.067-1.571 1.662" transform="translate(32 87)"/>
            <path fill="#FFF4EA" d="M45.963 53.736c-.702 0-1.405-.064-2.097-.198l.019-.23c.273.025.548.036.825.036 2.38 0 4.833-.864 6.814-2.037 5.856-3.469 8.98-10.249 7.967-16.548 1.328 3.54.549 8.318-1.022 11.27-2.323 4.366-7.44 7.707-12.506 7.707m42.642-16.32c-5.394 0-10.478-3.183-14.334-6.771-2.935 1.94-6.249 2.753-9.611 2.753-1.892 0-3.8-.258-5.662-.715-.092-.291-.194-.58-.306-.866l.327.037c1.486.738 3.15 1.076 4.818 1.076 1.461 0 2.925-.258 4.28-.734 1.826-.64 3.442-1.659 4.761-2.972.124-.088.247-.177.368-.27 3.94 4.624 9.713 6.912 15.571 6.912 1.429 0 2.861-.136 4.273-.407.221.273.437.547.65.826-.766.39-1.583.68-2.42.855-.911.19-1.816.278-2.715.277" transform="translate(32 87)"/>
            <path fill="#FAF9FF" d="M44.71 53.344c-.277 0-.552-.011-.825-.035-.687-.061-1.363-.201-2.014-.433-.079-.156.014-.39.215-.403 6.811-.409 13.488-2.26 15.51-9.697.931-3.429.728-8.954-3.45-10.195-.283-.085-.59-.123-.91-.123-1.899 0-4.271 1.36-5.346 2.557-.693.772-1.6 2.468-1.344 3.542l1.727 2.674 2.05-1.913c-.514-.597-.514-1.654.446-1.976.361-.122.723-.244 1.085-.364.137-.047.277-.068.417-.068.504 0 .985.29 1.17.794 1.346 3.651-1.377 6.056-4.236 6.056-1.738 0-3.529-.89-4.484-2.93-2.442-5.218 3.313-10.56 8.487-10.56.757 0 1.501.114 2.206.36.756.264 1.408.634 1.965 1.088.045-.03.1-.05.166-.05.018 0 .036 0 .055.004.362.053.726.101 1.092.145.112.286.214.575.306.866-.285-.07-.57-.145-.852-.224.583.666 1.025 1.448 1.345 2.3 1.013 6.299-2.11 13.08-7.967 16.548-1.981 1.173-4.434 2.037-6.814 2.037m44.107-17.478c-5.858 0-11.631-2.288-15.57-6.913.777-.594 1.507-1.288 2.174-2.096 2.012-2.432 3.263-5.98 1.96-8.992.472-.595 1.002-1.153 1.571-1.662.253.444.466.913.63 1.403 1.56 4.65-.846 9.65-4.567 12.506 3.752 2.647 8.013 5.151 12.68 5.395.225.012.451.018.677.018 2.655 0 5.454-.83 7.07-3.084.656-.917 1.083-2.12 1.11-3.313.695-.405 1.362-.855 1.996-1.347.543 2.617-.588 5.118-2.508 6.902-.967.326-1.953.584-2.95.776-1.412.27-2.844.407-4.273.407m-24.98-2.936c-1.668 0-3.332-.338-4.818-1.076 1.18.13 2.376.205 3.567.205 3.687 0 7.323-.728 10.292-2.835-1.319 1.313-2.935 2.331-4.761 2.972-1.355.476-2.819.734-4.28.734m27.438-1.508c-2.464 0-4.631-2.505-3.526-5.488.401-1.085 1.071-1.873 1.887-2.391.477.279.912.59 1.293.937.589-.075 1.191-.184 1.75-.34.533-.345 1.048-.717 1.546-1.111 1.516.445 2.896 1.449 3.653 2.9.22.42.39.84.519 1.26-.609.413-1.241.8-1.887 1.161-.098-.73-.366-1.43-.844-2.028-.737-.946-1.583-1.418-2.541-1.418-.249 0-.504.031-.768.094-.11-.008-.214-.012-.312-.012-1.706 0-1.584 1.26.364 3.78.241-.247.526-.349.804-.349.595 0 1.159.473 1.2 1.015-.668.318-1.335.614-1.989.892-.146.062-.296.119-.444.179-.1.206-.21.4-.332.584.742-.174 1.473-.397 2.187-.666-.804.696-1.7 1.001-2.56 1.001m-21.62-8.631c-.132 0-.275-.03-.424-.1-2.122-.986-2.97-3.042-2.771-5.061.505-.095 1.01-.143 1.508-.143.268 0 .534.014.796.043-.195 1.063.188 2.305 1.477 3.54.655.627.206 1.72-.586 1.72m5.991-7.228c-.872-.677-1.86-.97-2.813-.97-.39 0-.776.048-1.144.142.211-.726.84-1.26 1.541-1.26.32 0 .653.11.97.362.607.486 1.082 1.072 1.446 1.726M103.68 18.45c-.212 0-.413-.117-.5-.4-.581-1.903-2.169-3.156-3.883-3.156-.83 0-1.688.293-2.476.947-.09.074-.182.105-.272.105-.345 0-.634-.47-.379-.796.954-1.217 2.344-1.78 3.71-1.78 2.32 0 4.57 1.623 4.493 4.41-.01.39-.366.67-.694.67M36.194 35.971c-.138-.001-.278-.074-.35-.233-2.34-5.197 2.134-12.196 7.84-12.196.189 0 .38.008.57.023.79.065.857 1.282.14 1.518-2.396.792-4.602 1.484-6.215 3.576-1.561 2.026-1.699 4.46-1.61 6.914.008.253-.181.398-.375.398M32.054 71.108c-.109 0-.227-.023-.352-.076-7.045-2.97-9.927-13.995-2.81-18.745.144-.096.288-.137.423-.137.529 0 .907.65.557 1.178-1.781 2.679-3.305 5.037-2.868 8.43.423 3.28 2.588 6.12 5.354 7.838.732.454.424 1.512-.304 1.512" transform="translate(32 87)"/>
            <path fill="#38193A" d="M65.502 59.697c-.37-1.61-1.55-3.77-3.579-3.082-.745.253-1.242.968-1.414 1.71-.233 1 .29 1.934.766 2.779.176.311.629.095.558-.235-.171-.81-.583-2.72.528-3.08 1.171-.378 1.8 1.4 2.12 2.19.25.619 1.176.4 1.021-.282M91.13 53.95c-.071-1.651-.843-3.988-2.964-3.678-.777.113-1.396.728-1.699 1.425-.41.942-.064 1.954.252 2.872.116.338.6.207.592-.13-.024-.827-.082-2.781 1.074-2.933 1.22-.161 1.518 1.701 1.69 2.537.134.653 1.085.605 1.055-.093" transform="translate(32 87)"/>
            <path fill="#FFF" d="M67.03 75.876s11.236 5.327 22.554-5.744c0 0 .092 4.517-3.184 8.398-3.635 4.306-9.997 5.426-14.854 2.57-1.805-1.06-3.497-2.698-4.515-5.224" transform="translate(32 87)"/>
            <path fill="#E4DEFF" d="M52.785 82.302c-1.092.344-1.88 1.801-1.525 3.107.355 1.311 1.48 2.159 2.65 1.789 1.092-.345 1.88-1.802 1.525-3.108-.355-1.31-1.48-2.159-2.65-1.788M54.656 87.91c-2.724.293-2.34 5.258.388 4.966 2.724-.293 2.34-5.258-.388-4.965M57.202 92.805c-1 .316-1.72 1.65-1.395 2.845.324 1.199 1.353 1.975 2.425 1.637.999-.317 1.72-1.65 1.395-2.845-.325-1.199-1.354-1.975-2.425-1.637" transform="translate(32 87)"/>
            <path fill="#E4DEFF" d="M60.566 95.842c-1.911.604-1.113 4.087.8 3.482 1.91-.605 1.113-4.086-.8-3.482M64.053 97.824c-2.23.705-1.298 4.77.935 4.064 2.23-.705 1.299-4.77-.935-4.064" transform="translate(32 87)"/>
            <path fill="#E4DEFF" d="M67.282 100.262c-2.184.69-1.272 4.673.916 3.981 2.183-.69 1.273-4.673-.916-3.981" transform="translate(32 87)"/>
            <path fill="#E4DEFF" d="M70.72 101.497c-2.138.675-1.246 4.575.896 3.897 2.138-.676 1.246-4.575-.896-3.897M74.32 102.378c-.74.234-1.272 1.22-1.033 2.105.241.887 1.003 1.46 1.794 1.21.74-.234 1.273-1.22 1.032-2.105-.24-.887-1.001-1.46-1.793-1.21" transform="translate(32 87)"/>
            <path fill="#E4DEFF" d="M77.71 101.295c-2.413.762-1.406 5.16 1.01 4.397 2.413-.762 1.406-5.162-1.01-4.397" transform="translate(32 87)"/>
            <path fill="#E4DEFF" d="M81.434 100.608c-1.91.605-1.113 4.087.8 3.482 1.91-.604 1.113-4.087-.8-3.482" transform="translate(32 87)"/>
            <path fill="#E4DEFF" d="M84.299 98.297c-.887.28-1.528 1.465-1.24 2.526.29 1.066 1.203 1.756 2.155 1.454.888-.28 1.528-1.465 1.24-2.526-.289-1.066-1.203-1.755-2.155-1.454M87.445 96.147c-1.911.604-1.114 4.087.8 3.482 1.91-.604 1.113-4.086-.8-3.482" transform="translate(32 87)"/>
            <path fill="#E4DEFF" d="M89.831 93.864c-1.728.546-1.007 3.696.724 3.149 1.727-.547 1.007-3.696-.724-3.15M93.11 90.912c-.613-.196-1.45.127-1.736.84l-.036.089c-.354.883-.157 1.76.533 2.319l.069.054c.503.408 1.25.263 1.704-.152.461-.422.732-1.197.546-1.88-.162-.599-.552-1.102-1.08-1.27M94.917 87.755l-.074-.045c-.573-.348-1.23-.142-1.58.5l-.043.082c-.57 1.052.387 2.513 1.401 2.134.414-.154.76-.523.876-1.025.14-.6-.094-1.351-.58-1.646M94.584 84.283c-.591.186-1.017.974-.826 1.68.193.71.801 1.169 1.434.97.591-.188 1.017-.976.825-1.683-.192-.709-.8-1.168-1.433-.967" transform="translate(32 87)"/>
            <path fill="#EFBE9A" fill-rule="nonzero" d="M90.392 194.435c-.535-1.46-2.05-2.747-3.933-3.62-.165-.078-.335-.15-.508-.22l-.229-.091c-.123-.047-.244-.095-.369-.137-1.048-.371-2.158-.615-3.247-.699-1.916-.222-3.831-.17-5.306-.014-6.338.675-12.258 3.36-18.567 4.223-.966.133-.942 1.771 0 1.929.53.087 1.056.146 1.584.179-1.425.471-2.851.848-4.283 1.054-1.563.227-1.058 2.534.355 2.624 3.645.23 7.442-1.184 11.246-2.642.248.037.502.052.754.075-.612.193-1.221.394-1.822.606-2.374.835-5.06 1.565-7.032 3.154-.306.246-.017.652.285.688 3.793.449 7.723-.907 11.622-1.914-1.575.91-3.199 1.687-4.724 2.65-.135.086-.173.282-.051.4 2.059 1.984 4.828-.125 6.94-1.13 4.616-2.197 9.092 1.909 13.82.421 2.253-.708 4.216-2.583 4.183-5.08-.012-.882-.265-1.753-.718-2.456" transform="translate(32 87)"/>
            <path fill="#8290FF" d="M49.637 191.481c-.135 0-.28-.043-.428-.139-3.286-2.137-6.122-4.857-9.517-6.843-.665-.39-8.628-4.13-11.177-4.13-.404 0-.672.094-.755.31-.113.294-.342.424-.57.424-.337 0-.667-.288-.596-.747.084-.542.386-.9.818-1.137 3.597-4.745 4.558-10.82 5.366-16.582.931-6.647 1.775-13.299 2.884-19.92.075-.447.454-.65.845-.65.496 0 1.01.325.946.892-.819 7.251-1.829 14.486-2.957 21.696-.846 5.41-2.082 10.22-5.784 14.222.154-.012.312-.018.474-.018 2.427 0 5.802 1.212 6.747 1.555 5.261 1.912 10.688 5.3 14.258 9.657.447.546.055 1.41-.554 1.41M110.822 112.56c-.373 0-.722-.202-.794-.655-.933-5.895-1.84-11.643-3.58-17.375-.152-.501.321-.9.752-.9.221 0 .431.105.54.354 2.428 5.54 4.12 11.58 4.08 17.679-.005.562-.52.897-.998.897M88.03 186.564c-.812 0-1.591-.785-.985-1.6 3.987-5.365 8.01-9.976 14.062-13.027 5.75-2.897 12.42-6.22 18.796-7.197.023-.004.047-.006.07-.006.43 0 .751.602.278.83-5.15 2.484-10.312 4.957-15.51 7.345-6.799 3.125-11.285 7.264-15.768 13.182-.252.334-.6.473-.943.473M102.033 202.794c-2.68 0-5.546-.645-7.339-2.445-.326-.328-.02-.76.366-.76.024 0 .049.002.074.006 1.687.243 3.241.987 4.963 1.17.898.096 1.82.142 2.74.142.653 0 1.304-.024 1.942-.07l.061-.001c.916 0 1.097 1.525.168 1.694-.914.165-1.93.264-2.975.264" transform="translate(32 87)"/>
        </g>
        <path fill="#E1E9F4" d="M334.605 67.033c-5.452 1.27-11.87 3.079-13.969 8.671-2.325 6.183 2.535 12.134 1.672 18.271-.075.533 7.118-7.557 13.605-25.324.336-.92-.342-1.839-1.308-1.618"/>
        <path fill="#EFBE9A" fill-rule="nonzero" d="M373.852 91.142c-1.429-4.781-1.216-11.373-3.872-15.625-2.672-4.262-8.242-7.032-12.706-9.6-.254-.148-7.908-3.305-11.835-2.877-7.626.83-13.261 7.096-16.563 13.433-4.261 8.176-5.423 17.49-9.238 25.842-3.206 7.023-7.933 14.127-7.624 22.129.615 15.586 18.128 23.264 32.053 21.236 15.704-2.291 27.246-14.264 30.714-29.16 1.942-8.328 1.514-17.204-.93-25.378"/>
        <path fill="#FFF" d="M328 125.677s3.618-3.468 5.568-2.51c1.95.96 6.633 1.84 10.41.85C353.832 121.434 355 128 355 128l-27-2.323"/>
        <path fill="#E1E9F4" d="M337.304 117.277c-24.898-4.507-15.743-17.046-18.366-13.724 1.441-3.196-7.381 17.89-15.546 26.062-4.793 4.799-8.873 10.245-4.586 17.032 6.989 11.041 21.728 15.633 34.264 14.049 14.04-1.768 25.905-11.135 33.3-22.743 3.526-5.534 10.064-17.404 8.348-24.18-.855-3.361-7.333-1.128-15.586 1.105-6.788 1.837-14.777 3.675-21.828 2.399M348.651 62.93c-.157-.06-5.937-9.75-10.444-12.208-2.887-1.577-6.652-.557-7.148 2.92-.523 3.652 2.528 7.086 5.41 8.973 3.726 2.446 8.318 2.981 12.58 1.741.934-.277 1.723-.638-.398-1.427M379.338 73.094c-.995-2.793-3.212-5.298-6.301-5.944-1.585-.331-3.564-.05-5.576.233-2.7.379-5.459.757-7.405-.346-.916-.514 9.786 4.258 10.038 15.699.207 9.278 5.652 19.827 5.826 19.24 1.57-5.177 1.799-11.826 2.964-17.104.827-3.788 1.789-7.993.454-11.778M326.704 85.67c-1.886.421-2.525 4.592-.257 4.992 3 .53 6.062.476 8.975-.441 2.15-.678 5.085-1.856 4.503-4.425-1.17-5.167-7.179-1.929-13.221-.125M361.271 82.785c-3.19-.595-6.572-.72-9.818-.785-.935-.018-2.052.656-2.221 1.538l-.201 1.038c-.064.331-.026.668.086.988.05.63.291 1.256.69 1.76 1.353 1.697 4.274 2.138 6.385 2.445 2.75.399 5.49.328 8.106-.582.855-.297 1.814-1.047 1.691-1.998-.317-2.467-2.054-3.906-4.718-4.404"/>
        <path fill="#EFBE9A" fill-rule="nonzero" d="M381.586 101.764c-3.068-1.64-7.856-.608-9.248 2.784-.24.586.45 1.106.976.972.124-.031.246-.066.369-.103-.405.458-.713.995-.915 1.57-.127.25-.23.51-.304.785-.357-.415-1.037-.508-1.453-.07-2.537 2.665.145 6.268 3.168 7.077 3.622.97 8.178-1.379 10.016-4.533 1.788-3.065.457-6.843-2.61-8.482M321.645 94.4c-2.9-1.254-6.103.616-7.18 3.154-1.118 2.635-.184 6.04 2.402 7.655 2.154 1.346 7.142 1.177 7.003-2.1-.021-.498-.29-.884-.68-1.107.783-.912 1.007-2.113.635-3.159.515-1.705-.28-3.62-2.18-4.443"/>
        <path fill="#FE9190" d="M363.66 97.3c-2.093-1.023-6.191.717-6.651 3.002-.07.352.295.651.638.466.305-.163.574-.355.834-.552 1.638-.003 2.912 1.079 3.593 2.497.293.612 1.156.14 1.057-.43-.28-1.623-1.735-2.689-3.346-2.97.19-.102.387-.195.609-.267 1.029-.336 2.084-.268 3.105-.534.556-.144.705-.947.162-1.212M326.968 99.491l-.126-.205c-.027-.159-.114-.302-.264-.403-.765-1.065-1.98-2.07-3.184-1.853-.347.062-.41.668-.097.828.557.285 1.17.341 1.733.622-1.69-.098-3.28.847-3.992 2.701-.191.5.38 1.14.768.634 1.006-1.314 2.809-2.202 4.378-1.832.202.048.361-.01.477-.116.18.104.428-.156.307-.376"/>
        <path fill="#E1E9F4" d="M335.573 119.896s10.292 9.227 20.902 5.908C367.085 122.484 367 111.67 367 111.67s-12.323 9.306-28.477-5.947c0 0-13.8 2.77-19.429-.723 0 0-2.355 37.153 16.48 14.896"/>
        <path fill="#DB898B" d="M341.564 97.19c-.267 1.43-.89 2.804-1.934 3.884-1.125 1.162-2.678 1.61-3.897 2.627-1.614 1.347-.375 4.541 1.884 4.284 4.833-.55 7.856-6.105 7.322-10.365-.207-1.656-3.003-2.425-3.375-.43"/>
        <path fill="#F6F8FC" d="M321.099 157l-.038-.001c-7.805-.356-17.408-5.139-18.895-13.165-.673-3.628.769-6.639 3.126-9.392 3.789-4.422 6.875-8.638 8.736-14.162.066-.195.22-.28.376-.28.232 0 .466.189.41.485-.693 3.72-1.919 7.027-4.06 10.211-2.05 3.047-5.578 5.678-6.422 9.316-1.066 4.586 2.32 9 6.144 11.304 3.438 2.072 7.385 2.534 11.053 4.002.865.346.43 1.682-.43 1.682M335.253 155c-1.71 0-3.402-.185-5.017-.577-.379-.092-.266-.55.087-.579 3.96-.324 7.796-.646 11.592-1.787 3.699-1.11 7.047-3.049 10.28-4.971.1-.06.198-.086.29-.086.415 0 .692.528.383.859-4.098 4.383-11.016 7.142-17.615 7.141M375.65 92c-.214 0-.435-.12-.51-.365-1.924-6.174 5.72-19.437-3.75-21.54-.593-.132-.473-1.095.113-1.095l.032.001c3.563.203 5.776 2.854 6.311 6.356.822 5.369-1.924 10.714-1.708 16.143.014.33-.233.5-.488.5M323.614 78c-.239 0-.479-.138-.53-.408-.573-3.073 1.864-5.874 4.533-6.583.024-.006.047-.009.07-.009.278 0 .455.45.162.586-1.174.54-2.044 1.39-2.698 2.545-.642 1.135-.828 2.18-1.028 3.46-.043.275-.275.409-.51.409M344.53 62c-.031 0-.063-.003-.095-.009-1.724-.313-3.1-1.377-4.173-2.768-.612-.794-1.026-1.649-1.398-2.577-.31-.771-.445-1.851-1.099-2.388-.175-.404-.448-.606-.813-.606-.234 0-.504.081-.813.244-.273-.112-.513-.169-.72-.169-.396 0-.672.205-.83.616-.05.082-.122.119-.196.119-.1 0-.2-.068-.246-.177-.622-1.505.842-2.285 2.216-2.285.535 0 1.056.119 1.435.359 1.243.79 1.7 2.277 2.22 3.572 1.005 2.508 2.585 3.805 4.76 5.215.42.273.192.854-.248.854M318.56 111c-.075-.524-.117-1.084-.12-1.677 0-.136.036-.244.096-.323 0 .62.007 1.292.024 2M354.231 123c-6.94 0-14.997-5.288-17.738-10.22l-.064.12c-2.208 2.844-6.04 4.51-9.557 4.51-3.766 0-7.173-1.91-7.848-6.334-.016-.678-.023-1.322-.024-1.916.084-.107.215-.16.347-.16.233 0 .475.161.502.474.343 3.975 3.643 6.52 7.359 6.53h.024c3.358-.001 5.771-1.983 8.259-4.058.15-.125.31-.173.458-.174-.203-.386-.394-.764-.57-1.128-.132-.271.065-.494.283-.494.097 0 .2.045.276.151 3.993 5.506 12.566 9.94 20.174 9.94.94 0 1.867-.068 2.768-.21.049-.008.097-.012.143-.012.842 0 1.418 1.169.534 1.672-1.603.911-3.422 1.309-5.326 1.309"/>
        <path fill="#38193A" d="M352.439 97.001c.784-.032 1.565.627 1.561 1.438-.004.814-.598 1.526-1.439 1.56-.785.032-1.565-.626-1.561-1.438.003-.813.598-1.526 1.439-1.56M333.437 96.002c1.996-.08 2.126 2.918.126 2.996-1.996.08-2.126-2.918-.126-2.996"/>
        <path fill="#FFF" d="M346 121.017s-12.052 5.532-18-2.017c0 0 .838 9.736 8.558 8.955 7.72-.781 9.442-6.938 9.442-6.938"/>
        <path fill="#EFAC7B" d="M203 100s-2.085 10.402 0 16.59c0 0-9.143 8.288-18 2.14 0 0 4.963-8.489 2.57-13.462C185.18 100.295 203 100 203 100"/>
        <path fill="#EFBE9A" fill-rule="nonzero" d="M178.72 53.741c8.092-9.02 24.8-11.44 32.295-.281.304.453.213.955-.064 1.336 4.57 5.468 6.611 13.163 5.916 20.317-.654 6.717-3.188 13.101-6.483 18.94-3.141 5.573-6.951 11.915-12.755 15.045-13.548 7.312-20.98-8.085-24.259-18.634-3.821-12.277-3.678-26.65 5.35-36.723"/>
        <path fill="#DB898B" d="M187.047 88.148c.515-1.895 1.9-3.482 2.499-5.403.649-2.082 1.014-4.253.919-6.445-.065-1.487 1.934-1.832 2.209-.328.468 2.555.468 5.14-.235 7.646-.632 2.252-1.703 5.02-3.723 6.223-1.05.624-1.933-.725-1.669-1.693"/>
        <path fill="#3E3874" d="M175.206 67.05c1.507-2.379 3.54-4.035 6.286-5.098 2.39-.924 5.858-1.631 7.968.137 1.01.848.487 2.149-.607 2.604-1.754.73-3.91.285-5.783.759-2.085.526-3.99 1.707-5.485 3.143-1.113 1.068-3.258-.16-2.379-1.545"/>
        <path fill="#EFBE9A" fill-rule="nonzero" d="M166 81.075c-.008-1.669 1.027-2.95 2.48-3.066 1.406-.112 2.606.816 3.442 2.075.778.653 1.302 1.723 1.194 2.79.856.401 1.29 1.794.37 2.458-.97.701-2.272.88-3.371.394-.64-.083-1.27-.28-1.876-.644-1.278-.771-2.23-2.39-2.239-4.007"/>
        <path fill="#3E3874" d="M204.975 66.36c-2.2-1.029-6.87-2.418-8.648-.088-.503.66-.463 1.637.381 2.045 1.017.49 1.826.317 2.928.234 1.278-.097 2.528.04 3.751.421 2.481.774 4.56 2.432 5.845 4.612.531.902 2.08.197 1.712-.782-1.071-2.847-3.14-5.12-5.969-6.443M170.459 52.978c-.111-3.17 2.593-5.54 5.054-6.99 4.285-2.528 9.489-4.132 14.4-4.76l.15-.015c-2.014 1.02-3.847 3.006-4.825 5.144l-.106.067c-3.481-.955-8.616 2.952-9.05 6.273-.028.22-.032.435-.023.644-1.452 1.06-2.63 2.254-3.03 3.478-1.436-.704-2.504-1.956-2.57-3.841zm30.111-11.431c.884.476 1.741.982 2.572 1.52-.44-.027-.882-.04-1.326-.039-.585-.69-1.699-.978-2.51-.451l-.005.004c-.354-.557-.963-.966-1.594-.862-.549.09-1.099.187-1.639.306-.225-.293-.51-.569-.883-.818-.145-.097-.292-.18-.441-.257 1.957.022 3.909.208 5.826.597zm-1.32-5.118c-.532.269-.812.66-.907 1.083-2.408-.27-4.845-.288-7.265-.051-8.007.786-21.937 4.15-23.894 13.602-.79 3.817 1.004 7.438 4.535 9.05 4.503 2.058 9.493.119 13.752-1.614 7.226-2.94 15.473-6.865 22.856-5.896 7.462 2.135 5.233 3.917 8.269 5.36.573.272 1.114.272 1.566.095.215.247.43.493.64.76.454.576 1.428.198 1.204-.574-.17-.583-.4-1.124-.658-1.644.1-.466.055-.983-.195-1.477-.282-.558-.579-1.106-.883-1.646 1.367.457 3.264-.82 2.59-2.456-3.566-8.65-10.723-20.066-21.61-14.592z"/>
        <path fill="#EFBE9A" fill-rule="nonzero" d="M214.755 80.64c-.029.164.113.382.258.368.242-.024.467-.092.686-.176-.059.33-.098.672-.094 1.034 0 .116.018.23.04.342-.805-.387-1.596-.581-2.357-.167-.195.106-.324.473-.28.745.479 2.952 4.42 4.199 6.415 4.214 2.193.017 4.294-1.744 4.546-4.48.617-6.674-8.267-7.29-9.214-1.88"/>
        <path fill="#38193A" d="M182 76c-2.664 0-2.67 4 0 4 2.664 0 2.67-4 0-4M201 77c-2.665 0-2.669 4 0 4 2.665 0 2.669-4 0-4"/>
        <path fill="#FFF" d="M182 95.3s9.013 7.246 18-1.3c0 0-.7 10.227-9.39 9.996-6.283-.166-8.61-8.696-8.61-8.696"/>
        <path fill="#EFBE9A" fill-rule="nonzero" d="M361.138 299.513c1.012-2.282 1.892-4.753 3.319-6.827 1.155-2.461 3.436-4.5 5.888-5.287 4.804-1.545 9.319 1.602 11.271 5.974 1.683 3.768 2.37 9.49-1.114 12.46-1.978 1.684-5.075 1.484-6.462-.2-1.898.5-3.779.367-5.057-.982-2.683.612-4.393-2.16-4.694-5.243-.272.501-.543 1-.822 1.486-.89 1.554-3.027.192-2.33-1.38M217.312 232.922c-.512-1.46-1.963-2.75-3.768-3.624-.158-.08-.321-.151-.486-.22l-.22-.092c-.117-.047-.233-.094-.353-.137-1.003-.372-2.068-.615-3.11-.7-1.836-.222-3.67-.17-5.084-.013-6.07.675-11.741 3.362-17.784 4.227-.926.133-.903 1.774 0 1.932.506.088 1.011.146 1.516.18-1.365.472-2.73.849-4.102 1.055-1.497.227-1.014 2.537.34 2.627 3.49.23 7.13-1.185 10.773-2.644.237.036.481.05.722.074-.587.193-1.17.394-1.745.606-2.274.837-4.846 1.567-6.736 3.158-.294.247-.017.654.272.69 3.634.449 7.399-.91 11.133-1.916-1.51.91-3.064 1.689-4.524 2.654-.13.085-.166.282-.05.398 1.973 1.989 4.626-.124 6.648-1.13 2.344-1.166 4.649-.56 6.972.046 2.061.538 4.137 1.076 6.266.376 2.16-.71 4.04-2.587 4.008-5.087-.011-.883-.255-1.756-.688-2.46"/>
        <path fill="#F7925F" d="M281.863 222c-.654 0-1.191-.82-.624-1.462 11.765-13.322 18.225-28.126 18.732-46.1.008-.294.22-.438.436-.438.219 0 .44.147.46.437 1.192 17.032-5.707 35.849-18.42 47.322-.187.17-.39.241-.584.241M381.077 261c-.55 0-.939-.79-.514-1.25 9.212-9.971 9.625-21.319 6.73-33.92-2.506-10.918-6.163-21.567-8.797-32.456-2.529-10.457-4.254-21.248-3.162-31.99.742-7.293 2.511-14.824 9.117-19.304.084-.056.17-.08.256-.08.414 0 .775.58.386.873-9.321 7.006-8.953 21.966-8.057 32.146 1.024 11.63 4.365 22.945 7.585 34.16 4.314 15.025 13.356 40.029-3.153 51.687-.133.093-.266.134-.391.134"/>
        <path fill="orange" d="M216.348 194c-1.12 0-2.273-.153-3.425-.47-5.975-1.65-11.019-4.04-17.407-4.196-.237-.005-.475-.008-.711-.008-5.652 0-11.035 1.59-16.618 2.263-1.04.125-2.126.193-3.233.193-6.698 0-14.087-2.486-15.691-9.766-.877-3.98.599-7.963 2.085-11.584 2.557-6.236 4.82-12.138 5.517-18.9.037-.35.322-.532.593-.532.265 0 .517.173.511.532-.065 4.053-.457 8.137-1.577 12.047-1.062 3.706-2.974 7.107-4.048 10.805-3.039 10.463 4.552 14.32 12.832 14.32 1.731 0 3.494-.168 5.195-.48 5.17-.95 10.03-1.892 15.07-1.892 2.152 0 4.337.172 6.593.589 4.44.821 10.407 3.802 15.221 3.802 3.617-.001 6.582-1.684 7.759-7.23.106-.499.508-.724.923-.724.527 0 1.076.365 1.063.995-.136 6.323-4.99 10.237-10.652 10.236"/>
        <path fill="#EFBE9A" fill-rule="nonzero" d="M254.524 220.734c-2.026-1.362-4.498-.77-6.727-.212-2.325.582-4.322 1.024-6.544 1.075.514-.112 1.018-.231 1.505-.34 3.956-.888 7.494-2.341 11-4.335 1.514-.863.505-3.517-1.229-2.87-4.383 1.636-8.961 3.07-13.624 3.402l-.034-.127c.755-.095 1.518-.165 2.254-.32 2.493-.522 4.67-1.662 6.687-3.175 1.189-.892.203-2.685-1.192-2.006-2.77 1.345-5.615 1.8-8.662 2.014-.236.016-.462.044-.693.067 1.247-1.17 2.683-2.33 2.276-4.19-.174-.801-1.166-.902-1.713-.446-2.094 1.74-4.376 2.645-5.904 5.066-.55.87-1.004 1.925-1.26 3.017-1.315 2.935-1.807 6.938-1.629 8.773.26 2.682 10.962 8.89 21.157 1.04.851-.655.313-2.108-.75-1.75-1.797.6-3.591 1.205-5.389 1.804-1.52.506-4.11-.223-4.241-.268.012-.32.021-.652.024-1.004 2.27.424 4.657-.284 6.808-1.038 2.573-.9 5.416-1.41 7.88-2.523.718-.322.546-1.289 0-1.654"/>
        <path fill="orange" d="M215.85 230c-.899 0-1.162-1.375-.413-1.923 1.644-1.204 3.356-2.049 5.275-2.754 1.576-.58 3.459-1.323 5.204-1.323.223 0 .444.013.662.038 1.197.145 2.123 1.916.705 2.551-1.696.761-3.641.851-5.44 1.366-1.9.544-3.76 1.278-5.61 1.97-.138.052-.266.075-.383.075M237.516 201c-.306 0-.6-.16-.775-.543-4.811-10.546-5.95-24.083-5.712-35.62.208-10.103.947-22.431 7.368-30.542.165-.208.374-.295.587-.295.65 0 1.33.807.86 1.462-5.87 8.193-6.295 21.32-6.34 31.16-.054 11.57 2.773 21.88 5.1 33.014.156.747-.486 1.364-1.088 1.364M241.04 252c-5.136 0-10.266-1.13-15.221-2.402-3.87-.993-9.141-1.52-11.733-4.943-.246-.324.082-.655.41-.655.102 0 .206.033.291.111 3.122 2.826 10.106 3.424 14.09 4.272 5.072 1.08 10.137 1.485 15.302 1.755 1.111.057 1.078 1.608 0 1.713-1.047.102-2.092.149-3.138.149"/>
    </g>
</svg>
