<svg xmlns="http://www.w3.org/2000/svg" xmlns:xlink="http://www.w3.org/1999/xlink" viewBox="0 0 361 306">
    <defs>
        <rect id="prefix__a" width="361" height="306" x="0" y="0" rx="4"/>
    </defs>
    <g fill="none" fill-rule="evenodd">
        <mask id="prefix__b" fill="#fff">
            <use xlink:href="#prefix__a"/>
        </mask>
        <g mask="url(#prefix__b)">
            <path fill="#A2B2FF" d="M181 223.53c-18.563 2.174-39.93 6.235-55.988-5.598-8.255-6.081-7.71-11.514 2.709-12.658-6.613-3.978-14.347-6.963-21.765-9.268-13.476-4.191-20.057-13.715-.982-14.12-3.398-6.863-10.331-12.646-14.037-20.358-3.855-8.02-5.299-14.577-4.862-23.369 17.509-2.614 25.459 27.675 33.769 38.442-.842-16.238 10.842-31.407 16.643-9.247 2.957 11.294 3.226 24.188 8.297 34.45.29-7.205.855-25.647 11.48-24.097 4.686.683 5.732 5.277 6.97 9.465 3.328 11.28 4.817 26.13 14.775 33.235L181 223.53"/>
            <path fill="#FFCF0A" d="M151.956 142.611c-10.615 17.3-13.852 36.976-17.732 56.521-1.864 9.344-4.85 19.496-13.501 24.817-8.81 5.43-20.609 4.013-30.442 3.145-.581-.05-.7.888-.14 1.008 4.651.978 9.622 1.817 14.534 2.007-.09.438.01.898.38 1.207 7.439 6.2-3.56 12.698-4.382 21.781l-.008.117c8.575 1.8 17.327 2.147 25.908.104 10.202-2.43 18.304-7.267 27.802-2.024l30.378-133.667c-13.839 4.927-25.898 13.734-32.797 24.984"/>
            <path fill="#FFD68C" d="M242.618 245.072c3.615-4.789 4.063-12.01 6.754-17.536 3.68-7.56 9.305-15.091 15.188-20.772 10.012-9.672 12.856 2.117 10.495 12.525 3.762-10.067 20.242-26.9 29.646-31.081 12.74-5.662 5.452 10.05 1.969 16.714 7.236-10.824 32.143-13.732 41.33-4.55-12.056 5.016-19.953 12.493-26.691 23.992-6.816 11.632-13.108 14.06-25.753 12.848 1.35 10.707-18.444 19.556-25.924 22.83-8.437 3.693-45.756 7.827-46.632 16.958l19.618-31.928"/>
            <path fill="#FFF" d="M103 95c0 4.418-3.357 8-7.5 8S88 99.418 88 95s3.357-8 7.5-8 7.5 3.582 7.5 8"/>
            <path fill="#A2B2FF" d="M136 40c0 2.761-2.015 5-4.5 5s-4.5-2.239-4.5-5 2.015-5 4.5-5 4.5 2.239 4.5 5" opacity=".965"/>
            <path fill="#FFCF0A" d="M131.862 104.689c4.313-5.05 6.852 1.738 6.852 1.738s-.945-7.22 5.172-5.005c6.118 2.217-2.99 13.55-2.99 13.55l-.102.028s-13.24-5.263-8.932-10.311"/>
            <path fill="#FFD68C" d="M305.5 56C299.7 56 295 51.523 295 46s4.701-10 10.5-10c5.798 0 10.5 4.477 10.5 10s-4.702 10-10.5 10"/>
            <path fill="#3E3874" d="M280.637 72.832c-17.447-7.793-22.75-24.983-29.108-41.365-5.326-13.718-14.323-24.28-28.545-29.076-13.089-4.398-27.542-2.697-39.13 4.844-12.877 8.368-21.556 22.785-22.826 38.1-1.367 16.466 5.663 35.533 19.368 45.36.272.198.636.156.901-.002 8.867 12.87 18.928 24.776 30.054 35.767 10.097 9.963 21.153 20.104 33.14 28.02-.211.822.029 1.744.977 2.188 28.072 13.36 66.66 19.725 95.83 3.401 18.28-10.23 22.547-32.44 18.053-45.762-16.871-50-65.18-35.434-78.714-41.475"/>
            <path fill="#31306E" d="M339.595 140.435c6.917-13.526 2.614-28.737-9.14-38.206-11.452-9.224-26.824-11.589-41.314-11.589-.87 0-1.738.009-2.599.025h-.009c-.456 0-.475-.663-.018-.702 3.06-.255 6.156-.402 9.25-.402 14.342 0 28.676 3.147 39.407 13.198 10.518 9.852 15.101 26.561 5.957 38.714-.177.234-.402.332-.63.332-.614 0-1.239-.717-.904-1.37z"/>
            <path fill="#FFCF0A" d="M291.793 226.054c.05 37.884-26.614 70.243-61.139 77.958-19.523 4.36-36.985.71-54.916-2.942-17.697-3.605-35.854-7.208-56.904-3.11-.919.183-7.862 2.049-10.848.243-.83-.494-1.35-1.271-1.37-2.441-.01-.595 4.92-3.557 5.2-4.375 2.036-5.83 4.66-3.727.646-14.003.119 0 .238-.01.369-.02.87-.05 1.958-.202 3.217-.434 12.097-2.219 40.23-11.983 52.927-16.34 5.085-1.755-9.82-6.98-13.717-9.16l2.688-19.738c.829-6.082.94-12.245.31-18.348l-1.52-14.867c-.698-6.82.311-13.698 2.938-20.012l5.276-26.589c1.367-6.919 3.865-13.495 7.342-19.496 3.486-6.002 7.942-11.419 13.246-16.008 17.913-6.465 38.812-6.314 55.336 3.63 50.43 30.341 50.9 87.814 50.919 106.052"/>
            <path fill="#38193A" d="M117.84 281.744c0 4.122-25.124 7.463-56.115 7.463-30.99 0-56.114-3.341-56.114-7.463s25.124-7.464 56.114-7.464c30.991 0 56.114 3.342 56.114 7.464"/>
            <path fill="#845B57" d="M115.914 257.873c-.01.26-.03.53-.05.79-.238 3.286-.946 6.52-2.291 9.651-.595 1.42-1.334 2.82-2.217 4.188-.163.259-.338.518-.513.778-3.716 5.431-9.093 8.687-15.55 9.61-9.74 1.389-20.118.352-29.93.29-10.398-.073-20.796-.145-31.193-.207-1.374-.01-2.89.053-4.479.117-6.56.262-14.381.524-18.637-4.399-.4-.466-.76-.954-1.067-1.472-.615-.974-1.078-2.042-1.437-3.172-1.376-4.355-1.108-9.538-.893-13.882.01-.135.01-.26.02-.394.01-.29.02-.57.031-.84.032-.653.062-1.286.103-1.939l.02-.29c.534-8.636 2.075-17.168 4.424-25.493-.523-.28-.215-1.13.308-1.087l.103-.354c.687-2.332 4.29-1.337 3.603.995l-.186.674c14.33 5.298 29.223 8.367 44.537 8.71 8.571.196 17.152-.51 25.57-2.178 6.804-1.348 16.503-3.038 18.649-10.875.534-1.94 2.905-1.587 3.562 0 3.324 8.014 6.743 16.971 7.43 25.793.02.249.042.507.052.757.103 1.42.113 2.83.03 4.23"/>
            <path fill="#EFBE9A" fill-rule="nonzero" d="M113.903 281.935c-3.916-.561-7.517.217-11.058.997-5.033 1.106-9.946 2.211-15.477-.524-1.05-.519-2.408.34-2.074 1.277 1.24 3.461 6.269 4.353 10.313 4.661.117.01.228.006.344.012-3.727.358-7.432.156-10.527-.961-4.059-1.468-6.959-3.753-11.394-1.728-.43.198-.38.664 0 .868.33.178.659.359.985.54-2.842-.57-5.667-.96-8.38-.748-1.074.083-1.527.972-.847 1.637 5.785 5.652 21.01 7.058 29.687 6.813 6.362-.18 14.064-.624 19.342-6.96.105-.126 3.054-5.315-.914-5.884"/>
            <path fill="#67424C" d="M44.806 278.012c-1.657.002-2.43-.956-4.206-1.829-1.016-.504-1.96-.69-2.87-.69-2.357 0-4.491 1.246-7.06 1.429-.229.016-.454.025-.674.025-2.255 0-4.15-.84-6.247-1.835-1.5-.715-2.651-1.102-3.822-1.102-1.065 0-2.148.32-3.529 1.003-.962.475-1.73 1.258-2.773 1.666-1.151.453-2.307.67-3.427.67-.433 0-.862-.032-1.283-.096-.614-1.037-1.075-2.173-1.433-3.375.268.027.534.04.8.04 2.087 0 4.113-.834 6.284-2.303 1.722-1.157 3.084-2.105 5.062-2.105.21 0 .426.01.65.033 2.078.197 3.91 1.39 5.815 2.206 1.198.514 2.272.709 3.301.709 2.04 0 3.91-.766 6.25-1.339.98-.245 1.958-.438 2.93-.438.818 0 1.63.136 2.434.494.737.32 1.362 1.146 2.038 1.423.555.222 1.072.313 1.567.313 1.512 0 2.817-.857 4.36-1.439 2.135-.808 3.929-1.466 6.113-1.466.317 0 .645.014.981.044 2.645.24 4.09.94 6.096.94.952 0 2.031-.158 3.425-.598 1.558-.49 2.68-1.102 4.191-1.102.296 0 .606.024.937.075 3.056.492 4.872 1.899 7.374 1.899.919 0 1.93-.19 3.13-.684 1.533-.631 2.825-1.104 4.323-1.104.364 0 .74.027 1.134.088 1.793.277 3.991 1.93 5.973 1.93.542 0 1.065-.123 1.56-.43 1.598-.982 2.079-3.331 4.045-4.037.418-.147.802-.21 1.166-.21 1.005 0 1.86.472 2.868.949 1.056.489 2.017 1.327 3.276 1.327.047 0 .095-.001.142-.003 1.423-.078 2.795-1.269 4.32-1.357.252-.014.497-.02.739-.02.506 0 .992.027 1.462.065-.593 1.51-1.33 3-2.21 4.456l-.349.033c-2.414.304-3.595 1.289-5.496 1.289-.517 0-1.088-.074-1.752-.252-1.196-.319-1.325-1.438-2.392-1.438-.34 0-.772.113-1.365.4-.696.343-1.678 2.196-2.395 2.736-1.058.778-2.14 1.089-3.308 1.089-.504 0-1.024-.059-1.565-.162-1.516-.298-2.806-1.27-4.289-1.633-.531-.13-1.01-.188-1.456-.188-1.466 0-2.6.616-4.216 1.258-1.398.556-2.588.85-3.83.851-.878 0-1.782-.147-2.804-.453-2.02-.601-3.1-1.475-5.094-1.475-.239 0-.492.012-.761.041-1.781.176-2.958 1.036-4.617 1.477-.61.16-1.176.226-1.716.226-1.887 0-3.456-.808-5.501-1.263-.615-.135-1.19-.195-1.734-.195-3.438 0-5.672 2.393-9.128 3.24-.557.137-1.03.197-1.444.197M41.41 263.085c-1.599 0-2.718-.621-4.566-1.08-.95-.233-1.829-.318-2.664-.318-1.108 0-2.142.148-3.17.297-1.03.148-2.056.296-3.147.296-.56 0-1.138-.04-1.742-.138-3.094-.506-3.908-2.027-6.595-2.027-.633 0-1.37.084-2.267.287-1.82.418-2.993 1.252-4.833 1.252-.259 0-.532-.015-.821-.052-1.461-.181-2.807-.723-4.123-1.169.01-.137.01-.265.02-.402l.03-.86c.032-.67.063-1.318.104-1.986 1.152.266 2.324.53 3.434.585.094.003.188.005.28.005 1.553 0 2.903-.552 4.23-1.106 1.327-.553 2.634-1.106 4.099-1.106.155 0 .311.006.468.019 2.725.212 4.658 2.749 7.445 2.824l.16.002c1.168 0 2.266-.288 3.36-.577 1.095-.288 2.19-.576 3.355-.576.357 0 .72.027 1.092.09 1.512.244 2.755 1.305 4.224 1.57.326.06.64.086.947.086 2.062 0 3.768-1.178 5.81-1.381.276-.028.547-.04.815-.04.838 0 1.646.124 2.494.284.72.134 1.358.193 1.961.193 1.61 0 2.971-.425 4.969-1.02 1.424-.419 2.304-.727 3.373-.727.56 0 1.173.084 1.942.28 1.814.475 3.049 1.038 4.686 1.038.488 0 1.01-.05 1.595-.167 1.358-.276 2.674-.945 3.98-1.38 1.779-.607 3.56-1.168 5.423-1.168.321 0 .645.017.971.054 2.797.3 4.502 1.753 6.872 1.753.73 0 1.524-.137 2.432-.49 2.016-.775 3.649-2.124 5.86-2.368.254-.029.494-.042.722-.042 1.98 0 3.047 1.002 4.974 1.699.569.206 1.08.287 1.56.287.873 0 1.634-.271 2.419-.543.783-.273 1.593-.544 2.562-.544.195 0 .396.01.604.035 1.349.154 1.885.564 3.24.564l.153-.001c1.984-.043 3.865-.925 5.737-1.56.057.818.086 1.632.085 2.443 0 .632-.02 1.26-.055 1.887-.01.266-.03.542-.05.808-2.087.73-4.19 1.487-6.392 1.487-.26 0-.522-.01-.785-.034-.978-.072-1.932-.52-2.929-.52-.167 0-.335.014-.505.043-.987.17-1.881 1.094-2.96 1.252-.274.04-.528.06-.768.06-1.687 0-2.66-.906-4.281-1.631-.855-.38-1.673-.535-2.467-.535-1.708 0-3.306.717-4.922 1.433-1.617.717-3.251 1.433-5.036 1.433-.664 0-1.349-.099-2.061-.335-1.399-.467-2.529-1.75-3.958-2.102-.333-.084-.682-.12-1.039-.12-1.427 0-2.99.583-4.224.99-2.17.701-4.278 1.626-6.57 1.784-.17.013-.338.019-.505.019-1.157 0-2.202-.282-3.239-.564-1.035-.28-2.06-.563-3.177-.563-.075 0-.149.001-.224.004-2.482.081-4.254 1.7-6.796 1.7-.121 0-.244-.004-.37-.012-1.121-.063-2.108-.52-3.187-.669-.575-.073-1.077-.106-1.529-.106-1.95 0-2.987.598-5.082 1.02-.534.11-1.01.156-1.448.156"/>
            <path fill="#FFAF56" d="M115.79 229.531c-1.286-3.962-2.684-8.839-7.155-10.035-2.297-.613-4.665.167-6.859.77-4.552 1.248-8.523 1.03-13.085 0-7.604-1.716-14.565-2.36-22.363-1.716-13.289 1.092-27.578 1.976-40.418 6.292-8.87-1.051-18.934-.364-23.456 8.756-2.592 5.231-5.062 21.33 3.389 22.806 3.255.562 5.113-1.716 5.89-4.606.234-.864.214-3.37.52-3.952 2.276-4.275 3.603-1.072 4.665.249 1.367 1.706 2.612 2.964 4.786 3.464 4.522 1.008 8.309-2.268 12.36-3.599 7.012-2.33 14.902.925 18.566 7.435 1.623 2.882 1.828 7.602 5.186 9.1 3 1.341 5.43-.406 5.46-3.536.01-1.404-.55-2.808-.562-4.336-.01-4.212 2.685-5.813 6.778-6.146 3.287-.26 6.461 1.07 9.635 1.684 6.114 1.166 9.656-.665 14.892-3.462 4.532-2.435 7.042-2.964 11.524.239 1.408 1.008 2.256 2.319 4.113 2.589 3.787.55 6.43-3.068 7.451-6.323 1.603-5.168.306-10.69-1.316-15.673"/>
            <path fill="#EFAC7B" d="M213.233 95.159s-2.6 13.862 0 22.11c0 0-11.401 11.045-22.445 2.853 0 0 6.188-11.314 3.205-17.942-2.982-6.628 19.24-7.021 19.24-7.021"/>
            <path fill="#EFBE9A" fill-rule="nonzero" d="M182.128 34.255c10.53-11.65 32.27-14.777 42.023-.364.396.587.276 1.236-.084 1.726 5.947 7.064 8.603 17.004 7.698 26.245-.85 8.676-4.15 16.924-8.436 24.465-4.086 7.2-9.044 15.393-16.597 19.436-17.63 9.445-27.298-10.445-31.565-24.07-4.973-15.86-4.785-34.426 6.96-47.438"/>
            <path fill="#DB898B" d="M190.909 81.692c.939-2.11 3-3.757 4.055-5.886 1.143-2.31 1.919-4.753 2.08-7.28.11-1.714 2.83-1.862 3-.101.289 2.989-.052 5.954-1.323 8.742-1.143 2.504-2.942 5.548-5.803 6.675-1.487.585-2.49-1.072-2.01-2.15"/>
            <path fill="#38193A" d="M207.75 64.575c1.313-.888 3.059-1.333 4.687-1.052 3.265.562 5.295 3.808 4.27 6.63-.445 1.225-2.477.86-2.2-.45.336-1.587-.953-3.522-2.903-3.492-2.038.032-2.486 1.797-3.816 2.767-.688.502-1.531-.016-1.826-.59-.73-1.422.574-2.993 1.787-3.813M186.434 61.582c3.638.203 6.433 3.273 6.212 6.52-.08 1.17-2.023 1.294-2.052.07-.05-2.198-2.04-4.373-4.642-4.043-2.285.29-3.114 2.18-4.335 3.674-.507.62-1.687.322-1.899-.376-1.034-3.41 3.385-6.03 6.716-5.845"/>
            <path fill="#3E3874" d="M177.951 53.247c1.879-3.33 4.414-5.648 7.839-7.134 2.98-1.293 7.305-2.283 9.935.192 1.259 1.185.609 3.005-.757 3.645-2.187 1.022-4.874.397-7.212 1.06-2.598.737-4.974 2.39-6.838 4.398-1.387 1.495-4.062-.221-2.967-2.16"/>
            <path fill="#EFBE9A" fill-rule="nonzero" d="M164.601 71.474c-.011-2.335 1.44-4.128 3.48-4.29 1.97-.158 3.655 1.142 4.829 2.904 1.09.915 1.825 2.41 1.675 3.904 1.2.56 1.808 2.51.518 3.44-1.362.98-3.187 1.231-4.73.55-.896-.117-1.78-.391-2.632-.902-1.793-1.078-3.13-3.342-3.14-5.606"/>
            <path fill="#3E3874" d="M215.073 50.485c-2.744-1.493-8.569-3.508-10.783-.127-.628.958-.58 2.376.474 2.969 1.269.712 2.276.459 3.65.339 1.594-.14 3.154.057 4.678.61 3.094 1.123 5.686 3.53 7.289 6.693.663 1.31 2.594.287 2.135-1.135-1.336-4.131-3.917-7.43-7.443-9.349"/>
            <path fill="#FFF" d="M192.658 94.72s12.173-2.154 16.531-10.757c0 0 1.843 10.259-3.562 13.863-5.404 3.605-12.969-3.107-12.969-3.107"/>
            <path fill="#3E3874" d="M171.024 36.283c-.147-4.095 3.414-7.155 6.652-9.03 5.642-3.263 12.49-5.336 18.954-6.147l.198-.02c-2.65 1.32-5.065 3.882-6.35 6.646l-.14.086c-4.582-1.234-11.342 3.814-11.912 8.103-.038.285-.043.562-.032.831-1.91 1.369-3.462 2.911-3.987 4.494-1.891-.91-3.296-2.527-3.383-4.963m39.634-14.764c1.163.614 2.292 1.267 3.385 1.961-.58-.033-1.16-.05-1.745-.05-.77-.888-2.235-1.262-3.304-.582l-.006.005c-.467-.72-1.269-1.247-2.099-1.114-.722.116-1.446.244-2.158.396-.295-.378-.669-.735-1.161-1.056-.19-.125-.384-.234-.58-.33 2.575.026 5.145.266 7.668.77m-1.738-6.612c-.7.346-1.067.851-1.193 1.399-3.17-.348-6.378-.372-9.563-.066-10.54 1.016-28.876 5.36-31.45 17.57-1.04 4.93 1.321 9.608 5.969 11.692 5.927 2.656 12.495.153 18.102-2.086 9.51-3.798 20.366-8.87 30.082-7.616 9.823 2.757 6.889 5.06 10.884 6.923.755.352 1.468.351 2.063.123.282.319.565.637.842.98.598.745 1.88.258 1.583-.74-.223-.752-.525-1.451-.863-2.123.13-.603.07-1.27-.259-1.909-.37-.721-.761-1.428-1.163-2.125 1.802.59 4.298-1.06 3.41-3.173-4.694-11.173-14.113-25.92-28.444-18.849"/>
            <path fill="#31306E" d="M261.965 72.617c-11.433-6.4-15.935-20.812-20.573-32.133-3.86-9.42-9.674-19.628-18.394-24.545-2.538-1.746-5.373-2.814-8.506-2.814-.902-.108-1.83-.163-2.78-.163-1.17 0-2.378.085-3.622.261-.024.004-.047.006-.07.006-.483 0-.544-.761-.089-.921 2.175-.765 4.323-1.113 6.421-1.113 10.16 0 19.148 8.16 24.2 16.736 4.003 6.794 6.507 14.31 9.628 21.515 3.698 8.542 8.127 15.083 15.16 21.196.88.765.151 2.126-.822 2.126-.178 0-.366-.046-.553-.15z"/>
            <path fill="#6E304F" d="M222.585 14.927c-2.265-.962-4.75-1.619-7.481-1.866 2.756 0 5.25.708 7.481 1.866"/>
            <path fill="#EFBE9A" fill-rule="nonzero" d="M228.713 71.926c-.039.212.154.499.35.48.33-.03.636-.12.935-.231-.08.431-.133.878-.128 1.352.001.151.025.299.054.447-1.093-.506-2.171-.76-3.205-.22-.266.139-.44.62-.38.974.649 3.856 6.012 5.483 8.726 5.504 2.983.021 5.84-2.279 6.183-5.853.84-8.716-11.246-9.52-12.535-2.453"/>
            <path fill="#BCAAB8" d="M52.728 203.378L53.889 203.378 53.889 195.915 52.728 195.915zM69.562 203.378L70.723 203.378 70.723 195.915 69.562 195.915z"/>
            <path fill="orange" d="M233.77 166.061c-.424 0-.849-.224-1.024-.735-2.673-7.802-3.986-16.465-.862-24.338 2.112-5.321 6.391-10.914 12.414-12.227.055-.012.105-.017.154-.017.567 0 .809.73.303 1.064-5.477 3.63-9.562 7.447-11.279 13.898-1.861 6.996-.417 14.214 1.36 21.062.207.792-.428 1.293-1.065 1.293"/>
            <path fill="#5A2B44" d="M156.352 197.78c-1.525-4.04-1.468-8.73.165-13.537.798-2.35 1.63-4.674 2.473-6.987l-.257 1.567c-2.052 5.984-2.868 12.492-2.38 18.957"/>
            <path fill="orange" d="M218.077 214.573c-2.76 0-5.645-1.156-8.158-2.154-5.603-2.224-10.816-3.466-16.8-3.466-.405 0-.815.006-1.229.017-4.283.12-8.812.56-13.287.56-6.003 0-11.908-.793-16.991-4.22-2.898-1.952-4.961-4.332-6.193-6.99-.605-6.53.408-13.103 2.955-19.147l.318-1.583c3.852-8.597 7.895-17.037 10.816-26.101.079-.247.279-.355.479-.355.3 0 .602.245.501.625-2.447 9.257-5.506 18.313-9.568 26.996-2.177 4.653-5.337 9.559-4.572 14.898.736 5.144 4.857 9.045 9.455 11.067 3.935 1.73 8.087 2.209 12.311 2.209 2.62 0 5.267-.184 7.907-.368 2.638-.185 5.27-.369 7.86-.369.809 0 1.615.018 2.416.06 4.199.218 8.115 1.114 12.017 2.67 4.72 1.884 8.389 2.778 13.465 3.016.811.037 1.118 1.085.414 1.522-1.292.802-2.688 1.113-4.116 1.113"/>
            <path fill="#38193A" d="M166.688 260.722c.476-.296.954-.587 1.437-.871-.223.325-.668.61-1.375.85-.02.008-.04.014-.062.021"/>
            <path fill="orange" d="M166.829 261.22c-.366 0-.496-.53-.175-.74.45-.297.908-.584 1.369-.861l.042-.014c.483-.157.787-.343.939-.554 10.463-5.852 23.379-6.723 35.275-6.725h.031c3.774 0 7.546.115 11.315.269 1.493.06 4.357.564 6.839.564 1.665 0 3.16-.228 3.956-.966.973-.904 1.292-4.356 1.64-5.527l1.64-5.528c1.102-3.717 2.418-7.293 3.838-10.909.2-.505.625-.729 1.045-.729.622 0 1.231.491 1.07 1.284-.905 4.416-1.986 8.718-3.27 13.045-.831 2.804-1.405 8.373-3.39 10.71-1.304 1.536-3.558 1.983-6.023 1.983-3.215 0-6.792-.762-9.089-.87-2.92-.14-5.806-.214-8.666-.214-13.068 0-25.573 1.564-38.245 5.757-.05.017-.097.025-.141.025"/>
            <path fill="#EFBE9A" fill-rule="nonzero" d="M106.617 294.805c.319-.638.634-1.338.945-2.087 1.252-.526 2.463-1.2 3.604-2.067-.069.18-.136.367-.203.563-.206.62-3.044 2.49-4.346 3.59m5.71-17.478l.184-.738c.857-.052 1.93-.205 3.172-.442l.286.594c-.324.067-.638.129-.941.187-1.029.195-1.938.331-2.701.4"/>
            <path fill="orange" d="M108.017 298.537c-.849-.536-1.38-1.376-1.4-2.642.08-.16.162-.321.243-.488 1.351-1.174 4.295-3.167 4.51-3.829.069-.209.138-.409.209-.6.96-.749 1.871-1.632 2.72-2.674.082-.101 1.953-3.462.69-5.083 1.785-.79 2.75-1.635 2.75-2.511 0-1.206-1.823-2.35-5.093-3.376l.138-.562c.791-.073 1.735-.218 2.801-.426.315-.062.64-.128.977-.2l6.889 14.662s-9.905 5.392-15.434 7.729"/>
            <path fill="#F79976" d="M108.487 292.939c1.282-3.275 2.489-7.38 3.492-11.195.656.023 1.321.083 1.996.185.759.115 1.255.416 1.563.826 1.246 1.657-.6 5.093-.68 5.197-.838 1.065-1.737 1.969-2.684 2.734-1.167.944-2.406 1.68-3.687 2.253"/>
            <path fill="#843957" d="M57.536 203.38c-.855-1.742-2.647-2.127-4.372-1.719-3 .712-5.931 1.159-8.947 1.745-1.777.346-1.402 2.796 0 3.33 1.754.668 3.609.7 5.471.596.57-.032 2.087-.3 3.149-.496-.24 1.927-1.178 4.227-1.395 5.848-.388 2.899-.43 5.766-.174 8.682.296 3.373 5.47 3.39 5.153 0-.328-3.506-.26-6.979.467-10.432.483-2.287 1.774-5.26.648-7.554M70.828 216.806c-3.31.022-4.363-4.899-4.345-7.316.005-.688.03-1.414.143-2.117.528-.166 1.01-.49 1.332-.99 2.422-3.78 5.312 1.56 5.532 4.01.149 1.667-.406 6.398-2.662 6.413zm6.144-12.156c-1.45-2.584-4.057-4.852-7.055-4.996-1.864-.09-3.575.59-4.76 1.808-2.151 1.523-2.994 4.45-3.29 7.044-.409 3.588-.036 7.22 2.48 9.943 2.104 2.276 5.593 4.488 8.696 3.214 6.002-2.462 6.765-11.962 3.93-17.013z"/>
            <path fill="#F27E65" d="M52.417 192.57c-.118-.243-.426-.427-.73-.455-.035-.503-.138-1.003-.298-1.505-.14-.44-1.039-.37-.965.112.21 1.362-.15 2.442-.831 3.66-.421.753-.869 1.45-.949 2.3-.129 1.363.789 2.718 2.465 2.939 1.5.196 2.683-.766 3.024-1.957.525-1.835-.949-3.496-1.716-5.093M71.121 190.705c-.117-.244-.425-.428-.73-.455-.035-.504-.137-1.003-.297-1.506-.14-.44-1.04-.37-.965.112.21 1.362-.151 2.442-.832 3.66-.42.753-.868 1.45-.948 2.3-.13 1.363.788 2.718 2.465 2.939 1.5.196 2.683-.766 3.024-1.957.524-1.834-.949-3.496-1.717-5.093M50.46 234.214c-.21-.581-.622-.931-1.22-.98-.7-.058-.848 1.121-.165 1.282.106.025.05-.018.07.078.191.904 1.622.476 1.314-.38M64.946 227.874c-.49-.172-.851-.316-1.392-.195-.417.094-.828.237-1.236.355-.892.254-.744 1.415.222 1.437.46.01.932.045 1.39.02.565-.032.902-.32 1.321-.612.451-.314.117-.857-.305-1.005M72.822 235.455c-.197-.246-.7-.439-1.086-.323-.517.155-1.033.396-1.6.423-1.235.057-1.241 1.351 0 1.403.907.038 1.935-.124 2.536-.652.276-.244.38-.564.15-.85M82.165 225.6c-.111-.445-.34-.874-.51-1.287-.348-.847-1.396-.26-1.201.641.09.42.154.872.288 1.272.133.396.39.74.593 1.082.139.238.344.386.584.303.203-.072.403-.35.38-.633-.037-.443-.028-.954-.134-1.379M89.264 235.223c-.8-.24-1.4-.088-2.206.057l-2.112.378c-1.36.243-.779 1.442.577 1.293l2.038-.225c.7-.078 1.452-.078 1.921-.45.394-.31.475-.844-.218-1.053M96.235 225.81c-.576.23-.92.658-1.334 1.101l-1.149 1.228c-.706.755.378 1.837 1.135 1.133l1.23-1.146c.444-.413.874-.757 1.105-1.33.217-.542-.445-1.202-.987-.985M104.224 229.623l-.75-.118c-.797-.124-.798 1.98 0 1.856.25-.04.5-.08.75-.118.696-.11.697-1.512 0-1.62"/>
        </g>
    </g>
</svg>
