<svg xmlns="http://www.w3.org/2000/svg" xmlns:xlink="http://www.w3.org/1999/xlink"  viewBox="0 0 147 164">
    <defs>
        <rect id="prefix__a" width="147" height="164" x="0" y="0" rx="4"/>
    </defs>
    <g fill="none" fill-rule="evenodd">
        <mask id="prefix__b" fill="#fff">
            <use xlink:href="#prefix__a"/>
        </mask>
        <g mask="url(#prefix__b)">
            <g>
                <path fill="#FFCF0A" d="M81.24 76.432c-5.676 9.272-7.406 19.817-9.48 30.292-.997 5.008-2.594 10.45-7.218 13.3-4.71 2.911-11.018 2.152-16.275 1.687-.311-.028-.375.475-.075.54 2.487.524 5.144.973 7.77 1.075-.048.235.006.482.203.647 3.977 3.323-1.904 6.806-2.343 11.674l-.004.062c4.585.965 9.264 1.151 13.851.056 5.454-1.302 9.786-3.895 14.864-1.085l16.24-71.638c-7.398 2.64-13.845 7.36-17.533 13.39" transform="translate(-15)"/>
                <path fill="#3E3874" d="M150.036 39.034c-9.328-4.177-12.162-13.39-15.562-22.17-2.848-7.352-7.658-13.012-15.261-15.582-6.998-2.358-14.725-1.446-20.92 2.595C91.41 8.363 86.77 16.09 86.09 24.297c-.731 8.825 3.027 19.044 10.355 24.311.145.106.34.083.481-.001 4.74 6.898 10.12 13.279 16.068 19.169 5.398 5.34 11.308 10.775 17.718 15.017-.114.44.015.935.522 1.173 15.008 7.16 35.638 10.571 51.233 1.823 9.773-5.483 12.054-17.387 9.651-24.527-9.02-26.797-34.846-18.99-42.082-22.228" transform="translate(-15)"/>
                <path fill="#31306E" d="M181.556 75.266c3.698-7.25 1.398-15.402-4.886-20.477-6.123-4.943-14.34-6.21-22.088-6.21-.465 0-.929.004-1.39.013h-.004c-.244 0-.254-.356-.01-.376 1.637-.137 3.291-.216 4.946-.216 7.667 0 15.33 1.686 21.068 7.073 5.623 5.28 8.073 14.236 3.184 20.749-.094.126-.215.178-.336.178-.329 0-.663-.384-.484-.734z" transform="translate(-15)"/>
                <path fill="#FFCF0A" d="M156 121.153c.027 20.304-14.228 37.647-32.686 41.782-10.438 2.337-19.774.38-29.36-1.577-9.461-1.932-19.168-3.863-30.422-1.667-.491.098-4.203 1.098-5.8.13-.443-.265-.721-.681-.732-1.308-.005-.32 2.63-1.906 2.78-2.345 1.088-3.124 2.491-1.997.345-7.505.064 0 .127-.005.197-.01.465-.028 1.047-.109 1.72-.233 6.468-1.19 21.508-6.422 28.296-8.757 2.72-.94-5.25-3.741-7.333-4.91l1.437-10.578c.443-3.26.502-6.563.165-9.834l-.812-7.968c-.373-3.655.166-7.341 1.57-10.725l2.821-14.25c.732-3.708 2.067-7.233 3.926-10.45 1.864-3.216 4.246-6.119 7.081-8.579 9.577-3.465 20.75-3.384 29.585 1.946 26.96 16.261 27.212 47.064 27.222 56.838" transform="translate(-15)"/>
                <path fill="#38193A" d="M63 151c0 2.209-13.432 4-30 4-16.568 0-30-1.791-30-4s13.432-4 30-4c16.568 0 30 1.791 30 4" transform="translate(-15)"/>
                <path fill="#845B57" d="M61.97 138.207c-.005.139-.016.283-.027.422-.126 1.762-.505 3.495-1.224 5.173-.318.76-.713 1.511-1.185 2.245-.087.139-.18.277-.274.417-1.987 2.91-4.862 4.656-8.314 5.15-5.207.745-10.756.189-16.001.156-5.56-.04-11.119-.078-16.677-.111-.734-.006-1.545.028-2.394.063-3.508.14-7.689.28-9.964-2.358-.214-.25-.406-.512-.57-.789-.33-.522-.577-1.095-.769-1.7-.736-2.334-.592-5.112-.477-7.44.005-.072.005-.139.01-.211l.017-.45c.017-.35.033-.69.055-1.04l.01-.155c.286-4.628 1.11-9.201 2.366-13.663-.28-.15-.115-.606.165-.583l.055-.19c.367-1.25 2.293-.716 1.926.534l-.1.361c7.661 2.84 15.624 4.485 23.811 4.668 4.582.105 9.17-.273 13.67-1.167 3.638-.722 8.823-1.628 9.97-5.829.286-1.039 1.554-.85 1.905 0 1.777 4.295 3.605 9.096 3.973 13.824.01.134.022.272.027.406.055.761.06 1.517.017 2.267" transform="translate(-15)"/>
                <path fill="#EFBE9A" fill-rule="nonzero" d="M60.896 151.103c-2.094-.301-4.02.116-5.913.534-2.69.592-5.317 1.185-8.274-.281-.56-.278-1.287.183-1.109.684.663 1.855 3.352 2.333 5.514 2.498.063.005.122.003.184.007-1.993.192-3.973.084-5.628-.515-2.17-.787-3.72-2.011-6.091-.927-.231.107-.203.356 0 .466.176.095.351.192.526.289-1.52-.306-3.03-.514-4.48-.4-.574.044-.817.52-.453.877 3.093 3.029 11.233 3.782 15.871 3.65 3.402-.096 7.52-.333 10.341-3.73.056-.067 1.633-2.848-.488-3.152" transform="translate(-15)"/>
                <path fill="#67424C" d="M23.955 149c-.886 0-1.3-.513-2.25-.98-.542-.27-1.047-.37-1.534-.37-1.26 0-2.4.668-3.774.766-.122.008-.243.013-.36.013-1.206 0-2.219-.45-3.34-.983-.802-.384-1.418-.591-2.044-.591-.569 0-1.148.172-1.886.537-.515.255-.925.675-1.483.894-.615.242-1.233.359-1.832.359-.232 0-.46-.017-.686-.052-.328-.556-.575-1.165-.766-1.809.143.015.285.022.427.022 1.117 0 2.2-.447 3.36-1.234.921-.62 1.65-1.129 2.707-1.129.112 0 .228.005.347.018 1.111.106 2.09.745 3.11 1.182.64.276 1.214.38 1.764.38 1.09 0 2.09-.41 3.341-.717.524-.132 1.047-.235 1.566-.235.438 0 .872.073 1.302.265.394.17.728.614 1.09.762.296.12.573.168.837.168.809 0 1.507-.46 2.331-.771 1.142-.433 2.1-.786 3.268-.786.17 0 .345.007.525.023 1.414.129 2.187.504 3.259.504.51 0 1.086-.084 1.831-.32.833-.262 1.433-.59 2.24-.59.159 0 .325.012.502.04 1.633.263 2.604 1.017 3.942 1.017.491 0 1.032-.101 1.673-.366.82-.339 1.51-.592 2.311-.592.195 0 .396.015.607.047.959.149 2.134 1.035 3.193 1.035.29 0 .57-.066.835-.23.854-.527 1.11-1.786 2.162-2.165.223-.078.429-.112.623-.112.537 0 .995.253 1.533.508.565.263 1.079.712 1.752.712l.076-.002c.76-.041 1.494-.68 2.31-.727.134-.007.265-.011.394-.011.27 0 .53.014.782.035-.317.81-.711 1.607-1.182 2.388l-.186.018c-1.29.163-1.922.69-2.938.69-.277 0-.582-.039-.937-.134-.64-.171-.708-.771-1.28-.771-.18 0-.412.06-.729.215-.372.183-.897 1.176-1.28 1.466-.566.417-1.144.583-1.768.583-.27 0-.548-.031-.838-.087-.81-.159-1.5-.68-2.292-.875-.284-.07-.54-.1-.779-.1-.783 0-1.39.33-2.254.674-.747.298-1.383.455-2.047.456-.47 0-.953-.079-1.5-.243-1.08-.322-1.657-.79-2.723-.79-.128 0-.263.006-.407.022-.952.094-1.581.555-2.468.791-.326.086-.629.121-.917.121-1.01 0-1.848-.433-2.942-.677-.328-.072-.635-.104-.927-.104-1.837 0-3.032 1.283-4.88 1.736-.298.074-.55.106-.771.106M22.14 141c-.856 0-1.454-.333-2.442-.58-.508-.124-.978-.17-1.425-.17-.592 0-1.144.08-1.695.16-.55.079-1.098.158-1.681.158-.3 0-.609-.02-.932-.073-1.654-.272-2.09-1.087-3.526-1.087-.339 0-.732.045-1.212.154-.973.224-1.6.671-2.584.671-.138 0-.284-.008-.439-.028-.78-.097-1.5-.387-2.204-.626.005-.074.005-.142.01-.216l.017-.461c.017-.359.033-.706.055-1.065.616.143 1.243.285 1.836.314l.15.003c.83 0 1.552-.296 2.262-.593.71-.296 1.408-.592 2.19-.592.084 0 .167.002.251.01 1.457.113 2.49 1.473 3.98 1.513l.086.001c.624 0 1.211-.154 1.796-.309.586-.155 1.171-.309 1.794-.309.19 0 .385.014.584.048.808.131 1.473.7 2.258.842.174.032.343.046.506.046 1.103 0 2.015-.631 3.106-.74.148-.015.293-.022.436-.022.448 0 .88.067 1.334.153.385.071.726.103 1.048.103.861 0 1.588-.228 2.656-.547.762-.224 1.232-.39 1.804-.39.3 0 .627.046 1.038.151.97.255 1.63.556 2.505.556.261 0 .54-.027.853-.09.726-.148 1.43-.506 2.128-.739.95-.325 1.903-.626 2.899-.626.172 0 .345.01.52.029 1.495.16 2.406.94 3.673.94.39 0 .815-.074 1.3-.263 1.078-.416 1.951-1.138 3.133-1.27.136-.015.265-.022.386-.022 1.059 0 1.63.537 2.66.91.304.111.577.155.833.155.467 0 .874-.146 1.294-.291.419-.147.851-.292 1.37-.292.104 0 .211.006.323.019.72.082 1.007.302 1.732.302h.081c1.06-.024 2.067-.496 3.067-.837.031.439.047.875.046 1.31 0 .338-.01.675-.03 1.011-.005.143-.016.29-.026.433-1.116.392-2.24.797-3.417.797-.14 0-.28-.005-.42-.018-.523-.039-1.033-.278-1.566-.278-.09 0-.18.007-.27.022-.528.091-1.006.586-1.583.671-.146.022-.282.032-.41.032-.902 0-1.423-.485-2.29-.874-.456-.204-.893-.287-1.318-.287-.913 0-1.767.385-2.631.769-.864.384-1.738.767-2.692.767-.356 0-.722-.052-1.102-.179-.748-.25-1.352-.938-2.116-1.127-.178-.045-.365-.064-.556-.064-.763 0-1.599.312-2.258.531-1.16.375-2.287.871-3.513.956-.091.007-.18.01-.27.01-.618 0-1.177-.151-1.731-.302-.554-.15-1.101-.302-1.699-.302-.04 0-.08 0-.12.002-1.326.044-2.274.911-3.633.911-.065 0-.13-.002-.198-.006-.6-.034-1.127-.278-1.703-.359-.308-.039-.576-.057-.818-.057-1.042 0-1.597.321-2.717.547-.286.059-.54.084-.774.084" transform="translate(-15)"/>
                <path fill="#FFAF56" d="M61.905 123.017c-.688-2.124-1.436-4.738-3.826-5.379-1.228-.328-2.494.09-3.667.413-2.433.67-4.556.552-6.995 0-4.066-.92-7.787-1.265-11.956-.92-7.105.586-14.744 1.06-21.61 3.372-4.741-.563-10.121-.194-12.539 4.693C-.074 128-1.394 136.628 3.124 137.42c1.74.302 2.733-.92 3.149-2.469.125-.462.114-1.806.277-2.118 1.218-2.29 1.927-.574 2.495.134.73.914 1.396 1.588 2.559 1.856 2.417.54 4.442-1.215 6.608-1.928 3.748-1.249 7.967.495 9.926 3.984.867 1.545.976 4.075 2.772 4.878 1.604.718 2.903-.218 2.92-1.895.005-.753-.295-1.506-.301-2.324-.006-2.258 1.435-3.116 3.623-3.294 1.758-.14 3.455.573 5.151.902 3.27.625 5.163-.356 7.962-1.855 2.423-1.305 3.765-1.589 6.16.128.754.54 1.207 1.242 2.2 1.387 2.024.295 3.437-1.644 3.983-3.388.857-2.77.164-5.73-.703-8.4" transform="translate(-15)"/>
                <path fill="#EFAC7B" d="M114 51s-1.39 7.43 0 11.85c0 0-6.095 5.92-12 1.529 0 0 3.308-6.064 1.714-9.616C102.12 51.211 114 51 114 51" transform="translate(-15)"/>
                <path fill="#EFBE9A" fill-rule="nonzero" d="M97.37 18.36c5.63-6.245 17.253-7.92 22.467-.196.212.314.148.662-.045.925 3.18 3.786 4.6 9.113 4.115 14.066-.454 4.65-2.218 9.07-4.51 13.112-2.184 3.859-4.835 8.25-8.873 10.416-9.425 5.062-14.594-5.598-16.875-12.9-2.659-8.5-2.559-18.45 3.721-25.424" transform="translate(-15)"/>
                <path fill="#DB898B" d="M102.065 43.783c.502-1.13 1.604-2.014 2.168-3.155.611-1.238 1.026-2.547 1.112-3.902.059-.918 1.513-.998 1.604-.054.154 1.602-.028 3.192-.708 4.686-.61 1.342-1.572 2.973-3.102 3.577-.795.313-1.33-.575-1.074-1.152" transform="translate(-15)"/>
                <path fill="#38193A" d="M111.068 34.609c.702-.476 1.636-.715 2.506-.564 1.746.301 2.831 2.041 2.283 3.553-.238.657-1.324.461-1.176-.241.18-.85-.51-1.888-1.552-1.872-1.09.018-1.33.964-2.04 1.484-.368.269-.819-.009-.976-.317-.39-.762.307-1.604.955-2.043M99.673 33.005c1.944.108 3.439 1.754 3.32 3.494-.042.627-1.08.694-1.096.038-.027-1.179-1.091-2.344-2.482-2.167-1.222.155-1.665 1.168-2.318 1.969-.27.333-.902.173-1.015-.201-.553-1.828 1.81-3.232 3.59-3.133" transform="translate(-15)"/>
                <path fill="#3E3874" d="M95.137 28.538c1.005-1.785 2.36-3.027 4.191-3.824 1.593-.693 3.905-1.223 5.312.103.673.635.325 1.61-.405 1.953-1.169.548-2.606.214-3.856.569-1.389.395-2.66 1.28-3.655 2.357-.742.8-2.172-.119-1.587-1.158" transform="translate(-15)"/>
                <path fill="#EFBE9A" fill-rule="nonzero" d="M88 38.307c-.006-1.252.77-2.213 1.86-2.3 1.054-.084 1.955.612 2.582 1.556.583.49.976 1.292.896 2.093.641.3.966 1.345.277 1.843-.729.526-1.704.66-2.53.295-.478-.062-.951-.21-1.406-.483-.959-.578-1.674-1.791-1.679-3.004" transform="translate(-15)"/>
                <path fill="#3E3874" d="M114.983 27.057c-1.466-.8-4.58-1.88-5.764-.068-.336.514-.31 1.274.253 1.591.678.382 1.217.246 1.952.182.852-.075 1.686.03 2.5.327 1.655.602 3.04 1.892 3.897 3.587.355.702 1.387.154 1.142-.608-.714-2.214-2.094-3.982-3.98-5.01" transform="translate(-15)"/>
                <path fill="#FFF" d="M103 50.765s6.508-1.154 8.838-5.765c0 0 .985 5.498-1.904 7.43-2.89 1.932-6.934-1.665-6.934-1.665" transform="translate(-15)"/>
                <path fill="#3E3874" d="M91.434 19.446c-.079-2.195 1.825-3.835 3.556-4.84 3.016-1.749 6.677-2.86 10.134-3.294l.105-.01c-1.416.706-2.707 2.08-3.395 3.56l-.075.047c-2.45-.661-6.063 2.044-6.368 4.343-.02.153-.023.3-.017.445-1.021.734-1.85 1.56-2.132 2.409-1.01-.488-1.762-1.355-1.808-2.66m21.19-7.913c.621.33 1.225.68 1.809 1.051-.31-.018-.62-.027-.933-.026-.412-.477-1.195-.677-1.766-.313l-.004.003c-.25-.386-.678-.668-1.122-.597-.386.062-.773.13-1.153.212-.158-.202-.358-.394-.621-.566-.102-.067-.205-.125-.31-.177 1.377.014 2.75.143 4.1.413m-.93-3.544c-.375.186-.57.457-.638.75-1.695-.186-3.41-.2-5.112-.035-5.635.544-15.438 2.873-16.814 9.416-.556 2.643.706 5.15 3.19 6.267 3.17 1.423 6.681.081 9.679-1.118 5.084-2.036 10.888-4.754 16.082-4.082 5.252 1.478 3.683 2.711 5.819 3.71.404.19.785.188 1.103.066.15.171.302.341.45.526.32.399 1.005.138.847-.397-.12-.403-.281-.778-.462-1.138.07-.323.038-.68-.138-1.023-.199-.387-.407-.765-.622-1.139.963.316 2.298-.568 1.823-1.7-2.51-5.989-7.545-13.893-15.207-10.103" transform="translate(-15)"/>
                <path fill="#31306E" d="M140.053 38.92c-6.112-3.43-8.52-11.155-10.999-17.223-2.063-5.048-5.171-10.52-9.834-13.154-1.356-.936-2.872-1.508-4.547-1.508-.482-.058-.979-.088-1.487-.088-.625 0-1.27.045-1.935.14l-.038.003c-.258 0-.29-.408-.047-.494 1.162-.41 2.31-.596 3.432-.596 5.432 0 10.237 4.373 12.939 8.97 2.14 3.64 3.478 7.67 5.146 11.53 1.977 4.579 4.345 8.084 8.106 11.36.47.41.08 1.14-.44 1.14-.095 0-.196-.025-.296-.08z" transform="translate(-15)"/>
                <path fill="#6E304F" d="M119 8c-1.21-.516-2.54-.868-4-1 1.474 0 2.807.38 4 1" transform="translate(-15)"/>
                <path fill="#EFBE9A" fill-rule="nonzero" d="M122.276 38.549c-.02.113.082.267.187.257.176-.017.34-.065.5-.124-.043.231-.071.47-.069.725.001.08.014.16.03.239-.585-.271-1.162-.407-1.714-.118-.142.075-.236.332-.204.522.348 2.067 3.215 2.94 4.666 2.95 1.595.011 3.122-1.221 3.306-3.137.448-4.67-6.013-5.102-6.702-1.314" transform="translate(-15)"/>
                <path fill="#BCAAB8" d="M28.189 109L28.811 109 28.811 105 28.189 105zM37.19 109L37.81 109 37.81 105 37.19 105z" transform="translate(-15)"/>
                <path fill="orange" d="M124.98 89c-.227 0-.454-.12-.548-.394-1.429-4.181-2.13-8.824-.46-13.044 1.129-2.852 3.416-5.85 6.636-6.553.03-.006.056-.009.083-.009.303 0 .432.391.161.57-2.928 1.946-5.112 3.991-6.03 7.449-.995 3.75-.223 7.618.728 11.288.11.424-.23.693-.57.693" transform="translate(-15)"/>
                <path fill="#5A2B44" d="M83.59 106c-.815-2.166-.785-4.68.088-7.256.427-1.259.871-2.504 1.322-3.744l-.137.84c-1.097 3.207-1.533 6.695-1.273 10.16" transform="translate(-15)"/>
                <path fill="orange" d="M116.59 115c-1.476 0-3.018-.62-4.362-1.155-2.995-1.192-5.783-1.857-8.982-1.857-.216 0-.435.003-.656.01-2.29.063-4.712.3-7.104.3-3.21 0-6.366-.426-9.084-2.263-1.55-1.046-2.652-2.321-3.311-3.746-.323-3.5.218-7.022 1.58-10.262l.17-.848c2.06-4.608 4.221-9.131 5.782-13.989.043-.132.15-.19.256-.19.161 0 .322.131.269.335-1.31 4.961-2.944 9.814-5.116 14.468-1.164 2.494-2.853 5.123-2.444 7.985.393 2.757 2.597 4.848 5.055 5.931 2.103.928 4.323 1.184 6.582 1.184 1.4 0 2.815-.099 4.226-.197 1.411-.1 2.818-.198 4.202-.198.433 0 .864.01 1.292.032 2.245.117 4.339.598 6.425 1.432 2.523 1.01 4.485 1.488 7.199 1.616.433.02.597.581.221.816-.69.43-1.437.596-2.2.596" transform="translate(-15)"/>
                <path fill="#38193A" d="M89.116 139.733c.254-.159.51-.315.768-.466-.119.173-.357.327-.735.456l-.033.01" transform="translate(-15)"/>
                <path fill="orange" d="M89.191 140c-.195 0-.265-.283-.094-.397.241-.159.486-.313.732-.461l.023-.007c.258-.084.42-.184.502-.297 5.593-3.137 12.499-3.603 18.859-3.604h.017c2.017 0 4.034.061 6.049.143.798.033 2.33.303 3.656.303.89 0 1.69-.122 2.115-.518.52-.484.691-2.335.877-2.962l.877-2.962c.589-1.993 1.292-3.91 2.052-5.847.106-.271.334-.391.558-.391.333 0 .659.263.572.688-.484 2.367-1.061 4.673-1.748 6.991-.444 1.503-.75 4.488-1.813 5.74-.696.824-1.902 1.064-3.22 1.064-1.718 0-3.63-.409-4.858-.467-1.562-.075-3.105-.115-4.634-.115-6.986 0-13.672.839-20.446 3.086-.027.01-.052.013-.076.013" transform="translate(-15)"/>
                <path fill="#EFBE9A" fill-rule="nonzero" d="M57 158c.17-.342.34-.717.506-1.119.669-.282 1.316-.643 1.926-1.107-.036.096-.072.196-.108.301-.11.333-1.628 1.335-2.324 1.925m3.053-9.368l.098-.395c.458-.028 1.032-.11 1.696-.237l.153.318c-.173.036-.341.07-.503.1-.55.105-1.036.178-1.444.214" transform="translate(-15)"/>
                <path fill="orange" d="M57.749 160c-.454-.287-.738-.737-.749-1.416.043-.085.087-.172.13-.262.723-.628 2.296-1.697 2.411-2.051.037-.112.074-.22.112-.322.513-.401 1-.875 1.454-1.433.044-.055 1.044-1.856.37-2.724.953-.424 1.47-.876 1.47-1.346 0-.646-.975-1.26-2.724-1.81l.074-.3c.423-.04.928-.118 1.498-.229.168-.033.342-.069.522-.107L66 155.858s-5.295 2.89-8.251 4.142" transform="translate(-15)"/>
                <path fill="#F79976" d="M58 157c.685-1.755 1.33-3.955 1.867-6 .35.013.706.044 1.067.099.406.062.67.223.836.443.666.888-.321 2.73-.364 2.785-.448.571-.929 1.055-1.435 1.465-.624.507-1.286.9-1.971 1.208" transform="translate(-15)"/>
                <path fill="#843957" d="M30.76 109.001c-.457-.933-1.415-1.14-2.337-.921-1.604.381-3.171.62-4.783.935-.95.185-.75 1.498 0 1.785.937.357 1.929.375 2.925.319.304-.017 1.115-.16 1.683-.266-.128 1.033-.63 2.266-.746 3.135-.207 1.553-.23 3.09-.093 4.653.159 1.807 2.925 1.817 2.755 0-.175-1.88-.14-3.74.25-5.591.258-1.226.948-2.82.346-4.049M37.867 116.197c-1.77.012-2.333-2.626-2.323-3.921.002-.37.015-.758.076-1.135.282-.089.54-.263.712-.53 1.295-2.026 2.84.835 2.958 2.149.08.893-.217 3.429-1.423 3.437zm3.285-6.515c-.776-1.385-2.17-2.601-3.772-2.678-.997-.048-1.912.317-2.545.97-1.15.815-1.601 2.384-1.76 3.774-.218 1.923-.018 3.87 1.327 5.33 1.125 1.22 2.99 2.404 4.649 1.722 3.208-1.32 3.617-6.411 2.1-9.118z" transform="translate(-15)"/>
                <path fill="#F27E65" d="M28.023 103.208c-.062-.13-.227-.23-.39-.244-.019-.27-.073-.538-.159-.807-.075-.236-.555-.198-.516.06.113.73-.08 1.309-.444 1.962-.225.403-.465.777-.508 1.233-.069.73.422 1.456 1.318 1.574.802.106 1.435-.41 1.617-1.048.28-.984-.507-1.874-.918-2.73M38.023 102.208c-.062-.13-.227-.23-.39-.244-.019-.27-.073-.538-.159-.807-.075-.236-.555-.198-.516.06.113.73-.08 1.309-.444 1.962-.225.403-.465.777-.508 1.233-.069.73.422 1.456 1.318 1.574.802.106 1.435-.41 1.617-1.048.28-.984-.507-1.874-.918-2.73M26.977 125.527c-.112-.312-.332-.5-.652-.526-.374-.03-.453.601-.088.687.056.014.027-.01.038.042.101.485.867.255.702-.203M34.722 122.129c-.262-.093-.455-.17-.744-.105-.223.05-.443.127-.661.19-.477.137-.398.758.119.77.246.006.498.025.743.011.302-.017.482-.171.706-.328.241-.168.062-.459-.163-.538M38.932 126.192c-.105-.132-.373-.236-.58-.173-.276.083-.552.212-.856.226-.66.03-.663.724 0 .752.485.02 1.035-.066 1.356-.35.148-.13.203-.302.08-.455M43.928 120.91c-.06-.239-.182-.469-.273-.69-.186-.454-.746-.139-.642.344.048.224.082.467.154.681.07.213.208.397.317.58.074.128.184.207.312.162.109-.038.215-.187.203-.339-.02-.237-.015-.51-.071-.739M47.723 126.067c-.428-.128-.749-.047-1.18.03l-1.128.203c-.728.13-.417.773.308.693l1.09-.12c.374-.042.775-.042 1.027-.241.21-.167.253-.453-.117-.565M51.45 121.023c-.308.123-.492.352-.714.59-.204.219-.41.438-.613.658-.378.404.201.984.606.607l.658-.615c.237-.22.467-.405.59-.712.116-.29-.237-.645-.527-.528M55.72 123.066c-.133-.022-.266-.042-.4-.063-.426-.067-.427 1.06 0 .994l.4-.063c.373-.059.373-.81 0-.868" transform="translate(-15)"/>
            </g>
        </g>
    </g>
</svg>
